<?xml version="1.0" encoding="UTF-8" standalone="no"?>
<!-- Created with Inkscape (http://www.inkscape.org/) -->

<svg
   width="639.03149"
   height="191.084"
   viewBox="0 0 639.0315 191.084"
   version="1.1"
   id="svg1"
   inkscape:version="1.4 (86a8ad7, 2024-10-11)"
   sodipodi:docname="bots_vuln.svg"
   xml:space="preserve"
   xmlns:inkscape="http://www.inkscape.org/namespaces/inkscape"
   xmlns:sodipodi="http://sodipodi.sourceforge.net/DTD/sodipodi-0.dtd"
   xmlns="http://www.w3.org/2000/svg"
   xmlns:svg="http://www.w3.org/2000/svg"><sodipodi:namedview
     id="namedview1"
     pagecolor="#ffffff"
     bordercolor="#000000"
     borderopacity="0.25"
     inkscape:showpageshadow="2"
     inkscape:pageopacity="0.0"
     inkscape:pagecheckerboard="0"
     inkscape:deskcolor="#d1d1d1"
     inkscape:document-units="px"
     inkscape:zoom="0.59999764"
     inkscape:cx="413.33496"
     inkscape:cy="483.33523"
     inkscape:window-width="1800"
     inkscape:window-height="1023"
     inkscape:window-x="0"
     inkscape:window-y="44"
     inkscape:window-maximized="1"
     inkscape:current-layer="layer3"
     showgrid="true"
     showguides="true"><inkscape:grid
       id="grid1"
       units="px"
       originx="-111.42591"
       originy="-486.5"
       spacingx="37.5"
       spacingy="37.5"
       empcolor="#0099e5"
       empopacity="0.30196078"
       color="#0099e5"
       opacity="0.14901961"
       empspacing="4"
       dotted="false"
       gridanglex="30"
       gridanglez="30"
       visible="true" /><inkscape:grid
       id="grid72"
       units="px"
       originx="-111.42591"
       originy="-486.5"
       spacingx="9.375"
       spacingy="9.375"
       empcolor="#3f3fff"
       empopacity="0.25098039"
       color="#3f3fff"
       opacity="0.1254902"
       empspacing="4"
       enabled="true"
       visible="true" /></sodipodi:namedview><defs
     id="defs1"><inkscape:path-effect
       effect="envelope"
       id="path-effect381"
       is_visible="true"
       lpeversion="1"
       yy="true"
       xx="true"
       bendpath1="M 579.3883,375.13663 763.01306,317.86098"
       bendpath2="m 758.06331,377.96506 2.12132,16.08"
       bendpath3="m 564.53906,441.42121 h 198.474"
       bendpath4="M 564.53906,317.86098 V 441.42121"
       bendpath1-nodetypes="cc"
       bendpath2-nodetypes="cc" /><inkscape:path-effect
       effect="rough_hatches"
       id="path-effect307"
       is_visible="true"
       lpeversion="1.2"
       direction="402.5,411.125 , 27.875,0"
       dist_rdm="75;1"
       growth="0"
       do_bend="true"
       bender="402.5,416.125 , 5,0"
       bottom_edge_variation="6.925;1"
       top_edge_variation="6.925;1"
       bottom_tgt_variation="0;1"
       top_tgt_variation="0;1"
       scale_bf="1"
       scale_bb="1"
       scale_tf="1"
       scale_tb="1"
       top_smth_variation="0;1"
       bottom_smth_variation="0;1"
       fat_output="true"
       stroke_width_top="1"
       stroke_width_bottom="1"
       front_thickness="1"
       back_thickness="0.25" /><radialGradient
       id="lorc-metal-bar-gradient-1"
       gradientTransform="matrix(1.1843865,0,0,0.84431895,-129.688,74.317)"
       cx="215.29079"
       cy="299.64386"
       fx="215.29079"
       fy="299.64386"
       r="198.16208"
       gradientUnits="userSpaceOnUse"><stop
         offset="0%"
         stop-color="#d0021b"
         stop-opacity="1"
         id="stop1-4" /><stop
         offset="100%"
         stop-color="#d0021b"
         stop-opacity="1"
         id="stop2-9" /></radialGradient><radialGradient
       id="lorc-metal-bar-gradient-1-4"
       gradientTransform="matrix(1.1843865,0,0,0.84431895,-129.688,74.317)"
       cx="215.29079"
       cy="299.64386"
       fx="215.29079"
       fy="299.64386"
       r="198.16208"
       gradientUnits="userSpaceOnUse"><stop
         offset="0%"
         stop-color="#d0021b"
         stop-opacity="1"
         id="stop1-4-8" /><stop
         offset="100%"
         stop-color="#d0021b"
         stop-opacity="1"
         id="stop2-9-8" /></radialGradient><radialGradient
       id="lord-berandas-amplitude-gradient-1"
       gradientTransform="matrix(1.164719,0,0,0.8585762,684.9945,430.0055)"
       cx="218.94165"
       cy="296.99692"
       fx="218.94165"
       fy="296.99692"
       r="205.09711"
       gradientUnits="userSpaceOnUse"><stop
         offset="0%"
         stop-color="#f56666"
         stop-opacity="1"
         id="stop1" /><stop
         offset="100%"
         stop-color="#530000"
         stop-opacity="1"
         id="stop2" /></radialGradient><radialGradient
       id="lord-berandas-amplitude-gradient-2"><stop
         offset="0%"
         stop-color="#f56666"
         stop-opacity="1"
         id="stop3" /><stop
         offset="100%"
         stop-color="#530000"
         stop-opacity="1"
         id="stop4" /></radialGradient><radialGradient
       id="lord-berandas-amplitude-gradient-7"><stop
         offset="0%"
         stop-color="#f56666"
         stop-opacity="1"
         id="stop5" /><stop
         offset="100%"
         stop-color="#530000"
         stop-opacity="1"
         id="stop6" /></radialGradient></defs><g
     inkscape:groupmode="layer"
     id="layer3"
     inkscape:label="Bots Vuln"
     style="display:inline"
     transform="translate(-111.4259,-486.49999)"><path
       d="m 132.21915,489.5 c 24.00212,25.23376 37.40412,58.71708 37.44141,93.54297 -0.14359,34.87949 -13.689,68.36924 -37.83398,93.54102 h 133.79493 480.248 c 1.9873,0 3.5879,-1.5986 3.5879,-3.58594 V 493.08789 c 0,-1.98734 -1.6006,-3.58789 -3.5879,-3.58789 h -480.248 z"
       style="display:inline;opacity:1;vector-effect:none;fill:#000000;stroke:#000000;stroke-width:2.00001;stroke-linecap:round;stroke-linejoin:round;paint-order:fill markers stroke;stop-color:#000000;stop-opacity:1"
       id="path282" /><path
       d="m 114.21915,487.5 c 24.00212,25.23376 37.40412,58.71708 37.44141,93.54297 -0.14359,34.87949 -13.689,68.36924 -37.83398,93.54102 h 149.79493 480.248 c 1.9873,0 3.5879,-1.5986 3.5879,-3.58594 V 491.08789 c 0,-1.98734 -1.6006,-3.58789 -3.5879,-3.58789 h -480.248 z"
       style="display:inline;opacity:1;vector-effect:none;fill:#e6e6e6;stroke:#000000;stroke-width:2.00001;stroke-linecap:round;stroke-linejoin:round;paint-order:fill markers stroke;stop-color:#000000;stop-opacity:1"
       id="path257"
       sodipodi:nodetypes="ccccsssscc" /><path
       d="m 126.9359,513.42831 a 56.007369,119.6914 0 0 1 9.4593,66.51023 56.007369,119.6914 0 0 1 -9.5942,66.53079 56.007369,90.621831 0 0 0 18.1207,-66.53079 56.007369,90.621831 0 0 0 -17.9858,-66.51023 z"
       style="display:inline;vector-effect:none;fill:#000000;stroke:none;stroke-width:0.999996;stroke-linecap:round;stroke-linejoin:round;paint-order:fill markers stroke"
       id="path279-1" /><path
       d="m 120.6872,531.64612 a 39.265497,83.912927 0 0 1 6.6317,46.62882 39.265497,83.912927 0 0 1 -6.7262,46.64323 39.265497,63.532911 0 0 0 12.704,-46.64323 39.265497,63.532911 0 0 0 -12.6095,-46.62882 z"
       style="display:inline;vector-effect:none;fill:#000000;stroke:none;stroke-width:0.999996;stroke-linecap:round;stroke-linejoin:round;paint-order:fill markers stroke"
       id="path280-2" /><path
       d="m 111.4802,551.53061 a 22.523622,48.134449 0 0 1 3.8041,26.7474 22.523622,48.134449 0 0 1 -3.8584,26.75567 22.523622,36.443987 0 0 0 7.2874,-26.75567 22.523622,36.443987 0 0 0 -7.2331,-26.7474 z"
       style="display:inline;vector-effect:none;fill:#000000;stroke:none;stroke-width:0.999998;stroke-linecap:round;stroke-linejoin:round;paint-order:fill markers stroke"
       id="path281-0" /><g
       id="g400"
       transform="translate(-1133.4922,-237.58788)"><rect
         style="font-variation-settings:normal;display:inline;vector-effect:none;fill:#000000;fill-opacity:1;stroke:#000000;stroke-width:2.00001;stroke-linecap:round;stroke-linejoin:round;stroke-miterlimit:4;stroke-dasharray:none;stroke-dashoffset:0;stroke-opacity:1;-inkscape-stroke:none;paint-order:fill markers stroke;stop-color:#000000"
         id="rect398-1"
         width="90.625"
         height="44"
         x="1299.3545"
         y="859"
         rx="7.7781749"
         ry="7.7781744" /><path
         d="m 1367.2032,862.02084 c -0.2539,0 -0.3831,0.30324 -0.438,0.45232 -0.055,0.14908 -0.075,0.25325 -0.095,0.35467 -0.039,0.20294 -0.063,0.39571 -0.088,0.6296 -0.05,0.46781 -0.096,1.07828 -0.1419,1.81836 -0.092,1.48018 -0.1829,3.46122 -0.2636,5.55528 -0.1611,4.18814 -0.2817,8.77773 -0.2817,10.66421 0,1.71131 -0.1187,5.07199 -0.2775,7.94562 -0.01,0.14753 -0.017,0.27316 -0.026,0.41805 -0.01,-0.11136 -0.014,-0.20649 -0.02,-0.31963 -0.1588,-2.83913 -0.2774,-6.19383 -0.2774,-8.04404 v -0.41251 -0.0108 c -0.014,-2.03711 -0.1259,-5.1171 -0.2783,-7.8399 -0.081,-1.44986 -0.172,-2.77808 -0.2667,-3.77783 -0.048,-0.50011 -0.094,-0.91261 -0.1507,-1.25854 -0.029,-0.17298 -0.056,-0.32659 -0.1114,-0.51094 -0.028,-0.092 -0.061,-0.19598 -0.131,-0.31762 -0.07,-0.12166 -0.1977,-0.27716 -0.3643,-0.27716 -0.1709,0 -0.3002,0.16257 -0.3693,0.28667 -0.069,0.12382 -0.1018,0.22837 -0.1289,0.32093 -0.054,0.18524 -0.081,0.3403 -0.1094,0.51581 -0.056,0.35112 -0.1025,0.77193 -0.1499,1.28176 -0.095,1.01933 -0.1854,2.37188 -0.2664,3.83756 -0.1621,2.93181 -0.2835,6.27567 -0.2835,8.16193 0,1.71131 -0.1174,4.03774 -0.2736,5.88684 -0.01,0.11773 -0.021,0.21256 -0.031,0.32625 -0.01,-0.0811 -0.015,-0.1462 -0.023,-0.22948 -0.1558,-1.8126 -0.2733,-4.13338 -0.2735,-5.98382 0,-2.01301 -0.1223,-4.39383 -0.2874,-6.31671 -0.083,-0.96138 -0.1747,-1.80155 -0.2766,-2.45371 -0.051,-0.32603 -0.101,-0.60129 -0.1743,-0.8655 -0.037,-0.13209 -0.077,-0.26431 -0.1531,-0.41251 -0.076,-0.14819 -0.2141,-0.3497 -0.4159,-0.3497 -0.2104,0 -0.3491,0.21633 -0.4237,0.36829 -0.075,0.15195 -0.1138,0.28565 -0.1495,0.42024 -0.072,0.26874 -0.1213,0.55097 -0.1718,0.88585 -0.1009,0.66975 -0.1927,1.53303 -0.2751,2.50957 -0.1649,1.95304 -0.2874,4.32824 -0.2874,6.21452 0,1.71129 -0.1166,3.37715 -0.2656,4.5637 -0.016,0.13019 -0.034,0.22925 -0.051,0.34726 -0.05,-0.31486 -0.096,-0.66412 -0.1287,-1.08237 -0.099,-1.25467 -0.1252,-2.84809 -0.1504,-4.42182 -0.025,-1.57372 -0.048,-3.12257 -0.1666,-4.40987 -0.06,-0.64364 -0.1397,-1.22757 -0.292,-1.75068 -0.1525,-0.52309 -0.422,-1.01711 -0.7675,-1.13622 l -0.043,-0.0148 h -0.044 c -0.2576,0 -0.4096,0.27516 -0.503,0.48153 -0.093,0.20625 -0.1538,0.41616 -0.2117,0.65094 -0.116,0.46947 -0.2116,1.04401 -0.2974,1.72857 -0.1719,1.36846 -0.2953,3.15697 -0.2953,5.04324 h 1.0072 c 0,-1.7112 0.1166,-3.37706 0.2657,-4.56372 0.035,-0.27757 0.072,-0.52377 0.1085,-0.74097 0.03,0.18636 0.058,0.40744 0.081,0.66024 0.096,1.03924 0.1253,2.54274 0.1505,4.1146 0.025,1.57185 0.048,3.21745 0.1617,4.66368 0.1134,1.44621 0.2845,2.78636 0.8467,3.58386 l 0.1315,0.1869 h 0.162 c 0.2576,0 0.4097,-0.27517 0.5031,-0.48153 0.093,-0.20647 0.1538,-0.41637 0.2118,-0.65116 0.1159,-0.46947 0.2112,-1.044 0.2972,-1.72834 0.1719,-1.36858 0.2954,-3.15719 0.2954,-5.04345 0,-1.71143 0.1175,-4.03774 0.2735,-5.88684 0.01,-0.11773 0.021,-0.21234 0.031,-0.32603 0.01,0.081 0.015,0.14599 0.023,0.22926 0.1557,1.81262 0.2733,4.1334 0.2733,5.98339 10e-5,2.01332 0.1225,4.39416 0.2878,6.31703 0.082,0.9616 0.1744,1.80189 0.2763,2.45404 0.051,0.32592 0.1011,0.60119 0.1744,0.86539 0.037,0.13209 0.077,0.26453 0.1533,0.41251 0.076,0.14819 0.214,0.3497 0.4158,0.3497 0.2105,0 0.3491,-0.21633 0.4238,-0.36828 0.075,-0.15196 0.1135,-0.28566 0.1494,-0.42025 0.072,-0.26874 0.1211,-0.55097 0.1717,-0.88585 0.101,-0.66975 0.1928,-1.53303 0.2753,-2.50955 0.1648,-1.95308 0.2872,-4.32826 0.2872,-6.21452 0,-1.71131 0.1187,-5.07199 0.2776,-7.94563 0.01,-0.14742 0.017,-0.27315 0.026,-0.41804 0.01,0.11163 0.014,0.20681 0.02,0.31984 0.1588,2.83912 0.2775,6.19383 0.2775,8.04383 v 0.4125 l 0.01,0.0108 c 0.014,2.03734 0.1259,5.11734 0.2782,7.84022 0.081,1.44987 0.172,2.7781 0.2668,3.77785 0.047,0.49987 0.094,0.91217 0.1507,1.25821 0.028,0.17298 0.056,0.32658 0.1112,0.51094 0.028,0.092 0.061,0.19618 0.131,0.31784 0.07,0.12165 0.1977,0.27692 0.3643,0.27692 0.1709,0 0.3002,-0.16257 0.3693,-0.28665 0.069,-0.12382 0.1019,-0.22838 0.1289,-0.32094 0.054,-0.18524 0.081,-0.34029 0.1094,-0.51581 0.056,-0.35113 0.1027,-0.77215 0.1499,-1.28175 0.095,-1.01933 0.1855,-2.37188 0.2665,-3.83756 0.162,-2.93181 0.2833,-6.27569 0.2833,-8.16195 0,-1.71142 0.1194,-6.36127 0.2791,-10.51325 0.01,-0.19241 0.016,-0.3614 0.023,-0.55153 0.01,0.1565 0.014,0.29442 0.019,0.45255 0.1599,4.11824 0.2791,8.76191 0.2791,10.61191 0,2.01332 0.1208,6.60899 0.2821,10.7644 0.081,2.0777 0.1711,4.03396 0.2635,5.494 0.046,0.72991 0.092,1.33154 0.142,1.79348 0.025,0.2308 0.049,0.42136 0.088,0.62341 0.02,0.10106 0.041,0.20538 0.096,0.3539 0.056,0.14841 0.1857,0.44491 0.4355,0.44491 0.2539,0 0.383,-0.30325 0.4379,-0.45232 0.055,-0.14908 0.075,-0.25326 0.095,-0.35468 0.039,-0.20294 0.063,-0.39569 0.088,-0.6296 0.05,-0.4678 0.096,-1.07826 0.1416,-1.81836 0.092,-1.48017 0.183,-3.4611 0.2636,-5.55506 0.1611,-4.18813 0.2818,-8.7775 0.2818,-10.66376 0,-1.71142 0.1193,-6.36127 0.2791,-10.51347 0.01,-0.19187 0.016,-0.36052 0.023,-0.54998 0.01,0.15594 0.014,0.29352 0.019,0.45122 0.1597,4.11824 0.2788,8.76225 0.2788,10.61212 v 0.99533 h 0.018 c 0.023,2.26295 0.1208,6.06489 0.2644,9.76863 0.081,2.0777 0.1712,4.03397 0.2636,5.49402 0.046,0.7299 0.092,1.3313 0.1421,1.79325 0.025,0.23092 0.049,0.42158 0.089,0.62374 0.02,0.10106 0.041,0.20538 0.096,0.35388 0.056,0.14843 0.1859,0.44493 0.4355,0.44493 0.254,0 0.3832,-0.30346 0.4381,-0.45255 0.055,-0.14907 0.075,-0.25324 0.095,-0.35466 0.039,-0.20283 0.063,-0.39549 0.088,-0.62928 0.05,-0.4678 0.096,-1.07826 0.1419,-1.81836 0.092,-1.48017 0.1827,-3.4611 0.2633,-5.55506 0.1612,-4.18791 0.282,-8.77772 0.282,-10.66376 0,-1.71142 0.1186,-5.0722 0.2775,-7.94584 0.01,-0.14742 0.017,-0.27315 0.026,-0.41804 0.01,0.11163 0.014,0.20681 0.02,0.31984 0.1588,2.8389 0.2775,6.19361 0.2775,8.04382 0,2.01322 0.1214,5.36318 0.2835,8.26291 0.081,1.44987 0.172,2.77808 0.2668,3.77784 0.048,0.49987 0.094,0.91239 0.1507,1.25822 0.028,0.17296 0.056,0.32657 0.1113,0.51094 0.028,0.092 0.061,0.19596 0.131,0.3176 0.07,0.12166 0.1977,0.27715 0.3642,0.27715 0.1709,0 0.3003,-0.16256 0.3693,-0.28666 0.069,-0.12382 0.1019,-0.22837 0.129,-0.32092 0.054,-0.18525 0.081,-0.3403 0.1093,-0.51582 0.056,-0.35114 0.1027,-0.77215 0.15,-1.28176 0.095,-1.01932 0.1855,-2.37187 0.2665,-3.83755 0.1621,-2.93181 0.2835,-6.27569 0.2835,-8.16195 0,-1.71143 0.1174,-4.03773 0.2736,-5.88683 0.01,-0.11719 0.021,-0.21201 0.031,-0.32537 0.01,0.0807 0.015,0.14566 0.022,0.22849 0.1557,1.81262 0.2733,4.1335 0.2733,5.98371 0,2.01334 0.1226,4.39417 0.2877,6.31704 0.083,0.96161 0.1746,1.80189 0.2765,2.45404 0.051,0.32581 0.101,0.60097 0.1744,0.86517 0.037,0.13209 0.077,0.26431 0.1531,0.4125 0.076,0.14821 0.2142,0.3497 0.416,0.3497 0.2106,0 0.3493,-0.21632 0.4238,-0.36827 0.075,-0.15196 0.1136,-0.28566 0.1494,-0.42025 0.072,-0.26874 0.1213,-0.55098 0.1718,-0.88584 0.101,-0.66975 0.1927,-1.53304 0.2751,-2.50956 0.1649,-1.95308 0.2874,-4.32827 0.2874,-6.21453 0,-1.7113 0.1166,-3.37727 0.2657,-4.56393 0.014,-0.10594 0.028,-0.18469 0.042,-0.28266 0.01,0.0677 0.02,0.11718 0.029,0.1891 0.1478,1.14573 0.2649,2.80728 0.2649,4.65749 0,2.01322 0.1229,3.80615 0.296,5.14918 0.087,0.67131 0.183,1.22625 0.302,1.68079 0.06,0.22726 0.1223,0.43165 0.2187,0.62982 0.096,0.19818 0.2506,0.44435 0.4908,0.44435 0.2576,0 0.4097,-0.27514 0.503,-0.48151 0.093,-0.20648 0.1539,-0.41616 0.2118,-0.65094 0.116,-0.46947 0.2113,-1.04433 0.2973,-1.72857 0.1719,-1.36857 0.2954,-3.15719 0.2954,-5.04344 h -1.0071 c 0,1.71129 -0.1167,3.37726 -0.2658,4.56392 -0.013,0.10594 -0.028,0.18424 -0.041,0.28223 -0.01,-0.0675 -0.019,-0.11718 -0.029,-0.18878 -0.1479,-1.14573 -0.265,-2.80684 -0.265,-4.65705 0,-2.01322 -0.1228,-3.80659 -0.2961,-5.14941 -0.087,-0.6713 -0.183,-1.22646 -0.302,-1.681 -0.059,-0.22727 -0.1224,-0.43163 -0.2187,-0.62982 -0.096,-0.19818 -0.2507,-0.44437 -0.4908,-0.44437 -0.2576,0 -0.4097,0.27516 -0.5031,0.48153 -0.093,0.20648 -0.1538,0.41638 -0.2117,0.65117 -0.116,0.46946 -0.2113,1.04399 -0.2973,1.72833 -0.1719,1.36858 -0.2954,3.15741 -0.2954,5.04368 0,1.71131 -0.1175,4.03773 -0.2735,5.88684 -0.01,0.11745 -0.021,0.21211 -0.031,0.32558 -0.01,-0.0807 -0.015,-0.14566 -0.022,-0.2286 -0.1557,-1.81283 -0.2734,-4.13372 -0.2735,-5.98414 0,-2.01312 -0.1224,-4.39385 -0.2877,-6.31671 -0.082,-0.96149 -0.1745,-1.80177 -0.2764,-2.45383 -0.051,-0.32603 -0.1009,-0.60129 -0.1743,-0.86549 -0.037,-0.13222 -0.077,-0.26465 -0.1533,-0.41252 -0.076,-0.14818 -0.2141,-0.34981 -0.4158,-0.34981 -0.2106,0 -0.3492,0.21644 -0.4239,0.36851 -0.075,0.15184 -0.1135,0.28555 -0.1494,0.41991 -0.072,0.26874 -0.1211,0.55098 -0.1715,0.88585 -0.101,0.66975 -0.1928,1.53303 -0.2752,2.50955 -0.1649,1.95285 -0.2874,4.32805 -0.2874,6.21443 0,1.71129 -0.1185,5.07199 -0.2774,7.94561 -0.01,0.14775 -0.017,0.27372 -0.026,0.41882 -0.01,-0.11163 -0.014,-0.20704 -0.02,-0.32039 -0.1588,-2.83891 -0.2774,-6.19372 -0.2775,-8.04404 0,-2.01312 -0.1214,-5.36308 -0.2835,-8.2627 -0.081,-1.44987 -0.1719,-2.77807 -0.2667,-3.77783 -0.047,-0.49989 -0.094,-0.91239 -0.1507,-1.25832 -0.028,-0.17296 -0.056,-0.32647 -0.1113,-0.51061 -0.028,-0.0921 -0.061,-0.1963 -0.1309,-0.31795 -0.07,-0.12166 -0.1978,-0.27714 -0.3644,-0.27714 -0.1708,0 -0.3002,0.16257 -0.3693,0.28665 -0.069,0.12382 -0.1019,0.22836 -0.1289,0.32093 -0.054,0.18525 -0.081,0.3403 -0.1094,0.51581 -0.056,0.35112 -0.1027,0.77194 -0.1499,1.28177 -0.095,1.01932 -0.1855,2.37165 -0.2665,3.83755 -0.1622,2.93147 -0.2835,6.27557 -0.2835,8.16195 0,1.71118 -0.1192,6.36083 -0.279,10.51268 -0.01,0.19188 -0.016,0.36053 -0.023,0.5502 -0.01,-0.15595 -0.014,-0.2934 -0.019,-0.45099 -0.1598,-4.11813 -0.2791,-8.76179 -0.2791,-10.612 v -0.99534 h -0.018 c -0.023,-2.26272 -0.1207,-6.06511 -0.2643,-9.76885 -0.081,-2.0777 -0.1713,-4.03408 -0.2636,-5.49423 -0.046,-0.72991 -0.092,-1.33154 -0.1421,-1.79348 -0.025,-0.23091 -0.048,-0.42158 -0.088,-0.62374 -0.02,-0.10107 -0.041,-0.20537 -0.096,-0.35389 -0.056,-0.1482 -0.1858,-0.44459 -0.4352,-0.44491 h -5e-4 c -0.2539,0 -0.3831,0.30357 -0.4379,0.45254 -0.055,0.14909 -0.075,0.25325 -0.095,0.35467 -0.039,0.20305 -0.063,0.39569 -0.088,0.62949 -0.05,0.46781 -0.096,1.07828 -0.1417,1.81836 -0.092,1.48016 -0.183,3.46109 -0.2635,5.55505 -0.1612,4.18814 -0.282,8.77795 -0.282,10.66444 0,1.71129 -0.1192,6.36083 -0.279,10.51268 -0.01,0.19156 -0.016,0.35987 -0.023,0.54909 -0.01,-0.15572 -0.014,-0.29284 -0.019,-0.45012 -0.1598,-4.11812 -0.279,-8.76178 -0.279,-10.6121 0,-2.01301 -0.1207,-6.60868 -0.282,-10.76417 -0.081,-2.0777 -0.1713,-4.0341 -0.2637,-5.49424 -0.046,-0.72992 -0.092,-1.33153 -0.142,-1.79348 -0.025,-0.23081 -0.048,-0.42136 -0.088,-0.62341 -0.02,-0.10107 -0.04,-0.20537 -0.096,-0.35389 -0.056,-0.14843 -0.1858,-0.44491 -0.4355,-0.44491 z"
         fill="url(#lord-berandas-amplitude-gradient-1)"
         id="path6-4-6"
         style="fill:#f9f9f9;stroke-width:1" /></g></g></svg>
