<?xml version="1.0" encoding="UTF-8" standalone="no"?>
<!-- Created with Inkscape (http://www.inkscape.org/) -->

<svg
   width="677.875"
   height="225"
   viewBox="0 0 677.875 224.99999"
   version="1.1"
   id="svg1"
   inkscape:version="1.4 (86a8ad7, 2024-10-11)"
   sodipodi:docname="bots_standalone.svg"
   xml:space="preserve"
   xmlns:inkscape="http://www.inkscape.org/namespaces/inkscape"
   xmlns:sodipodi="http://sodipodi.sourceforge.net/DTD/sodipodi-0.dtd"
   xmlns="http://www.w3.org/2000/svg"
   xmlns:svg="http://www.w3.org/2000/svg"><sodipodi:namedview
     id="namedview1"
     pagecolor="#ffffff"
     bordercolor="#000000"
     borderopacity="0.25"
     inkscape:showpageshadow="2"
     inkscape:pageopacity="0.0"
     inkscape:pagecheckerboard="0"
     inkscape:deskcolor="#d1d1d1"
     inkscape:document-units="px"
     inkscape:zoom="0.59999764"
     inkscape:cx="413.33496"
     inkscape:cy="483.33523"
     inkscape:window-width="1800"
     inkscape:window-height="1023"
     inkscape:window-x="0"
     inkscape:window-y="44"
     inkscape:window-maximized="1"
     inkscape:current-layer="layer2"
     showgrid="false"
     showguides="true"><inkscape:grid
       id="grid1"
       units="px"
       originx="0"
       originy="0"
       spacingx="37.5"
       spacingy="37.5"
       empcolor="#0099e5"
       empopacity="0.30196078"
       color="#0099e5"
       opacity="0.14901961"
       empspacing="4"
       dotted="false"
       gridanglex="30"
       gridanglez="30"
       visible="false" /><inkscape:grid
       id="grid72"
       units="px"
       originx="-74.020508"
       originy="-452.323"
       spacingx="9.375"
       spacingy="9.375"
       empcolor="#3f3fff"
       empopacity="0.25098039"
       color="#3f3fff"
       opacity="0.1254902"
       empspacing="4"
       enabled="true"
       visible="false" /></sodipodi:namedview><defs
     id="defs1"><inkscape:path-effect
       effect="envelope"
       id="path-effect381"
       is_visible="true"
       lpeversion="1"
       yy="true"
       xx="true"
       bendpath1="M 579.3883,375.13663 763.01306,317.86098"
       bendpath2="m 758.06331,377.96506 2.12132,16.08"
       bendpath3="m 564.53906,441.42121 h 198.474"
       bendpath4="M 564.53906,317.86098 V 441.42121"
       bendpath1-nodetypes="cc"
       bendpath2-nodetypes="cc" /><inkscape:path-effect
       effect="rough_hatches"
       id="path-effect307"
       is_visible="true"
       lpeversion="1.2"
       direction="402.5,411.125 , 27.875,0"
       dist_rdm="75;1"
       growth="0"
       do_bend="true"
       bender="402.5,416.125 , 5,0"
       bottom_edge_variation="6.925;1"
       top_edge_variation="6.925;1"
       bottom_tgt_variation="0;1"
       top_tgt_variation="0;1"
       scale_bf="1"
       scale_bb="1"
       scale_tf="1"
       scale_tb="1"
       top_smth_variation="0;1"
       bottom_smth_variation="0;1"
       fat_output="true"
       stroke_width_top="1"
       stroke_width_bottom="1"
       front_thickness="1"
       back_thickness="0.25" /><radialGradient
       id="lorc-metal-bar-gradient-1"
       gradientTransform="matrix(1.1843865,0,0,0.84431895,-129.688,74.317)"
       cx="215.29079"
       cy="299.64386"
       fx="215.29079"
       fy="299.64386"
       r="198.16208"
       gradientUnits="userSpaceOnUse"><stop
         offset="0%"
         stop-color="#d0021b"
         stop-opacity="1"
         id="stop1-4" /><stop
         offset="100%"
         stop-color="#d0021b"
         stop-opacity="1"
         id="stop2-9" /></radialGradient><radialGradient
       id="lorc-metal-bar-gradient-1-4"
       gradientTransform="matrix(1.1843865,0,0,0.84431895,-129.688,74.317)"
       cx="215.29079"
       cy="299.64386"
       fx="215.29079"
       fy="299.64386"
       r="198.16208"
       gradientUnits="userSpaceOnUse"><stop
         offset="0%"
         stop-color="#d0021b"
         stop-opacity="1"
         id="stop1-4-8" /><stop
         offset="100%"
         stop-color="#d0021b"
         stop-opacity="1"
         id="stop2-9-8" /></radialGradient><radialGradient
       id="lord-berandas-amplitude-gradient-1"
       gradientTransform="matrix(1.164719,0,0,0.8585762,684.9945,430.0055)"
       cx="218.94165"
       cy="296.99692"
       fx="218.94165"
       fy="296.99692"
       r="205.09711"
       gradientUnits="userSpaceOnUse"><stop
         offset="0%"
         stop-color="#f56666"
         stop-opacity="1"
         id="stop1" /><stop
         offset="100%"
         stop-color="#530000"
         stop-opacity="1"
         id="stop2" /></radialGradient><radialGradient
       id="lord-berandas-amplitude-gradient-2"><stop
         offset="0%"
         stop-color="#f56666"
         stop-opacity="1"
         id="stop3" /><stop
         offset="100%"
         stop-color="#530000"
         stop-opacity="1"
         id="stop4" /></radialGradient><radialGradient
       id="lord-berandas-amplitude-gradient-7"><stop
         offset="0%"
         stop-color="#f56666"
         stop-opacity="1"
         id="stop5" /><stop
         offset="100%"
         stop-color="#530000"
         stop-opacity="1"
         id="stop6" /></radialGradient></defs><g
     inkscape:groupmode="layer"
     id="layer2"
     inkscape:label="Bots Action"
     style="display:inline"
     transform="translate(-74.020505,-452.32301)"><rect
       style="font-variation-settings:normal;opacity:1;vector-effect:none;fill:#e6e6e6;fill-opacity:1;stroke:#000000;stroke-width:2.00002;stroke-linecap:round;stroke-linejoin:round;stroke-miterlimit:4;stroke-dasharray:none;stroke-dashoffset:0;stroke-opacity:1;-inkscape-stroke:none;paint-order:fill markers stroke;stop-color:#000000;stop-opacity:1"
       id="rect1"
       width="675.875"
       height="222.99998"
       x="75.020508"
       y="453.32306"
       rx="5.7500076"
       ry="5.7500072" /><path
       d="m 637.85211,524.62477 c -6.28259,0 -11.43359,5.15102 -11.43359,11.43359 0,6.2826 5.151,11.4375 11.43359,11.4375 1.55025,0 3.02889,-0.31749 4.38086,-0.88476 l 6.7207,9.16015 c -1.29298,1.85178 -2.05859,4.09361 -2.05859,6.50781 0,4.46214 2.60494,8.34482 6.36133,10.22657 l -2.45899,9.75 c -0.47778,-0.0617 -0.96136,-0.10352 -1.45507,-0.10352 -6.28259,0 -11.4336,5.14908 -11.4336,11.43164 0,6.2826 5.15101,11.4375 11.4336,11.4375 6.28258,0 11.43164,-5.1549 11.43164,-11.4375 0,-3.82938 -1.91706,-7.23049 -4.83399,-9.30858 l 2.66797,-10.57031 c 4.07928,-0.10035 7.6419,-2.37017 9.58594,-5.69336 l 8.79101,1.35742 c 0.73934,5.58504 5.5461,9.94726 11.32227,9.94726 6.28258,0 11.43164,-5.15685 11.43164,-11.43945 0,-6.28257 -5.14906,-11.43164 -11.43164,-11.43164 -4.89037,0 -9.08195,3.12658 -10.70508,7.47266 l -7.86328,-1.21289 c 0.005,-0.1424 0.0215,-0.28216 0.0215,-0.42579 0,-6.28257 -5.14906,-11.43164 -11.43164,-11.43164 -1.88662,0 -3.66665,0.47293 -5.24023,1.29297 l -6.45117,-8.79297 c 1.64987,-1.98417 2.64648,-4.52658 2.64648,-7.28906 0,-6.28257 -5.14906,-11.43359 -11.43164,-11.43359 z m 0,5.48047 c 3.32053,0 5.95117,2.6326 5.95117,5.95312 0,3.32055 -2.63064,5.95703 -5.95117,5.95703 -3.32054,0 -5.95312,-2.63648 -5.95312,-5.95703 0,-3.32052 2.63258,-5.95312 5.95312,-5.95312 z m 20.47656,26.22265 c 3.1791,0 5.72041,2.4137 5.93164,5.53322 0.009,0.13878 0.0195,0.27653 0.0195,0.41796 0,0.81389 -0.15971,1.58611 -0.44727,2.28907 -0.40625,0.99309 -1.07355,1.84332 -1.91602,2.47656 -0.55361,0.41612 -1.18095,0.74064 -1.86523,0.94336 -0.54455,0.1613 -1.12138,0.24805 -1.72266,0.24805 -0.39053,0 -0.77036,-0.0396 -1.13867,-0.10938 -0.94909,-0.17978 -1.81261,-0.58083 -2.53906,-1.14844 -1.38856,-1.08494 -2.27539,-2.77558 -2.27539,-4.69922 0,-0.54248 0.077,-1.06332 0.20898,-1.56054 0.26634,-1.00329 0.78078,-1.89832 1.48047,-2.61328 0.6417,-0.6557 1.43607,-1.15603 2.33008,-1.45704 0.60517,-0.20375 1.25405,-0.32031 1.93359,-0.32031 z m 29.97852,5.59767 c 3.32053,0 5.95117,2.63064 5.95117,5.95117 0,3.32055 -2.63064,5.95898 -5.95117,5.95898 -2.4647,0 -4.54796,-1.45576 -5.45899,-3.5625 -0.31634,-0.73154 -0.49414,-1.54064 -0.49414,-2.39648 0,-0.15202 0.0126,-0.30027 0.0234,-0.44922 0.0705,-0.96796 0.36455,-1.86549 0.83399,-2.64453 1.03612,-1.71946 2.91514,-2.85742 5.0957,-2.85742 z m -38.96484,25.70703 c 3.32053,0 5.95117,2.63064 5.95117,5.95117 0,3.32055 -2.63064,5.95703 -5.95117,5.95703 -3.32054,0 -5.95118,-2.63648 -5.95118,-5.95703 0,-3.32052 2.63064,-5.95117 5.95118,-5.95117 z"
       style="font-variation-settings:normal;display:inline;vector-effect:none;fill:#808080;fill-opacity:1;stroke:none;stroke-width:0.999996;stroke-linecap:round;stroke-linejoin:round;stroke-miterlimit:4;stroke-dasharray:none;stroke-dashoffset:0;stroke-opacity:1;-inkscape-stroke:none;paint-order:fill markers stroke;stop-color:#000000"
       id="path15" /><rect
       style="font-variation-settings:normal;display:inline;vector-effect:none;fill:#000000;fill-opacity:1;stroke:#000000;stroke-width:2.00001;stroke-linecap:round;stroke-linejoin:round;stroke-miterlimit:4;stroke-dasharray:none;stroke-dashoffset:0;stroke-opacity:1;-inkscape-stroke:none;paint-order:fill markers stroke;stop-color:#000000"
       id="rect398"
       width="90.625"
       height="44"
       x="622.375"
       y="625.5"
       rx="7.7781749"
       ry="7.7781744" /><path
       d="m 690.22371,628.52083 c -0.25393,0 -0.38312,0.30324 -0.43802,0.45232 -0.0549,0.14908 -0.0749,0.25325 -0.0946,0.35467 -0.0394,0.20294 -0.0627,0.39571 -0.0876,0.6296 -0.0498,0.46781 -0.0956,1.07828 -0.14191,1.81836 -0.0924,1.48018 -0.18286,3.46122 -0.26353,5.55528 -0.16116,4.18814 -0.2818,8.77773 -0.2818,10.66421 0,1.71131 -0.11868,5.07199 -0.27743,7.94562 -0.008,0.14753 -0.0173,0.27316 -0.0257,0.41805 -0.007,-0.11136 -0.0135,-0.20649 -0.0199,-0.31963 -0.1588,-2.83913 -0.27737,-6.19383 -0.27737,-8.04404 v -0.41251 l -0.005,-0.0108 c -0.0135,-2.03711 -0.12586,-5.1171 -0.27826,-7.8399 -0.0811,-1.44986 -0.17196,-2.77808 -0.26674,-3.77783 -0.0474,-0.50011 -0.0939,-0.91261 -0.15069,-1.25854 -0.0285,-0.17298 -0.056,-0.32659 -0.11136,-0.51094 -0.0276,-0.092 -0.0612,-0.19598 -0.131,-0.31762 -0.0695,-0.12166 -0.19774,-0.27716 -0.36428,-0.27716 -0.17087,0 -0.30023,0.16257 -0.36929,0.28667 -0.0691,0.12382 -0.10187,0.22837 -0.12897,0.32093 -0.0543,0.18524 -0.0813,0.3403 -0.10932,0.51581 -0.0562,0.35112 -0.10256,0.77193 -0.14996,1.28176 -0.0946,1.01933 -0.18538,2.37188 -0.26634,3.83756 -0.16217,2.93181 -0.28352,6.27567 -0.28352,8.16193 0,1.71131 -0.11746,4.03774 -0.27362,5.88684 -0.009,0.11773 -0.021,0.21256 -0.0312,0.32625 -0.007,-0.0811 -0.0153,-0.1462 -0.0225,-0.22948 -0.15578,-1.8126 -0.27333,-4.13338 -0.27345,-5.98382 0,-2.01301 -0.12233,-4.39383 -0.28749,-6.31671 -0.0826,-0.96138 -0.1747,-1.80155 -0.27653,-2.45371 -0.0509,-0.32603 -0.10106,-0.60129 -0.1743,-0.8655 -0.0366,-0.13209 -0.0772,-0.26431 -0.15314,-0.41251 -0.0761,-0.14819 -0.21409,-0.3497 -0.41585,-0.3497 -0.21041,0 -0.34917,0.21633 -0.42375,0.36829 -0.0746,0.15195 -0.1138,0.28565 -0.14951,0.42024 -0.0717,0.26874 -0.12125,0.55097 -0.17178,0.88585 -0.10093,0.66975 -0.19266,1.53303 -0.27507,2.50957 -0.16497,1.95304 -0.28738,4.32824 -0.28738,6.21452 0,1.71129 -0.11664,3.37715 -0.26569,4.5637 -0.0164,0.13019 -0.0339,0.22925 -0.0509,0.34726 -0.0497,-0.31486 -0.0959,-0.66412 -0.1287,-1.08237 -0.0985,-1.25467 -0.12518,-2.84809 -0.15035,-4.42182 -0.0253,-1.57372 -0.0476,-3.12257 -0.16658,-4.40987 -0.0596,-0.64364 -0.13977,-1.22757 -0.29208,-1.75068 -0.15242,-0.52309 -0.42191,-1.01711 -0.76748,-1.13622 l -0.0429,-0.0148 h -0.0436 c -0.25757,0 -0.4096,0.27516 -0.50292,0.48153 -0.0933,0.20625 -0.15388,0.41616 -0.21179,0.65094 -0.11597,0.46947 -0.21152,1.04401 -0.29739,1.72857 -0.17191,1.36846 -0.29528,3.15697 -0.29528,5.04324 h 1.00718 c 0,-1.7112 0.11664,-3.37706 0.26568,-4.56372 0.035,-0.27757 0.0722,-0.52377 0.10851,-0.74097 0.0295,0.18636 0.058,0.40744 0.0814,0.66024 0.0962,1.03924 0.12532,2.54274 0.15051,4.1146 0.0253,1.57185 0.0484,3.21745 0.16172,4.66368 0.11339,1.44621 0.28447,2.78636 0.8467,3.58386 l 0.13154,0.1869 h 0.162 c 0.25755,0 0.40971,-0.27517 0.50303,-0.48153 0.0933,-0.20647 0.15387,-0.41637 0.21179,-0.65116 0.11597,-0.46947 0.21129,-1.044 0.29723,-1.72834 0.17194,-1.36858 0.29544,-3.15719 0.29544,-5.04345 0,-1.71143 0.11746,-4.03774 0.27351,-5.88684 0.009,-0.11773 0.021,-0.21234 0.0313,-0.32603 0.007,0.081 0.0152,0.14599 0.0225,0.22926 0.15566,1.81262 0.27328,4.1334 0.27328,5.98339 1.1e-4,2.01332 0.12247,4.39416 0.28778,6.31703 0.0825,0.9616 0.17446,1.80189 0.2763,2.45404 0.0509,0.32592 0.10106,0.60119 0.1744,0.86539 0.0367,0.13209 0.0772,0.26453 0.15332,0.41251 0.0759,0.14819 0.21397,0.3497 0.41574,0.3497 0.21056,0 0.34916,-0.21633 0.42386,-0.36828 0.0747,-0.15196 0.11353,-0.28566 0.1494,-0.42025 0.0715,-0.26874 0.12112,-0.55097 0.17166,-0.88585 0.10106,-0.66975 0.19282,-1.53303 0.2753,-2.50955 0.16484,-1.95308 0.28727,-4.32826 0.28727,-6.21452 0,-1.71131 0.11868,-5.07199 0.27753,-7.94563 0.008,-0.14742 0.0173,-0.27315 0.0256,-0.41804 0.007,0.11163 0.0137,0.20681 0.02,0.31984 0.1588,2.83912 0.27753,6.19383 0.27753,8.04383 v 0.4125 l 0.005,0.0108 c 0.0137,2.03734 0.12585,5.11734 0.27821,7.84022 0.0811,1.44987 0.17201,2.7781 0.26679,3.77785 0.0474,0.49987 0.0939,0.91217 0.15069,1.25821 0.0284,0.17298 0.0558,0.32658 0.11122,0.51094 0.0278,0.092 0.0614,0.19618 0.131,0.31784 0.0696,0.12165 0.19774,0.27692 0.36427,0.27692 0.17088,0 0.30019,-0.16257 0.3693,-0.28665 0.0691,-0.12382 0.10187,-0.22838 0.12897,-0.32094 0.0543,-0.18524 0.0813,-0.34029 0.10933,-0.51581 0.0562,-0.35113 0.10269,-0.77215 0.14995,-1.28175 0.0946,-1.01933 0.18544,-2.37188 0.26647,-3.83756 0.16204,-2.93181 0.28334,-6.27569 0.28334,-8.16195 0,-1.71142 0.11935,-6.36127 0.27911,-10.51325 0.007,-0.19241 0.0159,-0.3614 0.0233,-0.55153 0.007,0.1565 0.0135,0.29442 0.0194,0.45255 0.15986,4.11824 0.2791,8.76191 0.2791,10.61191 0,2.01332 0.12071,6.60899 0.28201,10.7644 0.0806,2.0777 0.17111,4.03396 0.26355,5.494 0.0461,0.72991 0.0918,1.33154 0.14196,1.79348 0.0251,0.2308 0.0485,0.42136 0.0883,0.62341 0.0199,0.10106 0.0405,0.20538 0.096,0.3539 0.0556,0.14841 0.18578,0.44491 0.4355,0.44491 0.25391,0 0.38301,-0.30325 0.43789,-0.45232 0.055,-0.14908 0.0749,-0.25326 0.0947,-0.35468 0.0393,-0.20294 0.0629,-0.39569 0.0878,-0.6296 0.0497,-0.4678 0.0955,-1.07826 0.14168,-1.81836 0.0924,-1.48017 0.18297,-3.4611 0.26355,-5.55506 0.16115,-4.18813 0.28179,-8.7775 0.28179,-10.66376 0,-1.71142 0.11935,-6.36127 0.2791,-10.51347 0.007,-0.19187 0.0157,-0.36052 0.0233,-0.54998 0.007,0.15594 0.0136,0.29352 0.0194,0.45122 0.15975,4.11824 0.27887,8.76225 0.27887,10.61212 v 0.99533 h 0.0176 c 0.0225,2.26295 0.12071,6.06489 0.26438,9.76863 0.0806,2.0777 0.17122,4.03397 0.26355,5.49402 0.0462,0.7299 0.0921,1.3313 0.14211,1.79325 0.0251,0.23092 0.0485,0.42158 0.0885,0.62374 0.0201,0.10106 0.0405,0.20538 0.096,0.35388 0.0557,0.14843 0.18594,0.44493 0.43549,0.44493 0.25403,0 0.38318,-0.30346 0.43813,-0.45255 0.0549,-0.14907 0.0749,-0.25324 0.0946,-0.35466 0.0393,-0.20283 0.0626,-0.39549 0.0876,-0.62928 0.0498,-0.4678 0.0956,-1.07826 0.14185,-1.81836 0.0923,-1.48017 0.18275,-3.4611 0.26338,-5.55506 0.16115,-4.18791 0.282,-8.77772 0.282,-10.66376 0,-1.71142 0.11854,-5.0722 0.27743,-7.94584 0.008,-0.14742 0.0173,-0.27315 0.0257,-0.41804 0.007,0.11163 0.0135,0.20681 0.0199,0.31984 0.15879,2.8389 0.27753,6.19361 0.27753,8.04382 0,2.01322 0.12139,5.36318 0.28352,8.26291 0.0811,1.44987 0.17201,2.77808 0.26679,3.77784 0.0476,0.49987 0.094,0.91239 0.15074,1.25822 0.0284,0.17296 0.0558,0.32657 0.11123,0.51094 0.0278,0.092 0.0614,0.19596 0.131,0.3176 0.0696,0.12166 0.19769,0.27715 0.36426,0.27715 0.17089,0 0.30026,-0.16256 0.36931,-0.28666 0.0691,-0.12382 0.10187,-0.22837 0.12897,-0.32092 0.0543,-0.18525 0.0813,-0.3403 0.10933,-0.51582 0.0562,-0.35114 0.10269,-0.77215 0.14997,-1.28176 0.0946,-1.01932 0.18547,-2.37187 0.2665,-3.83755 0.16209,-2.93181 0.28347,-6.27569 0.28347,-8.16195 0,-1.71143 0.11745,-4.03773 0.27361,-5.88683 0.009,-0.11719 0.0209,-0.21201 0.0312,-0.32537 0.007,0.0807 0.0153,0.14566 0.0224,0.22849 0.15572,1.81262 0.27333,4.1335 0.27333,5.98371 0,2.01334 0.1226,4.39417 0.28772,6.31704 0.0826,0.96161 0.17458,1.80189 0.27642,2.45404 0.0509,0.32581 0.10106,0.60097 0.17441,0.86517 0.0367,0.13209 0.0772,0.26431 0.15315,0.4125 0.076,0.14821 0.21413,0.3497 0.41596,0.3497 0.21061,0 0.34927,-0.21632 0.42386,-0.36827 0.0747,-0.15196 0.11353,-0.28566 0.14939,-0.42025 0.0717,-0.26874 0.12125,-0.55098 0.17179,-0.88584 0.10093,-0.66975 0.19265,-1.53304 0.27507,-2.50956 0.16495,-1.95308 0.28738,-4.32827 0.28738,-6.21453 0,-1.7113 0.11664,-3.37727 0.26568,-4.56393 0.0135,-0.10594 0.0276,-0.18469 0.0415,-0.28266 0.009,0.0677 0.0196,0.11718 0.0287,0.1891 0.14783,1.14573 0.26495,2.80728 0.26495,4.65749 0,2.01322 0.12287,3.80615 0.296,5.14918 0.0866,0.67131 0.18297,1.22625 0.30198,1.68079 0.0595,0.22726 0.12234,0.43165 0.21867,0.62982 0.0963,0.19818 0.25068,0.44435 0.49084,0.44435 0.25756,0 0.4097,-0.27514 0.50303,-0.48151 0.0933,-0.20648 0.15388,-0.41616 0.21178,-0.65094 0.11597,-0.46947 0.21134,-1.04433 0.2973,-1.72857 0.17189,-1.36857 0.29543,-3.15719 0.29543,-5.04344 h -1.00718 c 0,1.71129 -0.11665,3.37726 -0.26578,4.56392 -0.0135,0.10594 -0.0276,0.18424 -0.0414,0.28223 -0.009,-0.0675 -0.0194,-0.11718 -0.0285,-0.18878 -0.14783,-1.14573 -0.26495,-2.80684 -0.26495,-4.65705 0,-2.01322 -0.12287,-3.80659 -0.29617,-5.14941 -0.0866,-0.6713 -0.18296,-1.22646 -0.30197,-1.681 -0.0595,-0.22727 -0.12234,-0.43163 -0.21869,-0.62982 -0.0962,-0.19818 -0.25066,-0.44437 -0.49082,-0.44437 -0.25756,0 -0.4097,0.27516 -0.50303,0.48153 -0.0932,0.20648 -0.15388,0.41638 -0.21178,0.65117 -0.11597,0.46946 -0.2113,1.04399 -0.29725,1.72833 -0.17194,1.36858 -0.29544,3.15741 -0.29544,5.04368 0,1.71131 -0.11745,4.03773 -0.27351,5.88684 -0.009,0.11745 -0.0209,0.21211 -0.0312,0.32558 -0.007,-0.0807 -0.0152,-0.14566 -0.0223,-0.2286 -0.15571,-1.81283 -0.2734,-4.13372 -0.27351,-5.98414 0,-2.01312 -0.12233,-4.39385 -0.28761,-6.31671 -0.0825,-0.96149 -0.17457,-1.80177 -0.27641,-2.45383 -0.0509,-0.32603 -0.10093,-0.60129 -0.1743,-0.86549 -0.0367,-0.13222 -0.0772,-0.26465 -0.15331,-0.41252 -0.076,-0.14818 -0.21409,-0.34981 -0.41586,-0.34981 -0.2106,0 -0.34915,0.21644 -0.42385,0.36851 -0.0747,0.15184 -0.11353,0.28555 -0.1494,0.41991 -0.0715,0.26874 -0.12112,0.55098 -0.17156,0.88585 -0.10092,0.66975 -0.19276,1.53303 -0.27518,2.50955 -0.16485,1.95285 -0.28733,4.32805 -0.28733,6.21443 0,1.71129 -0.11854,5.07199 -0.27742,7.94561 -0.008,0.14775 -0.0173,0.27372 -0.0257,0.41882 -0.007,-0.11163 -0.0137,-0.20704 -0.0201,-0.32039 -0.15881,-2.83891 -0.27743,-6.19372 -0.27754,-8.04404 0,-2.01312 -0.12138,-5.36308 -0.28353,-8.2627 -0.0811,-1.44987 -0.17189,-2.77807 -0.26668,-3.77783 -0.0474,-0.49989 -0.0939,-0.91239 -0.15064,-1.25832 -0.0283,-0.17296 -0.0559,-0.32647 -0.11135,-0.51061 -0.0276,-0.0921 -0.0612,-0.1963 -0.13087,-0.31795 -0.0696,-0.12166 -0.19781,-0.27714 -0.36437,-0.27714 -0.17089,0 -0.30021,0.16257 -0.36932,0.28665 -0.0691,0.12382 -0.10188,0.22836 -0.12897,0.32093 -0.0543,0.18525 -0.0813,0.3403 -0.10933,0.51581 -0.0564,0.35112 -0.10269,0.77194 -0.14995,1.28177 -0.0946,1.01932 -0.18551,2.37165 -0.26652,3.83755 -0.16211,2.93147 -0.28347,6.27557 -0.28347,8.16195 0,1.71118 -0.11922,6.36083 -0.27899,10.51268 -0.007,0.19188 -0.0157,0.36053 -0.0233,0.5502 -0.007,-0.15595 -0.0135,-0.2934 -0.0194,-0.45099 -0.1598,-4.11813 -0.27905,-8.76179 -0.27905,-10.612 v -0.99534 h -0.0176 c -0.0226,-2.26272 -0.12071,-6.06511 -0.26439,-9.76885 -0.0806,-2.0777 -0.17123,-4.03408 -0.26355,-5.49423 -0.0462,-0.72991 -0.092,-1.33154 -0.14213,-1.79348 -0.0251,-0.23091 -0.0484,-0.42158 -0.0883,-0.62374 -0.02,-0.10107 -0.0406,-0.20537 -0.0962,-0.35389 -0.0555,-0.1482 -0.18578,-0.44459 -0.43516,-0.44491 h -5.6e-4 c -0.25381,0 -0.38305,0.30357 -0.43789,0.45254 -0.0549,0.14909 -0.0749,0.25325 -0.0946,0.35467 -0.0393,0.20305 -0.0629,0.39569 -0.0878,0.62949 -0.0497,0.46781 -0.0955,1.07828 -0.14168,1.81836 -0.0922,1.48016 -0.18297,3.46109 -0.26353,5.55505 -0.16116,4.18814 -0.28191,8.77795 -0.28191,10.66444 0,1.71129 -0.11922,6.36083 -0.279,10.51268 -0.007,0.19156 -0.0157,0.35987 -0.0233,0.54909 -0.007,-0.15572 -0.0136,-0.29284 -0.0192,-0.45012 -0.15973,-4.11812 -0.27898,-8.76178 -0.27898,-10.6121 0,-2.01301 -0.1207,-6.60868 -0.282,-10.76417 -0.0806,-2.0777 -0.17123,-4.0341 -0.26366,-5.49424 -0.0462,-0.72992 -0.092,-1.33153 -0.14196,-1.79348 -0.0252,-0.23081 -0.0485,-0.42136 -0.0885,-0.62341 -0.0199,-0.10107 -0.0405,-0.20537 -0.0962,-0.35389 -0.0557,-0.14843 -0.18578,-0.44491 -0.43544,-0.44491 z"
       fill="url(#lord-berandas-amplitude-gradient-1)"
       id="path6-4"
       style="fill:#f9f9f9;stroke-width:1" /></g></svg>
