<?xml version="1.0" encoding="UTF-8" standalone="no"?>
<!-- Created with Inkscape (http://www.inkscape.org/) -->

<svg
   width="825"
   height="1125"
   viewBox="0 0 825 1125"
   version="1.1"
   id="svg1"
   inkscape:version="1.4 (86a8ad7, 2024-10-11)"
   sodipodi:docname="card_backdrop.svg"
   xml:space="preserve"
   xmlns:inkscape="http://www.inkscape.org/namespaces/inkscape"
   xmlns:sodipodi="http://sodipodi.sourceforge.net/DTD/sodipodi-0.dtd"
   xmlns="http://www.w3.org/2000/svg"
   xmlns:svg="http://www.w3.org/2000/svg"><sodipodi:namedview
     id="namedview1"
     pagecolor="#ffffff"
     bordercolor="#000000"
     borderopacity="0.25"
     inkscape:showpageshadow="2"
     inkscape:pageopacity="0.0"
     inkscape:pagecheckerboard="0"
     inkscape:deskcolor="#d1d1d1"
     inkscape:document-units="px"
     inkscape:zoom="0.59999764"
     inkscape:cx="413.33496"
     inkscape:cy="483.33523"
     inkscape:window-width="1800"
     inkscape:window-height="1023"
     inkscape:window-x="0"
     inkscape:window-y="44"
     inkscape:window-maximized="1"
     inkscape:current-layer="g40"
     showgrid="true"><inkscape:grid
       id="grid1"
       units="px"
       originx="0"
       originy="0"
       spacingx="37.5"
       spacingy="37.5"
       empcolor="#0099e5"
       empopacity="0.30196078"
       color="#0099e5"
       opacity="0.14901961"
       empspacing="4"
       dotted="false"
       gridanglex="30"
       gridanglez="30"
       visible="true" /><inkscape:grid
       id="grid72"
       units="px"
       originx="0"
       originy="0"
       spacingx="9.375"
       spacingy="9.375"
       empcolor="#3f3fff"
       empopacity="0.25098039"
       color="#3f3fff"
       opacity="0.1254902"
       empspacing="4"
       enabled="true"
       visible="true" /></sodipodi:namedview><defs
     id="defs1"><radialGradient
       id="lorc-metal-bar-gradient-1"
       gradientTransform="matrix(1.1843865,0,0,0.84431895,-129.688,74.317)"
       cx="215.29079"
       cy="299.64386"
       fx="215.29079"
       fy="299.64386"
       r="198.16208"
       gradientUnits="userSpaceOnUse"><stop
         offset="0%"
         stop-color="#d0021b"
         stop-opacity="1"
         id="stop1-4" /><stop
         offset="100%"
         stop-color="#d0021b"
         stop-opacity="1"
         id="stop2-9" /></radialGradient><radialGradient
       id="lorc-metal-bar-gradient-1-4"
       gradientTransform="matrix(1.1843865,0,0,0.84431895,-129.688,74.317)"
       cx="215.29079"
       cy="299.64386"
       fx="215.29079"
       fy="299.64386"
       r="198.16208"
       gradientUnits="userSpaceOnUse"><stop
         offset="0%"
         stop-color="#d0021b"
         stop-opacity="1"
         id="stop1-4-8" /><stop
         offset="100%"
         stop-color="#d0021b"
         stop-opacity="1"
         id="stop2-9-8" /></radialGradient></defs><g
     inkscape:label="Layer 1"
     inkscape:groupmode="layer"
     id="layer1"><g
       id="g40"
       transform="translate(-41.483598,15.320647)"><rect
         style="fill:#e6e6e6;stroke:#000000;stroke-width:2;stroke-linecap:round;stroke-linejoin:round;stroke-dasharray:none;paint-order:fill markers stroke"
         id="rect93"
         width="616.75"
         height="130.25"
         x="135.2336"
         y="828.42938"
         rx="1.7916512"
         ry="1.7916512" /><g
         id="g1"
         transform="translate(20.097169,-5.6368549)"><path
           sodipodi:type="star"
           style="fill:none;stroke:#292929;stroke-width:5;stroke-linecap:round;stroke-linejoin:round;-inkscape-stroke:none;paint-order:fill markers stroke"
           id="path1"
           inkscape:flatsided="true"
           sodipodi:sides="6"
           sodipodi:cx="94.972404"
           sodipodi:cy="74.269073"
           sodipodi:r1="46.678524"
           sodipodi:r2="40.424786"
           sodipodi:arg1="0.52359878"
           sodipodi:arg2="1.0471976"
           inkscape:rounded="0"
           inkscape:randomized="0"
           d="M 135.39719,97.608336 94.972404,120.9476 54.547617,97.608335 l 0,-46.678524 40.424788,-23.339262 40.424785,23.339263 z"
           transform="translate(57.257561,46.789332)" /><rect
           style="fill:#000000;stroke:#000000;stroke-width:2;stroke-linecap:round;stroke-linejoin:round;stroke-dasharray:none;paint-order:fill markers stroke"
           id="rect40"
           width="103.28046"
           height="103.28046"
           x="98.386429"
           y="67.316208"
           rx="1.7916511"
           ry="1.7916511" /><rect
           style="fill:#e6e6e6;stroke:#000000;stroke-width:2;stroke-linecap:round;stroke-linejoin:round;stroke-dasharray:none;paint-order:fill markers stroke"
           id="rect1"
           width="103.28046"
           height="103.28046"
           x="96.386429"
           y="65.316208"
           rx="1.7916511"
           ry="1.7916511" /><rect
           style="fill:#ffffff;stroke:#000000;stroke-width:2;stroke-linecap:round;stroke-linejoin:round;stroke-dasharray:none;paint-order:fill markers stroke"
           id="rect2"
           width="58.631168"
           height="58.631168"
           x="118.71107"
           y="87.640854"
           rx="1.9787638"
           ry="1.9787638" /><path
           style="fill:none;stroke:#000000;stroke-width:2;stroke-linecap:butt;stroke-linejoin:miter;stroke-dasharray:none;stroke-opacity:1"
           d="M 142.02159,87.713266 V 74.379881 h 20.41674"
           id="path2" /><path
           style="fill:none;stroke:#000000;stroke-width:2;stroke-linecap:butt;stroke-linejoin:miter;stroke-dasharray:none;stroke-opacity:1"
           d="m 164.83418,86.775766 v -8.333369 h 27.70844 V 67.504854"
           id="path3" /><path
           style="fill:none;stroke:#000000;stroke-width:2;stroke-linecap:butt;stroke-linejoin:miter;stroke-dasharray:none;stroke-opacity:1"
           d="m 177.85506,95.838296 h 7.6042"
           id="path4" /><path
           style="fill:none;stroke:#000000;stroke-width:2;stroke-linecap:butt;stroke-linejoin:miter;stroke-dasharray:none;stroke-opacity:1"
           d="m 177.54256,103.02583 h 15.93756 V 87.817436"
           id="path5" /><path
           style="fill:none;stroke:#000000;stroke-width:2;stroke-linecap:butt;stroke-linejoin:miter;stroke-dasharray:none;stroke-opacity:1"
           d="m 178.16756,113.96337 h 15.31256"
           id="path6" /><path
           style="fill:none;stroke:#000000;stroke-width:2;stroke-linecap:butt;stroke-linejoin:miter;stroke-dasharray:none;stroke-opacity:1"
           d="m 177.33423,121.56757 h 17.68757 v 17.91674"
           id="path7"
           sodipodi:nodetypes="ccc" /><path
           style="fill:none;stroke:#000000;stroke-width:2;stroke-linecap:butt;stroke-linejoin:miter;stroke-dasharray:none;stroke-opacity:1"
           d="m 177.33423,130.42177 h 11.87504 v 20.20841"
           id="path8" /><path
           style="fill:none;stroke:#000000;stroke-width:2;stroke-linecap:butt;stroke-linejoin:miter;stroke-dasharray:none;stroke-opacity:1"
           d="m 166.60502,146.4635 v 14.47923 h 28.85428 v -11.35422"
           id="path10" /><path
           style="fill:none;stroke:#000000;stroke-width:2;stroke-linecap:butt;stroke-linejoin:miter;stroke-dasharray:none;stroke-opacity:1"
           d="m 178.3759,136.46346 h 5.31252 v 9.37504"
           id="path11" /><path
           style="fill:none;stroke:#000000;stroke-width:2;stroke-linecap:butt;stroke-linejoin:miter;stroke-dasharray:none;stroke-opacity:1"
           d="m 155.35497,147.19267 v 14.37506 h -14.06255"
           id="path12" /><path
           style="fill:none;stroke:#000000;stroke-width:2;stroke-linecap:butt;stroke-linejoin:miter;stroke-dasharray:none;stroke-opacity:1"
           d="m 146.81327,146.4635 v 8.2292 H 128.6882"
           id="path13" /><path
           style="fill:none;stroke:#000000;stroke-width:2;stroke-linecap:butt;stroke-linejoin:miter;stroke-dasharray:none;stroke-opacity:1"
           d="m 125.56319,147.19267 v 15.58341 h 8.43753"
           id="path14"
           sodipodi:nodetypes="ccc" /><path
           style="fill:none;stroke:#000000;stroke-width:2;stroke-linecap:butt;stroke-linejoin:miter;stroke-dasharray:none;stroke-opacity:1"
           d="m 119.00066,135.94263 h -8.43757 v 24.47926"
           id="path15"
           sodipodi:nodetypes="ccc" /><path
           style="fill:none;stroke:#000000;stroke-width:2;stroke-linecap:butt;stroke-linejoin:miter;stroke-dasharray:none;stroke-opacity:1"
           d="m 119.209,130.21344 h -16.87507 v 33.5418"
           id="path16" /><path
           style="fill:none;stroke:#000000;stroke-width:2;stroke-linecap:butt;stroke-linejoin:miter;stroke-dasharray:none;stroke-opacity:1"
           d="M 119.10483,123.13008 H 101.94489"
           id="path17" /><path
           style="fill:none;stroke:#000000;stroke-width:2;stroke-linecap:butt;stroke-linejoin:miter;stroke-dasharray:none;stroke-opacity:1"
           d="M 119.31316,111.3592 H 101.18809 V 96.879966"
           id="path18" /><path
           style="fill:none;stroke:#000000;stroke-width:2;stroke-linecap:butt;stroke-linejoin:miter;stroke-dasharray:none;stroke-opacity:1"
           d="M 118.27149,103.54667 H 107.75062 V 89.588276"
           id="path19" /><path
           style="fill:none;stroke:#000000;stroke-width:2;stroke-linecap:butt;stroke-linejoin:miter;stroke-dasharray:none;stroke-opacity:1"
           d="m 128.3757,87.088266 v -5.00002 h -26.2501 v 9.37504"
           id="path20" /><path
           style="fill:none;stroke:#000000;stroke-width:2;stroke-linecap:butt;stroke-linejoin:miter;stroke-dasharray:none;stroke-opacity:1"
           d="M 135.6674,87.609096 V 76.671556 H 106.08395"
           id="path21" /><path
           style="fill:none;stroke:#000000;stroke-width:2;stroke-linecap:butt;stroke-linejoin:miter;stroke-dasharray:none;stroke-opacity:1"
           d="m 150.97995,88.025766 v -9.166701 h 8.75004"
           id="path22" /><circle
           style="font-variation-settings:normal;fill:none;fill-opacity:1;stroke:#000000;stroke-width:2;stroke-linecap:butt;stroke-linejoin:miter;stroke-miterlimit:4;stroke-dasharray:none;stroke-dashoffset:0;stroke-opacity:1;paint-order:fill markers stroke;stop-color:#000000"
           id="path23"
           cx="104.41728"
           cy="76.671555"
           r="1.6666732" /><circle
           style="font-variation-settings:normal;fill:#ffffff;fill-opacity:1;stroke:#000000;stroke-width:2;stroke-linecap:butt;stroke-linejoin:miter;stroke-miterlimit:4;stroke-dasharray:none;stroke-dashoffset:0;stroke-opacity:1;paint-order:fill markers stroke;stop-color:#000000"
           id="circle23"
           cx="162.60651"
           cy="74.379883"
           r="1.6666732" /><circle
           style="font-variation-settings:normal;fill:#ffffff;fill-opacity:1;stroke:#000000;stroke-width:2;stroke-linecap:butt;stroke-linejoin:miter;stroke-miterlimit:4;stroke-dasharray:none;stroke-dashoffset:0;stroke-opacity:1;paint-order:fill markers stroke;stop-color:#000000"
           id="circle24"
           cx="192.54262"
           cy="69.171524"
           r="1.6666732" /><circle
           style="font-variation-settings:normal;fill:#ffffff;fill-opacity:1;stroke:#000000;stroke-width:2;stroke-linecap:butt;stroke-linejoin:miter;stroke-miterlimit:4;stroke-dasharray:none;stroke-dashoffset:0;stroke-opacity:1;paint-order:fill markers stroke;stop-color:#000000"
           id="circle25"
           cx="193.48012"
           cy="87.696312"
           r="1.6666732" /><circle
           style="font-variation-settings:normal;fill:#ffffff;fill-opacity:1;stroke:#000000;stroke-width:2;stroke-linecap:butt;stroke-linejoin:miter;stroke-miterlimit:4;stroke-dasharray:none;stroke-dashoffset:0;stroke-opacity:1;paint-order:fill markers stroke;stop-color:#000000"
           id="circle26"
           cx="185.67245"
           cy="95.838295"
           r="1.6666732" /><circle
           style="font-variation-settings:normal;fill:#ffffff;fill-opacity:1;stroke:#000000;stroke-width:2;stroke-linecap:butt;stroke-linejoin:miter;stroke-miterlimit:4;stroke-dasharray:none;stroke-dashoffset:0;stroke-opacity:1;paint-order:fill markers stroke;stop-color:#000000"
           id="circle27"
           cx="193.4433"
           cy="113.96336"
           r="1.6666732" /><circle
           style="font-variation-settings:normal;fill:#ffffff;fill-opacity:1;stroke:#000000;stroke-width:2;stroke-linecap:butt;stroke-linejoin:miter;stroke-miterlimit:4;stroke-dasharray:none;stroke-dashoffset:0;stroke-opacity:1;paint-order:fill markers stroke;stop-color:#000000"
           id="circle28"
           cx="195.0218"
           cy="139.04366"
           r="1.6666732" /><circle
           style="font-variation-settings:normal;fill:#ffffff;fill-opacity:1;stroke:#000000;stroke-width:2;stroke-linecap:butt;stroke-linejoin:miter;stroke-miterlimit:4;stroke-dasharray:none;stroke-dashoffset:0;stroke-opacity:1;paint-order:fill markers stroke;stop-color:#000000"
           id="circle29"
           cx="189.20927"
           cy="151.30759"
           r="1.6666732" /><circle
           style="font-variation-settings:normal;fill:#ffffff;fill-opacity:1;stroke:#000000;stroke-width:2;stroke-linecap:butt;stroke-linejoin:miter;stroke-miterlimit:4;stroke-dasharray:none;stroke-dashoffset:0;stroke-opacity:1;paint-order:fill markers stroke;stop-color:#000000"
           id="circle30"
           cx="183.68842"
           cy="147.50517"
           r="1.6666732" /><circle
           style="font-variation-settings:normal;fill:#ffffff;fill-opacity:1;stroke:#000000;stroke-width:2;stroke-linecap:butt;stroke-linejoin:miter;stroke-miterlimit:4;stroke-dasharray:none;stroke-dashoffset:0;stroke-opacity:1;paint-order:fill markers stroke;stop-color:#000000"
           id="circle31"
           cx="195.4593"
           cy="147.92183"
           r="1.6666732" /><circle
           style="font-variation-settings:normal;fill:#ffffff;fill-opacity:1;stroke:#000000;stroke-width:2;stroke-linecap:butt;stroke-linejoin:miter;stroke-miterlimit:4;stroke-dasharray:none;stroke-dashoffset:0;stroke-opacity:1;paint-order:fill markers stroke;stop-color:#000000"
           id="circle32"
           cx="139.62573"
           cy="161.56772"
           r="1.6666732" /><circle
           style="font-variation-settings:normal;fill:#ffffff;fill-opacity:1;stroke:#000000;stroke-width:2;stroke-linecap:butt;stroke-linejoin:miter;stroke-miterlimit:4;stroke-dasharray:none;stroke-dashoffset:0;stroke-opacity:1;paint-order:fill markers stroke;stop-color:#000000"
           id="circle33"
           cx="129.05592"
           cy="154.69269"
           r="1.6666732" /><circle
           style="font-variation-settings:normal;fill:#ffffff;fill-opacity:1;stroke:#000000;stroke-width:2;stroke-linecap:butt;stroke-linejoin:miter;stroke-miterlimit:4;stroke-dasharray:none;stroke-dashoffset:0;stroke-opacity:1;paint-order:fill markers stroke;stop-color:#000000"
           id="circle34"
           cx="134.32242"
           cy="162.97913"
           r="1.6666732" /><circle
           style="font-variation-settings:normal;fill:#ffffff;fill-opacity:1;stroke:#000000;stroke-width:2;stroke-linecap:butt;stroke-linejoin:miter;stroke-miterlimit:4;stroke-dasharray:none;stroke-dashoffset:0;stroke-opacity:1;paint-order:fill markers stroke;stop-color:#000000"
           id="circle35"
           cx="110.5631"
           cy="160.76941"
           r="1.6666732" /><circle
           style="font-variation-settings:normal;fill:#ffffff;fill-opacity:1;stroke:#000000;stroke-width:2;stroke-linecap:butt;stroke-linejoin:miter;stroke-miterlimit:4;stroke-dasharray:none;stroke-dashoffset:0;stroke-opacity:1;paint-order:fill markers stroke;stop-color:#000000"
           id="circle36"
           cx="102.33394"
           cy="163.7157"
           r="1.6666732" /><circle
           style="font-variation-settings:normal;fill:#ffffff;fill-opacity:1;stroke:#000000;stroke-width:2;stroke-linecap:butt;stroke-linejoin:miter;stroke-miterlimit:4;stroke-dasharray:none;stroke-dashoffset:0;stroke-opacity:1;paint-order:fill markers stroke;stop-color:#000000"
           id="circle37"
           cx="101.92882"
           cy="123.13008"
           r="1.6666732" /><circle
           style="font-variation-settings:normal;fill:#ffffff;fill-opacity:1;stroke:#000000;stroke-width:2;stroke-linecap:butt;stroke-linejoin:miter;stroke-miterlimit:4;stroke-dasharray:none;stroke-dashoffset:0;stroke-opacity:1;paint-order:fill markers stroke;stop-color:#000000"
           id="circle38"
           cx="101.1881"
           cy="97.092247"
           r="1.6666732" /><circle
           style="font-variation-settings:normal;fill:#ffffff;fill-opacity:1;stroke:#000000;stroke-width:2;stroke-linecap:butt;stroke-linejoin:miter;stroke-miterlimit:4;stroke-dasharray:none;stroke-dashoffset:0;stroke-opacity:1;paint-order:fill markers stroke;stop-color:#000000"
           id="circle39"
           cx="107.75063"
           cy="89.616035"
           r="1.6666732" /><circle
           style="font-variation-settings:normal;fill:#ffffff;fill-opacity:1;stroke:#000000;stroke-width:2;stroke-linecap:butt;stroke-linejoin:miter;stroke-miterlimit:4;stroke-dasharray:none;stroke-dashoffset:0;stroke-opacity:1;paint-order:fill markers stroke;stop-color:#000000"
           id="circle40"
           cx="102.12561"
           cy="89.796608"
           r="1.6666732" /></g><rect
         style="fill:#429195;stroke-width:2.47999;stroke-linecap:round;stroke-linejoin:round;-inkscape-stroke:none;paint-order:fill markers stroke"
         id="rect2-4"
         width="224"
         height="96"
         x="-1209.9446"
         y="194.75943"
         rx="9.5952625"
         ry="9.5952625" /><path
         id="path8-5"
         style="font-variation-settings:normal;vector-effect:none;fill:#000000;fill-opacity:1;stroke-width:0.999999;stroke-linecap:round;stroke-linejoin:round;stroke-miterlimit:4;stroke-dasharray:none;stroke-dashoffset:0;stroke-opacity:1;-inkscape-stroke:none;paint-order:fill markers stroke;stop-color:#000000"
         d="m -896.34888,274.75943 c -0.66447,0 -1.3137,0.066 -1.93945,0.19336 -0.62575,0.1274 -1.22837,0.31646 -1.80273,0.55859 -0.57437,0.24213 -1.12055,0.53862 -1.63086,0.88282 -0.51031,0.34419 -0.98439,0.73633 -1.41797,1.16992 -0.43359,0.43358 -0.82573,0.90766 -1.16992,1.41797 -0.3442,0.51031 -0.64069,1.05649 -0.88282,1.63086 -0.24213,0.57436 -0.43119,1.17698 -0.55859,1.80273 -0.1274,0.62575 -0.19336,1.27498 -0.19336,1.93945 v 76.8086 c 0,0.66447 0.066,1.3137 0.19336,1.93945 0.1274,0.62575 0.31646,1.22837 0.55859,1.80273 0.24213,0.57437 0.53862,1.12055 0.88282,1.63086 0.34419,0.51031 0.73633,0.98439 1.16992,1.41797 0.43358,0.43359 0.90766,0.82573 1.41797,1.16992 0.51031,0.3442 1.05649,0.64069 1.63086,0.88282 0.57436,0.24213 1.17698,0.43119 1.80273,0.55859 0.62575,0.1274 1.27498,0.19336 1.93945,0.19336 h 74.50782 c 1.05513,3e-4 2.10771,-0.30847 3.14257,-0.92188 1.03476,-0.6136 2.04679,-1.5288 3.02149,-2.73242 0.97422,-1.20333 1.90643,-2.68898 2.7832,-4.43554 0.87744,-1.7464 1.69517,-3.74559 2.44141,-5.96875 0.74561,-2.22324 1.41615,-4.65942 2.00195,-7.27344 0.58609,-2.61431 1.08458,-5.39394 1.48828,-8.29883 0.40353,-2.90465 0.71034,-5.92043 0.91602,-9.00391 0.20553,-3.08408 0.30889,-6.22089 0.30859,-9.36523 4.2e-4,-1.04702 -0.0106,-2.09381 -0.0332,-3.13867 -0.023,-1.04541 -0.0576,-2.08828 -0.10352,-3.12696 -0.0459,-1.03851 -0.10325,-2.07227 -0.17187,-3.0996 -0.0682,-1.02701 -0.14768,-2.04709 -0.23828,-3.0586 -0.0912,-1.01166 -0.19345,-2.01415 -0.30664,-3.00586 -0.11291,-0.99162 -0.23668,-1.97196 -0.3711,-2.93945 -0.13467,-0.96769 -0.27992,-1.92198 -0.43554,-2.86133 -0.15519,-0.93905 -0.32065,-1.86272 -0.4961,-2.76953 -0.17573,-0.90719 -0.36138,-1.79699 -0.55664,-2.66797 -0.19503,-0.87062 -0.39957,-1.72198 -0.61328,-2.55273 -0.21435,-0.83083 -0.43778,-1.64051 -0.66992,-2.42774 -0.23113,-0.78747 -0.47085,-1.5522 -0.71875,-2.29297 -0.24858,-0.74033 -0.50523,-1.4562 -0.76953,-2.14648 -0.26412,-0.69036 -0.53576,-1.35478 -0.81446,-1.99219 -0.27903,-0.63776 -0.56499,-1.24811 -0.85742,-1.83008 -0.29203,-0.58166 -0.59037,-1.13469 -0.89453,-1.6582 -0.30439,-0.52425 -0.61445,-1.01866 -0.92969,-1.48242 -0.31484,-0.46268 -0.63467,-0.89455 -0.95898,-1.29492 -0.32463,-0.40112 -0.65359,-0.77046 -0.98633,-1.10743 -0.33316,-0.33683 -0.66993,-0.64102 -1.00977,-0.9121 -0.3391,-0.27088 -0.68108,-0.50864 -1.02539,-0.7129 -0.34504,-0.20441 -0.69222,-0.37508 -1.04101,-0.51171 -0.34775,-0.13617 -0.69689,-0.23844 -1.04688,-0.30664 -0.35109,-0.0688 -0.70284,-0.10336 -1.05468,-0.10352 z"
         sodipodi:nodetypes="ssssssssssssssssssccccccccccsccccccccccccccccccccccs" /><path
         d="m -793.32108,274.75943 c 0.35185,1.6e-4 0.70359,0.0347 1.05468,0.10352 0.34999,0.0682 0.69913,0.17047 1.04688,0.30664 0.34879,0.13663 0.69597,0.3073 1.04101,0.51171 0.34431,0.20426 0.68629,0.44202 1.02539,0.7129 0.33984,0.27108 0.67661,0.57528 1.00977,0.9121 0.33274,0.33697 0.6617,0.70631 0.98633,1.10743 0.32432,0.40101 0.64415,0.83354 0.95898,1.29687 0.31523,0.46312 0.6253,0.95688 0.92969,1.48047 0.30416,0.52351 0.6025,1.07654 0.89453,1.6582 0.29243,0.58197 0.57839,1.19232 0.85742,1.83008 0.2787,0.63741 0.55034,1.30183 0.81446,1.99219 0.2643,0.69028 0.52095,1.40615 0.76953,2.14648 0.2479,0.74077 0.48762,1.50551 0.71875,2.29297 0.23214,0.78723 0.45557,1.59691 0.66992,2.42774 0.21371,0.83075 0.41825,1.68211 0.61328,2.55273 0.19526,0.87098 0.38091,1.76078 0.55664,2.66797 0.17545,0.90681 0.34091,1.83048 0.4961,2.76953 0.15562,0.93936 0.30087,1.89364 0.43554,2.86133 0.13442,0.96749 0.25819,1.94783 0.3711,2.93945 0.11319,0.99171 0.21546,1.9942 0.30664,3.00586 0.0906,1.01216 0.17008,2.03289 0.23828,3.06055 0.0686,1.02669 0.12593,2.05979 0.17187,3.09765 0.046,1.03868 0.0805,2.08155 0.10352,3.12696 0.0225,1.04486 0.0336,2.09165 0.0332,3.13867 3e-4,3.14434 -0.10306,6.28115 -0.30859,9.36523 -0.20568,3.08348 -0.51249,6.09926 -0.91602,9.00391 -0.4037,2.90489 -0.90219,5.68452 -1.48828,8.29883 -0.5858,2.61402 -1.25634,5.0502 -2.00195,7.27343 -0.74624,2.22316 -1.56397,4.22235 -2.44141,5.96875 -0.87677,1.74657 -1.80898,3.23222 -2.7832,4.43556 -0.9747,1.20362 -1.98673,2.11882 -3.02149,2.73242 -1.03486,0.6134 -2.08744,0.92218 -3.14257,0.92187 h 102.30078 c 0.66447,0 1.3137,-0.066 1.93945,-0.19336 0.62575,-0.1274 1.22837,-0.31646 1.80273,-0.55859 0.57437,-0.24213 1.12055,-0.53862 1.63086,-0.88281 0.51031,-0.3442 0.98439,-0.73634 1.41797,-1.16992 0.43359,-0.43359 0.82573,-0.90766 1.16992,-1.41797 0.3442,-0.51031 0.64069,-1.05649 0.88282,-1.63086 0.24213,-0.57437 0.43119,-1.17699 0.55859,-1.80274 0.1274,-0.62576 0.19336,-1.27499 0.19336,-1.93946 v -76.80859 c 0,-0.66447 -0.066,-1.3137 -0.19336,-1.93945 -0.1274,-0.62575 -0.31646,-1.22837 -0.55859,-1.80273 -0.24213,-0.57437 -0.53862,-1.12055 -0.88282,-1.63086 -0.34419,-0.51031 -0.73633,-0.98439 -1.16992,-1.41797 -0.43358,-0.43359 -0.90766,-0.82573 -1.41797,-1.16992 -0.51031,-0.3442 -1.05649,-0.64069 -1.63086,-0.88282 -0.57436,-0.24213 -1.17698,-0.42924 -1.80273,-0.55664 -0.62575,-0.1274 -1.27498,-0.19531 -1.93945,-0.19531 z"
         style="font-variation-settings:normal;vector-effect:none;fill:#000000;fill-opacity:1;stroke-width:0.999999;stroke-linecap:round;stroke-linejoin:round;stroke-miterlimit:4;stroke-dasharray:none;stroke-dashoffset:0;stroke-opacity:1;-inkscape-stroke:none;paint-order:fill markers stroke;stop-color:#000000"
         id="path9"
         sodipodi:nodetypes="cccccccccccccccccccccccccccccccccssssssssssssssssssc" /><path
         d="m -746.88843,296.6069 c -1.23037,0 -2.60006,0.79858 -3.63713,2.87243 l -0.92605,1.85292 c 0.33739,-0.0276 0.67587,-0.0422 1.01421,-0.0422 2.45151,0 4.89826,0.72961 7.0566,2.17358 v -4.21519 c -1.02033,-1.89332 -2.32663,-2.6417 -3.50749,-2.6417 z m 18.92752,0 c -1.18086,0 -2.48688,0.74824 -3.50721,2.6417 v 4.21655 c 2.4575,-1.64069 5.29143,-2.35084 8.07353,-2.12746 l -0.92918,-1.85836 c -1.0372,-2.07398 -2.40689,-2.87243 -3.63727,-2.87243 z m -22.47663,7.06422 c -2.59163,0 -5.18055,1.04659 -7.311,3.12901 l -5.08532,8.89972 c 1.97155,-0.91734 4.16743,-1.43091 6.48114,-1.43091 5.43631,0 10.22505,2.82863 12.97178,7.09115 V 306.5528 c -2.08052,-1.92026 -4.56836,-2.88168 -7.0566,-2.88168 z m 26.17934,0.005 c -2.53885,-0.0416 -5.08668,0.91694 -7.20992,2.87665 v 14.8077 c 2.74672,-4.26226 7.53548,-7.09102 12.97152,-7.09102 2.3141,0 4.50985,0.51357 6.48153,1.43091 l -5.08532,-8.8997 c -2.08827,-2.04106 -4.61868,-3.08275 -7.15754,-3.12452 z m -13.16646,1.80394 c -0.6956,0 -1.61648,0.37752 -3.50762,1.3097 V 324.885 c 0.98577,-0.72294 2.19901,-1.15188 3.50762,-1.15188 1.30874,0 2.52184,0.42908 3.50762,1.15202 v -18.09589 c -1.89101,-0.93218 -2.81204,-1.3097 -3.50762,-1.3097 z m -18.92779,11.23817 c -7.17863,0 -12.97179,5.79302 -12.97179,12.97152 0,7.17849 5.79316,12.97178 12.97179,12.97178 7.17835,0 12.97137,-5.79329 12.97137,-12.97178 0,-7.1785 -5.79302,-12.97152 -12.97151,-12.97152 z m 37.85558,0 c -7.17836,0 -12.97139,5.79302 -12.97139,12.97152 0,7.17849 5.79303,12.97178 12.97152,12.97178 7.17863,0 12.97178,-5.79329 12.97178,-12.97178 0,-7.1785 -5.79315,-12.97152 -12.97178,-12.97152 z m -38.06877,2.58538 c 0.16638,-0.002 0.33304,-0.001 0.49983,0.004 0.99911,0.0306 1.99903,0.19889 2.96168,0.51914 5.01212,1.54315 8.12794,7.02857 6.88681,12.12287 -1.04101,5.13472 -6.18387,8.77621 -11.37259,8.04974 -5.27142,-0.52581 -9.43818,-5.38435 -9.1367,-10.67714 0.0227,-1.55226 0.42621,-3.03868 1.11555,-4.37027 a 3.5489774,3.5489774 0 0 0 3.34342,2.37165 3.5489774,3.5489774 0 0 0 3.54938,-3.54857 3.5489774,3.5489774 0 0 0 -2.37355,-3.3445 c 1.23228,-0.63859 2.59802,-1.03312 4.02771,-1.10835 0.1657,-0.01 0.33195,-0.0161 0.49833,-0.0186 z m 37.85558,0 c 0.16638,-0.002 0.33304,-0.001 0.49969,0.004 0.99911,0.0306 1.9993,0.19889 2.96222,0.51914 5.01186,1.54315 8.12753,7.02857 6.88654,12.12287 -1.041,5.13457 -6.1836,8.7762 -11.3719,8.05013 -5.2717,-0.52581 -9.43873,-5.38489 -9.13712,-10.67781 0.0227,-1.55227 0.42623,-3.03841 1.11555,-4.37001 a 3.5489774,3.5489774 0 0 0 3.34329,2.37166 3.5489774,3.5489774 0 0 0 3.54884,-3.54857 3.5489774,3.5489774 0 0 0 -2.37301,-3.34451 c 1.23214,-0.63859 2.59775,-1.03311 4.0273,-1.10835 0.16598,-0.01 0.33195,-0.0161 0.49847,-0.0186 z m -18.7146,6.87865 c -1.95169,0 -3.50762,1.5558 -3.50762,3.50749 0,1.95168 1.55593,3.50761 3.50762,3.50761 1.95168,0 3.50762,-1.55593 3.50762,-3.50761 0,-1.95169 -1.55594,-3.50722 -3.50762,-3.50722 z"
         fill="#ffffff"
         fill-opacity="1"
         id="path10-5"
         style="font-variation-settings:normal;vector-effect:none;fill:#ececec;fill-opacity:1;stroke-width:2.47999;stroke-linecap:round;stroke-linejoin:round;stroke-miterlimit:4;stroke-dasharray:none;stroke-dashoffset:0;stroke-opacity:1;-inkscape-stroke:none;paint-order:fill markers stroke;stop-color:#000000" /><path
         d="m -865.89718,296.6069 c -1.23037,0 -2.60006,0.79858 -3.63713,2.87243 l -0.92605,1.85292 c 0.33739,-0.0276 0.67587,-0.0422 1.01421,-0.0422 2.45151,0 4.89826,0.72961 7.0566,2.17358 v -4.21519 c -1.02033,-1.89332 -2.32663,-2.6417 -3.50749,-2.6417 z m 18.92752,0 c -1.18086,0 -2.48688,0.74824 -3.50721,2.6417 v 4.21655 c 2.4575,-1.64069 5.29143,-2.35084 8.07353,-2.12746 l -0.92918,-1.85836 c -1.0372,-2.07398 -2.40689,-2.87243 -3.63727,-2.87243 z m -22.47663,7.06422 c -2.59163,0 -5.18055,1.04659 -7.311,3.12901 l -5.08532,8.89972 c 1.97155,-0.91734 4.16743,-1.43091 6.48114,-1.43091 5.43631,0 10.22505,2.82863 12.97178,7.09115 V 306.5528 c -2.08052,-1.92026 -4.56836,-2.88168 -7.0566,-2.88168 z m 26.17934,0.005 c -2.53885,-0.0416 -5.08668,0.91694 -7.20992,2.87665 v 14.8077 c 2.74672,-4.26226 7.53548,-7.09102 12.97152,-7.09102 2.3141,0 4.50985,0.51357 6.48153,1.43091 l -5.08532,-8.8997 c -2.08827,-2.04106 -4.61868,-3.08275 -7.15754,-3.12452 z m -13.16646,1.80394 c -0.6956,0 -1.61648,0.37752 -3.50762,1.3097 V 324.885 c 0.98577,-0.72294 2.19901,-1.15188 3.50762,-1.15188 1.30874,0 2.52184,0.42908 3.50762,1.15202 v -18.09589 c -1.89101,-0.93218 -2.81204,-1.3097 -3.50762,-1.3097 z m -18.92779,11.23817 c -7.17863,0 -12.97179,5.79302 -12.97179,12.97152 0,7.17849 5.79316,12.97178 12.97179,12.97178 7.17835,0 12.97137,-5.79329 12.97137,-12.97178 0,-7.1785 -5.79302,-12.97152 -12.97151,-12.97152 z m 37.85558,0 c -7.17836,0 -12.97139,5.79302 -12.97139,12.97152 0,7.17849 5.79303,12.97178 12.97152,12.97178 7.17863,0 12.97178,-5.79329 12.97178,-12.97178 0,-7.1785 -5.79315,-12.97152 -12.97178,-12.97152 z m -38.06877,2.58538 c 0.16638,-0.002 0.33304,-0.001 0.49983,0.004 0.99911,0.0306 1.99903,0.19889 2.96168,0.51914 5.01212,1.54315 8.12794,7.02857 6.88681,12.12287 -1.04101,5.13472 -6.18387,8.77621 -11.37259,8.04974 -5.27142,-0.52581 -9.43818,-5.38435 -9.1367,-10.67714 0.0227,-1.55226 0.42621,-3.03868 1.11555,-4.37027 a 3.5489774,3.5489774 0 0 0 3.34342,2.37165 3.5489774,3.5489774 0 0 0 3.54938,-3.54857 3.5489774,3.5489774 0 0 0 -2.37355,-3.3445 c 1.23228,-0.63859 2.59802,-1.03312 4.02771,-1.10835 0.1657,-0.01 0.33195,-0.0161 0.49833,-0.0186 z m 37.85558,0 c 0.16638,-0.002 0.33304,-0.001 0.49969,0.004 0.99911,0.0306 1.9993,0.19889 2.96222,0.51914 5.01186,1.54315 8.12753,7.02857 6.88654,12.12287 -1.041,5.13457 -6.1836,8.7762 -11.3719,8.05013 -5.2717,-0.52581 -9.43873,-5.38489 -9.13712,-10.67781 0.0227,-1.55227 0.42623,-3.03841 1.11555,-4.37001 a 3.5489774,3.5489774 0 0 0 3.34329,2.37166 3.5489774,3.5489774 0 0 0 3.54884,-3.54857 3.5489774,3.5489774 0 0 0 -2.37301,-3.34451 c 1.23214,-0.63859 2.59775,-1.03311 4.0273,-1.10835 0.16598,-0.01 0.33195,-0.0161 0.49847,-0.0186 z m -18.7146,6.87865 c -1.95169,0 -3.50762,1.5558 -3.50762,3.50749 0,1.95168 1.55593,3.50761 3.50762,3.50761 1.95168,0 3.50762,-1.55593 3.50762,-3.50761 0,-1.95169 -1.55594,-3.50722 -3.50762,-3.50722 z"
         fill="#ffffff"
         fill-opacity="1"
         id="path11-1"
         style="font-variation-settings:normal;vector-effect:none;fill:#ececec;fill-opacity:1;stroke-width:2.47999;stroke-linecap:round;stroke-linejoin:round;stroke-miterlimit:4;stroke-dasharray:none;stroke-dashoffset:0;stroke-opacity:1;-inkscape-stroke:none;paint-order:fill markers stroke;stop-color:#000000" /><path
         id="path12-7"
         style="font-variation-settings:normal;vector-effect:none;fill:#000000;fill-opacity:1;stroke-width:0.999999;stroke-linecap:round;stroke-linejoin:round;stroke-miterlimit:4;stroke-dasharray:none;stroke-dashoffset:0;stroke-opacity:1;-inkscape-stroke:none;paint-order:fill markers stroke;stop-color:#000000"
         d="m -342.75318,274.75943 c -0.66447,0 -1.3137,0.066 -1.93945,0.19336 -0.62575,0.1274 -1.22837,0.31646 -1.80273,0.55859 -0.57437,0.24213 -1.12055,0.53862 -1.63086,0.88282 -0.51031,0.34419 -0.98439,0.73633 -1.41797,1.16992 -0.43359,0.43358 -0.82573,0.90766 -1.16992,1.41797 -0.3442,0.51031 -0.64069,1.05649 -0.88282,1.63086 -0.24213,0.57436 -0.43119,1.17698 -0.55859,1.80273 -0.1274,0.62575 -0.19336,1.27498 -0.19336,1.93945 v 76.8086 c 0,0.66447 0.066,1.3137 0.19336,1.93945 0.1274,0.62575 0.31646,1.22837 0.55859,1.80273 0.24213,0.57437 0.53862,1.12055 0.88282,1.63086 0.34419,0.51031 0.73633,0.98439 1.16992,1.41797 0.43358,0.43359 0.90766,0.82573 1.41797,1.16992 0.51031,0.3442 1.05649,0.64069 1.63086,0.88282 0.57436,0.24213 1.17698,0.43119 1.80273,0.55859 0.62575,0.1274 1.27498,0.19336 1.93945,0.19336 h 74.50782 c 1.05513,3e-4 2.10771,-0.30847 3.14257,-0.92188 1.03476,-0.6136 2.04679,-1.5288 3.02149,-2.73242 0.97422,-1.20333 1.90643,-2.68898 2.7832,-4.43554 0.87744,-1.7464 1.69517,-3.74559 2.44141,-5.96875 0.74561,-2.22324 1.41615,-4.65942 2.00195,-7.27344 0.58609,-2.61431 1.08458,-5.39394 1.48828,-8.29883 0.40353,-2.90465 0.71034,-5.92043 0.91602,-9.00391 0.20553,-3.08408 0.30889,-6.22089 0.30859,-9.36523 4.2e-4,-1.04702 -0.0106,-2.09381 -0.0332,-3.13867 -0.023,-1.04541 -0.0576,-2.08828 -0.10352,-3.12695 -0.0459,-1.03852 -0.10325,-2.07228 -0.17187,-3.09961 -0.0682,-1.02701 -0.14768,-2.04708 -0.23828,-3.0586 -0.0912,-1.01166 -0.19345,-2.01415 -0.30664,-3.00586 -0.11291,-0.99162 -0.23668,-1.97196 -0.3711,-2.93945 -0.13467,-0.96769 -0.27992,-1.92197 -0.43554,-2.86133 -0.15519,-0.93905 -0.32065,-1.86272 -0.4961,-2.76953 -0.17573,-0.90719 -0.36138,-1.79699 -0.55664,-2.66797 -0.19503,-0.87062 -0.39957,-1.72198 -0.61328,-2.55273 -0.21435,-0.83083 -0.43778,-1.64051 -0.66992,-2.42774 -0.23113,-0.78746 -0.47085,-1.5522 -0.71875,-2.29297 -0.24858,-0.74032 -0.50523,-1.4562 -0.76953,-2.14648 -0.26412,-0.69036 -0.53576,-1.35478 -0.81446,-1.99219 -0.27903,-0.63776 -0.56499,-1.24811 -0.85742,-1.83008 -0.29203,-0.58166 -0.59037,-1.13469 -0.89453,-1.6582 -0.30439,-0.52425 -0.61445,-1.01866 -0.92969,-1.48242 -0.31484,-0.46268 -0.63467,-0.89455 -0.95898,-1.29492 -0.32463,-0.40112 -0.65359,-0.77046 -0.98633,-1.10742 -0.33316,-0.33683 -0.66993,-0.64103 -1.00977,-0.91211 -0.3391,-0.27088 -0.68108,-0.50864 -1.02539,-0.71289 -0.34504,-0.20442 -0.69222,-0.37509 -1.04101,-0.51172 -0.34775,-0.13617 -0.69689,-0.23844 -1.04688,-0.30664 -0.35109,-0.0688 -0.70284,-0.10336 -1.05468,-0.10352 z"
         sodipodi:nodetypes="ssssssssssssssssssccccccccccsccccccccccccccccccccccs" /><path
         d="m -224.24536,274.75943 c 0.35185,1.6e-4 0.70359,0.0347 1.05468,0.10352 0.34999,0.0682 0.69913,0.17047 1.04688,0.30664 0.34879,0.13663 0.69597,0.3073 1.04101,0.51171 0.34431,0.20426 0.68629,0.44202 1.02539,0.7129 0.33984,0.27108 0.67661,0.57528 1.00977,0.91211 0.33274,0.33696 0.6617,0.7063 0.98633,1.10742 0.32432,0.40101 0.64415,0.83354 0.95898,1.29687 0.31523,0.46312 0.6253,0.95688 0.92969,1.48047 0.30416,0.52351 0.6025,1.07654 0.89453,1.6582 0.29243,0.58197 0.57839,1.19232 0.85742,1.83008 0.2787,0.63741 0.55034,1.30183 0.81446,1.99219 0.2643,0.69028 0.52095,1.40616 0.76953,2.14648 0.2479,0.74077 0.48762,1.50551 0.71875,2.29297 0.23214,0.78723 0.45557,1.59691 0.66992,2.42774 0.21371,0.83075 0.41825,1.68212 0.61328,2.55273 0.19526,0.87098 0.38091,1.76078 0.55664,2.66797 0.17545,0.90681 0.34091,1.83048 0.4961,2.76953 0.15562,0.93936 0.30087,1.89364 0.43554,2.86133 0.13442,0.96749 0.25819,1.94783 0.3711,2.93945 0.11319,0.99171 0.21546,1.9942 0.30664,3.00586 0.0906,1.01216 0.17008,2.03289 0.23828,3.06055 0.0686,1.02669 0.12593,2.05979 0.17187,3.09766 0.046,1.03867 0.0805,2.08154 0.10352,3.12695 0.0225,1.04486 0.0336,2.09165 0.0332,3.13867 3e-4,3.14434 -0.10306,6.28115 -0.30859,9.36523 -0.20568,3.08348 -0.51249,6.09927 -0.91602,9.00391 -0.4037,2.90489 -0.90219,5.68452 -1.48828,8.29883 -0.5858,2.61402 -1.25634,5.0502 -2.00195,7.27343 -0.74624,2.22316 -1.56397,4.22235 -2.44141,5.96875 -0.87677,1.74657 -1.80898,3.23222 -2.7832,4.43556 -0.9747,1.20362 -1.98673,2.11882 -3.02149,2.73242 -1.03486,0.6134 -2.08744,0.92218 -3.14257,0.92187 h 86.30078 c 0.66447,0 1.3137,-0.066 1.93945,-0.19336 0.62575,-0.1274 1.22837,-0.31646 1.80273,-0.55859 0.57437,-0.24213 1.12055,-0.53862 1.63086,-0.88281 0.51031,-0.3442 0.98439,-0.73634 1.41797,-1.16992 0.43359,-0.43359 0.82573,-0.90766 1.16992,-1.41797 0.3442,-0.51031 0.64069,-1.05649 0.88282,-1.63086 0.24213,-0.57437 0.43119,-1.17699 0.55859,-1.80274 0.1274,-0.62576 0.19336,-1.27499 0.19336,-1.93946 v -76.80859 c 0,-0.66447 -0.066,-1.3137 -0.19336,-1.93945 -0.1274,-0.62575 -0.31646,-1.22837 -0.55859,-1.80273 -0.24213,-0.57437 -0.53862,-1.12055 -0.88282,-1.63086 -0.34419,-0.51031 -0.73633,-0.98439 -1.16992,-1.41797 -0.43358,-0.43359 -0.90766,-0.82573 -1.41797,-1.16992 -0.51031,-0.3442 -1.05649,-0.64069 -1.63086,-0.88282 -0.57436,-0.24213 -1.17698,-0.42924 -1.80273,-0.55664 -0.62575,-0.1274 -1.27498,-0.19531 -1.93945,-0.19531 z"
         style="font-variation-settings:normal;vector-effect:none;fill:#000000;fill-opacity:1;stroke-width:0.999999;stroke-linecap:round;stroke-linejoin:round;stroke-miterlimit:4;stroke-dasharray:none;stroke-dashoffset:0;stroke-opacity:1;-inkscape-stroke:none;paint-order:fill markers stroke;stop-color:#000000"
         id="path13-1"
         sodipodi:nodetypes="cccccccccccccccccccccccccccccccccssssssssssssssssssc" /><path
         id="path16-1"
         style="fill:#429195;stroke-width:2.47999;stroke-linecap:round;stroke-linejoin:round;paint-order:fill markers stroke"
         d="m -1194.9568,511.98949 c -0.6645,0 -1.3137,0.066 -1.9395,0.19336 -0.6257,0.1274 -1.2283,0.31646 -1.8027,0.55859 -0.5744,0.24213 -1.1205,0.53862 -1.6309,0.88282 -0.5103,0.34419 -0.9843,0.73633 -1.4179,1.16992 -0.4336,0.43358 -0.8258,0.90766 -1.1699,1.41797 -0.3442,0.51031 -0.6407,1.05649 -0.8829,1.63086 -0.2421,0.57436 -0.4312,1.17698 -0.5586,1.80273 -0.1274,0.62575 -0.1933,1.27498 -0.1933,1.93945 v 76.8086 c 0,0.66447 0.066,1.3137 0.1933,1.93945 0.1274,0.62575 0.3165,1.22837 0.5586,1.80273 0.2422,0.57437 0.5387,1.12055 0.8829,1.63086 0.3441,0.51031 0.7363,0.98439 1.1699,1.41797 0.4336,0.43359 0.9076,0.82573 1.4179,1.16992 0.5104,0.3442 1.0565,0.64069 1.6309,0.88282 0.5744,0.24213 1.177,0.43119 1.8027,0.55859 0.6258,0.1274 1.275,0.19336 1.9395,0.19336 h 74.5078 c 1.0551,3e-4 2.1077,-0.30847 3.1426,-0.92188 1.0347,-0.6136 2.0468,-1.5288 3.0215,-2.73242 0.9742,-1.20333 1.9064,-2.68898 2.7832,-4.43554 0.8774,-1.7464 1.6951,-3.74559 2.4414,-5.96875 0.7456,-2.22324 1.4161,-4.65942 2.0019,-7.27344 0.5861,-2.61431 1.0846,-5.39394 1.4883,-8.29883 0.4035,-2.90465 0.7103,-5.92043 0.916,-9.00391 0.2056,-3.08408 0.3089,-6.22089 0.3086,-9.36523 4e-4,-1.04702 -0.011,-2.09381 -0.033,-3.13867 -0.023,-1.04541 -0.058,-2.08828 -0.1035,-3.12695 -0.046,-1.03852 -0.1033,-2.07228 -0.1719,-3.09961 -0.068,-1.02701 -0.1477,-2.04708 -0.2383,-3.0586 -0.091,-1.01166 -0.1934,-2.01415 -0.3066,-3.00586 -0.1129,-0.99162 -0.2367,-1.97196 -0.3711,-2.93945 -0.1347,-0.96769 -0.2799,-1.92197 -0.4355,-2.86133 -0.1552,-0.93905 -0.3207,-1.86272 -0.4961,-2.76953 -0.1758,-0.90719 -0.3614,-1.79699 -0.5567,-2.66797 -0.195,-0.87062 -0.3995,-1.72198 -0.6133,-2.55273 -0.2143,-0.83083 -0.4377,-1.64051 -0.6699,-2.42774 -0.2311,-0.78746 -0.4708,-1.5522 -0.7187,-2.29297 -0.2486,-0.74032 -0.5053,-1.4562 -0.7696,-2.14648 -0.2641,-0.69036 -0.5357,-1.35478 -0.8144,-1.99219 -0.279,-0.63776 -0.565,-1.24811 -0.8574,-1.83008 -0.2921,-0.58166 -0.5904,-1.13469 -0.8946,-1.6582 -0.3044,-0.52425 -0.6144,-1.01866 -0.9297,-1.48242 -0.3148,-0.46268 -0.6346,-0.89455 -0.9589,-1.29492 -0.3247,-0.40112 -0.6536,-0.77046 -0.9864,-1.10742 -0.3331,-0.33683 -0.6699,-0.64103 -1.0097,-0.91211 -0.3391,-0.27088 -0.6811,-0.50864 -1.0254,-0.71289 -0.3451,-0.20442 -0.6922,-0.37509 -1.041,-0.51172 -0.3478,-0.13617 -0.6969,-0.23844 -1.0469,-0.30664 -0.3511,-0.0688 -0.7029,-0.10336 -1.0547,-0.10352 z"
         sodipodi:nodetypes="ssssssssssssssssssccccccccccsccccccccccccccccccccccs" /><path
         d="m -273.86788,298.10571 -18.4285,10.53057 1.46934,2.57144 18.4285,-10.53058 z m -24.1109,5.39922 v 33.89528 h 2.95728 v -33.89528 z m -2.96172,1.54125 -33.89528,11.96289 v 6.887 l 33.89528,11.96289 z m -39.48965,12.77375 v 5.26528 h 2.96172 v -5.26528 z m 48.86844,1.15178 v 2.96172 h 21.06114 v -2.96172 z m -38.9414,8.86707 -2.43519,6.61698 15.87615,6.35043 2.65074,-6.6415 -2.75045,-1.09781 -1.55227,3.88891 -10.44995,-4.18015 1.44055,-3.91375 -2.77958,-1.02344 z m 39.67607,1.85865 -1.46934,2.57143 18.4285,10.53057 1.46934,-2.57143 z"
         fill="#ffffff"
         fill-opacity="1"
         id="path1-5"
         style="stroke-width:1" /><path
         inkscape:connector-curvature="0"
         style="font-style:normal;font-weight:normal;font-size:medium;line-height:125%;font-family:sans-serif;font-variation-settings:normal;letter-spacing:0px;word-spacing:0px;vector-effect:none;fill:#ececec;fill-opacity:1;stroke:none;stroke-width:2.47999;stroke-linecap:round;stroke-linejoin:round;stroke-miterlimit:4;stroke-dasharray:none;stroke-dashoffset:0;stroke-opacity:1;-inkscape-stroke:none;paint-order:fill markers stroke;stop-color:#000000"
         d="m -1171.1488,529.28184 c -2.0704,0 -3.8594,0.17077 -5.367,0.51251 -1.5075,0.32155 -2.794,0.79387 -3.8593,1.4171 -1.0653,0.6029 -1.9296,1.33651 -2.5929,2.20104 -0.6633,0.86419 -1.176,1.82899 -1.5378,2.89443 -0.3819,1.06526 -0.6331,2.22105 -0.7537,3.46736 -0.1407,1.24615 -0.2112,2.55285 -0.2112,3.91965 v 2.08023 h 6.0002 v -2.08023 c 0,-1.52765 0.07,-2.81417 0.211,-3.85942 0.1206,-1.04523 0.4523,-1.88941 0.995,-2.53266 0.5428,-0.6431 1.3769,-1.10548 2.5025,-1.38698 1.1056,-0.30152 2.6433,-0.45212 4.6132,-0.45212 1.9497,0 3.4773,0.1506 4.5828,0.45212 1.0854,0.2815 1.8995,0.74388 2.4423,1.38698 0.5427,0.64325 0.8845,1.48743 1.0252,2.53266 0.1206,1.04525 0.1808,2.33177 0.1808,3.85942 h -0.012 v 8.14066 c -0.5628,0 -1.0955,0.12016 -1.598,0.36176 -0.5025,0.22126 -0.9547,0.53272 -1.3567,0.93485 -0.3819,0.3818 -0.6936,0.83423 -0.9348,1.35686 -0.2211,0.50244 -0.3317,1.03514 -0.3317,1.59782 v 22.67355 c 0,0.58287 0.1106,1.13576 0.3317,1.65838 0.2211,0.50244 0.5227,0.94478 0.9046,1.32675 0.3819,0.40181 0.8241,0.71342 1.3266,0.93452 0.5227,0.22109 1.0754,0.33164 1.6583,0.33164 h 28.8544 c 0.5628,0 1.0955,-0.11055 1.5981,-0.33164 0.5025,-0.2211 0.9447,-0.53271 1.3266,-0.93452 0.3819,-0.38197 0.6734,-0.82431 0.8744,-1.32675 0.2211,-0.52262 0.3316,-1.07551 0.3316,-1.65838 v -22.67355 c 0,-0.56268 -0.1105,-1.09538 -0.3316,-1.59782 -0.201,-0.52263 -0.4925,-0.97506 -0.8744,-1.35686 -0.3819,-0.40213 -0.8241,-0.71359 -1.3267,-0.93485 -0.5025,-0.24112 -1.0352,-0.36176 -1.598,-0.36176 h -22.691 v -8.14066 c 0,-1.3668 -0.07,-2.6735 -0.211,-3.91965 -0.1408,-1.24631 -0.4021,-2.4021 -0.784,-3.46736 -0.3819,-1.06544 -0.9045,-2.03024 -1.5679,-2.89443 -0.6834,-0.86453 -1.5577,-1.59814 -2.623,-2.20104 -1.0654,-0.62323 -2.3518,-1.09555 -3.8594,-1.4171 -1.5076,-0.34174 -3.2864,-0.51251 -5.3366,-0.51251 z"
         id="path3353" /><path
         d="m -138.36975,299.73822 -18.4285,10.53057 1.46935,2.57144 18.4285,-10.53058 z m -24.11089,5.39922 v 33.89528 h 2.95728 v -33.89528 z m -2.96173,1.54125 -33.89528,11.96289 v 6.887 l 33.89528,11.96289 z m -39.48964,12.77375 v 5.26528 h 2.96172 v -5.26528 z m 48.86843,1.15178 v 2.96172 h 21.06115 v -2.96172 z m -38.94139,8.86707 -2.4352,6.61698 15.87616,6.35043 2.65074,-6.6415 -2.75046,-1.09781 -1.55227,3.88891 -10.44995,-4.18015 1.44055,-3.91375 -2.77957,-1.02344 z m 39.67607,1.85865 -1.46935,2.57143 18.4285,10.53057 1.46935,-2.57143 z"
         fill="#ffffff"
         fill-opacity="1"
         id="path24"
         style="stroke-width:1" /><path
         d="m 129.1641,804.70207 c -8.74299,0 -15.78156,7.03857 -15.78156,15.78156 v 70.02531 c 0,8.74298 7.03857,15.78156 15.78156,15.78156 h 70.03065 c 8.74299,0 15.78156,-7.03858 15.78156,-15.78156 v -70.02531 c 0,-8.74299 -7.03857,-15.78156 -15.78156,-15.78156 z m -3.54871,18.78886 28.36821,23.68842 -28.36821,23.68304 -4.56185,-4.64225 23.00762,-18.95502 -23.00762,-19.08369 z m 34.15228,57.92646 h 47.53764 v 6.07889 h -47.53764 z"
         style="vector-effect:none;stroke:none;stroke-width:2;stroke-linecap:round;stroke-linejoin:round;paint-order:fill markers stroke;stop-color:#000000"
         id="path34" /><rect
         style="fill:#8fc7ca;fill-opacity:1;stroke-width:2.47999;stroke-linecap:round;stroke-linejoin:round;-inkscape-stroke:none;paint-order:fill markers stroke"
         id="rect1-2"
         width="224"
         height="96"
         x="-1286.6725"
         y="338.4201"
         rx="9.5952625"
         ry="9.5952625" /><g
         id="g114"
         transform="translate(-921.94458,130.75943)"><g
           id="rect7"
           style="stroke-width:0.364909"
           transform="matrix(2.7404056,0,0,2.7404056,-108.64555,-907.70171)"><path
             style="stroke-width:0.364909;stroke-linecap:round;stroke-linejoin:round;paint-order:fill markers stroke"
             d="m 49.877752,429.47076 h 25.514893 c 3.185503,0 5.750006,2.56451 5.750006,5.75001 v 25.51489 c 0,3.18551 -2.564503,5.75001 -5.750006,5.75001 H 49.877752 c -3.185503,0 -5.750005,-2.5645 -5.750005,-5.75001 v -25.51489 c 0,-3.1855 2.564502,-5.75001 5.750005,-5.75001 z"
             id="path32" /><path
             style="stroke-width:0.364909;stroke-linecap:round;stroke-linejoin:round;paint-order:fill markers stroke"
             d="m 49.876953,428.4707 c -3.722206,0 -6.75,3.0278 -6.75,6.75 v 25.51563 c 0,3.7222 3.027794,6.75 6.75,6.75 h 25.515625 c 3.722206,0 6.75,-3.0278 6.75,-6.75 V 435.2207 c 0,-3.7222 -3.027794,-6.75 -6.75,-6.75 z m 0,2 h 25.515625 c 2.6488,0 4.75,2.1012 4.75,4.75 v 25.51563 c 0,2.6488 -2.1012,4.75 -4.75,4.75 H 49.876953 c -2.6488,0 -4.75,-2.1012 -4.75,-4.75 V 435.2207 c 0,-2.6488 2.1012,-4.75 4.75,-4.75 z"
             id="path33" /></g><g
           id="path5-7"
           style="stroke-width:0.364909"
           transform="matrix(2.7404056,0,0,2.7404056,-108.64555,-907.70171)"><path
             style="stroke-width:0.364909;stroke-linecap:round;stroke-linejoin:round;paint-order:fill markers stroke"
             d="m 60.6657,448.02247 -1.88553,7.46976"
             id="path30" /><path
             style="fill:#ffffff;stroke-width:0.364909;stroke-linecap:round;stroke-linejoin:round;paint-order:fill markers stroke"
             d="m 60.910156,447.05273 a 1,1 0 0 0 -1.214844,0.72461 l -1.884765,7.47071 a 1,1 0 0 0 0.724609,1.21289 1,1 0 0 0 1.214844,-0.72461 l 1.884766,-7.46875 a 1,1 0 0 0 -0.72461,-1.21485 z"
             id="path31" /></g><g
           id="path6-6"
           style="stroke-width:0.364909"
           transform="matrix(2.7404056,0,0,2.7404056,-108.64555,-907.70171)"><path
             style="stroke-width:0.364909;stroke-linecap:round;stroke-linejoin:round;paint-order:fill markers stroke"
             d="m 60.82747,448.00001 9.3217,1.43745"
             id="path28" /><path
             style="fill:#ffffff;stroke-width:0.364909;stroke-linecap:round;stroke-linejoin:round;paint-order:fill markers stroke"
             d="m 60.980469,447.01172 a 1,1 0 0 0 -1.140625,0.83594 1,1 0 0 0 0.835937,1.14062 l 9.320313,1.4375 a 1,1 0 0 0 1.140625,-0.83594 1,1 0 0 0 -0.835938,-1.14062 z"
             id="path29" /></g><g
           id="path7-1"
           style="stroke-width:0.364909"
           transform="matrix(2.7404056,0,0,2.7404056,-108.64555,-907.70171)"><path
             style="stroke-width:0.364909;stroke-linecap:round;stroke-linejoin:round;paint-order:fill markers stroke"
             d="m 60.6657,448.02247 -5.54452,-7.55825"
             id="path26" /><path
             style="fill:#ffffff;stroke-width:0.364909;stroke-linecap:round;stroke-linejoin:round;paint-order:fill markers stroke"
             d="m 55.273437,439.47656 a 1,1 0 0 0 -0.74414,0.18164 1,1 0 0 0 -0.214844,1.39844 l 5.544922,7.55664 a 1,1 0 0 0 1.398437,0.21484 1,1 0 0 0 0.214844,-1.39648 l -5.544922,-7.55859 a 1,1 0 0 0 -0.654297,-0.39649 z"
             id="path27" /></g><g
           id="path3-4"
           style="stroke-width:0.364909"
           transform="matrix(2.7404056,0,0,2.7404056,-108.64555,-907.70171)"><path
             style="stroke-width:0.364909;stroke-linecap:round;stroke-linejoin:round;paint-order:fill markers stroke"
             d="M 64.000005,448 A 3.1725206,3.1725206 0 0 1 60.827484,451.17252 3.1725206,3.1725206 0 0 1 57.654963,448 3.1725206,3.1725206 0 0 1 60.827484,444.82748 3.1725206,3.1725206 0 0 1 64.000005,448 Z"
             id="path22-2" /><path
             style="fill:#ffffff;stroke-width:0.364909;stroke-linecap:round;stroke-linejoin:round;paint-order:fill markers stroke"
             d="m 60.828125,443.82812 c -2.292575,0 -4.173828,1.87931 -4.173828,4.17188 0,2.29257 1.881253,4.17187 4.173828,4.17187 C 63.1207,452.17187 65,450.29257 65,448 c 0,-2.29257 -1.8793,-4.17187 -4.171875,-4.17188 z m 0,2 C 62.03982,445.82812 63,446.78831 63,448 c 0,1.21169 -0.96018,2.17188 -2.171875,2.17187 -1.211695,0 -2.173828,-0.96018 -2.173828,-2.17187 0,-1.21169 0.962133,-2.17188 2.173828,-2.17188 z"
             id="path23-3" /></g><g
           id="circle3"
           style="stroke-width:0.364909"
           transform="matrix(2.7404056,0,0,2.7404056,-108.64555,-907.70171)"><path
             style="stroke-width:0.364909;stroke-linecap:round;stroke-linejoin:round;paint-order:fill markers stroke"
             d="m 58.293706,440.46423 a 3.1725206,3.1725206 0 0 1 -3.172521,3.17252 3.1725206,3.1725206 0 0 1 -3.17252,-3.17252 3.1725206,3.1725206 0 0 1 3.17252,-3.17252 3.1725206,3.1725206 0 0 1 3.172521,3.17252 z"
             id="path20-2" /><path
             style="fill:#ffffff;stroke-width:0.364909;stroke-linecap:round;stroke-linejoin:round;paint-order:fill markers stroke"
             d="m 55.121094,436.29102 c -2.292575,0 -4.171875,1.88125 -4.171875,4.17382 0,2.29258 1.8793,4.17188 4.171875,4.17188 2.292575,0 4.171875,-1.8793 4.171875,-4.17188 0,-2.29257 -1.8793,-4.17382 -4.171875,-4.17382 z m 0,2 c 1.211694,0 2.171875,0.96213 2.171875,2.17382 0,1.2117 -0.960181,2.17188 -2.171875,2.17188 -1.211695,0 -2.171875,-0.96018 -2.171875,-2.17188 0,-1.21169 0.96018,-2.17382 2.171875,-2.17382 z"
             id="path21-2" /></g><g
           id="circle4"
           style="stroke-width:0.364909"
           transform="matrix(2.7404056,0,0,2.7404056,-108.64555,-907.70171)"><path
             style="stroke-width:0.364909;stroke-linecap:round;stroke-linejoin:round;paint-order:fill markers stroke"
             d="m 73.321721,449.43747 a 3.1725206,3.1725206 0 0 1 -3.172521,3.17252 3.1725206,3.1725206 0 0 1 -3.17252,-3.17252 3.1725206,3.1725206 0 0 1 3.17252,-3.17252 3.1725206,3.1725206 0 0 1 3.172521,3.17252 z"
             id="path18-1" /><path
             style="fill:#ffffff;stroke-width:0.364909;stroke-linecap:round;stroke-linejoin:round;paint-order:fill markers stroke"
             d="m 70.148437,445.26562 c -2.292574,0 -4.171875,1.87931 -4.171875,4.17188 0,2.29257 1.879301,4.17187 4.171875,4.17187 2.292575,0 4.173829,-1.8793 4.173829,-4.17187 0,-2.29257 -1.881254,-4.17188 -4.173829,-4.17188 z m 0,2 c 1.211695,0 2.173829,0.96019 2.173829,2.17188 0,1.21169 -0.962134,2.17187 -2.173829,2.17187 -1.211694,0 -2.171875,-0.96018 -2.171875,-2.17187 0,-1.21169 0.960181,-2.17187 2.171875,-2.17188 z"
             id="path19-6" /></g><g
           id="circle5"
           style="stroke-width:0.364909"
           transform="matrix(2.7404056,0,0,2.7404056,-108.64555,-907.70171)"><path
             style="stroke-width:0.364909;stroke-linecap:round;stroke-linejoin:round;paint-order:fill markers stroke"
             d="m 60.998906,458.91467 a 3.1725206,3.1725206 0 0 1 -3.172521,3.17252 3.1725206,3.1725206 0 0 1 -3.17252,-3.17252 3.1725206,3.1725206 0 0 1 3.17252,-3.17252 3.1725206,3.1725206 0 0 1 3.172521,3.17252 z"
             id="path14-8" /><path
             style="fill:#ffffff;stroke-width:0.364909;stroke-linecap:round;stroke-linejoin:round;paint-order:fill markers stroke"
             d="m 57.826172,454.74219 c -2.292575,0 -4.171875,1.8793 -4.171875,4.17187 0,2.29258 1.8793,4.17383 4.171875,4.17383 2.292575,0 4.171875,-1.88125 4.171875,-4.17383 0,-2.29257 -1.8793,-4.17187 -4.171875,-4.17187 z m 0,2 c 1.211695,0 2.171875,0.96018 2.171875,2.17187 0,1.2117 -0.96018,2.17383 -2.171875,2.17383 -1.211695,0 -2.171875,-0.96213 -2.171875,-2.17383 0,-1.21169 0.96018,-2.17187 2.171875,-2.17187 z"
             id="path15-5" /></g><g
           id="circle129"
           style="stroke-width:0.364909"
           transform="matrix(2.7404056,0,0,2.7404056,-108.64555,-907.70171)"><path
             style="stroke-width:0.364909;stroke-linecap:round;stroke-linejoin:round;paint-order:fill markers stroke"
             d="m 73.321721,449.43747 a 3.1725206,3.1725206 0 0 1 -3.172521,3.17252 3.1725206,3.1725206 0 0 1 -3.17252,-3.17252 3.1725206,3.1725206 0 0 1 3.17252,-3.17252 3.1725206,3.1725206 0 0 1 3.172521,3.17252 z"
             id="path2-7" /><path
             style="fill:#ffffff;stroke-width:0.364909;stroke-linecap:round;stroke-linejoin:round;paint-order:fill markers stroke"
             d="m 70.148437,445.26562 c -2.292574,0 -4.171875,1.87931 -4.171875,4.17188 0,2.29257 1.879301,4.17187 4.171875,4.17187 2.292575,0 4.173829,-1.8793 4.173829,-4.17187 0,-2.29257 -1.881254,-4.17188 -4.173829,-4.17188 z m 0,2 c 1.211695,0 2.173829,0.96019 2.173829,2.17188 0,1.21169 -0.962134,2.17187 -2.173829,2.17187 -1.211694,0 -2.171875,-0.96018 -2.171875,-2.17187 0,-1.21169 0.960181,-2.17187 2.171875,-2.17188 z"
             id="path4-6" /></g></g><g
         id="g115"
         transform="translate(-921.94458,130.75943)"><path
           id="path75"
           style="stroke-width:0;stroke-linecap:round;stroke-linejoin:round;paint-order:fill markers stroke"
           d="m 133.57812,266.54101 c -1.21391,0 -2.39764,0.12341 -3.54687,0.34766 2.19835,0.42874 4.24883,1.25815 6.0957,2.39258 1.26637,0.77785 2.44109,1.69038 3.48242,2.74023 3.31787,3.34502 5.37305,7.94471 5.37305,13.01758 v 69.92187 c 0,5.07288 -2.05518,9.67256 -5.37305,13.01759 -1.04133,1.04986 -2.21605,1.96042 -3.48242,2.73827 -1.84687,1.13443 -3.89736,1.96383 -6.0957,2.39258 1.14924,0.22425 2.33295,0.34961 3.54687,0.34961 h 87.92383 C 231.7023,373.45898 240,365.16127 240,354.96093 v -69.92187 c 0,-10.20034 -8.2977,-18.49804 -18.49805,-18.49804 z"
           sodipodi:nodetypes="scsssssscssssss" /><g
           id="g77"
           style="stroke-width:0.364909"
           transform="matrix(2.7404056,0,0,2.7404056,25.308061,-907.70171)"><path
             style="stroke-width:0.364909;stroke-linecap:round;stroke-linejoin:round;paint-order:fill markers stroke"
             d="m 60.6657,448.02247 -1.88553,7.46976"
             id="path76" /><path
             style="fill:#ffffff;stroke-width:0.364909;stroke-linecap:round;stroke-linejoin:round;paint-order:fill markers stroke"
             d="m 60.910156,447.05273 a 1,1 0 0 0 -1.214844,0.72461 l -1.884765,7.47071 a 1,1 0 0 0 0.724609,1.21289 1,1 0 0 0 1.214844,-0.72461 l 1.884766,-7.46875 a 1,1 0 0 0 -0.72461,-1.21485 z"
             id="path77" /></g><g
           id="g79"
           style="stroke-width:0.364909"
           transform="matrix(2.7404056,0,0,2.7404056,25.308061,-907.70171)"><path
             style="stroke-width:0.364909;stroke-linecap:round;stroke-linejoin:round;paint-order:fill markers stroke"
             d="m 60.82747,448.00001 9.3217,1.43745"
             id="path78" /><path
             style="fill:#ffffff;stroke-width:0.364909;stroke-linecap:round;stroke-linejoin:round;paint-order:fill markers stroke"
             d="m 60.980469,447.01172 a 1,1 0 0 0 -1.140625,0.83594 1,1 0 0 0 0.835937,1.14062 l 9.320313,1.4375 a 1,1 0 0 0 1.140625,-0.83594 1,1 0 0 0 -0.835938,-1.14062 z"
             id="path79" /></g><g
           id="g81"
           style="stroke-width:0.364909"
           transform="matrix(2.7404056,0,0,2.7404056,25.308061,-907.70171)"><path
             style="stroke-width:0.364909;stroke-linecap:round;stroke-linejoin:round;paint-order:fill markers stroke"
             d="m 60.6657,448.02247 -5.54452,-7.55825"
             id="path80" /><path
             style="fill:#ffffff;stroke-width:0.364909;stroke-linecap:round;stroke-linejoin:round;paint-order:fill markers stroke"
             d="m 55.273437,439.47656 a 1,1 0 0 0 -0.74414,0.18164 1,1 0 0 0 -0.214844,1.39844 l 5.544922,7.55664 a 1,1 0 0 0 1.398437,0.21484 1,1 0 0 0 0.214844,-1.39648 l -5.544922,-7.55859 a 1,1 0 0 0 -0.654297,-0.39649 z"
             id="path81" /></g><g
           id="g83"
           style="stroke-width:0.364909"
           transform="matrix(2.7404056,0,0,2.7404056,25.308061,-907.70171)"><path
             style="stroke-width:0.364909;stroke-linecap:round;stroke-linejoin:round;paint-order:fill markers stroke"
             d="M 64.000005,448 A 3.1725206,3.1725206 0 0 1 60.827484,451.17252 3.1725206,3.1725206 0 0 1 57.654963,448 3.1725206,3.1725206 0 0 1 60.827484,444.82748 3.1725206,3.1725206 0 0 1 64.000005,448 Z"
             id="path82" /><path
             style="fill:#ffffff;stroke-width:0.364909;stroke-linecap:round;stroke-linejoin:round;paint-order:fill markers stroke"
             d="m 60.828125,443.82812 c -2.292575,0 -4.173828,1.87931 -4.173828,4.17188 0,2.29257 1.881253,4.17187 4.173828,4.17187 C 63.1207,452.17187 65,450.29257 65,448 c 0,-2.29257 -1.8793,-4.17187 -4.171875,-4.17188 z m 0,2 C 62.03982,445.82812 63,446.78831 63,448 c 0,1.21169 -0.96018,2.17188 -2.171875,2.17187 -1.211695,0 -2.173828,-0.96018 -2.173828,-2.17187 0,-1.21169 0.962133,-2.17188 2.173828,-2.17188 z"
             id="path83" /></g><g
           id="g85"
           style="stroke-width:0.364909"
           transform="matrix(2.7404056,0,0,2.7404056,25.308061,-907.70171)"><path
             style="stroke-width:0.364909;stroke-linecap:round;stroke-linejoin:round;paint-order:fill markers stroke"
             d="m 58.293706,440.46423 a 3.1725206,3.1725206 0 0 1 -3.172521,3.17252 3.1725206,3.1725206 0 0 1 -3.17252,-3.17252 3.1725206,3.1725206 0 0 1 3.17252,-3.17252 3.1725206,3.1725206 0 0 1 3.172521,3.17252 z"
             id="path84" /><path
             style="fill:#ffffff;stroke-width:0.364909;stroke-linecap:round;stroke-linejoin:round;paint-order:fill markers stroke"
             d="m 55.121094,436.29102 c -2.292575,0 -4.171875,1.88125 -4.171875,4.17382 0,2.29258 1.8793,4.17188 4.171875,4.17188 2.292575,0 4.171875,-1.8793 4.171875,-4.17188 0,-2.29257 -1.8793,-4.17382 -4.171875,-4.17382 z m 0,2 c 1.211694,0 2.171875,0.96213 2.171875,2.17382 0,1.2117 -0.960181,2.17188 -2.171875,2.17188 -1.211695,0 -2.171875,-0.96018 -2.171875,-2.17188 0,-1.21169 0.96018,-2.17382 2.171875,-2.17382 z"
             id="path85" /></g><g
           id="g87"
           style="stroke-width:0.364909"
           transform="matrix(2.7404056,0,0,2.7404056,25.308061,-907.70171)"><path
             style="stroke-width:0.364909;stroke-linecap:round;stroke-linejoin:round;paint-order:fill markers stroke"
             d="m 73.321721,449.43747 a 3.1725206,3.1725206 0 0 1 -3.172521,3.17252 3.1725206,3.1725206 0 0 1 -3.17252,-3.17252 3.1725206,3.1725206 0 0 1 3.17252,-3.17252 3.1725206,3.1725206 0 0 1 3.172521,3.17252 z"
             id="path86" /><path
             style="fill:#ffffff;stroke-width:0.364909;stroke-linecap:round;stroke-linejoin:round;paint-order:fill markers stroke"
             d="m 70.148437,445.26562 c -2.292574,0 -4.171875,1.87931 -4.171875,4.17188 0,2.29257 1.879301,4.17187 4.171875,4.17187 2.292575,0 4.173829,-1.8793 4.173829,-4.17187 0,-2.29257 -1.881254,-4.17188 -4.173829,-4.17188 z m 0,2 c 1.211695,0 2.173829,0.96019 2.173829,2.17188 0,1.21169 -0.962134,2.17187 -2.173829,2.17187 -1.211694,0 -2.171875,-0.96018 -2.171875,-2.17187 0,-1.21169 0.960181,-2.17187 2.171875,-2.17188 z"
             id="path87" /></g><g
           id="g89"
           style="stroke-width:0.364909"
           transform="matrix(2.7404056,0,0,2.7404056,25.308061,-907.70171)"><path
             style="stroke-width:0.364909;stroke-linecap:round;stroke-linejoin:round;paint-order:fill markers stroke"
             d="m 60.998906,458.91467 a 3.1725206,3.1725206 0 0 1 -3.172521,3.17252 3.1725206,3.1725206 0 0 1 -3.17252,-3.17252 3.1725206,3.1725206 0 0 1 3.17252,-3.17252 3.1725206,3.1725206 0 0 1 3.172521,3.17252 z"
             id="path88" /><path
             style="fill:#ffffff;stroke-width:0.364909;stroke-linecap:round;stroke-linejoin:round;paint-order:fill markers stroke"
             d="m 57.826172,454.74219 c -2.292575,0 -4.171875,1.8793 -4.171875,4.17187 0,2.29258 1.8793,4.17383 4.171875,4.17383 2.292575,0 4.171875,-1.88125 4.171875,-4.17383 0,-2.29257 -1.8793,-4.17187 -4.171875,-4.17187 z m 0,2 c 1.211695,0 2.171875,0.96018 2.171875,2.17187 0,1.2117 -0.96018,2.17383 -2.171875,2.17383 -1.211695,0 -2.171875,-0.96213 -2.171875,-2.17383 0,-1.21169 0.96018,-2.17187 2.171875,-2.17187 z"
             id="path89" /></g><g
           id="g91"
           style="stroke-width:0.364909"
           transform="matrix(2.7404056,0,0,2.7404056,25.308061,-907.70171)"><path
             style="stroke-width:0.364909;stroke-linecap:round;stroke-linejoin:round;paint-order:fill markers stroke"
             d="m 73.321721,449.43747 a 3.1725206,3.1725206 0 0 1 -3.172521,3.17252 3.1725206,3.1725206 0 0 1 -3.17252,-3.17252 3.1725206,3.1725206 0 0 1 3.17252,-3.17252 3.1725206,3.1725206 0 0 1 3.172521,3.17252 z"
             id="path90" /><path
             style="fill:#ffffff;stroke-width:0.364909;stroke-linecap:round;stroke-linejoin:round;paint-order:fill markers stroke"
             d="m 70.148437,445.26562 c -2.292574,0 -4.171875,1.87931 -4.171875,4.17188 0,2.29257 1.879301,4.17187 4.171875,4.17187 2.292575,0 4.173829,-1.8793 4.173829,-4.17187 0,-2.29257 -1.881254,-4.17188 -4.173829,-4.17188 z m 0,2 c 1.211695,0 2.173829,0.96019 2.173829,2.17188 0,1.21169 -0.962134,2.17187 -2.173829,2.17187 -1.211694,0 -2.171875,-0.96018 -2.171875,-2.17187 0,-1.21169 0.960181,-2.17187 2.171875,-2.17188 z"
             id="path91" /></g></g><path
         id="path92"
         style="stroke:none;stroke-width:0.999999;stroke-linecap:round;stroke-linejoin:round;paint-order:fill markers stroke"
         d="m -520.85669,337.68911 c -8.72957,0 -15.75585,7.02825 -15.75585,15.75782 v 69.92187 c 0,8.72959 7.02628,15.75586 15.75585,15.75586 h 69.92188 c 8.72957,0 15.75781,-7.02627 15.75781,-15.75586 v -69.92187 c 0,-8.72957 -7.02824,-15.75782 -15.75781,-15.75782 z m 21.94532,19.05079 c 1.624,0 3.42098,1.02897 4.82422,3.63281 v 5.79687 c -2.96831,-1.98585 -6.33358,-2.99023 -9.70508,-2.99023 -0.46531,0 -0.93052,0.0206 -1.39453,0.0586 l 1.27343,-2.54883 c 1.42625,-2.85213 3.30986,-3.94921 5.00196,-3.94921 z m 26.02929,0 c 1.69211,0 3.57553,1.0969 5.00196,3.94921 l 1.27929,2.55665 c -3.82615,-0.30722 -7.72378,0.66939 -11.10351,2.92578 v -5.79883 c 1.40323,-2.60403 3.19825,-3.63281 4.82226,-3.63281 z m -30.91015,9.71484 c 3.42201,0 6.8438,1.32201 9.70508,3.96289 v 20.36328 c -3.7775,-5.86213 -10.36343,-9.75195 -17.83985,-9.75195 -3.18198,0 -6.20264,0.70715 -8.91406,1.96875 l 6.99414,-12.24024 c 2.92995,-2.8639 6.49049,-4.30273 10.05469,-4.30273 z m 36.0039,0.008 c 3.49163,0.0574 6.97181,1.48987 9.84375,4.29688 l 6.99415,12.23828 c -2.71161,-1.26159 -5.73155,-1.9668 -8.91407,-1.9668 -7.47605,0 -14.06235,3.89018 -17.83984,9.75195 v -20.36542 c 2.92003,-2.69514 6.4244,-4.01228 9.91601,-3.95508 z m -18.10742,2.48047 c 0.95661,0 2.22161,0.51879 4.82227,1.80078 v 24.88672 c -1.35572,-0.99425 -3.02239,-1.58398 -4.82227,-1.58398 -1.7997,0 -3.46851,0.58976 -4.82422,1.58398 v -24.88672 c 2.60084,-1.28199 3.86758,-1.80078 4.82422,-1.80078 z m -26.03125,15.45508 c 9.87239,0 17.83789,7.96744 17.83789,17.83984 0,9.87239 -7.9657,17.83985 -17.83789,17.83985 -9.87259,0 -17.83984,-7.96746 -17.83984,-17.83985 0,-9.8724 7.96725,-17.83984 17.83984,-17.83984 z m 52.06055,0 h 0.002 c 9.87258,0 17.83789,7.96744 17.83789,17.83984 0,9.87239 -7.96531,17.83985 -17.83789,17.83985 -9.87239,0 -17.83984,-7.96746 -17.83984,-17.83985 0,-9.8724 7.96568,-17.83984 17.83789,-17.83984 z m -52.35352,3.55469 c -0.22882,0.004 -0.45766,0.0116 -0.68554,0.0254 -1.96621,0.10346 -3.84435,0.64519 -5.53907,1.52343 a 4.880816,4.880816 0 0 1 3.26368,4.59961 4.880816,4.880816 0 0 1 -4.88086,4.88086 4.880816,4.880816 0 0 1 -4.59961,-3.26172 c -0.94803,1.83132 -1.50201,3.87499 -1.53321,6.00977 -0.41461,7.27904 5.31481,13.96242 12.56446,14.68555 7.13591,0.9991 14.20894,-4.01063 15.64062,-11.07227 1.70689,-7.00606 -2.57767,-14.54962 -9.4707,-16.67187 -1.32391,-0.44042 -2.69822,-0.67079 -4.07227,-0.71289 -0.22938,-0.006 -0.45868,-0.009 -0.6875,-0.006 z m 52.06055,0 c -0.22901,0.003 -0.45728,0.0116 -0.68555,0.0254 -1.96602,0.10346 -3.84453,0.64519 -5.53906,1.52343 a 4.880816,4.880816 0 0 1 3.26367,4.59961 4.880816,4.880816 0 0 1 -4.8789,4.88086 4.880816,4.880816 0 0 1 -4.59961,-3.26172 c -0.948,1.8313 -1.50201,3.87499 -1.53321,6.00977 -0.4148,7.27922 5.31638,13.96242 12.56641,14.68555 7.13533,0.99854 14.20701,-4.01085 15.63867,-11.07227 1.7067,-7.00606 -2.57802,-14.54962 -9.4707,-16.67187 -1.32428,-0.44042 -2.70017,-0.67079 -4.07422,-0.71289 -0.22919,-0.006 -0.45868,-0.009 -0.6875,-0.006 z m -25.73633,9.46093 c 2.6841,0 4.82227,2.13817 4.82227,4.82227 0,2.6841 -2.13817,4.82422 -4.82227,4.82422 -2.68411,0 -4.82422,-2.14012 -4.82422,-4.82422 0,-2.6841 2.14011,-4.82227 4.82422,-4.82227 z" /><path
         id="path94"
         style="stroke:none;stroke-width:0.999999;stroke-linecap:round;stroke-linejoin:round;paint-order:fill markers stroke"
         d="m -540.90552,445.32388 c -8.72957,0 -15.75585,7.02825 -15.75585,15.75782 v 69.92187 c 0,8.72959 7.02628,15.75586 15.75585,15.75586 h 69.92188 c 8.72957,0 15.75781,-7.02627 15.75781,-15.75586 V 461.0817 c 0,-8.72957 -7.02824,-15.75782 -15.75781,-15.75782 z m 21.94532,19.05079 c 1.624,0 3.42098,1.02897 4.82422,3.63281 v 5.79687 c -2.96831,-1.98585 -6.33358,-2.99023 -9.70508,-2.99023 -0.46531,0 -0.93052,0.0206 -1.39453,0.0586 l 1.27343,-2.54883 c 1.42625,-2.85213 3.30986,-3.94921 5.00196,-3.94921 z m 26.02929,0 c 1.69211,0 3.57553,1.0969 5.00196,3.94921 l 1.27929,2.55665 c -3.82615,-0.30722 -7.72378,0.66939 -11.10351,2.92578 v -5.79883 c 1.40323,-2.60403 3.19825,-3.63281 4.82226,-3.63281 z m -30.91015,9.71484 c 3.42201,0 6.8438,1.32201 9.70508,3.96289 v 20.36328 c -3.7775,-5.86213 -10.36343,-9.75195 -17.83985,-9.75195 -3.18198,0 -6.20264,0.70715 -8.91406,1.96875 l 6.99414,-12.24024 c 2.92995,-2.8639 6.49049,-4.30273 10.05469,-4.30273 z m 36.0039,0.008 c 3.49163,0.0574 6.97181,1.48987 9.84375,4.29688 l 6.99415,12.23828 c -2.71161,-1.26159 -5.73155,-1.9668 -8.91407,-1.9668 -7.47605,0 -14.06235,3.89018 -17.83984,9.75195 V 478.0524 c 2.92003,-2.69514 6.4244,-4.01228 9.91601,-3.95508 z m -18.10742,2.48047 c 0.95661,0 2.22161,0.51879 4.82227,1.80078 v 24.88672 c -1.35572,-0.99425 -3.02239,-1.58398 -4.82227,-1.58398 -1.7997,0 -3.46851,0.58976 -4.82422,1.58398 v -24.88672 c 2.60084,-1.28199 3.86758,-1.80078 4.82422,-1.80078 z m -26.03125,15.45508 c 9.87239,0 17.83789,7.96744 17.83789,17.83984 0,9.87239 -7.9657,17.83985 -17.83789,17.83985 -9.87259,0 -17.83984,-7.96746 -17.83984,-17.83985 0,-9.8724 7.96725,-17.83984 17.83984,-17.83984 z m 52.06055,0 h 0.002 c 9.87258,0 17.83789,7.96744 17.83789,17.83984 0,9.87239 -7.96531,17.83985 -17.83789,17.83985 -9.87239,0 -17.83984,-7.96746 -17.83984,-17.83985 0,-9.8724 7.96568,-17.83984 17.83789,-17.83984 z m -52.35352,3.55469 c -0.22882,0.004 -0.45766,0.0116 -0.68554,0.0254 -1.96621,0.10346 -3.84435,0.64519 -5.53907,1.52343 a 4.880816,4.880816 0 0 1 3.26368,4.59961 4.880816,4.880816 0 0 1 -4.88086,4.88086 4.880816,4.880816 0 0 1 -4.59961,-3.26172 c -0.94803,1.83132 -1.50201,3.87499 -1.53321,6.00977 -0.41461,7.27904 5.31481,13.96242 12.56446,14.68555 7.13591,0.9991 14.20894,-4.01063 15.64062,-11.07227 1.70689,-7.00606 -2.57767,-14.54962 -9.4707,-16.67187 -1.32391,-0.44042 -2.69822,-0.67079 -4.07227,-0.71289 -0.22938,-0.006 -0.45868,-0.009 -0.6875,-0.006 z m 52.06055,0 c -0.22901,0.003 -0.45728,0.0116 -0.68555,0.0254 -1.96602,0.10346 -3.84453,0.64519 -5.53906,1.52343 a 4.880816,4.880816 0 0 1 3.26367,4.59961 4.880816,4.880816 0 0 1 -4.8789,4.88086 4.880816,4.880816 0 0 1 -4.59961,-3.26172 c -0.948,1.8313 -1.50201,3.87499 -1.53321,6.00977 -0.4148,7.27922 5.31638,13.96242 12.56641,14.68555 7.13533,0.99854 14.20701,-4.01085 15.63867,-11.07227 1.7067,-7.00606 -2.57802,-14.54962 -9.4707,-16.67187 -1.32428,-0.44042 -2.70017,-0.67079 -4.07422,-0.71289 -0.22919,-0.006 -0.45868,-0.009 -0.6875,-0.006 z m -25.73633,9.46093 c 2.6841,0 4.82227,2.13817 4.82227,4.82227 0,2.6841 -2.13817,4.82422 -4.82227,4.82422 -2.68411,0 -4.82422,-2.14012 -4.82422,-4.82422 0,-2.6841 2.14011,-4.82227 4.82422,-4.82227 z" /><path
         id="path95"
         style="stroke-width:0.999999;stroke-linecap:round;stroke-linejoin:round;paint-order:fill markers stroke"
         d="m -341.51685,573.0817 c -8.72957,0 -15.75781,7.02628 -15.75781,15.75585 v 69.92188 c 0,8.72959 7.02824,15.75781 15.75781,15.75781 h 69.91993 c 8.72957,0 15.75781,-7.02822 15.75781,-15.75781 v -69.92188 c 0,-8.72956 -7.02824,-15.75585 -15.75781,-15.75585 z m 66.5586,28.37109 1.46875,2.57031 -18.42969,10.53125 -1.46875,-2.57226 z m -24.11133,5.39844 h 2.95703 v 33.89453 h -2.95703 z m -2.96289,1.54101 v 30.8125 L -335.927,627.24185 v -6.88672 z m -39.48828,12.77344 h 2.96094 v 5.26563 h -2.96094 z m 48.86719,1.15234 h 21.0625 v 2.96094 h -21.0625 z m -38.94141,8.86719 2.7793,1.02344 -1.43946,3.91406 10.44922,4.17969 1.55274,-3.88867 2.75,1.09765 -2.65039,6.64063 -15.87696,-6.34961 z m 39.67578,1.85938 18.42969,10.52929 -1.46875,2.57227 -18.42969,-10.53125 z" /><path
         id="path96"
         style="font-variation-settings:normal;vector-effect:none;fill:#000000;fill-opacity:1;stroke:none;stroke-width:2;stroke-linecap:round;stroke-linejoin:round;stroke-miterlimit:4;stroke-dasharray:none;stroke-dashoffset:0;stroke-opacity:1;-inkscape-stroke:none;paint-order:fill markers stroke;stop-color:#000000"
         d="m -788.60474,525.24872 c -1.13261,0 -2.23633,0.11498 -3.30859,0.32422 2.05112,0.40002 3.96433,1.17397 5.6875,2.23242 1.18156,0.72576 2.27841,1.5771 3.25,2.55664 3.09566,3.12099 5.01172,7.41338 5.01172,12.14649 v 65.23828 c 0,4.73313 -1.91606,9.02549 -5.01172,12.14648 -0.97159,0.97955 -2.06844,1.82894 -3.25,2.55469 -1.72317,1.05845 -3.63639,1.83238 -5.6875,2.23242 1.07227,0.20923 2.17597,0.32618 3.30859,0.32618 h 90.03516 c 9.51718,0 17.25977,-7.74259 17.25977,-17.25977 v -65.23828 c 0,-9.51717 -7.74259,-17.25977 -17.25977,-17.25977 z m 17.71875,17.2461 28.36719,23.68945 -28.36719,23.68164 -4.5625,-4.64258 23.00782,-18.95312 -23.00782,-19.08399 z m 30.15235,57.92578 h 47.53711 v 6.08008 h -47.53711 z"
         sodipodi:nodetypes="scsssssscsssssscccccccccccc" /><rect
         style="fill:#e6e6e6;stroke:#000000;stroke-width:2;stroke-linecap:round;stroke-linejoin:round;stroke-dasharray:none;paint-order:fill markers stroke"
         id="rect26"
         width="617.75"
         height="159.04068"
         x="134.392"
         y="312.13867"
         rx="1.7916512"
         ry="1.7916512" /><g
         id="g93"
         transform="translate(611.03763,-169.56823)"><path
           id="path74"
           style="font-variation-settings:normal;vector-effect:none;fill:#000000;fill-opacity:1;stroke-width:0.999999;stroke-linecap:round;stroke-linejoin:round;stroke-miterlimit:4;stroke-dasharray:none;stroke-dashoffset:0;stroke-opacity:1;-inkscape-stroke:none;paint-order:fill markers stroke;stop-color:#000000"
           d="m 85.854378,422.20688 c -0.66447,0 -1.3137,0.066 -1.93945,0.19336 -0.62575,0.1274 -1.22837,0.31646 -1.80273,0.55859 -0.57437,0.24213 -1.12055,0.53862 -1.63086,0.88282 -0.51031,0.34419 -0.98439,0.73633 -1.41797,1.16992 -0.43359,0.43358 -0.82573,0.90766 -1.16992,1.41797 -0.3442,0.51031 -0.64069,1.05649 -0.88282,1.63086 -0.24213,0.57436 -0.43119,1.17698 -0.55859,1.80273 -0.1274,0.62575 -0.19336,1.27498 -0.19336,1.93945 v 76.8086 c 0,0.66447 0.066,1.3137 0.19336,1.93945 0.1274,0.62575 0.31646,1.22837 0.55859,1.80273 0.24213,0.57437 0.53862,1.12055 0.88282,1.63086 0.34419,0.51031 0.73633,0.98439 1.16992,1.41797 0.43358,0.43359 0.90766,0.82573 1.41797,1.16992 0.51031,0.3442 1.05649,0.64069 1.63086,0.88282 0.57436,0.24213 1.17698,0.43119 1.80273,0.55859 0.62575,0.1274 1.27498,0.19336 1.93945,0.19336 H 160.3622 c 1.05513,3e-4 2.10771,-0.30847 3.14257,-0.92188 1.03476,-0.6136 2.04679,-1.5288 3.02149,-2.73242 0.97422,-1.20333 1.90643,-2.68898 2.7832,-4.43554 0.87744,-1.7464 1.69517,-3.74559 2.44141,-5.96875 0.74561,-2.22324 1.41615,-4.65942 2.00195,-7.27344 0.58609,-2.61431 1.08458,-5.39394 1.48828,-8.29883 0.40353,-2.90465 0.71034,-5.92043 0.91602,-9.00391 0.20553,-3.08408 0.30889,-6.22089 0.30859,-9.36523 4.2e-4,-1.04702 -0.0106,-2.09381 -0.0332,-3.13867 -0.023,-1.04541 -0.0576,-2.08828 -0.10352,-3.12696 -0.0459,-1.03851 -0.10325,-2.07227 -0.17187,-3.0996 -0.0682,-1.02701 -0.14768,-2.04709 -0.23828,-3.0586 -0.0912,-1.01166 -0.19345,-2.01415 -0.30664,-3.00586 -0.11291,-0.99162 -0.23668,-1.97196 -0.3711,-2.93945 -0.13467,-0.96769 -0.27992,-1.92198 -0.43554,-2.86133 -0.15519,-0.93905 -0.32065,-1.86272 -0.4961,-2.76953 -0.17573,-0.90719 -0.36138,-1.79699 -0.55664,-2.66797 -0.19503,-0.87062 -0.39957,-1.72198 -0.61328,-2.55273 -0.21435,-0.83083 -0.43778,-1.64051 -0.66992,-2.42774 -0.23113,-0.78747 -0.47085,-1.5522 -0.71875,-2.29297 -0.24858,-0.74033 -0.50523,-1.4562 -0.76953,-2.14648 -0.26412,-0.69036 -0.53576,-1.35478 -0.81446,-1.99219 -0.27903,-0.63776 -0.56499,-1.24811 -0.85742,-1.83008 -0.29203,-0.58166 -0.59037,-1.13469 -0.89453,-1.6582 -0.30439,-0.52425 -0.61445,-1.01866 -0.92969,-1.48242 -0.31484,-0.46268 -0.63467,-0.89455 -0.95898,-1.29492 -0.32463,-0.40112 -0.65359,-0.77046 -0.98633,-1.10743 -0.33316,-0.33683 -0.66993,-0.64102 -1.00977,-0.9121 -0.3391,-0.27088 -0.68108,-0.50864 -1.02539,-0.7129 -0.34504,-0.20441 -0.69222,-0.37508 -1.04101,-0.51171 -0.34775,-0.13617 -0.69689,-0.23844 -1.04688,-0.30664 -0.35109,-0.0688 -0.70284,-0.10336 -1.05468,-0.10352 z"
           sodipodi:nodetypes="ssssssssssssssssssccccccccccsccccccccccccccccccccccs" /><path
           d="m 116.30608,444.05435 c -1.23037,0 -2.60006,0.79858 -3.63713,2.87243 l -0.92605,1.85292 c 0.33739,-0.0276 0.67587,-0.0422 1.01421,-0.0422 2.45151,0 4.89826,0.72961 7.0566,2.17358 v -4.21519 c -1.02033,-1.89332 -2.32663,-2.6417 -3.50749,-2.6417 z m 18.92752,0 c -1.18086,0 -2.48688,0.74824 -3.50721,2.6417 v 4.21655 c 2.4575,-1.64069 5.29143,-2.35084 8.07353,-2.12746 l -0.92918,-1.85836 c -1.0372,-2.07398 -2.40689,-2.87243 -3.63727,-2.87243 z m -22.47663,7.06422 c -2.59163,0 -5.18055,1.04659 -7.311,3.12901 l -5.08532,8.89972 c 1.97155,-0.91734 4.16743,-1.43091 6.48114,-1.43091 5.43631,0 10.22505,2.82863 12.97178,7.09115 v -14.80729 c -2.08052,-1.92026 -4.56836,-2.88168 -7.0566,-2.88168 z m 26.17934,0.005 c -2.53885,-0.0416 -5.08668,0.91694 -7.20992,2.87665 v 14.8077 c 2.74672,-4.26226 7.53548,-7.09102 12.97152,-7.09102 2.3141,0 4.50985,0.51357 6.48153,1.43091 l -5.08532,-8.8997 c -2.08827,-2.04106 -4.61868,-3.08275 -7.15754,-3.12452 z m -13.16646,1.80394 c -0.6956,0 -1.61648,0.37752 -3.50762,1.3097 v 18.09524 c 0.98577,-0.72294 2.19901,-1.15188 3.50762,-1.15188 1.30874,0 2.52184,0.42908 3.50762,1.15202 V 454.2367 c -1.89101,-0.93218 -2.81204,-1.3097 -3.50762,-1.3097 z m -18.92779,11.23817 c -7.178632,0 -12.971792,5.79302 -12.971792,12.97152 0,7.17849 5.79316,12.97178 12.971792,12.97178 7.17835,0 12.97137,-5.79329 12.97137,-12.97178 0,-7.1785 -5.79302,-12.97152 -12.97151,-12.97152 z m 37.85558,0 c -7.17836,0 -12.97139,5.79302 -12.97139,12.97152 0,7.17849 5.79303,12.97178 12.97152,12.97178 7.17863,0 12.97178,-5.79329 12.97178,-12.97178 0,-7.1785 -5.79315,-12.97152 -12.97178,-12.97152 z m -38.06877,2.58538 c 0.16638,-0.002 0.33304,-10e-4 0.49983,0.004 0.99911,0.0306 1.99903,0.19889 2.96168,0.51914 5.01212,1.54315 8.12794,7.02857 6.88681,12.12287 -1.04101,5.13472 -6.18387,8.77621 -11.37259,8.04974 -5.27142,-0.52581 -9.438182,-5.38435 -9.136702,-10.67714 0.0227,-1.55226 0.42621,-3.03868 1.11555,-4.37027 a 3.5489774,3.5489774 0 0 0 3.343422,2.37165 3.5489774,3.5489774 0 0 0 3.54938,-3.54857 3.5489774,3.5489774 0 0 0 -2.37355,-3.3445 c 1.23228,-0.63859 2.59802,-1.03312 4.02771,-1.10835 0.1657,-0.01 0.33195,-0.0161 0.49833,-0.0186 z m 37.85558,0 c 0.16638,-0.002 0.33304,-10e-4 0.49969,0.004 0.99911,0.0306 1.9993,0.19889 2.96222,0.51914 5.01186,1.54315 8.12753,7.02857 6.88654,12.12287 -1.041,5.13457 -6.1836,8.7762 -11.3719,8.05013 -5.2717,-0.52581 -9.43873,-5.38489 -9.13712,-10.67781 0.0227,-1.55227 0.42623,-3.03841 1.11555,-4.37001 a 3.5489774,3.5489774 0 0 0 3.34329,2.37166 3.5489774,3.5489774 0 0 0 3.54884,-3.54857 3.5489774,3.5489774 0 0 0 -2.37301,-3.34451 c 1.23214,-0.63859 2.59775,-1.03311 4.0273,-1.10835 0.16598,-0.01 0.33195,-0.0161 0.49847,-0.0186 z m -18.7146,6.87865 c -1.95169,0 -3.50762,1.5558 -3.50762,3.50749 0,1.95168 1.55593,3.50761 3.50762,3.50761 1.95168,0 3.50762,-1.55593 3.50762,-3.50761 0,-1.95169 -1.55594,-3.50722 -3.50762,-3.50722 z"
           fill="#ffffff"
           fill-opacity="1"
           id="path93"
           style="font-variation-settings:normal;vector-effect:none;fill:#ececec;fill-opacity:1;stroke-width:2.47999;stroke-linecap:round;stroke-linejoin:round;stroke-miterlimit:4;stroke-dasharray:none;stroke-dashoffset:0;stroke-opacity:1;-inkscape-stroke:none;paint-order:fill markers stroke;stop-color:#000000" /></g></g></g></svg>
