<?xml version="1.0" encoding="UTF-8" standalone="no"?>
<!-- Created with Inkscape (http://www.inkscape.org/) -->

<svg
   width="825"
   height="1125"
   viewBox="0 0 825 1125"
   version="1.1"
   id="svg1"
   inkscape:version="1.4 (86a8ad7, 2024-10-11)"
   sodipodi:docname="card_master.svg"
   xml:space="preserve"
   xmlns:inkscape="http://www.inkscape.org/namespaces/inkscape"
   xmlns:sodipodi="http://sodipodi.sourceforge.net/DTD/sodipodi-0.dtd"
   xmlns="http://www.w3.org/2000/svg"
   xmlns:svg="http://www.w3.org/2000/svg"><sodipodi:namedview
     id="namedview1"
     pagecolor="#ffffff"
     bordercolor="#000000"
     borderopacity="0.25"
     inkscape:showpageshadow="2"
     inkscape:pageopacity="0.0"
     inkscape:pagecheckerboard="0"
     inkscape:deskcolor="#d1d1d1"
     inkscape:document-units="px"
     inkscape:zoom="0.59999764"
     inkscape:cx="413.33496"
     inkscape:cy="483.33523"
     inkscape:window-width="1800"
     inkscape:window-height="1023"
     inkscape:window-x="0"
     inkscape:window-y="44"
     inkscape:window-maximized="1"
     inkscape:current-layer="layer2"
     showgrid="true"
     showguides="true"><inkscape:grid
       id="grid1"
       units="px"
       originx="0"
       originy="0"
       spacingx="37.5"
       spacingy="37.5"
       empcolor="#0099e5"
       empopacity="0.30196078"
       color="#0099e5"
       opacity="0.14901961"
       empspacing="4"
       dotted="false"
       gridanglex="30"
       gridanglez="30"
       visible="true" /><inkscape:grid
       id="grid72"
       units="px"
       originx="0"
       originy="0"
       spacingx="9.375"
       spacingy="9.375"
       empcolor="#3f3fff"
       empopacity="0.25098039"
       color="#3f3fff"
       opacity="0.1254902"
       empspacing="4"
       enabled="true"
       visible="true" /></sodipodi:namedview><defs
     id="defs1"><inkscape:path-effect
       effect="envelope"
       id="path-effect381"
       is_visible="true"
       lpeversion="1"
       yy="true"
       xx="true"
       bendpath1="M 579.3883,375.13663 763.01306,317.86098"
       bendpath2="m 758.06331,377.96506 2.12132,16.08"
       bendpath3="m 564.53906,441.42121 h 198.474"
       bendpath4="M 564.53906,317.86098 V 441.42121"
       bendpath1-nodetypes="cc"
       bendpath2-nodetypes="cc" /><inkscape:path-effect
       effect="rough_hatches"
       id="path-effect307"
       is_visible="true"
       lpeversion="1.2"
       direction="402.5,411.125 , 27.875,0"
       dist_rdm="75;1"
       growth="0"
       do_bend="true"
       bender="402.5,416.125 , 5,0"
       bottom_edge_variation="6.925;1"
       top_edge_variation="6.925;1"
       bottom_tgt_variation="0;1"
       top_tgt_variation="0;1"
       scale_bf="1"
       scale_bb="1"
       scale_tf="1"
       scale_tb="1"
       top_smth_variation="0;1"
       bottom_smth_variation="0;1"
       fat_output="true"
       stroke_width_top="1"
       stroke_width_bottom="1"
       front_thickness="1"
       back_thickness="0.25" /><radialGradient
       id="lorc-metal-bar-gradient-1"
       gradientTransform="matrix(1.1843865,0,0,0.84431895,-129.688,74.317)"
       cx="215.29079"
       cy="299.64386"
       fx="215.29079"
       fy="299.64386"
       r="198.16208"
       gradientUnits="userSpaceOnUse"><stop
         offset="0%"
         stop-color="#d0021b"
         stop-opacity="1"
         id="stop1-4" /><stop
         offset="100%"
         stop-color="#d0021b"
         stop-opacity="1"
         id="stop2-9" /></radialGradient><radialGradient
       id="lorc-metal-bar-gradient-1-4"
       gradientTransform="matrix(1.1843865,0,0,0.84431895,-129.688,74.317)"
       cx="215.29079"
       cy="299.64386"
       fx="215.29079"
       fy="299.64386"
       r="198.16208"
       gradientUnits="userSpaceOnUse"><stop
         offset="0%"
         stop-color="#d0021b"
         stop-opacity="1"
         id="stop1-4-8" /><stop
         offset="100%"
         stop-color="#d0021b"
         stop-opacity="1"
         id="stop2-9-8" /></radialGradient><radialGradient
       id="lord-berandas-amplitude-gradient-1"
       gradientTransform="matrix(1.164719,0,0,0.8585762,684.9945,430.0055)"
       cx="218.94165"
       cy="296.99693"
       fx="218.94165"
       fy="296.99693"
       r="205.09711"
       gradientUnits="userSpaceOnUse"><stop
         offset="0%"
         stop-color="#f56666"
         stop-opacity="1"
         id="stop1" /><stop
         offset="100%"
         stop-color="#530000"
         stop-opacity="1"
         id="stop2" /></radialGradient><radialGradient
       id="lord-berandas-amplitude-gradient-2"><stop
         offset="0%"
         stop-color="#f56666"
         stop-opacity="1"
         id="stop3" /><stop
         offset="100%"
         stop-color="#530000"
         stop-opacity="1"
         id="stop4" /></radialGradient><radialGradient
       id="lord-berandas-amplitude-gradient-7"><stop
         offset="0%"
         stop-color="#f56666"
         stop-opacity="1"
         id="stop5" /><stop
         offset="100%"
         stop-color="#530000"
         stop-opacity="1"
         id="stop6" /></radialGradient></defs><g
     inkscape:label="Main"
     inkscape:groupmode="layer"
     id="layer1"
     style="display:inline"><g
       id="g1"
       transform="translate(-21.386429,9.6837921)"
       style="display:inline"><path
         sodipodi:type="star"
         style="fill:none;stroke:#292929;stroke-width:5;stroke-linecap:round;stroke-linejoin:round;-inkscape-stroke:none;paint-order:fill markers stroke"
         id="path1"
         inkscape:flatsided="true"
         sodipodi:sides="6"
         sodipodi:cx="94.972404"
         sodipodi:cy="74.269073"
         sodipodi:r1="46.678524"
         sodipodi:r2="40.424786"
         sodipodi:arg1="0.52359878"
         sodipodi:arg2="1.0471976"
         inkscape:rounded="0"
         inkscape:randomized="0"
         d="M 135.39719,97.608336 94.972404,120.9476 54.547617,97.608335 l 0,-46.678524 40.424788,-23.339262 40.424785,23.339263 z"
         transform="translate(57.257561,46.789332)" /><rect
         style="fill:#000000;stroke:#000000;stroke-width:2;stroke-linecap:round;stroke-linejoin:round;stroke-dasharray:none;paint-order:fill markers stroke"
         id="rect40"
         width="103.28046"
         height="103.28046"
         x="98.386429"
         y="67.316208"
         rx="1.7916511"
         ry="1.7916511" /><rect
         style="fill:#e6e6e6;stroke:#000000;stroke-width:2;stroke-linecap:round;stroke-linejoin:round;stroke-dasharray:none;paint-order:fill markers stroke"
         id="rect1"
         width="103.28046"
         height="103.28046"
         x="96.386429"
         y="65.316208"
         rx="1.7916511"
         ry="1.7916511" /><rect
         style="fill:#ffffff;stroke:#000000;stroke-width:2;stroke-linecap:round;stroke-linejoin:round;stroke-dasharray:none;paint-order:fill markers stroke"
         id="rect2"
         width="58.631168"
         height="58.631168"
         x="118.71107"
         y="87.640854"
         rx="1.9787638"
         ry="1.9787638" /><path
         style="fill:none;stroke:#000000;stroke-width:2;stroke-linecap:butt;stroke-linejoin:miter;stroke-dasharray:none;stroke-opacity:1"
         d="M 142.02159,87.713266 V 74.379881 h 20.41674"
         id="path2" /><path
         style="fill:none;stroke:#000000;stroke-width:2;stroke-linecap:butt;stroke-linejoin:miter;stroke-dasharray:none;stroke-opacity:1"
         d="m 164.83418,86.775766 v -8.333369 h 27.70844 V 67.504854"
         id="path3" /><path
         style="fill:none;stroke:#000000;stroke-width:2;stroke-linecap:butt;stroke-linejoin:miter;stroke-dasharray:none;stroke-opacity:1"
         d="m 177.85506,95.838296 h 7.6042"
         id="path4" /><path
         style="fill:none;stroke:#000000;stroke-width:2;stroke-linecap:butt;stroke-linejoin:miter;stroke-dasharray:none;stroke-opacity:1"
         d="m 177.54256,103.02583 h 15.93756 V 87.817436"
         id="path5" /><path
         style="fill:none;stroke:#000000;stroke-width:2;stroke-linecap:butt;stroke-linejoin:miter;stroke-dasharray:none;stroke-opacity:1"
         d="m 178.16756,113.96337 h 15.31256"
         id="path6" /><path
         style="fill:none;stroke:#000000;stroke-width:2;stroke-linecap:butt;stroke-linejoin:miter;stroke-dasharray:none;stroke-opacity:1"
         d="m 177.33423,121.56757 h 17.68757 v 17.91674"
         id="path7"
         sodipodi:nodetypes="ccc" /><path
         style="fill:none;stroke:#000000;stroke-width:2;stroke-linecap:butt;stroke-linejoin:miter;stroke-dasharray:none;stroke-opacity:1"
         d="m 177.33423,130.42177 h 11.87504 v 20.20841"
         id="path8" /><path
         style="fill:none;stroke:#000000;stroke-width:2;stroke-linecap:butt;stroke-linejoin:miter;stroke-dasharray:none;stroke-opacity:1"
         d="m 166.60502,146.4635 v 14.47923 h 28.85428 v -11.35422"
         id="path10" /><path
         style="fill:none;stroke:#000000;stroke-width:2;stroke-linecap:butt;stroke-linejoin:miter;stroke-dasharray:none;stroke-opacity:1"
         d="m 178.3759,136.46346 h 5.31252 v 9.37504"
         id="path11" /><path
         style="fill:none;stroke:#000000;stroke-width:2;stroke-linecap:butt;stroke-linejoin:miter;stroke-dasharray:none;stroke-opacity:1"
         d="m 155.35497,147.19267 v 14.37506 h -14.06255"
         id="path12" /><path
         style="fill:none;stroke:#000000;stroke-width:2;stroke-linecap:butt;stroke-linejoin:miter;stroke-dasharray:none;stroke-opacity:1"
         d="m 146.81327,146.4635 v 8.2292 H 128.6882"
         id="path13" /><path
         style="fill:none;stroke:#000000;stroke-width:2;stroke-linecap:butt;stroke-linejoin:miter;stroke-dasharray:none;stroke-opacity:1"
         d="m 125.56319,147.19267 v 15.58341 h 8.43753"
         id="path14"
         sodipodi:nodetypes="ccc" /><path
         style="fill:none;stroke:#000000;stroke-width:2;stroke-linecap:butt;stroke-linejoin:miter;stroke-dasharray:none;stroke-opacity:1"
         d="m 119.00066,135.94263 h -8.43757 v 24.47926"
         id="path15"
         sodipodi:nodetypes="ccc" /><path
         style="fill:none;stroke:#000000;stroke-width:2;stroke-linecap:butt;stroke-linejoin:miter;stroke-dasharray:none;stroke-opacity:1"
         d="m 119.209,130.21344 h -16.87507 v 33.5418"
         id="path16" /><path
         style="fill:none;stroke:#000000;stroke-width:2;stroke-linecap:butt;stroke-linejoin:miter;stroke-dasharray:none;stroke-opacity:1"
         d="M 119.10483,123.13008 H 101.94489"
         id="path17" /><path
         style="fill:none;stroke:#000000;stroke-width:2;stroke-linecap:butt;stroke-linejoin:miter;stroke-dasharray:none;stroke-opacity:1"
         d="M 119.31316,111.3592 H 101.18809 V 96.879966"
         id="path18" /><path
         style="fill:none;stroke:#000000;stroke-width:2;stroke-linecap:butt;stroke-linejoin:miter;stroke-dasharray:none;stroke-opacity:1"
         d="M 118.27149,103.54667 H 107.75062 V 89.588276"
         id="path19" /><path
         style="fill:none;stroke:#000000;stroke-width:2;stroke-linecap:butt;stroke-linejoin:miter;stroke-dasharray:none;stroke-opacity:1"
         d="m 128.3757,87.088266 v -5.00002 h -26.2501 v 9.37504"
         id="path20" /><path
         style="fill:none;stroke:#000000;stroke-width:2;stroke-linecap:butt;stroke-linejoin:miter;stroke-dasharray:none;stroke-opacity:1"
         d="M 135.6674,87.609096 V 76.671556 H 106.08395"
         id="path21" /><path
         style="fill:none;stroke:#000000;stroke-width:2;stroke-linecap:butt;stroke-linejoin:miter;stroke-dasharray:none;stroke-opacity:1"
         d="m 150.97995,88.025766 v -9.166701 h 8.75004"
         id="path22" /><circle
         style="font-variation-settings:normal;fill:none;fill-opacity:1;stroke:#000000;stroke-width:2;stroke-linecap:butt;stroke-linejoin:miter;stroke-miterlimit:4;stroke-dasharray:none;stroke-dashoffset:0;stroke-opacity:1;paint-order:fill markers stroke;stop-color:#000000"
         id="path23"
         cx="104.41728"
         cy="76.671555"
         r="1.6666732" /><circle
         style="font-variation-settings:normal;fill:#ffffff;fill-opacity:1;stroke:#000000;stroke-width:2;stroke-linecap:butt;stroke-linejoin:miter;stroke-miterlimit:4;stroke-dasharray:none;stroke-dashoffset:0;stroke-opacity:1;paint-order:fill markers stroke;stop-color:#000000"
         id="circle23"
         cx="162.60651"
         cy="74.379883"
         r="1.6666732" /><circle
         style="font-variation-settings:normal;fill:#ffffff;fill-opacity:1;stroke:#000000;stroke-width:2;stroke-linecap:butt;stroke-linejoin:miter;stroke-miterlimit:4;stroke-dasharray:none;stroke-dashoffset:0;stroke-opacity:1;paint-order:fill markers stroke;stop-color:#000000"
         id="circle24"
         cx="192.54262"
         cy="69.171524"
         r="1.6666732" /><circle
         style="font-variation-settings:normal;fill:#ffffff;fill-opacity:1;stroke:#000000;stroke-width:2;stroke-linecap:butt;stroke-linejoin:miter;stroke-miterlimit:4;stroke-dasharray:none;stroke-dashoffset:0;stroke-opacity:1;paint-order:fill markers stroke;stop-color:#000000"
         id="circle25"
         cx="193.48012"
         cy="87.696312"
         r="1.6666732" /><circle
         style="font-variation-settings:normal;fill:#ffffff;fill-opacity:1;stroke:#000000;stroke-width:2;stroke-linecap:butt;stroke-linejoin:miter;stroke-miterlimit:4;stroke-dasharray:none;stroke-dashoffset:0;stroke-opacity:1;paint-order:fill markers stroke;stop-color:#000000"
         id="circle26"
         cx="185.67245"
         cy="95.838295"
         r="1.6666732" /><circle
         style="font-variation-settings:normal;fill:#ffffff;fill-opacity:1;stroke:#000000;stroke-width:2;stroke-linecap:butt;stroke-linejoin:miter;stroke-miterlimit:4;stroke-dasharray:none;stroke-dashoffset:0;stroke-opacity:1;paint-order:fill markers stroke;stop-color:#000000"
         id="circle27"
         cx="193.4433"
         cy="113.96336"
         r="1.6666732" /><circle
         style="font-variation-settings:normal;fill:#ffffff;fill-opacity:1;stroke:#000000;stroke-width:2;stroke-linecap:butt;stroke-linejoin:miter;stroke-miterlimit:4;stroke-dasharray:none;stroke-dashoffset:0;stroke-opacity:1;paint-order:fill markers stroke;stop-color:#000000"
         id="circle28"
         cx="195.0218"
         cy="139.04366"
         r="1.6666732" /><circle
         style="font-variation-settings:normal;fill:#ffffff;fill-opacity:1;stroke:#000000;stroke-width:2;stroke-linecap:butt;stroke-linejoin:miter;stroke-miterlimit:4;stroke-dasharray:none;stroke-dashoffset:0;stroke-opacity:1;paint-order:fill markers stroke;stop-color:#000000"
         id="circle29"
         cx="189.20927"
         cy="151.30759"
         r="1.6666732" /><circle
         style="font-variation-settings:normal;fill:#ffffff;fill-opacity:1;stroke:#000000;stroke-width:2;stroke-linecap:butt;stroke-linejoin:miter;stroke-miterlimit:4;stroke-dasharray:none;stroke-dashoffset:0;stroke-opacity:1;paint-order:fill markers stroke;stop-color:#000000"
         id="circle30"
         cx="183.68842"
         cy="147.50517"
         r="1.6666732" /><circle
         style="font-variation-settings:normal;fill:#ffffff;fill-opacity:1;stroke:#000000;stroke-width:2;stroke-linecap:butt;stroke-linejoin:miter;stroke-miterlimit:4;stroke-dasharray:none;stroke-dashoffset:0;stroke-opacity:1;paint-order:fill markers stroke;stop-color:#000000"
         id="circle31"
         cx="195.4593"
         cy="147.92183"
         r="1.6666732" /><circle
         style="font-variation-settings:normal;fill:#ffffff;fill-opacity:1;stroke:#000000;stroke-width:2;stroke-linecap:butt;stroke-linejoin:miter;stroke-miterlimit:4;stroke-dasharray:none;stroke-dashoffset:0;stroke-opacity:1;paint-order:fill markers stroke;stop-color:#000000"
         id="circle32"
         cx="139.62573"
         cy="161.56772"
         r="1.6666732" /><circle
         style="font-variation-settings:normal;fill:#ffffff;fill-opacity:1;stroke:#000000;stroke-width:2;stroke-linecap:butt;stroke-linejoin:miter;stroke-miterlimit:4;stroke-dasharray:none;stroke-dashoffset:0;stroke-opacity:1;paint-order:fill markers stroke;stop-color:#000000"
         id="circle33"
         cx="129.05592"
         cy="154.69269"
         r="1.6666732" /><circle
         style="font-variation-settings:normal;fill:#ffffff;fill-opacity:1;stroke:#000000;stroke-width:2;stroke-linecap:butt;stroke-linejoin:miter;stroke-miterlimit:4;stroke-dasharray:none;stroke-dashoffset:0;stroke-opacity:1;paint-order:fill markers stroke;stop-color:#000000"
         id="circle34"
         cx="134.32242"
         cy="162.97913"
         r="1.6666732" /><circle
         style="font-variation-settings:normal;fill:#ffffff;fill-opacity:1;stroke:#000000;stroke-width:2;stroke-linecap:butt;stroke-linejoin:miter;stroke-miterlimit:4;stroke-dasharray:none;stroke-dashoffset:0;stroke-opacity:1;paint-order:fill markers stroke;stop-color:#000000"
         id="circle35"
         cx="110.5631"
         cy="160.76941"
         r="1.6666732" /><circle
         style="font-variation-settings:normal;fill:#ffffff;fill-opacity:1;stroke:#000000;stroke-width:2;stroke-linecap:butt;stroke-linejoin:miter;stroke-miterlimit:4;stroke-dasharray:none;stroke-dashoffset:0;stroke-opacity:1;paint-order:fill markers stroke;stop-color:#000000"
         id="circle36"
         cx="102.33394"
         cy="163.7157"
         r="1.6666732" /><circle
         style="font-variation-settings:normal;fill:#ffffff;fill-opacity:1;stroke:#000000;stroke-width:2;stroke-linecap:butt;stroke-linejoin:miter;stroke-miterlimit:4;stroke-dasharray:none;stroke-dashoffset:0;stroke-opacity:1;paint-order:fill markers stroke;stop-color:#000000"
         id="circle37"
         cx="101.92882"
         cy="123.13008"
         r="1.6666732" /><circle
         style="font-variation-settings:normal;fill:#ffffff;fill-opacity:1;stroke:#000000;stroke-width:2;stroke-linecap:butt;stroke-linejoin:miter;stroke-miterlimit:4;stroke-dasharray:none;stroke-dashoffset:0;stroke-opacity:1;paint-order:fill markers stroke;stop-color:#000000"
         id="circle38"
         cx="101.1881"
         cy="97.092247"
         r="1.6666732" /><circle
         style="font-variation-settings:normal;fill:#ffffff;fill-opacity:1;stroke:#000000;stroke-width:2;stroke-linecap:butt;stroke-linejoin:miter;stroke-miterlimit:4;stroke-dasharray:none;stroke-dashoffset:0;stroke-opacity:1;paint-order:fill markers stroke;stop-color:#000000"
         id="circle39"
         cx="107.75063"
         cy="89.616035"
         r="1.6666732" /><circle
         style="font-variation-settings:normal;fill:#ffffff;fill-opacity:1;stroke:#000000;stroke-width:2;stroke-linecap:butt;stroke-linejoin:miter;stroke-miterlimit:4;stroke-dasharray:none;stroke-dashoffset:0;stroke-opacity:1;paint-order:fill markers stroke;stop-color:#000000"
         id="circle40"
         cx="102.12561"
         cy="89.796608"
         r="1.6666732" /></g><rect
       style="font-variation-settings:normal;display:inline;fill:#000000;fill-opacity:1;stroke:none;stroke-width:3;stroke-linecap:round;stroke-linejoin:round;stroke-miterlimit:4;stroke-dasharray:none;stroke-dashoffset:0;stroke-opacity:1;paint-order:fill markers stroke"
       id="rect213"
       width="119.5838"
       height="86.667007"
       x="-589.46283"
       y="-82.957222"
       rx="7.3657398"
       ry="7.3657398" /><rect
       style="display:inline;fill:#000000;stroke:#000000;stroke-width:2;stroke-linecap:round;stroke-linejoin:round;stroke-dasharray:none;paint-order:fill markers stroke"
       id="rect214"
       width="567.349"
       height="159.04068"
       x="-1142.2842"
       y="-118.55866"
       rx="9.375001"
       ry="9.375" /><rect
       style="font-variation-settings:normal;display:inline;fill:#000000;fill-opacity:1;stroke:none;stroke-width:3;stroke-linecap:round;stroke-linejoin:round;stroke-miterlimit:4;stroke-dasharray:none;stroke-dashoffset:0;stroke-opacity:1;paint-order:fill markers stroke"
       id="rect215"
       width="119.5838"
       height="86.667007"
       x="-591.46283"
       y="-84.957222"
       rx="7.3657398"
       ry="7.3657398" /><rect
       style="display:inline;fill:#e6e6e6;stroke:#000000;stroke-width:2;stroke-linecap:round;stroke-linejoin:round;stroke-dasharray:none;paint-order:fill markers stroke"
       id="rect216"
       width="567.349"
       height="159.04068"
       x="-1144.2842"
       y="-120.55866"
       rx="9.375001"
       ry="9.375" /><rect
       style="font-variation-settings:normal;display:inline;fill:#000000;fill-opacity:1;stroke:#ffffff;stroke-width:3;stroke-linecap:round;stroke-linejoin:round;stroke-miterlimit:4;stroke-dasharray:none;stroke-dashoffset:0;stroke-opacity:1;paint-order:fill markers stroke"
       id="rect217"
       width="9.2808132"
       height="18.561626"
       x="-61.691845"
       y="488.62793"
       rx="0"
       ry="0"
       transform="rotate(90)" /><rect
       style="font-variation-settings:normal;display:inline;fill:#000000;fill-opacity:1;stroke:#ffffff;stroke-width:3;stroke-linecap:round;stroke-linejoin:round;stroke-miterlimit:4;stroke-dasharray:none;stroke-dashoffset:0;stroke-opacity:1;paint-order:fill markers stroke"
       id="rect218"
       width="9.2808132"
       height="18.561626"
       x="-31.066721"
       y="488.62793"
       rx="0"
       ry="0"
       transform="rotate(90)" /><path
       inkscape:connector-curvature="0"
       style="display:inline;fill:#000000;stroke-width:1.06667;stroke-linecap:round;stroke-linejoin:round"
       d="m -578.47506,-168.31842 c -2.1289,-7.1e-4 -4.369,0.30801 -6.7261,0.99579 a 1.3646855,1.3646855 0 0 0 -0.021,0.0203 1.3646855,1.3646855 0 0 0 -0.071,0.0241 1.3646855,1.3646855 0 0 0 -0.056,0.0203 1.3646855,1.3646855 0 0 0 -0.067,0.0333 1.3646855,1.3646855 0 0 0 -0.055,0.0277 1.3646855,1.3646855 0 0 0 -0.067,0.0388 1.3646855,1.3646855 0 0 0 -0.049,0.0333 1.3646855,1.3646855 0 0 0 -0.062,0.0444 1.3646855,1.3646855 0 0 0 -0.046,0.0369 1.3646855,1.3646855 0 0 0 -0.057,0.0519 1.3646855,1.3646855 0 0 0 -0.043,0.0408 1.3646855,1.3646855 0 0 0 -0.053,0.0574 1.3646855,1.3646855 0 0 0 -0.036,0.0424 1.3646855,1.3646855 0 0 0 -0.049,0.0647 1.3646855,1.3646855 0 0 0 -0.031,0.0444 1.3646855,1.3646855 0 0 0 -0.041,0.0685 1.3646855,1.3646855 0 0 0 -0.028,0.05 1.3646855,1.3646855 0 0 0 -0.034,0.0721 1.3646855,1.3646855 0 0 0 -0.022,0.0536 1.3646855,1.3646855 0 0 0 -0.026,0.0721 1.3646855,1.3646855 0 0 0 -0.017,0.0555 1.3646855,1.3646855 0 0 0 -0.024,0.0998 l -3.2166,16.08353 a 1.3646855,1.3646855 0 0 0 0.808,1.52459 l 11.7827,4.96724 4.5423,23.29066 -16.7403,3.63623 a 1.3646855,1.3646855 0 0 0 -1.0773,1.31512 l -0.1526,10.98519 a 1.3646855,1.3646855 0 0 0 1.7777,1.31937 l 21.0403,-6.7246 3.4653,-0.6719 c 0.026,0 0.051,0 0.076,0 1.4302,0 2.7771,-0.68113 3.7177,-1.79177 0.9399,-1.10933 1.4316,-2.55552 1.4302,-4.04499 v 0 c 7e-4,-0.94424 -0.1971,-1.87257 -0.5811,-2.70845 l -3.6305,-18.75664 18.0676,7.61633 a 1.3646855,1.3646855 0 0 0 0.022,0.0203 1.3646855,1.3646855 0 0 0 0.078,0.0277 1.3646855,1.3646855 0 0 0 0.05,0.0203 1.3646855,1.3646855 0 0 0 0.078,0.0203 1.3646855,1.3646855 0 0 0 0.06,0.0203 1.3646855,1.3646855 0 0 0 0.069,0.0203 1.3646855,1.3646855 0 0 0 0.069,0.0203 1.3646855,1.3646855 0 0 0 0.062,0 1.3646855,1.3646855 0 0 0 0.078,0 1.3646855,1.3646855 0 0 0 0.052,0 l 11.9814,-0.75861 a 1.3646855,1.3646855 0 0 0 1.1449,-0.78114 l 7.2575,-15.36412 h 10e-4 a 1.3646855,1.3646855 0 0 0 0,-0.0203 1.3646855,1.3646855 0 0 0 -0.7915,-1.88715 c -1.1186,-0.61329 -2.27,-1.04278 -3.4413,-1.31401 l -44.227,-17.15997 a 1.3646855,1.3646855 0 0 0 -0.1153,-0.0388 c -1.913,-0.55205 -3.9309,-0.86322 -6.0599,-0.86451 z m -3.7848,1.97145 a 1.3646855,1.3646855 0 0 1 0.5296,0.10349 l 41.7666,16.73986 a 1.3658348,1.3658348 0 0 1 0.8289,1.54993 1.3646855,1.3646855 0 0 0 -0.1016,0.20967 l -0.1201,0.2973 a 1.3658348,1.3658348 0 0 1 -1.6218,0.47924 l -41.7665,-16.74412 a 1.3646855,1.3646855 0 0 1 0.485,-2.63542 z m 51.3277,18.44012 c 0.6321,0 1.2569,0.0721 1.8772,0.20098 l 2.1174,0.82163 -3.4002,7.19904 c 0.1311,-0.58295 0.198,-1.16128 0.1918,-1.70319 -0.014,-1.25411 -0.4223,-2.29134 -1.1269,-2.81014 -0.7046,-0.51917 -1.679,-0.49993 -2.6396,0.0352 -0.2371,0.13312 -0.4748,0.29658 -0.7048,0.48497 0.088,-0.11839 0.1709,-0.24719 0.2424,-0.38624 0.2035,-0.39584 0.3229,-0.85475 0.3189,-1.26112 -0.01,-0.40713 -0.1358,-0.75305 -0.3682,-0.92944 -0.1162,-0.0887 -0.25,-0.13312 -0.3951,-0.12947 -0.145,0 -0.3019,0.0463 -0.4533,0.13311 -0.3027,0.17381 -0.5861,0.50567 -0.7901,0.90226 -0.2036,0.39714 -0.3232,0.85438 -0.3185,1.2615 0,0.40713 0.1357,0.75324 0.3681,0.92963 0.2322,0.17564 0.5455,0.16449 0.8484,-0.0203 -0.4908,0.51158 -0.9404,1.13484 -1.3061,1.82707 -0.662,1.25189 -1.0381,2.7003 -1.0235,3.95459 0.014,1.25447 0.4309,2.29577 1.1357,2.81495 0.7044,0.51916 1.6698,0.49531 2.6302,-0.0388 0.6002,-0.33502 1.1909,-0.86454 1.7109,-1.52016 l -1.2081,2.55701 -9.0141,0.57464 5.3514,-13.27208 c 2.1024,-1.1125 4.0613,-1.65385 5.9562,-1.63777 z m -42.8192,5.47956 2.3004,0.96993 4.271,20.04735 c -0.4317,-0.13122 -0.8824,-0.20301 -1.342,-0.20301 -0.3913,0 -0.7757,0.0535 -1.1474,0.14976 l -4.082,-20.96384 z m 5.3658,2.2623 2.4445,1.0304 3.3039,17.07007 c -0.3924,-0.10903 -0.7992,-0.1664 -1.2134,-0.1664 -0.236,0 -0.4692,0.0203 -0.6988,0.0555 l -3.8361,-17.99082 z m 4.5349,20.6734 c 0.5549,0 1.1863,0.28436 1.6479,0.8294 0.4619,0.54488 0.7805,1.4207 0.7792,2.26878 10e-4,0.84828 -0.3175,1.72372 -0.779,2.26896 -0.2191,0.25866 -0.4764,0.45631 -0.7453,0.59498 l -0.8824,0.17004 c 0.3025,-0.7575 0.4574,-1.58044 0.4565,-2.41707 v 0 c 4e-4,-0.54208 -0.065,-1.079 -0.1928,-1.59577 a 1.3646855,1.3646855 0 0 0 -0.028,-0.32282 l -0.3815,-1.78953 c 0.042,0 0.084,-0.0203 0.125,-0.0203 z m -4.6713,0.61771 c 0.5551,0 1.1866,0.28418 1.6484,0.82942 0.4617,0.54524 0.7801,1.42068 0.7789,2.26876 10e-4,0.84847 -0.3175,1.7239 -0.779,2.26897 -0.4619,0.54524 -1.0932,0.82978 -1.6484,0.82978 -0.5549,0 -1.1827,-0.28472 -1.6444,-0.82978 -0.4617,-0.54487 -0.784,-1.4205 -0.7829,-2.26897 -0.001,-0.84808 0.3212,-1.72352 0.7829,-2.26876 0.4617,-0.54524 1.0895,-0.82942 1.6444,-0.82942 z m -4.9554,1.52127 c -0.1249,0.5114 -0.189,1.04166 -0.1884,1.57691 v 0 c -10e-4,1.48984 0.4898,2.93586 1.4297,4.04538 0.1203,0.14058 0.2475,0.27715 0.3804,0.40472 l -15.5983,4.98535 0.1123,-8.00422 13.8643,-3.01184 z"
       id="path218" /></g><g
     inkscape:groupmode="layer"
     id="layer7"
     inkscape:label="Dev"
     style="display:none"><rect
       style="display:inline;fill:#000000;stroke:#000000;stroke-width:2.00001;stroke-linecap:round;stroke-linejoin:round;stroke-dasharray:none;paint-order:fill markers stroke"
       id="rect100"
       width="670.7865"
       height="205.24997"
       x="77.925224"
       y="845.75"
       rx="9.375"
       ry="9.375" /><rect
       style="display:inline;fill:#e6e6e6;stroke:#000000;stroke-width:2.00001;stroke-linecap:round;stroke-linejoin:round;stroke-dasharray:none;paint-order:fill markers stroke"
       id="rect93"
       width="670.7865"
       height="205.24997"
       x="75.75"
       y="843.75"
       rx="9.375"
       ry="9.375" /><g
       id="g211"
       transform="translate(-59.483598,15.320647)"
       style="display:inline"><path
         id="path209"
         style="vector-effect:none;stroke-width:2;stroke-linecap:round;stroke-linejoin:round;paint-order:fill markers stroke;stop-color:#000000"
         d="m 141.97176,828.42309 h 64.35677 v 70.71096 H 135.61757 V 833.7452 Z"
         sodipodi:nodetypes="cccccc" /><path
         style="vector-effect:none;fill:#ffffff;stroke:none;stroke-width:2;stroke-linecap:round;stroke-linejoin:round;paint-order:fill markers stroke;stop-color:#000000"
         d="m 166.24533,881.99586 h 35.09392 v 4.48788 h -35.09392 z"
         id="path210" /><path
         style="vector-effect:none;fill:#ffffff;stroke:none;stroke-width:2;stroke-linecap:round;stroke-linejoin:round;paint-order:fill markers stroke;stop-color:#000000"
         d="m 141.03295,839.23031 20.94238,17.48853 -20.94238,17.48455 -3.36771,-3.42725 16.98501,-13.99398 -16.98501,-14.08898 z"
         id="path211" /></g><path
       id="rect208"
       style="display:inline;vector-effect:none;stroke-width:2;stroke-linecap:round;stroke-linejoin:round;paint-order:fill markers stroke;stop-color:#000000"
       d="m 82.48816,843.74374 h 64.35677 V 914.4547 H 76.133974 v -65.38885 z"
       sodipodi:nodetypes="cccccc" /><path
       style="display:inline;vector-effect:none;fill:#ffffff;stroke:none;stroke-width:2;stroke-linecap:round;stroke-linejoin:round;paint-order:fill markers stroke;stop-color:#000000"
       d="m 106.76173,897.31651 h 35.09392 v 4.48788 h -35.09392 z"
       id="path99" /><path
       style="display:inline;vector-effect:none;fill:#ffffff;stroke:none;stroke-width:2;stroke-linecap:round;stroke-linejoin:round;paint-order:fill markers stroke;stop-color:#000000"
       d="m 81.54935,854.55096 20.94238,17.48853 -20.94238,17.48455 -3.367714,-3.42725 16.985014,-13.99398 -16.985014,-14.08898 z"
       id="path98" /></g><g
     inkscape:groupmode="layer"
     id="layer3"
     inkscape:label="Bots Vuln"
     style="display:none"><path
       d="m 132.21915,489.5 c 24.00212,25.23376 37.40412,58.71708 37.44141,93.54297 -0.14359,34.87949 -13.689,68.36924 -37.83398,93.54102 h 133.79493 480.248 c 1.9873,0 3.5879,-1.5986 3.5879,-3.58594 V 493.08789 c 0,-1.98734 -1.6006,-3.58789 -3.5879,-3.58789 h -480.248 z"
       style="display:inline;opacity:1;vector-effect:none;fill:#000000;stroke:#000000;stroke-width:2.00001;stroke-linecap:round;stroke-linejoin:round;paint-order:fill markers stroke;stop-color:#000000;stop-opacity:1"
       id="path282" /><path
       d="m 130.21915,487.5 c 24.00212,25.23376 37.40412,58.71708 37.44141,93.54297 -0.14359,34.87949 -13.689,68.36924 -37.83398,93.54102 h 133.79493 480.248 c 1.9873,0 3.5879,-1.5986 3.5879,-3.58594 V 491.08789 c 0,-1.98734 -1.6006,-3.58789 -3.5879,-3.58789 h -480.248 z"
       style="display:inline;opacity:1;vector-effect:none;fill:#e6e6e6;stroke:#000000;stroke-width:2.00001;stroke-linecap:round;stroke-linejoin:round;paint-order:fill markers stroke;stop-color:#000000;stop-opacity:1"
       id="path257" /><g
       id="g278"
       transform="translate(-625.67392,7.7781703)"
       style="display:inline"><g
         id="g265"
         style="font-variation-settings:normal;opacity:1;vector-effect:none;fill:#000000;fill-opacity:1;stroke-width:0.364909;stroke-linecap:round;stroke-linejoin:round;stroke-miterlimit:4;stroke-dasharray:none;stroke-dashoffset:0;stroke-opacity:1;-inkscape-stroke:none;paint-order:fill markers stroke;stop-color:#000000;stop-opacity:1"
         transform="matrix(2.7404056,0,0,2.7404056,530.47945,-657.50734)"><path
           style="font-variation-settings:normal;vector-effect:none;fill:#000000;fill-opacity:1;stroke-width:0.364909;stroke-linecap:round;stroke-linejoin:round;stroke-miterlimit:4;stroke-dasharray:none;stroke-dashoffset:0;stroke-opacity:1;-inkscape-stroke:none;paint-order:fill markers stroke;stop-color:#000000;stop-opacity:1"
           d="m 60.6657,448.02247 -1.88553,7.46976"
           id="path264" /><path
           style="font-variation-settings:normal;vector-effect:none;fill:#000000;fill-opacity:1;stroke-width:0.364909;stroke-linecap:round;stroke-linejoin:round;stroke-miterlimit:4;stroke-dasharray:none;stroke-dashoffset:0;stroke-opacity:1;-inkscape-stroke:none;paint-order:fill markers stroke;stop-color:#000000;stop-opacity:1"
           d="m 60.910156,447.05273 a 1,1 0 0 0 -1.214844,0.72461 l -1.884765,7.47071 a 1,1 0 0 0 0.724609,1.21289 1,1 0 0 0 1.214844,-0.72461 l 1.884766,-7.46875 a 1,1 0 0 0 -0.72461,-1.21485 z"
           id="path265" /></g><g
         id="g267"
         style="font-variation-settings:normal;opacity:1;vector-effect:none;fill:#000000;fill-opacity:1;stroke-width:0.364909;stroke-linecap:round;stroke-linejoin:round;stroke-miterlimit:4;stroke-dasharray:none;stroke-dashoffset:0;stroke-opacity:1;-inkscape-stroke:none;paint-order:fill markers stroke;stop-color:#000000;stop-opacity:1"
         transform="matrix(2.7404056,0,0,2.7404056,530.47945,-657.50734)"><path
           style="font-variation-settings:normal;vector-effect:none;fill:#000000;fill-opacity:1;stroke-width:0.364909;stroke-linecap:round;stroke-linejoin:round;stroke-miterlimit:4;stroke-dasharray:none;stroke-dashoffset:0;stroke-opacity:1;-inkscape-stroke:none;paint-order:fill markers stroke;stop-color:#000000;stop-opacity:1"
           d="m 60.82747,448.00001 9.3217,1.43745"
           id="path266" /><path
           style="font-variation-settings:normal;vector-effect:none;fill:#000000;fill-opacity:1;stroke-width:0.364909;stroke-linecap:round;stroke-linejoin:round;stroke-miterlimit:4;stroke-dasharray:none;stroke-dashoffset:0;stroke-opacity:1;-inkscape-stroke:none;paint-order:fill markers stroke;stop-color:#000000;stop-opacity:1"
           d="m 60.980469,447.01172 a 1,1 0 0 0 -1.140625,0.83594 1,1 0 0 0 0.835937,1.14062 l 9.320313,1.4375 a 1,1 0 0 0 1.140625,-0.83594 1,1 0 0 0 -0.835938,-1.14062 z"
           id="path267" /></g><g
         id="g269"
         style="font-variation-settings:normal;opacity:1;vector-effect:none;fill:#000000;fill-opacity:1;stroke-width:0.364909;stroke-linecap:round;stroke-linejoin:round;stroke-miterlimit:4;stroke-dasharray:none;stroke-dashoffset:0;stroke-opacity:1;-inkscape-stroke:none;paint-order:fill markers stroke;stop-color:#000000;stop-opacity:1"
         transform="matrix(2.7404056,0,0,2.7404056,530.47945,-657.50734)"><path
           style="font-variation-settings:normal;vector-effect:none;fill:#000000;fill-opacity:1;stroke-width:0.364909;stroke-linecap:round;stroke-linejoin:round;stroke-miterlimit:4;stroke-dasharray:none;stroke-dashoffset:0;stroke-opacity:1;-inkscape-stroke:none;paint-order:fill markers stroke;stop-color:#000000;stop-opacity:1"
           d="m 60.6657,448.02247 -5.54452,-7.55825"
           id="path268" /><path
           style="font-variation-settings:normal;vector-effect:none;fill:#000000;fill-opacity:1;stroke-width:0.364909;stroke-linecap:round;stroke-linejoin:round;stroke-miterlimit:4;stroke-dasharray:none;stroke-dashoffset:0;stroke-opacity:1;-inkscape-stroke:none;paint-order:fill markers stroke;stop-color:#000000;stop-opacity:1"
           d="m 55.273437,439.47656 a 1,1 0 0 0 -0.74414,0.18164 1,1 0 0 0 -0.214844,1.39844 l 5.544922,7.55664 a 1,1 0 0 0 1.398437,0.21484 1,1 0 0 0 0.214844,-1.39648 l -5.544922,-7.55859 a 1,1 0 0 0 -0.654297,-0.39649 z"
           id="path269" /></g><path
         style="fill:#f9f9f9;stroke-width:0.999999;stroke-linecap:round;stroke-linejoin:round;paint-order:fill markers stroke"
         d="m 697.64119,600.10499 a 8.6939932,8.6939932 0 0 1 -8.69399,8.69399 8.6939932,8.6939932 0 0 1 -8.69399,-8.69399 8.6939932,8.6939932 0 0 1 8.69399,-8.69399 8.6939932,8.6939932 0 0 1 8.69399,8.69399 z"
         id="path270" /><path
         style="font-variation-settings:normal;opacity:1;vector-effect:none;fill:#000000;fill-opacity:1;stroke-width:0.999999;stroke-linecap:round;stroke-linejoin:round;stroke-miterlimit:4;stroke-dasharray:none;stroke-dashoffset:0;stroke-opacity:1;-inkscape-stroke:none;paint-order:fill markers stroke;stop-color:#000000;stop-opacity:1"
         d="m 687.79819,588.56738 c -6.28259,0 -11.43263,5.15005 -11.43263,11.43262 0,6.2826 5.15004,11.43799 11.43263,11.43799 6.28258,0 11.43263,-5.15539 11.43263,-11.43799 0,-6.28257 -5.15005,-11.43262 -11.43263,-11.43262 z m 0,5.48082 c 3.32053,0 5.95181,2.63128 5.95181,5.9518 0,3.32055 -2.63128,5.95718 -5.95181,5.95718 -3.32054,0 -5.95182,-2.63663 -5.95182,-5.95718 0,-3.32052 2.63128,-5.9518 5.95182,-5.9518 z"
         id="path271" /><g
         id="g273"
         transform="translate(38.964683,-25.706379)"><path
           style="fill:#f9f9f9;stroke-width:0.999999;stroke-linecap:round;stroke-linejoin:round;paint-order:fill markers stroke"
           d="m 697.64119,600.10499 a 8.6939932,8.6939932 0 0 1 -8.69399,8.69399 8.6939932,8.6939932 0 0 1 -8.69399,-8.69399 8.6939932,8.6939932 0 0 1 8.69399,-8.69399 8.6939932,8.6939932 0 0 1 8.69399,8.69399 z"
           id="path272" /><path
           style="font-variation-settings:normal;opacity:1;vector-effect:none;fill:#000000;fill-opacity:1;stroke-width:0.999999;stroke-linecap:round;stroke-linejoin:round;stroke-miterlimit:4;stroke-dasharray:none;stroke-dashoffset:0;stroke-opacity:1;-inkscape-stroke:none;paint-order:fill markers stroke;stop-color:#000000;stop-opacity:1"
           d="m 687.79819,588.56738 c -6.28259,0 -11.43263,5.15005 -11.43263,11.43262 0,6.2826 5.15004,11.43799 11.43263,11.43799 6.28258,0 11.43263,-5.15539 11.43263,-11.43799 0,-6.28257 -5.15005,-11.43262 -11.43263,-11.43262 z m 0,5.48082 c 3.32053,0 5.95181,2.63128 5.95181,5.9518 0,3.32055 -2.63128,5.95718 -5.95181,5.95718 -3.32054,0 -5.95182,-2.63663 -5.95182,-5.95718 0,-3.32052 2.63128,-5.9518 5.95182,-5.9518 z"
           id="path273" /></g><g
         id="g275"
         transform="translate(-11.490531,-57.52631)"><path
           style="fill:#f9f9f9;stroke-width:0.999999;stroke-linecap:round;stroke-linejoin:round;paint-order:fill markers stroke"
           d="m 697.64119,600.10499 a 8.6939932,8.6939932 0 0 1 -8.69399,8.69399 8.6939932,8.6939932 0 0 1 -8.69399,-8.69399 8.6939932,8.6939932 0 0 1 8.69399,-8.69399 8.6939932,8.6939932 0 0 1 8.69399,8.69399 z"
           id="path274" /><path
           style="font-variation-settings:normal;opacity:1;vector-effect:none;fill:#000000;fill-opacity:1;stroke-width:0.999999;stroke-linecap:round;stroke-linejoin:round;stroke-miterlimit:4;stroke-dasharray:none;stroke-dashoffset:0;stroke-opacity:1;-inkscape-stroke:none;paint-order:fill markers stroke;stop-color:#000000;stop-opacity:1"
           d="m 687.79819,588.56738 c -6.28259,0 -11.43263,5.15005 -11.43263,11.43262 0,6.2826 5.15004,11.43799 11.43263,11.43799 6.28258,0 11.43263,-5.15539 11.43263,-11.43799 0,-6.28257 -5.15005,-11.43262 -11.43263,-11.43262 z m 0,5.48082 c 3.32053,0 5.95181,2.63128 5.95181,5.9518 0,3.32055 -2.63128,5.95718 -5.95181,5.95718 -3.32054,0 -5.95182,-2.63663 -5.95182,-5.95718 0,-3.32052 2.63128,-5.9518 5.95182,-5.9518 z"
           id="path275" /></g><g
         id="g277"
         transform="translate(8.9861835,-31.30433)"><path
           style="fill:#f9f9f9;stroke-width:0.999999;stroke-linecap:round;stroke-linejoin:round;paint-order:fill markers stroke"
           d="m 697.64119,600.10499 a 8.6939932,8.6939932 0 0 1 -8.69399,8.69399 8.6939932,8.6939932 0 0 1 -8.69399,-8.69399 8.6939932,8.6939932 0 0 1 8.69399,-8.69399 8.6939932,8.6939932 0 0 1 8.69399,8.69399 z"
           id="path276" /><path
           style="font-variation-settings:normal;opacity:1;vector-effect:none;fill:#000000;fill-opacity:1;stroke-width:0.999999;stroke-linecap:round;stroke-linejoin:round;stroke-miterlimit:4;stroke-dasharray:none;stroke-dashoffset:0;stroke-opacity:1;-inkscape-stroke:none;paint-order:fill markers stroke;stop-color:#000000;stop-opacity:1"
           d="m 687.79819,588.56738 c -6.28259,0 -11.43263,5.15005 -11.43263,11.43262 0,6.2826 5.15004,11.43799 11.43263,11.43799 6.28258,0 11.43263,-5.15539 11.43263,-11.43799 0,-6.28257 -5.15005,-11.43262 -11.43263,-11.43262 z m 0,5.48082 c 3.32053,0 5.95181,2.63128 5.95181,5.9518 0,3.32055 -2.63128,5.95718 -5.95181,5.95718 -3.32054,0 -5.95182,-2.63663 -5.95182,-5.95718 0,-3.32052 2.63128,-5.9518 5.95182,-5.9518 z"
           id="path277" /></g></g><g
       id="g399"
       transform="translate(-1265.8979,-231.93103)"><path
         d="m 1400.7888,745.35934 a 56.007369,119.6914 0 0 1 9.4593,66.51023 56.007369,119.6914 0 0 1 -9.5942,66.53079 56.007369,90.621831 0 0 0 18.1207,-66.53079 56.007369,90.621831 0 0 0 -17.9858,-66.51023 z"
         style="display:inline;vector-effect:none;fill:#000000;stroke:none;stroke-width:0.999996;stroke-linecap:round;stroke-linejoin:round;paint-order:fill markers stroke"
         id="path279-1" /><path
         d="m 1390.5401,763.57715 a 39.265497,83.912927 0 0 1 6.6317,46.62882 39.265497,83.912927 0 0 1 -6.7262,46.64323 39.265497,63.532911 0 0 0 12.704,-46.64323 39.265497,63.532911 0 0 0 -12.6095,-46.62882 z"
         style="display:inline;vector-effect:none;fill:#000000;stroke:none;stroke-width:0.999996;stroke-linecap:round;stroke-linejoin:round;paint-order:fill markers stroke"
         id="path280-2" /><path
         d="m 1381.3331,783.46164 a 22.523622,48.134449 0 0 1 3.8041,26.7474 22.523622,48.134449 0 0 1 -3.8584,26.75567 22.523622,36.443987 0 0 0 7.2874,-26.75567 22.523622,36.443987 0 0 0 -7.2331,-26.7474 z"
         style="display:inline;vector-effect:none;fill:#000000;stroke:none;stroke-width:0.999998;stroke-linecap:round;stroke-linejoin:round;paint-order:fill markers stroke"
         id="path281-0" /></g><g
       id="g400"
       transform="translate(-1133.4922,-237.58788)"><rect
         style="font-variation-settings:normal;display:inline;vector-effect:none;fill:#000000;fill-opacity:1;stroke:#000000;stroke-width:2.00001;stroke-linecap:round;stroke-linejoin:round;stroke-miterlimit:4;stroke-dasharray:none;stroke-dashoffset:0;stroke-opacity:1;-inkscape-stroke:none;paint-order:fill markers stroke;stop-color:#000000"
         id="rect398-1"
         width="90.625"
         height="44"
         x="1299.3545"
         y="859"
         rx="7.7781749"
         ry="7.7781744" /><path
         d="m 1367.2032,862.02084 c -0.2539,0 -0.3831,0.30324 -0.438,0.45232 -0.055,0.14908 -0.075,0.25325 -0.095,0.35467 -0.039,0.20294 -0.063,0.39571 -0.088,0.6296 -0.05,0.46781 -0.096,1.07828 -0.1419,1.81836 -0.092,1.48018 -0.1829,3.46122 -0.2636,5.55528 -0.1611,4.18814 -0.2817,8.77773 -0.2817,10.66421 0,1.71131 -0.1187,5.07199 -0.2775,7.94562 -0.01,0.14753 -0.017,0.27316 -0.026,0.41805 -0.01,-0.11136 -0.014,-0.20649 -0.02,-0.31963 -0.1588,-2.83913 -0.2774,-6.19383 -0.2774,-8.04404 v -0.41251 -0.0108 c -0.014,-2.03711 -0.1259,-5.1171 -0.2783,-7.8399 -0.081,-1.44986 -0.172,-2.77808 -0.2667,-3.77783 -0.048,-0.50011 -0.094,-0.91261 -0.1507,-1.25854 -0.029,-0.17298 -0.056,-0.32659 -0.1114,-0.51094 -0.028,-0.092 -0.061,-0.19598 -0.131,-0.31762 -0.07,-0.12166 -0.1977,-0.27716 -0.3643,-0.27716 -0.1709,0 -0.3002,0.16257 -0.3693,0.28667 -0.069,0.12382 -0.1018,0.22837 -0.1289,0.32093 -0.054,0.18524 -0.081,0.3403 -0.1094,0.51581 -0.056,0.35112 -0.1025,0.77193 -0.1499,1.28176 -0.095,1.01933 -0.1854,2.37188 -0.2664,3.83756 -0.1621,2.93181 -0.2835,6.27567 -0.2835,8.16193 0,1.71131 -0.1174,4.03774 -0.2736,5.88684 -0.01,0.11773 -0.021,0.21256 -0.031,0.32625 -0.01,-0.0811 -0.015,-0.1462 -0.023,-0.22948 -0.1558,-1.8126 -0.2733,-4.13338 -0.2735,-5.98382 0,-2.01301 -0.1223,-4.39383 -0.2874,-6.31671 -0.083,-0.96138 -0.1747,-1.80155 -0.2766,-2.45371 -0.051,-0.32603 -0.101,-0.60129 -0.1743,-0.8655 -0.037,-0.13209 -0.077,-0.26431 -0.1531,-0.41251 -0.076,-0.14819 -0.2141,-0.3497 -0.4159,-0.3497 -0.2104,0 -0.3491,0.21633 -0.4237,0.36829 -0.075,0.15195 -0.1138,0.28565 -0.1495,0.42024 -0.072,0.26874 -0.1213,0.55097 -0.1718,0.88585 -0.1009,0.66975 -0.1927,1.53303 -0.2751,2.50957 -0.1649,1.95304 -0.2874,4.32824 -0.2874,6.21452 0,1.71129 -0.1166,3.37715 -0.2656,4.5637 -0.016,0.13019 -0.034,0.22925 -0.051,0.34726 -0.05,-0.31486 -0.096,-0.66412 -0.1287,-1.08237 -0.099,-1.25467 -0.1252,-2.84809 -0.1504,-4.42182 -0.025,-1.57372 -0.048,-3.12257 -0.1666,-4.40987 -0.06,-0.64364 -0.1397,-1.22757 -0.292,-1.75068 -0.1525,-0.52309 -0.422,-1.01711 -0.7675,-1.13622 l -0.043,-0.0148 h -0.044 c -0.2576,0 -0.4096,0.27516 -0.503,0.48153 -0.093,0.20625 -0.1538,0.41616 -0.2117,0.65094 -0.116,0.46947 -0.2116,1.04401 -0.2974,1.72857 -0.1719,1.36846 -0.2953,3.15697 -0.2953,5.04324 h 1.0072 c 0,-1.7112 0.1166,-3.37706 0.2657,-4.56372 0.035,-0.27757 0.072,-0.52377 0.1085,-0.74097 0.03,0.18636 0.058,0.40744 0.081,0.66024 0.096,1.03924 0.1253,2.54274 0.1505,4.1146 0.025,1.57185 0.048,3.21745 0.1617,4.66368 0.1134,1.44621 0.2845,2.78636 0.8467,3.58386 l 0.1315,0.1869 h 0.162 c 0.2576,0 0.4097,-0.27517 0.5031,-0.48153 0.093,-0.20647 0.1538,-0.41637 0.2118,-0.65116 0.1159,-0.46947 0.2112,-1.044 0.2972,-1.72834 0.1719,-1.36858 0.2954,-3.15719 0.2954,-5.04345 0,-1.71143 0.1175,-4.03774 0.2735,-5.88684 0.01,-0.11773 0.021,-0.21234 0.031,-0.32603 0.01,0.081 0.015,0.14599 0.023,0.22926 0.1557,1.81262 0.2733,4.1334 0.2733,5.98339 10e-5,2.01332 0.1225,4.39416 0.2878,6.31703 0.082,0.9616 0.1744,1.80189 0.2763,2.45404 0.051,0.32592 0.1011,0.60119 0.1744,0.86539 0.037,0.13209 0.077,0.26453 0.1533,0.41251 0.076,0.14819 0.214,0.3497 0.4158,0.3497 0.2105,0 0.3491,-0.21633 0.4238,-0.36828 0.075,-0.15196 0.1135,-0.28566 0.1494,-0.42025 0.072,-0.26874 0.1211,-0.55097 0.1717,-0.88585 0.101,-0.66975 0.1928,-1.53303 0.2753,-2.50955 0.1648,-1.95308 0.2872,-4.32826 0.2872,-6.21452 0,-1.71131 0.1187,-5.07199 0.2776,-7.94563 0.01,-0.14742 0.017,-0.27315 0.026,-0.41804 0.01,0.11163 0.014,0.20681 0.02,0.31984 0.1588,2.83912 0.2775,6.19383 0.2775,8.04383 v 0.4125 l 0.01,0.0108 c 0.014,2.03734 0.1259,5.11734 0.2782,7.84022 0.081,1.44987 0.172,2.7781 0.2668,3.77785 0.047,0.49987 0.094,0.91217 0.1507,1.25821 0.028,0.17298 0.056,0.32658 0.1112,0.51094 0.028,0.092 0.061,0.19618 0.131,0.31784 0.07,0.12165 0.1977,0.27692 0.3643,0.27692 0.1709,0 0.3002,-0.16257 0.3693,-0.28665 0.069,-0.12382 0.1019,-0.22838 0.1289,-0.32094 0.054,-0.18524 0.081,-0.34029 0.1094,-0.51581 0.056,-0.35113 0.1027,-0.77215 0.1499,-1.28175 0.095,-1.01933 0.1855,-2.37188 0.2665,-3.83756 0.162,-2.93181 0.2833,-6.27569 0.2833,-8.16195 0,-1.71142 0.1194,-6.36127 0.2791,-10.51325 0.01,-0.19241 0.016,-0.3614 0.023,-0.55153 0.01,0.1565 0.014,0.29442 0.019,0.45255 0.1599,4.11824 0.2791,8.76191 0.2791,10.61191 0,2.01332 0.1208,6.60899 0.2821,10.7644 0.081,2.0777 0.1711,4.03396 0.2635,5.494 0.046,0.72991 0.092,1.33154 0.142,1.79348 0.025,0.2308 0.049,0.42136 0.088,0.62341 0.02,0.10106 0.041,0.20538 0.096,0.3539 0.056,0.14841 0.1857,0.44491 0.4355,0.44491 0.2539,0 0.383,-0.30325 0.4379,-0.45232 0.055,-0.14908 0.075,-0.25326 0.095,-0.35468 0.039,-0.20294 0.063,-0.39569 0.088,-0.6296 0.05,-0.4678 0.096,-1.07826 0.1416,-1.81836 0.092,-1.48017 0.183,-3.4611 0.2636,-5.55506 0.1611,-4.18813 0.2818,-8.7775 0.2818,-10.66376 0,-1.71142 0.1193,-6.36127 0.2791,-10.51347 0.01,-0.19187 0.016,-0.36052 0.023,-0.54998 0.01,0.15594 0.014,0.29352 0.019,0.45122 0.1597,4.11824 0.2788,8.76225 0.2788,10.61212 v 0.99533 h 0.018 c 0.023,2.26295 0.1208,6.06489 0.2644,9.76863 0.081,2.0777 0.1712,4.03397 0.2636,5.49402 0.046,0.7299 0.092,1.3313 0.1421,1.79325 0.025,0.23092 0.049,0.42158 0.089,0.62374 0.02,0.10106 0.041,0.20538 0.096,0.35388 0.056,0.14843 0.1859,0.44493 0.4355,0.44493 0.254,0 0.3832,-0.30346 0.4381,-0.45255 0.055,-0.14907 0.075,-0.25324 0.095,-0.35466 0.039,-0.20283 0.063,-0.39549 0.088,-0.62928 0.05,-0.4678 0.096,-1.07826 0.1419,-1.81836 0.092,-1.48017 0.1827,-3.4611 0.2633,-5.55506 0.1612,-4.18791 0.282,-8.77772 0.282,-10.66376 0,-1.71142 0.1186,-5.0722 0.2775,-7.94584 0.01,-0.14742 0.017,-0.27315 0.026,-0.41804 0.01,0.11163 0.014,0.20681 0.02,0.31984 0.1588,2.8389 0.2775,6.19361 0.2775,8.04382 0,2.01322 0.1214,5.36318 0.2835,8.26291 0.081,1.44987 0.172,2.77808 0.2668,3.77784 0.048,0.49987 0.094,0.91239 0.1507,1.25822 0.028,0.17296 0.056,0.32657 0.1113,0.51094 0.028,0.092 0.061,0.19596 0.131,0.3176 0.07,0.12166 0.1977,0.27715 0.3642,0.27715 0.1709,0 0.3003,-0.16256 0.3693,-0.28666 0.069,-0.12382 0.1019,-0.22837 0.129,-0.32092 0.054,-0.18525 0.081,-0.3403 0.1093,-0.51582 0.056,-0.35114 0.1027,-0.77215 0.15,-1.28176 0.095,-1.01932 0.1855,-2.37187 0.2665,-3.83755 0.1621,-2.93181 0.2835,-6.27569 0.2835,-8.16195 0,-1.71143 0.1174,-4.03773 0.2736,-5.88683 0.01,-0.11719 0.021,-0.21201 0.031,-0.32537 0.01,0.0807 0.015,0.14566 0.022,0.22849 0.1557,1.81262 0.2733,4.1335 0.2733,5.98371 0,2.01334 0.1226,4.39417 0.2877,6.31704 0.083,0.96161 0.1746,1.80189 0.2765,2.45404 0.051,0.32581 0.101,0.60097 0.1744,0.86517 0.037,0.13209 0.077,0.26431 0.1531,0.4125 0.076,0.14821 0.2142,0.3497 0.416,0.3497 0.2106,0 0.3493,-0.21632 0.4238,-0.36827 0.075,-0.15196 0.1136,-0.28566 0.1494,-0.42025 0.072,-0.26874 0.1213,-0.55098 0.1718,-0.88584 0.101,-0.66975 0.1927,-1.53304 0.2751,-2.50956 0.1649,-1.95308 0.2874,-4.32827 0.2874,-6.21453 0,-1.7113 0.1166,-3.37727 0.2657,-4.56393 0.014,-0.10594 0.028,-0.18469 0.042,-0.28266 0.01,0.0677 0.02,0.11718 0.029,0.1891 0.1478,1.14573 0.2649,2.80728 0.2649,4.65749 0,2.01322 0.1229,3.80615 0.296,5.14918 0.087,0.67131 0.183,1.22625 0.302,1.68079 0.06,0.22726 0.1223,0.43165 0.2187,0.62982 0.096,0.19818 0.2506,0.44435 0.4908,0.44435 0.2576,0 0.4097,-0.27514 0.503,-0.48151 0.093,-0.20648 0.1539,-0.41616 0.2118,-0.65094 0.116,-0.46947 0.2113,-1.04433 0.2973,-1.72857 0.1719,-1.36857 0.2954,-3.15719 0.2954,-5.04344 h -1.0071 c 0,1.71129 -0.1167,3.37726 -0.2658,4.56392 -0.013,0.10594 -0.028,0.18424 -0.041,0.28223 -0.01,-0.0675 -0.019,-0.11718 -0.029,-0.18878 -0.1479,-1.14573 -0.265,-2.80684 -0.265,-4.65705 0,-2.01322 -0.1228,-3.80659 -0.2961,-5.14941 -0.087,-0.6713 -0.183,-1.22646 -0.302,-1.681 -0.059,-0.22727 -0.1224,-0.43163 -0.2187,-0.62982 -0.096,-0.19818 -0.2507,-0.44437 -0.4908,-0.44437 -0.2576,0 -0.4097,0.27516 -0.5031,0.48153 -0.093,0.20648 -0.1538,0.41638 -0.2117,0.65117 -0.116,0.46946 -0.2113,1.04399 -0.2973,1.72833 -0.1719,1.36858 -0.2954,3.15741 -0.2954,5.04368 0,1.71131 -0.1175,4.03773 -0.2735,5.88684 -0.01,0.11745 -0.021,0.21211 -0.031,0.32558 -0.01,-0.0807 -0.015,-0.14566 -0.022,-0.2286 -0.1557,-1.81283 -0.2734,-4.13372 -0.2735,-5.98414 0,-2.01312 -0.1224,-4.39385 -0.2877,-6.31671 -0.082,-0.96149 -0.1745,-1.80177 -0.2764,-2.45383 -0.051,-0.32603 -0.1009,-0.60129 -0.1743,-0.86549 -0.037,-0.13222 -0.077,-0.26465 -0.1533,-0.41252 -0.076,-0.14818 -0.2141,-0.34981 -0.4158,-0.34981 -0.2106,0 -0.3492,0.21644 -0.4239,0.36851 -0.075,0.15184 -0.1135,0.28555 -0.1494,0.41991 -0.072,0.26874 -0.1211,0.55098 -0.1715,0.88585 -0.101,0.66975 -0.1928,1.53303 -0.2752,2.50955 -0.1649,1.95285 -0.2874,4.32805 -0.2874,6.21443 0,1.71129 -0.1185,5.07199 -0.2774,7.94561 -0.01,0.14775 -0.017,0.27372 -0.026,0.41882 -0.01,-0.11163 -0.014,-0.20704 -0.02,-0.32039 -0.1588,-2.83891 -0.2774,-6.19372 -0.2775,-8.04404 0,-2.01312 -0.1214,-5.36308 -0.2835,-8.2627 -0.081,-1.44987 -0.1719,-2.77807 -0.2667,-3.77783 -0.047,-0.49989 -0.094,-0.91239 -0.1507,-1.25832 -0.028,-0.17296 -0.056,-0.32647 -0.1113,-0.51061 -0.028,-0.0921 -0.061,-0.1963 -0.1309,-0.31795 -0.07,-0.12166 -0.1978,-0.27714 -0.3644,-0.27714 -0.1708,0 -0.3002,0.16257 -0.3693,0.28665 -0.069,0.12382 -0.1019,0.22836 -0.1289,0.32093 -0.054,0.18525 -0.081,0.3403 -0.1094,0.51581 -0.056,0.35112 -0.1027,0.77194 -0.1499,1.28177 -0.095,1.01932 -0.1855,2.37165 -0.2665,3.83755 -0.1622,2.93147 -0.2835,6.27557 -0.2835,8.16195 0,1.71118 -0.1192,6.36083 -0.279,10.51268 -0.01,0.19188 -0.016,0.36053 -0.023,0.5502 -0.01,-0.15595 -0.014,-0.2934 -0.019,-0.45099 -0.1598,-4.11813 -0.2791,-8.76179 -0.2791,-10.612 v -0.99534 h -0.018 c -0.023,-2.26272 -0.1207,-6.06511 -0.2643,-9.76885 -0.081,-2.0777 -0.1713,-4.03408 -0.2636,-5.49423 -0.046,-0.72991 -0.092,-1.33154 -0.1421,-1.79348 -0.025,-0.23091 -0.048,-0.42158 -0.088,-0.62374 -0.02,-0.10107 -0.041,-0.20537 -0.096,-0.35389 -0.056,-0.1482 -0.1858,-0.44459 -0.4352,-0.44491 h -5e-4 c -0.2539,0 -0.3831,0.30357 -0.4379,0.45254 -0.055,0.14909 -0.075,0.25325 -0.095,0.35467 -0.039,0.20305 -0.063,0.39569 -0.088,0.62949 -0.05,0.46781 -0.096,1.07828 -0.1417,1.81836 -0.092,1.48016 -0.183,3.46109 -0.2635,5.55505 -0.1612,4.18814 -0.282,8.77795 -0.282,10.66444 0,1.71129 -0.1192,6.36083 -0.279,10.51268 -0.01,0.19156 -0.016,0.35987 -0.023,0.54909 -0.01,-0.15572 -0.014,-0.29284 -0.019,-0.45012 -0.1598,-4.11812 -0.279,-8.76178 -0.279,-10.6121 0,-2.01301 -0.1207,-6.60868 -0.282,-10.76417 -0.081,-2.0777 -0.1713,-4.0341 -0.2637,-5.49424 -0.046,-0.72992 -0.092,-1.33153 -0.142,-1.79348 -0.025,-0.23081 -0.048,-0.42136 -0.088,-0.62341 -0.02,-0.10107 -0.04,-0.20537 -0.096,-0.35389 -0.056,-0.14843 -0.1858,-0.44491 -0.4355,-0.44491 z"
         fill="url(#lord-berandas-amplitude-gradient-1)"
         id="path6-4-6"
         style="fill:#f9f9f9;stroke-width:1" /></g></g><g
     inkscape:groupmode="layer"
     id="layer2"
     inkscape:label="Bots Action"
     style="display:none"><g
       id="g398"><g
         id="g300"
         style="display:inline;fill:#000000"
         transform="translate(2,2)"><path
           d="m 78.6084,487.5 c -1.98734,0 -3.58789,1.60055 -3.58789,3.58789 v 179.91017 c 0,1.98734 1.60055,3.58594 3.58789,3.58594 h 251.28711 258.95898 72.41412 7.1757 44.6172 c 24.145,-25.17179 37.6904,-58.66154 37.834,-93.54103 -0.037,-34.82589 -13.4393,-68.30921 -37.4414,-93.54297 h -45.0098 -7.1757 -72.41412 -258.95898 z"
           style="display:inline;vector-effect:none;fill:#000000;stroke:#000000;stroke-width:2.00001;stroke-linecap:round;stroke-linejoin:round;paint-order:fill markers stroke;stop-color:#000000"
           id="path283"
           sodipodi:nodetypes="sssscccccccccccs" /><g
           id="g298"
           transform="translate(-37.483391,2.3570318)"
           style="fill:#000000"><g
             id="g285"
             style="font-variation-settings:normal;opacity:1;vector-effect:none;fill:#000000;fill-opacity:1;stroke-width:0.364909;stroke-linecap:round;stroke-linejoin:round;stroke-miterlimit:4;stroke-dasharray:none;stroke-dashoffset:0;stroke-opacity:1;-inkscape-stroke:none;paint-order:fill markers stroke;stop-color:#000000;stop-opacity:1"
             transform="matrix(2.7404056,0,0,2.7404056,530.47945,-657.50734)"><path
               style="font-variation-settings:normal;vector-effect:none;fill:#000000;fill-opacity:1;stroke-width:0.364909;stroke-linecap:round;stroke-linejoin:round;stroke-miterlimit:4;stroke-dasharray:none;stroke-dashoffset:0;stroke-opacity:1;-inkscape-stroke:none;paint-order:fill markers stroke;stop-color:#000000;stop-opacity:1"
               d="m 60.6657,448.02247 -1.88553,7.46976"
               id="path284" /><path
               style="font-variation-settings:normal;vector-effect:none;fill:#000000;fill-opacity:1;stroke-width:0.364909;stroke-linecap:round;stroke-linejoin:round;stroke-miterlimit:4;stroke-dasharray:none;stroke-dashoffset:0;stroke-opacity:1;-inkscape-stroke:none;paint-order:fill markers stroke;stop-color:#000000;stop-opacity:1"
               d="m 60.910156,447.05273 a 1,1 0 0 0 -1.214844,0.72461 l -1.884765,7.47071 a 1,1 0 0 0 0.724609,1.21289 1,1 0 0 0 1.214844,-0.72461 l 1.884766,-7.46875 a 1,1 0 0 0 -0.72461,-1.21485 z"
               id="path285" /></g><g
             id="g287"
             style="font-variation-settings:normal;opacity:1;vector-effect:none;fill:#000000;fill-opacity:1;stroke-width:0.364909;stroke-linecap:round;stroke-linejoin:round;stroke-miterlimit:4;stroke-dasharray:none;stroke-dashoffset:0;stroke-opacity:1;-inkscape-stroke:none;paint-order:fill markers stroke;stop-color:#000000;stop-opacity:1"
             transform="matrix(2.7404056,0,0,2.7404056,530.47945,-657.50734)"><path
               style="font-variation-settings:normal;vector-effect:none;fill:#000000;fill-opacity:1;stroke-width:0.364909;stroke-linecap:round;stroke-linejoin:round;stroke-miterlimit:4;stroke-dasharray:none;stroke-dashoffset:0;stroke-opacity:1;-inkscape-stroke:none;paint-order:fill markers stroke;stop-color:#000000;stop-opacity:1"
               d="m 60.82747,448.00001 9.3217,1.43745"
               id="path286" /><path
               style="font-variation-settings:normal;vector-effect:none;fill:#000000;fill-opacity:1;stroke-width:0.364909;stroke-linecap:round;stroke-linejoin:round;stroke-miterlimit:4;stroke-dasharray:none;stroke-dashoffset:0;stroke-opacity:1;-inkscape-stroke:none;paint-order:fill markers stroke;stop-color:#000000;stop-opacity:1"
               d="m 60.980469,447.01172 a 1,1 0 0 0 -1.140625,0.83594 1,1 0 0 0 0.835937,1.14062 l 9.320313,1.4375 a 1,1 0 0 0 1.140625,-0.83594 1,1 0 0 0 -0.835938,-1.14062 z"
               id="path287" /></g><g
             id="g289"
             style="font-variation-settings:normal;opacity:1;vector-effect:none;fill:#000000;fill-opacity:1;stroke-width:0.364909;stroke-linecap:round;stroke-linejoin:round;stroke-miterlimit:4;stroke-dasharray:none;stroke-dashoffset:0;stroke-opacity:1;-inkscape-stroke:none;paint-order:fill markers stroke;stop-color:#000000;stop-opacity:1"
             transform="matrix(2.7404056,0,0,2.7404056,530.47945,-657.50734)"><path
               style="font-variation-settings:normal;vector-effect:none;fill:#000000;fill-opacity:1;stroke-width:0.364909;stroke-linecap:round;stroke-linejoin:round;stroke-miterlimit:4;stroke-dasharray:none;stroke-dashoffset:0;stroke-opacity:1;-inkscape-stroke:none;paint-order:fill markers stroke;stop-color:#000000;stop-opacity:1"
               d="m 60.6657,448.02247 -5.54452,-7.55825"
               id="path288" /><path
               style="font-variation-settings:normal;vector-effect:none;fill:#000000;fill-opacity:1;stroke-width:0.364909;stroke-linecap:round;stroke-linejoin:round;stroke-miterlimit:4;stroke-dasharray:none;stroke-dashoffset:0;stroke-opacity:1;-inkscape-stroke:none;paint-order:fill markers stroke;stop-color:#000000;stop-opacity:1"
               d="m 55.273437,439.47656 a 1,1 0 0 0 -0.74414,0.18164 1,1 0 0 0 -0.214844,1.39844 l 5.544922,7.55664 a 1,1 0 0 0 1.398437,0.21484 1,1 0 0 0 0.214844,-1.39648 l -5.544922,-7.55859 a 1,1 0 0 0 -0.654297,-0.39649 z"
               id="path289" /></g><path
             style="fill:#000000;stroke-width:0.999999;stroke-linecap:round;stroke-linejoin:round;paint-order:fill markers stroke"
             d="m 697.64119,600.10499 a 8.6939932,8.6939932 0 0 1 -8.69399,8.69399 8.6939932,8.6939932 0 0 1 -8.69399,-8.69399 8.6939932,8.6939932 0 0 1 8.69399,-8.69399 8.6939932,8.6939932 0 0 1 8.69399,8.69399 z"
             id="path290" /><path
             style="font-variation-settings:normal;opacity:1;vector-effect:none;fill:#000000;fill-opacity:1;stroke-width:0.999999;stroke-linecap:round;stroke-linejoin:round;stroke-miterlimit:4;stroke-dasharray:none;stroke-dashoffset:0;stroke-opacity:1;-inkscape-stroke:none;paint-order:fill markers stroke;stop-color:#000000;stop-opacity:1"
             d="m 687.79819,588.56738 c -6.28259,0 -11.43263,5.15005 -11.43263,11.43262 0,6.2826 5.15004,11.43799 11.43263,11.43799 6.28258,0 11.43263,-5.15539 11.43263,-11.43799 0,-6.28257 -5.15005,-11.43262 -11.43263,-11.43262 z m 0,5.48082 c 3.32053,0 5.95181,2.63128 5.95181,5.9518 0,3.32055 -2.63128,5.95718 -5.95181,5.95718 -3.32054,0 -5.95182,-2.63663 -5.95182,-5.95718 0,-3.32052 2.63128,-5.9518 5.95182,-5.9518 z"
             id="path291" /><g
             id="g293"
             transform="translate(38.964683,-25.706379)"
             style="fill:#000000"><path
               style="fill:#000000;stroke-width:0.999999;stroke-linecap:round;stroke-linejoin:round;paint-order:fill markers stroke"
               d="m 697.64119,600.10499 a 8.6939932,8.6939932 0 0 1 -8.69399,8.69399 8.6939932,8.6939932 0 0 1 -8.69399,-8.69399 8.6939932,8.6939932 0 0 1 8.69399,-8.69399 8.6939932,8.6939932 0 0 1 8.69399,8.69399 z"
               id="path292" /><path
               style="font-variation-settings:normal;opacity:1;vector-effect:none;fill:#000000;fill-opacity:1;stroke-width:0.999999;stroke-linecap:round;stroke-linejoin:round;stroke-miterlimit:4;stroke-dasharray:none;stroke-dashoffset:0;stroke-opacity:1;-inkscape-stroke:none;paint-order:fill markers stroke;stop-color:#000000;stop-opacity:1"
               d="m 687.79819,588.56738 c -6.28259,0 -11.43263,5.15005 -11.43263,11.43262 0,6.2826 5.15004,11.43799 11.43263,11.43799 6.28258,0 11.43263,-5.15539 11.43263,-11.43799 0,-6.28257 -5.15005,-11.43262 -11.43263,-11.43262 z m 0,5.48082 c 3.32053,0 5.95181,2.63128 5.95181,5.9518 0,3.32055 -2.63128,5.95718 -5.95181,5.95718 -3.32054,0 -5.95182,-2.63663 -5.95182,-5.95718 0,-3.32052 2.63128,-5.9518 5.95182,-5.9518 z"
               id="path293" /></g><g
             id="g295"
             transform="translate(-11.490531,-57.52631)"
             style="fill:#000000"><path
               style="fill:#000000;stroke-width:0.999999;stroke-linecap:round;stroke-linejoin:round;paint-order:fill markers stroke"
               d="m 697.64119,600.10499 a 8.6939932,8.6939932 0 0 1 -8.69399,8.69399 8.6939932,8.6939932 0 0 1 -8.69399,-8.69399 8.6939932,8.6939932 0 0 1 8.69399,-8.69399 8.6939932,8.6939932 0 0 1 8.69399,8.69399 z"
               id="path294" /><path
               style="font-variation-settings:normal;opacity:1;vector-effect:none;fill:#000000;fill-opacity:1;stroke-width:0.999999;stroke-linecap:round;stroke-linejoin:round;stroke-miterlimit:4;stroke-dasharray:none;stroke-dashoffset:0;stroke-opacity:1;-inkscape-stroke:none;paint-order:fill markers stroke;stop-color:#000000;stop-opacity:1"
               d="m 687.79819,588.56738 c -6.28259,0 -11.43263,5.15005 -11.43263,11.43262 0,6.2826 5.15004,11.43799 11.43263,11.43799 6.28258,0 11.43263,-5.15539 11.43263,-11.43799 0,-6.28257 -5.15005,-11.43262 -11.43263,-11.43262 z m 0,5.48082 c 3.32053,0 5.95181,2.63128 5.95181,5.9518 0,3.32055 -2.63128,5.95718 -5.95181,5.95718 -3.32054,0 -5.95182,-2.63663 -5.95182,-5.95718 0,-3.32052 2.63128,-5.9518 5.95182,-5.9518 z"
               id="path295" /></g><g
             id="g297"
             transform="translate(8.9861835,-31.30433)"
             style="fill:#000000"><path
               style="fill:#000000;stroke-width:0.999999;stroke-linecap:round;stroke-linejoin:round;paint-order:fill markers stroke"
               d="m 697.64119,600.10499 a 8.6939932,8.6939932 0 0 1 -8.69399,8.69399 8.6939932,8.6939932 0 0 1 -8.69399,-8.69399 8.6939932,8.6939932 0 0 1 8.69399,-8.69399 8.6939932,8.6939932 0 0 1 8.69399,8.69399 z"
               id="path296" /><path
               style="font-variation-settings:normal;opacity:1;vector-effect:none;fill:#000000;fill-opacity:1;stroke-width:0.999999;stroke-linecap:round;stroke-linejoin:round;stroke-miterlimit:4;stroke-dasharray:none;stroke-dashoffset:0;stroke-opacity:1;-inkscape-stroke:none;paint-order:fill markers stroke;stop-color:#000000;stop-opacity:1"
               d="m 687.79819,588.56738 c -6.28259,0 -11.43263,5.15005 -11.43263,11.43262 0,6.2826 5.15004,11.43799 11.43263,11.43799 6.28258,0 11.43263,-5.15539 11.43263,-11.43799 0,-6.28257 -5.15005,-11.43262 -11.43263,-11.43262 z m 0,5.48082 c 3.32053,0 5.95181,2.63128 5.95181,5.9518 0,3.32055 -2.63128,5.95718 -5.95181,5.95718 -3.32054,0 -5.95182,-2.63663 -5.95182,-5.95718 0,-3.32052 2.63128,-5.9518 5.95182,-5.9518 z"
               id="path297" /></g></g><path
           d="m 723.80932,511.85933 a 56.007369,119.6914 0 0 1 9.45925,66.51023 56.007369,119.6914 0 0 1 -9.59415,66.53079 56.007369,90.621831 0 0 0 18.1207,-66.53079 56.007369,90.621831 0 0 0 -17.9858,-66.51023 z"
           style="opacity:1;vector-effect:none;fill:#000000;stroke:none;stroke-width:0.999996;stroke-linecap:round;stroke-linejoin:round;paint-order:fill markers stroke"
           id="path298" /><path
           d="m 713.56062,530.07714 a 39.265497,83.912927 0 0 1 6.63167,46.62882 39.265497,83.912927 0 0 1 -6.72624,46.64323 39.265497,63.532911 0 0 0 12.70401,-46.64323 39.265497,63.532911 0 0 0 -12.60944,-46.62882 z"
           style="opacity:1;vector-effect:none;fill:#000000;stroke:none;stroke-width:0.999996;stroke-linecap:round;stroke-linejoin:round;paint-order:fill markers stroke"
           id="path299" /><path
           d="m 704.35359,549.96163 a 22.523622,48.134449 0 0 1 3.80408,26.7474 22.523622,48.134449 0 0 1 -3.85833,26.75567 22.523622,36.443987 0 0 0 7.28733,-26.75567 22.523622,36.443987 0 0 0 -7.23308,-26.7474 z"
           style="opacity:1;vector-effect:none;fill:#000000;stroke:none;stroke-width:0.999998;stroke-linecap:round;stroke-linejoin:round;paint-order:fill markers stroke"
           id="path300" /></g><path
         d="m 78.6084,487.5 c -1.98734,0 -3.58789,1.60055 -3.58789,3.58789 v 179.91017 c 0,1.98734 1.60055,3.58594 3.58789,3.58594 h 251.28711 258.95898 72.41412 7.1757 44.6172 c 24.145,-25.17179 37.6904,-58.66154 37.834,-93.54103 -0.037,-34.82589 -13.4393,-68.30921 -37.4414,-93.54297 h -45.0098 -7.1757 -72.41412 -258.95898 z"
         style="display:inline;vector-effect:none;fill:#e6e6e6;stroke:#000000;stroke-width:2.00001;stroke-linecap:round;stroke-linejoin:round;paint-order:fill markers stroke;stop-color:#000000"
         id="path256"
         sodipodi:nodetypes="sssscccccccccccs" /><g
         id="g227"
         style="font-variation-settings:normal;display:inline;vector-effect:none;fill:#000000;fill-opacity:1;stroke-width:0.364909;stroke-linecap:round;stroke-linejoin:round;stroke-miterlimit:4;stroke-dasharray:none;stroke-dashoffset:0;stroke-opacity:1;-inkscape-stroke:none;paint-order:fill markers stroke;stop-color:#000000"
         transform="matrix(2.7404056,0,0,2.7404056,492.99606,-655.15031)"><path
           style="font-variation-settings:normal;vector-effect:none;fill:#000000;fill-opacity:1;stroke-width:0.364909;stroke-linecap:round;stroke-linejoin:round;stroke-miterlimit:4;stroke-dasharray:none;stroke-dashoffset:0;stroke-opacity:1;-inkscape-stroke:none;paint-order:fill markers stroke;stop-color:#000000;stop-opacity:1"
           d="m 60.6657,448.02247 -1.88553,7.46976"
           id="path226" /><path
           style="font-variation-settings:normal;vector-effect:none;fill:#000000;fill-opacity:1;stroke-width:0.364909;stroke-linecap:round;stroke-linejoin:round;stroke-miterlimit:4;stroke-dasharray:none;stroke-dashoffset:0;stroke-opacity:1;-inkscape-stroke:none;paint-order:fill markers stroke;stop-color:#000000;stop-opacity:1"
           d="m 60.910156,447.05273 a 1,1 0 0 0 -1.214844,0.72461 l -1.884765,7.47071 a 1,1 0 0 0 0.724609,1.21289 1,1 0 0 0 1.214844,-0.72461 l 1.884766,-7.46875 a 1,1 0 0 0 -0.72461,-1.21485 z"
           id="path227" /></g><g
         id="g229"
         style="font-variation-settings:normal;display:inline;vector-effect:none;fill:#000000;fill-opacity:1;stroke-width:0.364909;stroke-linecap:round;stroke-linejoin:round;stroke-miterlimit:4;stroke-dasharray:none;stroke-dashoffset:0;stroke-opacity:1;-inkscape-stroke:none;paint-order:fill markers stroke;stop-color:#000000"
         transform="matrix(2.7404056,0,0,2.7404056,492.99606,-655.15031)"><path
           style="font-variation-settings:normal;vector-effect:none;fill:#000000;fill-opacity:1;stroke-width:0.364909;stroke-linecap:round;stroke-linejoin:round;stroke-miterlimit:4;stroke-dasharray:none;stroke-dashoffset:0;stroke-opacity:1;-inkscape-stroke:none;paint-order:fill markers stroke;stop-color:#000000;stop-opacity:1"
           d="m 60.82747,448.00001 9.3217,1.43745"
           id="path228" /><path
           style="font-variation-settings:normal;vector-effect:none;fill:#000000;fill-opacity:1;stroke-width:0.364909;stroke-linecap:round;stroke-linejoin:round;stroke-miterlimit:4;stroke-dasharray:none;stroke-dashoffset:0;stroke-opacity:1;-inkscape-stroke:none;paint-order:fill markers stroke;stop-color:#000000;stop-opacity:1"
           d="m 60.980469,447.01172 a 1,1 0 0 0 -1.140625,0.83594 1,1 0 0 0 0.835937,1.14062 l 9.320313,1.4375 a 1,1 0 0 0 1.140625,-0.83594 1,1 0 0 0 -0.835938,-1.14062 z"
           id="path229" /></g><g
         id="g231"
         style="font-variation-settings:normal;display:inline;vector-effect:none;fill:#000000;fill-opacity:1;stroke-width:0.364909;stroke-linecap:round;stroke-linejoin:round;stroke-miterlimit:4;stroke-dasharray:none;stroke-dashoffset:0;stroke-opacity:1;-inkscape-stroke:none;paint-order:fill markers stroke;stop-color:#000000"
         transform="matrix(2.7404056,0,0,2.7404056,492.99606,-655.15031)"><path
           style="font-variation-settings:normal;vector-effect:none;fill:#000000;fill-opacity:1;stroke-width:0.364909;stroke-linecap:round;stroke-linejoin:round;stroke-miterlimit:4;stroke-dasharray:none;stroke-dashoffset:0;stroke-opacity:1;-inkscape-stroke:none;paint-order:fill markers stroke;stop-color:#000000;stop-opacity:1"
           d="m 60.6657,448.02247 -5.54452,-7.55825"
           id="path230" /><path
           style="font-variation-settings:normal;vector-effect:none;fill:#000000;fill-opacity:1;stroke-width:0.364909;stroke-linecap:round;stroke-linejoin:round;stroke-miterlimit:4;stroke-dasharray:none;stroke-dashoffset:0;stroke-opacity:1;-inkscape-stroke:none;paint-order:fill markers stroke;stop-color:#000000;stop-opacity:1"
           d="m 55.273437,439.47656 a 1,1 0 0 0 -0.74414,0.18164 1,1 0 0 0 -0.214844,1.39844 l 5.544922,7.55664 a 1,1 0 0 0 1.398437,0.21484 1,1 0 0 0 0.214844,-1.39648 l -5.544922,-7.55859 a 1,1 0 0 0 -0.654297,-0.39649 z"
           id="path231" /></g><path
         style="display:inline;fill:#f9f9f9;stroke-width:0.999999;stroke-linecap:round;stroke-linejoin:round;paint-order:fill markers stroke"
         d="m 660.1578,602.46202 a 8.6939932,8.6939932 0 0 1 -8.69399,8.69399 8.6939932,8.6939932 0 0 1 -8.69399,-8.69399 8.6939932,8.6939932 0 0 1 8.69399,-8.69399 8.6939932,8.6939932 0 0 1 8.69399,8.69399 z"
         id="path238" /><path
         style="font-variation-settings:normal;display:inline;vector-effect:none;fill:#000000;fill-opacity:1;stroke-width:0.999999;stroke-linecap:round;stroke-linejoin:round;stroke-miterlimit:4;stroke-dasharray:none;stroke-dashoffset:0;stroke-opacity:1;-inkscape-stroke:none;paint-order:fill markers stroke;stop-color:#000000"
         d="m 650.3148,590.92441 c -6.28259,0 -11.43263,5.15005 -11.43263,11.43262 0,6.2826 5.15004,11.43799 11.43263,11.43799 6.28258,0 11.43263,-5.15539 11.43263,-11.43799 0,-6.28257 -5.15005,-11.43262 -11.43263,-11.43262 z m 0,5.48082 c 3.32053,0 5.95181,2.63128 5.95181,5.9518 0,3.32055 -2.63128,5.95718 -5.95181,5.95718 -3.32054,0 -5.95182,-2.63663 -5.95182,-5.95718 0,-3.32052 2.63128,-5.9518 5.95182,-5.9518 z"
         id="path239" /><g
         id="g259"
         transform="translate(1.481292,-23.349347)"
         style="display:inline"><path
           style="fill:#f9f9f9;stroke-width:0.999999;stroke-linecap:round;stroke-linejoin:round;paint-order:fill markers stroke"
           d="m 697.64119,600.10499 a 8.6939932,8.6939932 0 0 1 -8.69399,8.69399 8.6939932,8.6939932 0 0 1 -8.69399,-8.69399 8.6939932,8.6939932 0 0 1 8.69399,-8.69399 8.6939932,8.6939932 0 0 1 8.69399,8.69399 z"
           id="path258" /><path
           style="font-variation-settings:normal;opacity:1;vector-effect:none;fill:#000000;fill-opacity:1;stroke-width:0.999999;stroke-linecap:round;stroke-linejoin:round;stroke-miterlimit:4;stroke-dasharray:none;stroke-dashoffset:0;stroke-opacity:1;-inkscape-stroke:none;paint-order:fill markers stroke;stop-color:#000000;stop-opacity:1"
           d="m 687.79819,588.56738 c -6.28259,0 -11.43263,5.15005 -11.43263,11.43262 0,6.2826 5.15004,11.43799 11.43263,11.43799 6.28258,0 11.43263,-5.15539 11.43263,-11.43799 0,-6.28257 -5.15005,-11.43262 -11.43263,-11.43262 z m 0,5.48082 c 3.32053,0 5.95181,2.63128 5.95181,5.9518 0,3.32055 -2.63128,5.95718 -5.95181,5.95718 -3.32054,0 -5.95182,-2.63663 -5.95182,-5.95718 0,-3.32052 2.63128,-5.9518 5.95182,-5.9518 z"
           id="path259" /></g><g
         id="g261"
         transform="translate(-48.973922,-55.169278)"
         style="display:inline"><path
           style="fill:#f9f9f9;stroke-width:0.999999;stroke-linecap:round;stroke-linejoin:round;paint-order:fill markers stroke"
           d="m 697.64119,600.10499 a 8.6939932,8.6939932 0 0 1 -8.69399,8.69399 8.6939932,8.6939932 0 0 1 -8.69399,-8.69399 8.6939932,8.6939932 0 0 1 8.69399,-8.69399 8.6939932,8.6939932 0 0 1 8.69399,8.69399 z"
           id="path260" /><path
           style="font-variation-settings:normal;opacity:1;vector-effect:none;fill:#000000;fill-opacity:1;stroke-width:0.999999;stroke-linecap:round;stroke-linejoin:round;stroke-miterlimit:4;stroke-dasharray:none;stroke-dashoffset:0;stroke-opacity:1;-inkscape-stroke:none;paint-order:fill markers stroke;stop-color:#000000;stop-opacity:1"
           d="m 687.79819,588.56738 c -6.28259,0 -11.43263,5.15005 -11.43263,11.43262 0,6.2826 5.15004,11.43799 11.43263,11.43799 6.28258,0 11.43263,-5.15539 11.43263,-11.43799 0,-6.28257 -5.15005,-11.43262 -11.43263,-11.43262 z m 0,5.48082 c 3.32053,0 5.95181,2.63128 5.95181,5.9518 0,3.32055 -2.63128,5.95718 -5.95181,5.95718 -3.32054,0 -5.95182,-2.63663 -5.95182,-5.95718 0,-3.32052 2.63128,-5.9518 5.95182,-5.9518 z"
           id="path261" /></g><g
         id="g263"
         transform="translate(-28.497207,-28.947298)"
         style="display:inline"><path
           style="fill:#f9f9f9;stroke-width:0.999999;stroke-linecap:round;stroke-linejoin:round;paint-order:fill markers stroke"
           d="m 697.64119,600.10499 a 8.6939932,8.6939932 0 0 1 -8.69399,8.69399 8.6939932,8.6939932 0 0 1 -8.69399,-8.69399 8.6939932,8.6939932 0 0 1 8.69399,-8.69399 8.6939932,8.6939932 0 0 1 8.69399,8.69399 z"
           id="path262" /><path
           style="font-variation-settings:normal;opacity:1;vector-effect:none;fill:#000000;fill-opacity:1;stroke-width:0.999999;stroke-linecap:round;stroke-linejoin:round;stroke-miterlimit:4;stroke-dasharray:none;stroke-dashoffset:0;stroke-opacity:1;-inkscape-stroke:none;paint-order:fill markers stroke;stop-color:#000000;stop-opacity:1"
           d="m 687.79819,588.56738 c -6.28259,0 -11.43263,5.15005 -11.43263,11.43262 0,6.2826 5.15004,11.43799 11.43263,11.43799 6.28258,0 11.43263,-5.15539 11.43263,-11.43799 0,-6.28257 -5.15005,-11.43262 -11.43263,-11.43262 z m 0,5.48082 c 3.32053,0 5.95181,2.63128 5.95181,5.9518 0,3.32055 -2.63128,5.95718 -5.95181,5.95718 -3.32054,0 -5.95182,-2.63663 -5.95182,-5.95718 0,-3.32052 2.63128,-5.9518 5.95182,-5.9518 z"
           id="path263" /></g><path
         d="m 723.80932,511.85933 a 56.007369,119.6914 0 0 1 9.45925,66.51023 56.007369,119.6914 0 0 1 -9.59415,66.53079 56.007369,90.621831 0 0 0 18.1207,-66.53079 56.007369,90.621831 0 0 0 -17.9858,-66.51023 z"
         style="display:inline;vector-effect:none;fill:#000000;stroke:none;stroke-width:0.999996;stroke-linecap:round;stroke-linejoin:round;paint-order:fill markers stroke"
         id="path279" /><path
         d="m 713.56062,530.07714 a 39.265497,83.912927 0 0 1 6.63167,46.62882 39.265497,83.912927 0 0 1 -6.72624,46.64323 39.265497,63.532911 0 0 0 12.70401,-46.64323 39.265497,63.532911 0 0 0 -12.60944,-46.62882 z"
         style="display:inline;vector-effect:none;fill:#000000;stroke:none;stroke-width:0.999996;stroke-linecap:round;stroke-linejoin:round;paint-order:fill markers stroke"
         id="path280" /><path
         d="m 704.35359,549.96163 a 22.523622,48.134449 0 0 1 3.80408,26.7474 22.523622,48.134449 0 0 1 -3.85833,26.75567 22.523622,36.443987 0 0 0 7.28733,-26.75567 22.523622,36.443987 0 0 0 -7.23308,-26.7474 z"
         style="display:inline;vector-effect:none;fill:#000000;stroke:none;stroke-width:0.999998;stroke-linecap:round;stroke-linejoin:round;paint-order:fill markers stroke"
         id="path281" /><rect
         style="font-variation-settings:normal;display:inline;opacity:1;vector-effect:none;fill:#000000;fill-opacity:1;stroke:#000000;stroke-width:2.00001;stroke-linecap:round;stroke-linejoin:round;stroke-miterlimit:4;stroke-dasharray:none;stroke-dashoffset:0;stroke-opacity:1;-inkscape-stroke:none;paint-order:fill markers stroke;stop-color:#000000;stop-opacity:1"
         id="rect398"
         width="90.625"
         height="44"
         x="622.375"
         y="625.5"
         rx="7.7781749"
         ry="7.7781744" /><path
         d="m 690.22371,628.52083 c -0.25393,0 -0.38312,0.30324 -0.43802,0.45232 -0.0549,0.14908 -0.0749,0.25325 -0.0946,0.35467 -0.0394,0.20294 -0.0627,0.39571 -0.0876,0.6296 -0.0498,0.46781 -0.0956,1.07828 -0.14191,1.81836 -0.0924,1.48018 -0.18286,3.46122 -0.26353,5.55528 -0.16116,4.18814 -0.2818,8.77773 -0.2818,10.66421 0,1.71131 -0.11868,5.07199 -0.27743,7.94562 -0.008,0.14753 -0.0173,0.27316 -0.0257,0.41805 -0.007,-0.11136 -0.0135,-0.20649 -0.0199,-0.31963 -0.1588,-2.83913 -0.27737,-6.19383 -0.27737,-8.04404 v -0.41251 l -0.005,-0.0108 c -0.0135,-2.03711 -0.12586,-5.1171 -0.27826,-7.8399 -0.0811,-1.44986 -0.17196,-2.77808 -0.26674,-3.77783 -0.0474,-0.50011 -0.0939,-0.91261 -0.15069,-1.25854 -0.0285,-0.17298 -0.056,-0.32659 -0.11136,-0.51094 -0.0276,-0.092 -0.0612,-0.19598 -0.131,-0.31762 -0.0695,-0.12166 -0.19774,-0.27716 -0.36428,-0.27716 -0.17087,0 -0.30023,0.16257 -0.36929,0.28667 -0.0691,0.12382 -0.10187,0.22837 -0.12897,0.32093 -0.0543,0.18524 -0.0813,0.3403 -0.10932,0.51581 -0.0562,0.35112 -0.10256,0.77193 -0.14996,1.28176 -0.0946,1.01933 -0.18538,2.37188 -0.26634,3.83756 -0.16217,2.93181 -0.28352,6.27567 -0.28352,8.16193 0,1.71131 -0.11746,4.03774 -0.27362,5.88684 -0.009,0.11773 -0.021,0.21256 -0.0312,0.32625 -0.007,-0.0811 -0.0153,-0.1462 -0.0225,-0.22948 -0.15578,-1.8126 -0.27333,-4.13338 -0.27345,-5.98382 0,-2.01301 -0.12233,-4.39383 -0.28749,-6.31671 -0.0826,-0.96138 -0.1747,-1.80155 -0.27653,-2.45371 -0.0509,-0.32603 -0.10106,-0.60129 -0.1743,-0.8655 -0.0366,-0.13209 -0.0772,-0.26431 -0.15314,-0.41251 -0.0761,-0.14819 -0.21409,-0.3497 -0.41585,-0.3497 -0.21041,0 -0.34917,0.21633 -0.42375,0.36829 -0.0746,0.15195 -0.1138,0.28565 -0.14951,0.42024 -0.0717,0.26874 -0.12125,0.55097 -0.17178,0.88585 -0.10093,0.66975 -0.19266,1.53303 -0.27507,2.50957 -0.16497,1.95304 -0.28738,4.32824 -0.28738,6.21452 0,1.71129 -0.11664,3.37715 -0.26569,4.5637 -0.0164,0.13019 -0.0339,0.22925 -0.0509,0.34726 -0.0497,-0.31486 -0.0959,-0.66412 -0.1287,-1.08237 -0.0985,-1.25467 -0.12518,-2.84809 -0.15035,-4.42182 -0.0253,-1.57372 -0.0476,-3.12257 -0.16658,-4.40987 -0.0596,-0.64364 -0.13977,-1.22757 -0.29208,-1.75068 -0.15242,-0.52309 -0.42191,-1.01711 -0.76748,-1.13622 l -0.0429,-0.0148 h -0.0436 c -0.25757,0 -0.4096,0.27516 -0.50292,0.48153 -0.0933,0.20625 -0.15388,0.41616 -0.21179,0.65094 -0.11597,0.46947 -0.21152,1.04401 -0.29739,1.72857 -0.17191,1.36846 -0.29528,3.15697 -0.29528,5.04324 h 1.00718 c 0,-1.7112 0.11664,-3.37706 0.26568,-4.56372 0.035,-0.27757 0.0722,-0.52377 0.10851,-0.74097 0.0295,0.18636 0.058,0.40744 0.0814,0.66024 0.0962,1.03924 0.12532,2.54274 0.15051,4.1146 0.0253,1.57185 0.0484,3.21745 0.16172,4.66368 0.11339,1.44621 0.28447,2.78636 0.8467,3.58386 l 0.13154,0.1869 h 0.162 c 0.25755,0 0.40971,-0.27517 0.50303,-0.48153 0.0933,-0.20647 0.15387,-0.41637 0.21179,-0.65116 0.11597,-0.46947 0.21129,-1.044 0.29723,-1.72834 0.17194,-1.36858 0.29544,-3.15719 0.29544,-5.04345 0,-1.71143 0.11746,-4.03774 0.27351,-5.88684 0.009,-0.11773 0.021,-0.21234 0.0313,-0.32603 0.007,0.081 0.0152,0.14599 0.0225,0.22926 0.15566,1.81262 0.27328,4.1334 0.27328,5.98339 1.1e-4,2.01332 0.12247,4.39416 0.28778,6.31703 0.0825,0.9616 0.17446,1.80189 0.2763,2.45404 0.0509,0.32592 0.10106,0.60119 0.1744,0.86539 0.0367,0.13209 0.0772,0.26453 0.15332,0.41251 0.0759,0.14819 0.21397,0.3497 0.41574,0.3497 0.21056,0 0.34916,-0.21633 0.42386,-0.36828 0.0747,-0.15196 0.11353,-0.28566 0.1494,-0.42025 0.0715,-0.26874 0.12112,-0.55097 0.17166,-0.88585 0.10106,-0.66975 0.19282,-1.53303 0.2753,-2.50955 0.16484,-1.95308 0.28727,-4.32826 0.28727,-6.21452 0,-1.71131 0.11868,-5.07199 0.27753,-7.94563 0.008,-0.14742 0.0173,-0.27315 0.0256,-0.41804 0.007,0.11163 0.0137,0.20681 0.02,0.31984 0.1588,2.83912 0.27753,6.19383 0.27753,8.04383 v 0.4125 l 0.005,0.0108 c 0.0137,2.03734 0.12585,5.11734 0.27821,7.84022 0.0811,1.44987 0.17201,2.7781 0.26679,3.77785 0.0474,0.49987 0.0939,0.91217 0.15069,1.25821 0.0284,0.17298 0.0558,0.32658 0.11122,0.51094 0.0278,0.092 0.0614,0.19618 0.131,0.31784 0.0696,0.12165 0.19774,0.27692 0.36427,0.27692 0.17088,0 0.30019,-0.16257 0.3693,-0.28665 0.0691,-0.12382 0.10187,-0.22838 0.12897,-0.32094 0.0543,-0.18524 0.0813,-0.34029 0.10933,-0.51581 0.0562,-0.35113 0.10269,-0.77215 0.14995,-1.28175 0.0946,-1.01933 0.18544,-2.37188 0.26647,-3.83756 0.16204,-2.93181 0.28334,-6.27569 0.28334,-8.16195 0,-1.71142 0.11935,-6.36127 0.27911,-10.51325 0.007,-0.19241 0.0159,-0.3614 0.0233,-0.55153 0.007,0.1565 0.0135,0.29442 0.0194,0.45255 0.15986,4.11824 0.2791,8.76191 0.2791,10.61191 0,2.01332 0.12071,6.60899 0.28201,10.7644 0.0806,2.0777 0.17111,4.03396 0.26355,5.494 0.0461,0.72991 0.0918,1.33154 0.14196,1.79348 0.0251,0.2308 0.0485,0.42136 0.0883,0.62341 0.0199,0.10106 0.0405,0.20538 0.096,0.3539 0.0556,0.14841 0.18578,0.44491 0.4355,0.44491 0.25391,0 0.38301,-0.30325 0.43789,-0.45232 0.055,-0.14908 0.0749,-0.25326 0.0947,-0.35468 0.0393,-0.20294 0.0629,-0.39569 0.0878,-0.6296 0.0497,-0.4678 0.0955,-1.07826 0.14168,-1.81836 0.0924,-1.48017 0.18297,-3.4611 0.26355,-5.55506 0.16115,-4.18813 0.28179,-8.7775 0.28179,-10.66376 0,-1.71142 0.11935,-6.36127 0.2791,-10.51347 0.007,-0.19187 0.0157,-0.36052 0.0233,-0.54998 0.007,0.15594 0.0136,0.29352 0.0194,0.45122 0.15975,4.11824 0.27887,8.76225 0.27887,10.61212 v 0.99533 h 0.0176 c 0.0225,2.26295 0.12071,6.06489 0.26438,9.76863 0.0806,2.0777 0.17122,4.03397 0.26355,5.49402 0.0462,0.7299 0.0921,1.3313 0.14211,1.79325 0.0251,0.23092 0.0485,0.42158 0.0885,0.62374 0.0201,0.10106 0.0405,0.20538 0.096,0.35388 0.0557,0.14843 0.18594,0.44493 0.43549,0.44493 0.25403,0 0.38318,-0.30346 0.43813,-0.45255 0.0549,-0.14907 0.0749,-0.25324 0.0946,-0.35466 0.0393,-0.20283 0.0626,-0.39549 0.0876,-0.62928 0.0498,-0.4678 0.0956,-1.07826 0.14185,-1.81836 0.0923,-1.48017 0.18275,-3.4611 0.26338,-5.55506 0.16115,-4.18791 0.282,-8.77772 0.282,-10.66376 0,-1.71142 0.11854,-5.0722 0.27743,-7.94584 0.008,-0.14742 0.0173,-0.27315 0.0257,-0.41804 0.007,0.11163 0.0135,0.20681 0.0199,0.31984 0.15879,2.8389 0.27753,6.19361 0.27753,8.04382 0,2.01322 0.12139,5.36318 0.28352,8.26291 0.0811,1.44987 0.17201,2.77808 0.26679,3.77784 0.0476,0.49987 0.094,0.91239 0.15074,1.25822 0.0284,0.17296 0.0558,0.32657 0.11123,0.51094 0.0278,0.092 0.0614,0.19596 0.131,0.3176 0.0696,0.12166 0.19769,0.27715 0.36426,0.27715 0.17089,0 0.30026,-0.16256 0.36931,-0.28666 0.0691,-0.12382 0.10187,-0.22837 0.12897,-0.32092 0.0543,-0.18525 0.0813,-0.3403 0.10933,-0.51582 0.0562,-0.35114 0.10269,-0.77215 0.14997,-1.28176 0.0946,-1.01932 0.18547,-2.37187 0.2665,-3.83755 0.16209,-2.93181 0.28347,-6.27569 0.28347,-8.16195 0,-1.71143 0.11745,-4.03773 0.27361,-5.88683 0.009,-0.11719 0.0209,-0.21201 0.0312,-0.32537 0.007,0.0807 0.0153,0.14566 0.0224,0.22849 0.15572,1.81262 0.27333,4.1335 0.27333,5.98371 0,2.01334 0.1226,4.39417 0.28772,6.31704 0.0826,0.96161 0.17458,1.80189 0.27642,2.45404 0.0509,0.32581 0.10106,0.60097 0.17441,0.86517 0.0367,0.13209 0.0772,0.26431 0.15315,0.4125 0.076,0.14821 0.21413,0.3497 0.41596,0.3497 0.21061,0 0.34927,-0.21632 0.42386,-0.36827 0.0747,-0.15196 0.11353,-0.28566 0.14939,-0.42025 0.0717,-0.26874 0.12125,-0.55098 0.17179,-0.88584 0.10093,-0.66975 0.19265,-1.53304 0.27507,-2.50956 0.16495,-1.95308 0.28738,-4.32827 0.28738,-6.21453 0,-1.7113 0.11664,-3.37727 0.26568,-4.56393 0.0135,-0.10594 0.0276,-0.18469 0.0415,-0.28266 0.009,0.0677 0.0196,0.11718 0.0287,0.1891 0.14783,1.14573 0.26495,2.80728 0.26495,4.65749 0,2.01322 0.12287,3.80615 0.296,5.14918 0.0866,0.67131 0.18297,1.22625 0.30198,1.68079 0.0595,0.22726 0.12234,0.43165 0.21867,0.62982 0.0963,0.19818 0.25068,0.44435 0.49084,0.44435 0.25756,0 0.4097,-0.27514 0.50303,-0.48151 0.0933,-0.20648 0.15388,-0.41616 0.21178,-0.65094 0.11597,-0.46947 0.21134,-1.04433 0.2973,-1.72857 0.17189,-1.36857 0.29543,-3.15719 0.29543,-5.04344 h -1.00718 c 0,1.71129 -0.11665,3.37726 -0.26578,4.56392 -0.0135,0.10594 -0.0276,0.18424 -0.0414,0.28223 -0.009,-0.0675 -0.0194,-0.11718 -0.0285,-0.18878 -0.14783,-1.14573 -0.26495,-2.80684 -0.26495,-4.65705 0,-2.01322 -0.12287,-3.80659 -0.29617,-5.14941 -0.0866,-0.6713 -0.18296,-1.22646 -0.30197,-1.681 -0.0595,-0.22727 -0.12234,-0.43163 -0.21869,-0.62982 -0.0962,-0.19818 -0.25066,-0.44437 -0.49082,-0.44437 -0.25756,0 -0.4097,0.27516 -0.50303,0.48153 -0.0932,0.20648 -0.15388,0.41638 -0.21178,0.65117 -0.11597,0.46946 -0.2113,1.04399 -0.29725,1.72833 -0.17194,1.36858 -0.29544,3.15741 -0.29544,5.04368 0,1.71131 -0.11745,4.03773 -0.27351,5.88684 -0.009,0.11745 -0.0209,0.21211 -0.0312,0.32558 -0.007,-0.0807 -0.0152,-0.14566 -0.0223,-0.2286 -0.15571,-1.81283 -0.2734,-4.13372 -0.27351,-5.98414 0,-2.01312 -0.12233,-4.39385 -0.28761,-6.31671 -0.0825,-0.96149 -0.17457,-1.80177 -0.27641,-2.45383 -0.0509,-0.32603 -0.10093,-0.60129 -0.1743,-0.86549 -0.0367,-0.13222 -0.0772,-0.26465 -0.15331,-0.41252 -0.076,-0.14818 -0.21409,-0.34981 -0.41586,-0.34981 -0.2106,0 -0.34915,0.21644 -0.42385,0.36851 -0.0747,0.15184 -0.11353,0.28555 -0.1494,0.41991 -0.0715,0.26874 -0.12112,0.55098 -0.17156,0.88585 -0.10092,0.66975 -0.19276,1.53303 -0.27518,2.50955 -0.16485,1.95285 -0.28733,4.32805 -0.28733,6.21443 0,1.71129 -0.11854,5.07199 -0.27742,7.94561 -0.008,0.14775 -0.0173,0.27372 -0.0257,0.41882 -0.007,-0.11163 -0.0137,-0.20704 -0.0201,-0.32039 -0.15881,-2.83891 -0.27743,-6.19372 -0.27754,-8.04404 0,-2.01312 -0.12138,-5.36308 -0.28353,-8.2627 -0.0811,-1.44987 -0.17189,-2.77807 -0.26668,-3.77783 -0.0474,-0.49989 -0.0939,-0.91239 -0.15064,-1.25832 -0.0283,-0.17296 -0.0559,-0.32647 -0.11135,-0.51061 -0.0276,-0.0921 -0.0612,-0.1963 -0.13087,-0.31795 -0.0696,-0.12166 -0.19781,-0.27714 -0.36437,-0.27714 -0.17089,0 -0.30021,0.16257 -0.36932,0.28665 -0.0691,0.12382 -0.10188,0.22836 -0.12897,0.32093 -0.0543,0.18525 -0.0813,0.3403 -0.10933,0.51581 -0.0564,0.35112 -0.10269,0.77194 -0.14995,1.28177 -0.0946,1.01932 -0.18551,2.37165 -0.26652,3.83755 -0.16211,2.93147 -0.28347,6.27557 -0.28347,8.16195 0,1.71118 -0.11922,6.36083 -0.27899,10.51268 -0.007,0.19188 -0.0157,0.36053 -0.0233,0.5502 -0.007,-0.15595 -0.0135,-0.2934 -0.0194,-0.45099 -0.1598,-4.11813 -0.27905,-8.76179 -0.27905,-10.612 v -0.99534 h -0.0176 c -0.0226,-2.26272 -0.12071,-6.06511 -0.26439,-9.76885 -0.0806,-2.0777 -0.17123,-4.03408 -0.26355,-5.49423 -0.0462,-0.72991 -0.092,-1.33154 -0.14213,-1.79348 -0.0251,-0.23091 -0.0484,-0.42158 -0.0883,-0.62374 -0.02,-0.10107 -0.0406,-0.20537 -0.0962,-0.35389 -0.0555,-0.1482 -0.18578,-0.44459 -0.43516,-0.44491 h -5.6e-4 c -0.25381,0 -0.38305,0.30357 -0.43789,0.45254 -0.0549,0.14909 -0.0749,0.25325 -0.0946,0.35467 -0.0393,0.20305 -0.0629,0.39569 -0.0878,0.62949 -0.0497,0.46781 -0.0955,1.07828 -0.14168,1.81836 -0.0922,1.48016 -0.18297,3.46109 -0.26353,5.55505 -0.16116,4.18814 -0.28191,8.77795 -0.28191,10.66444 0,1.71129 -0.11922,6.36083 -0.279,10.51268 -0.007,0.19156 -0.0157,0.35987 -0.0233,0.54909 -0.007,-0.15572 -0.0136,-0.29284 -0.0192,-0.45012 -0.15973,-4.11812 -0.27898,-8.76178 -0.27898,-10.6121 0,-2.01301 -0.1207,-6.60868 -0.282,-10.76417 -0.0806,-2.0777 -0.17123,-4.0341 -0.26366,-5.49424 -0.0462,-0.72992 -0.092,-1.33153 -0.14196,-1.79348 -0.0252,-0.23081 -0.0485,-0.42136 -0.0885,-0.62341 -0.0199,-0.10107 -0.0405,-0.20537 -0.0962,-0.35389 -0.0557,-0.14843 -0.18578,-0.44491 -0.43544,-0.44491 z"
         fill="url(#lord-berandas-amplitude-gradient-1)"
         id="path6-4"
         style="fill:#f9f9f9;stroke-width:1" /></g></g><g
     inkscape:groupmode="layer"
     id="layer4"
     inkscape:label="Quick Action"
     style="display:none"><rect
       style="font-variation-settings:normal;vector-effect:none;fill:#000000;fill-opacity:1;stroke:none;stroke-width:2.00001;stroke-linecap:round;stroke-linejoin:round;stroke-miterlimit:4;stroke-dasharray:none;stroke-dashoffset:0;stroke-opacity:1;-inkscape-stroke:none;paint-order:fill markers stroke"
       id="rect304"
       width="21.088978"
       height="35.878471"
       x="710.72668"
       y="322.79126"
       rx="5.5428333"
       ry="5.5428333" /><path
       id="path304"
       style="display:inline;fill:#000000;stroke:none;stroke-width:2.00001;stroke-linecap:round;stroke-linejoin:round;stroke-dasharray:none;paint-order:fill markers stroke"
       d="m 88.033203,264.45898 c -5.193751,0 -9.375,4.18125 -9.375,9.375 V 414.125 c 0,5.19375 4.181249,9.375 9.375,9.375 h 162.099607 459.625 9.375 v -9.375 -140.29102 -9.375 h -9.375 -459.625 z" /><g
       id="g225"
       transform="translate(16.666732)"
       style="display:inline"><rect
         style="font-variation-settings:normal;opacity:1;vector-effect:none;fill:#000000;fill-opacity:1;stroke:none;stroke-width:2.00001;stroke-linecap:round;stroke-linejoin:round;stroke-miterlimit:4;stroke-dasharray:none;stroke-dashoffset:0;stroke-opacity:1;-inkscape-stroke:none;paint-order:fill markers stroke"
         id="rect222"
         width="21.088978"
         height="35.878471"
         x="692.05994"
         y="320.79126"
         rx="5.5428333"
         ry="5.5428333" /><rect
         style="font-variation-settings:normal;fill:#b3b3b3;fill-opacity:1;stroke:#000000;stroke-width:1;stroke-linecap:round;stroke-linejoin:round;stroke-miterlimit:4;stroke-dasharray:none;stroke-dashoffset:0;stroke-opacity:1;paint-order:fill markers stroke"
         id="rect223"
         width="26.615692"
         height="31.408369"
         x="706.53943"
         y="323.03741"
         rx="2.1354253"
         ry="2.1354251" /><rect
         style="font-variation-settings:normal;opacity:1;fill:#000000;fill-opacity:1;stroke:#b3b3b3;stroke-width:1;stroke-linecap:round;stroke-linejoin:round;stroke-miterlimit:4;stroke-dasharray:none;stroke-dashoffset:0;stroke-opacity:1;paint-order:fill markers stroke"
         id="rect221"
         width="3.4820771"
         height="31.194864"
         x="729.65247"
         y="323.09299"
         rx="1.7410386"
         ry="1.7410383" /></g><rect
       style="display:inline;fill:#e6e6e6;stroke:#000000;stroke-width:2.00001;stroke-linecap:round;stroke-linejoin:round;stroke-dasharray:none;paint-order:fill markers stroke"
       id="rect118"
       width="640.4743"
       height="159.04068"
       x="76.65834"
       y="262.45901"
       rx="9.3750019"
       ry="9.375" /><path
       style="fill:#000000;stroke:none;stroke-width:1px;stroke-linecap:butt;stroke-linejoin:miter;stroke-opacity:1"
       d="m 703.71134,270.82843 -11.45088,26.09293 9.34015,-2.04788 -5.72573,24.11685 11.24379,-28.33922 -8.66875,1.17671 z"
       id="path242"
       sodipodi:nodetypes="ccccccc" /><g
       id="g302"
       transform="translate(16.666732)"
       style="display:inline"><rect
         style="font-variation-settings:normal;fill:#b3b3b3;fill-opacity:1;stroke:#000000;stroke-width:1;stroke-linecap:round;stroke-linejoin:round;stroke-miterlimit:4;stroke-dasharray:none;stroke-dashoffset:0;stroke-opacity:1;paint-order:fill markers stroke"
         id="rect301"
         width="26.615692"
         height="31.408369"
         x="706.53943"
         y="323.03741"
         rx="2.1354253"
         ry="2.1354251" /><rect
         style="font-variation-settings:normal;opacity:1;fill:#000000;fill-opacity:1;stroke:#b3b3b3;stroke-width:1;stroke-linecap:round;stroke-linejoin:round;stroke-miterlimit:4;stroke-dasharray:none;stroke-dashoffset:0;stroke-opacity:1;paint-order:fill markers stroke"
         id="rect302"
         width="3.4820771"
         height="31.194864"
         x="729.65247"
         y="323.09299"
         rx="1.7410386"
         ry="1.7410383" /></g><path
       id="rect303"
       style="display:inline;fill:#e6e6e6;stroke:#000000;stroke-width:2.00001;stroke-linecap:round;stroke-linejoin:round;stroke-dasharray:none;paint-order:fill markers stroke"
       d="m 86.033203,262.45898 c -5.193751,0 -9.375,4.18125 -9.375,9.375 V 412.125 c 0,5.19375 4.181249,9.375 9.375,9.375 h 162.099607 459.625 9.375 v -9.375 -140.29102 -9.375 h -9.375 -459.625 z" /><path
       style="fill:#000000;stroke:none;stroke-width:1px;stroke-linecap:butt;stroke-linejoin:miter;stroke-opacity:1"
       d="m 703.71134,270.82843 -11.45088,26.09293 9.34015,-2.04788 -5.72573,24.11685 11.24379,-28.33922 -8.66875,1.17671 z"
       id="path303"
       sodipodi:nodetypes="ccccccc" /></g><g
     inkscape:groupmode="layer"
     id="layer6"
     inkscape:label="Quick Vuln"
     style="display:none"><path
       d="m 88.36109,264.72044 c -5.53558,0 -9.99202,4.18125 -9.99202,9.375 v 47.52149 h 19.24088 c 2.11814,0 3.82195,1.60054 3.82195,3.58789 v 28.54882 c 0,1.98734 -1.70381,3.58789 -3.82195,3.58789 H 78.36907 v 57.04492 c 0,5.19375 4.45644,9.375 9.99202,9.375 h 647.98873 c 5.5355,0 9.992,-4.18125 9.992,-9.375 V 274.09544 c 0,-5.19375 -4.4565,-9.375 -9.992,-9.375 z"
       style="display:inline;fill:#000000;stroke:#000000;stroke-width:1.99999;stroke-linecap:round;stroke-linejoin:round;paint-order:fill markers stroke"
       id="path306" /><g
       id="g244"
       transform="translate(-655.36228,-2)"
       style="display:inline"><path
         d="m 741.72337,264.72044 c -5.53558,0 -9.99202,4.18125 -9.99202,9.375 v 47.52149 h 19.24088 c 2.11814,0 3.82195,1.60054 3.82195,3.58789 v 28.54882 c 0,1.98734 -1.70381,3.58789 -3.82195,3.58789 h -19.24088 v 57.04492 c 0,5.19375 4.45644,9.375 9.99202,9.375 h 647.98873 c 5.5355,0 9.992,-4.18125 9.992,-9.375 V 274.09544 c 0,-5.19375 -4.4565,-9.375 -9.992,-9.375 z"
         style="display:inline;fill:#e6e6e6;stroke:#000000;stroke-width:1.99999;stroke-linecap:round;stroke-linejoin:round;paint-order:fill markers stroke"
         id="path225" /><path
         style="fill:#000000;stroke:none;stroke-width:1px;stroke-linecap:butt;stroke-linejoin:miter;stroke-opacity:1"
         d="m 749.37883,270.82843 -11.45088,26.09293 9.34015,-2.04788 -5.72573,24.11685 11.24379,-28.33922 -8.66875,1.17671 z"
         id="path243"
         sodipodi:nodetypes="ccccccc" /></g></g></svg>
