<?xml version="1.0" encoding="UTF-8" standalone="no"?>
<!-- Created with Inkscape (http://www.inkscape.org/) -->

<svg
   width="64"
   height="64"
   viewBox="0 0 64 64"
   version="1.1"
   id="svg1"
   inkscape:version="1.4 (86a8ad7, 2024-10-11)"
   sodipodi:docname="crack_embed.svg"
   xmlns:inkscape="http://www.inkscape.org/namespaces/inkscape"
   xmlns:sodipodi="http://sodipodi.sourceforge.net/DTD/sodipodi-0.dtd"
   xmlns="http://www.w3.org/2000/svg"
   xmlns:svg="http://www.w3.org/2000/svg">
  <sodipodi:namedview
     id="namedview1"
     pagecolor="#ffffff"
     bordercolor="#666666"
     borderopacity="1.0"
     inkscape:showpageshadow="2"
     inkscape:pageopacity="0.0"
     inkscape:pagecheckerboard="0"
     inkscape:deskcolor="#d1d1d1"
     inkscape:document-units="px"
     inkscape:current-layer="layer1" />
  <defs
     id="defs1" />
  <g
     inkscape:label="Layer 1"
     inkscape:groupmode="layer"
     id="layer1">
    <path
       inkscape:connector-curvature="0"
       style="font-style:normal;font-weight:normal;font-size:medium;line-height:125%;font-family:sans-serif;font-variation-settings:normal;letter-spacing:0px;word-spacing:0px;opacity:1;vector-effect:none;fill:#333333;fill-opacity:1;stroke:none;stroke-width:2.47999;stroke-linecap:round;stroke-linejoin:round;stroke-miterlimit:4;stroke-dasharray:none;stroke-dashoffset:0;stroke-opacity:1;-inkscape-stroke:none;paint-order:fill markers stroke;stop-color:#000000;stop-opacity:1"
       d="m 17.971991,4.9779978 c -2.070372,0 -3.859403,0.17077 -5.366941,0.51251 -1.507554,0.32155 -2.793996,0.79387 -3.859342,1.4171 -1.065332,0.6029 -1.929589,1.33651 -2.592922,2.20104 -0.663318,0.86419 -1.175984,1.8289902 -1.537804,2.8944302 -0.381901,1.06526 -0.633067,2.22105 -0.753664,3.46736 -0.140738,1.24615 -0.211153,2.55285 -0.211153,3.91965 v 2.08023 h 6.000144 v -2.08023 c 0,-1.52765 0.07029,-2.81417 0.211017,-3.85942 0.120612,-1.04523 0.452301,-1.88941 0.995023,-2.53266 0.542721,-0.6431 1.376863,-1.10548 2.5025,-1.38698 1.10554,-0.30152 2.643269,-0.45212 4.613142,-0.45212 1.94976,0 3.47729,0.1506 4.582815,0.45212 1.085429,0.2815 1.899549,0.74388 2.44227,1.38698 0.542722,0.64325 0.884504,1.48743 1.025198,2.53266 0.120611,1.04525 0.180842,2.33177 0.180842,3.85942 h -0.01202 v 8.14066 c -0.562819,0 -1.095522,0.12016 -1.598035,0.36176 -0.502512,0.22126 -0.954693,0.53272 -1.356691,0.93485 -0.381916,0.3818 -0.693569,0.83423 -0.934792,1.35686 -0.221096,0.50244 -0.331629,1.03514 -0.331629,1.59782 v 22.67355 c 0,0.58287 0.110548,1.13576 0.331629,1.65838 0.221111,0.50244 0.522685,0.94478 0.904601,1.32675 0.381917,0.40181 0.824124,0.71342 1.326637,0.93452 0.522624,0.22109 1.075364,0.33164 1.65828,0.33164 h 28.854427 c 0.562819,0 1.095522,-0.11055 1.598035,-0.33164 0.502513,-0.2211 0.944735,-0.53271 1.326636,-0.93452 0.381916,-0.38197 0.673412,-0.82431 0.874411,-1.32675 0.221111,-0.52262 0.331629,-1.07551 0.331629,-1.65838 v -22.67355 c 0,-0.56268 -0.110548,-1.09538 -0.331629,-1.59782 -0.200999,-0.52263 -0.492495,-0.97506 -0.874411,-1.35686 -0.381901,-0.40213 -0.824123,-0.71359 -1.326636,-0.93485 -0.502513,-0.24112 -1.035216,-0.36176 -1.598035,-0.36176 h -22.691 v -8.14066 c 0,-1.3668 -0.07029,-2.6735 -0.211018,-3.91965 -0.140738,-1.24631 -0.402088,-2.4021 -0.784004,-3.46736 -0.381902,-1.06544 -0.904511,-2.0302402 -1.567844,-2.8944302 -0.68343,-0.86453 -1.557766,-1.59814 -2.623097,-2.20104 -1.065332,-0.62323 -2.351789,-1.09555 -3.859343,-1.4171 -1.507553,-0.34174 -3.28637,-0.51251 -5.33663,-0.51251 z"
       id="path3353" />
  </g>
</svg>
