<?xml version="1.0" encoding="UTF-8" standalone="no"?>
<!-- Created with Inkscape (http://www.inkscape.org/) -->

<svg
   width="75"
   height="75"
   viewBox="0 0 75 75"
   version="1.1"
   id="svg1"
   xml:space="preserve"
   inkscape:version="1.4 (86a8ad7, 2024-10-11)"
   sodipodi:docname="defense.svg"
   xmlns:inkscape="http://www.inkscape.org/namespaces/inkscape"
   xmlns:sodipodi="http://sodipodi.sourceforge.net/DTD/sodipodi-0.dtd"
   xmlns="http://www.w3.org/2000/svg"
   xmlns:svg="http://www.w3.org/2000/svg"><sodipodi:namedview
     id="namedview1"
     pagecolor="#ffffff"
     bordercolor="#666666"
     borderopacity="1.0"
     inkscape:showpageshadow="2"
     inkscape:pageopacity="0.0"
     inkscape:pagecheckerboard="0"
     inkscape:deskcolor="#d1d1d1"
     inkscape:document-units="px"
     inkscape:current-layer="layer1" /><defs
     id="defs1" /><g
     inkscape:label="Layer 1"
     inkscape:groupmode="layer"
     id="layer1"><path
       id="path2"
       style="font-variation-settings:normal;display:inline;vector-effect:none;fill:#ffffff;fill-opacity:1;stroke:#000000;stroke-width:0.999997px;stroke-linecap:butt;stroke-linejoin:miter;stroke-miterlimit:4;stroke-dasharray:none;stroke-dashoffset:0;stroke-opacity:1;-inkscape-stroke:none;paint-order:fill markers stroke;stop-color:#000000"
       d="m 9.5353149,60.328061 h 7.9673901 v 5.401532 H 9.5353149 Z M 57.685171,54.926573 h 7.967389 v 5.401488 h -7.967389 z m -40.182466,5.401488 h 16.072968 v 5.401532 H 17.502705 Z m 16.072968,0 h 16.072968 v 5.401532 H 33.575673 Z m 16.073014,0 h 16.072969 v 5.401532 H 49.648687 Z m -8.036484,-5.401488 h 16.072968 v 5.401488 H 41.612203 Z m -32.1459371,0 H 25.539189 v 5.401488 H 9.4662659 Z m 16.0729231,0 h 16.073014 v 5.401488 H 25.539189 Z M 9.4662203,49.525042 H 17.43361 v 5.401531 H 9.4662203 Z M 57.616076,44.123554 h 7.96739 v 5.401488 h -7.96739 z m -40.182421,5.401488 h 16.072924 v 5.401531 H 17.433655 Z m 16.072924,0 h 16.073013 v 5.401531 H 33.506579 Z m 16.073013,0 H 65.65256 v 5.401531 H 49.579592 Z m -8.036484,-5.401488 h 16.072968 v 5.401488 H 41.543108 Z m -32.1459367,0 H 25.470139 v 5.401488 H 9.3971713 Z m 16.0729677,0 h 16.072969 v 5.401488 H 25.470139 Z M 9.4662659,17.115985 h 7.9673891 v 5.401533 H 9.4662659 Z M 57.616076,11.714453 h 7.96739 v 5.401532 h -7.96739 z m -48.2189047,0 H 25.470139 v 5.401532 H 9.3971713 Z M 49.579592,17.115985 H 65.65256 v 5.401533 H 49.579592 Z M 25.470139,11.714453 h 16.072969 v 5.401532 H 25.470139 Z m 16.072969,0 h 16.072968 v 5.401532 H 41.543108 Z m -24.109453,5.401532 h 16.072969 v 5.401533 H 17.433655 Z m 16.072969,0 h 16.072968 v 5.401533 H 33.506624 Z M 9.4662203,38.722023 H 17.43361 v 5.401531 H 9.4662203 Z m 4.56e-5,-10.803019 h 7.9673891 v 5.401533 H 9.4662659 Z m 48.1498101,5.401533 h 7.96739 v 5.401486 h -7.96739 z m 0,-10.803019 h 7.96739 v 5.401486 h -7.96739 z m -48.2189047,0 H 25.470139 v 5.401486 H 9.3971713 Z M 49.579592,27.919004 H 65.65256 v 5.401533 H 49.579592 Z M 25.470139,22.517518 h 16.072969 v 5.401486 H 25.470139 Z m -8.036484,16.204505 h 16.072924 v 5.401531 H 17.433655 Z m 16.072924,0 h 16.073013 v 5.401531 H 33.506579 Z m 16.073013,0 H 65.65256 v 5.401531 H 49.579592 Z m -8.036484,-5.401486 h 16.072968 v 5.401486 H 41.543108 Z m 0,-10.803019 h 16.072968 v 5.401486 H 41.543108 Z M 9.3971713,33.320537 H 25.470139 v 5.401486 H 9.3971713 Z m 16.0729677,0 h 16.072969 v 5.401486 H 25.470139 Z m -8.036484,-5.401533 h 16.072969 v 5.401533 H 17.433655 Z m 16.072969,0 h 16.072968 v 5.401533 H 33.506624 Z"
       clip-path="none" /></g></svg>
