<?xml version="1.0" encoding="UTF-8" standalone="no"?>
<!-- Created with Inkscape (http://www.inkscape.org/) -->

<svg
   width="256"
   height="640"
   viewBox="0 0 256 640"
   version="1.1"
   id="svg1"
   inkscape:version="1.4 (86a8ad7, 2024-10-11)"
   sodipodi:docname="icons.svg"
   xml:space="preserve"
   xmlns:inkscape="http://www.inkscape.org/namespaces/inkscape"
   xmlns:sodipodi="http://sodipodi.sourceforge.net/DTD/sodipodi-0.dtd"
   xmlns="http://www.w3.org/2000/svg"
   xmlns:svg="http://www.w3.org/2000/svg"><sodipodi:namedview
     id="namedview1"
     pagecolor="#ffffff"
     bordercolor="#000000"
     borderopacity="0.25"
     inkscape:showpageshadow="2"
     inkscape:pageopacity="0.0"
     inkscape:pagecheckerboard="0"
     inkscape:deskcolor="#d1d1d1"
     inkscape:document-units="mm"
     inkscape:zoom="1.2251091"
     inkscape:cx="168.55642"
     inkscape:cy="282.0157"
     inkscape:window-width="1800"
     inkscape:window-height="1022"
     inkscape:window-x="0"
     inkscape:window-y="44"
     inkscape:window-maximized="1"
     inkscape:current-layer="layer1"
     showgrid="true"><inkscape:grid
       id="grid1"
       units="px"
       originx="0"
       originy="0"
       spacingx="16"
       spacingy="16"
       empcolor="#0099e5"
       empopacity="0.30196078"
       color="#0099e5"
       opacity="0.14901961"
       empspacing="4"
       dotted="false"
       gridanglex="30"
       gridanglez="30"
       visible="true" /></sodipodi:namedview><defs
     id="defs1"><radialGradient
       id="lorc-metal-bar-gradient-1"
       gradientTransform="matrix(1.1843865,0,0,0.84431895,-129.688,74.317)"
       cx="215.29079"
       cy="299.64386"
       fx="215.29079"
       fy="299.64386"
       r="198.16208"
       gradientUnits="userSpaceOnUse"><stop
         offset="0%"
         stop-color="#d0021b"
         stop-opacity="1"
         id="stop1-4" /><stop
         offset="100%"
         stop-color="#d0021b"
         stop-opacity="1"
         id="stop2-9" /></radialGradient></defs><g
     inkscape:label="Layer 1"
     inkscape:groupmode="layer"
     id="layer1"><rect
       style="fill:#429195;stroke-width:2.47999;stroke-linecap:round;stroke-linejoin:round;-inkscape-stroke:none;paint-order:fill markers stroke"
       id="rect2"
       width="224"
       height="96"
       x="-288"
       y="-64"
       rx="9.5952625"
       ry="9.5952625" /><path
       id="path8"
       style="fill:#000000;stroke-width:0.99999867;stroke-linecap:round;stroke-linejoin:round;paint-order:fill markers stroke;font-variation-settings:normal;opacity:1;vector-effect:none;fill-opacity:1;stroke-miterlimit:4;stroke-dasharray:none;stroke-dashoffset:0;stroke-opacity:1;-inkscape-stroke:none;stop-color:#000000;stop-opacity:1"
       d="m 25.595703,16 c -0.66447,0 -1.313701,0.06596 -1.939453,0.193359 -0.625752,0.1274 -1.22837,0.316464 -1.802734,0.558594 -0.574366,0.24213 -1.12055,0.53862 -1.63086,0.882813 -0.510309,0.344191 -0.984383,0.736337 -1.417968,1.169922 -0.433585,0.433585 -0.825731,0.907659 -1.169922,1.417968 -0.344193,0.51031 -0.640683,1.056494 -0.882813,1.63086 -0.24213,0.574364 -0.431194,1.176982 -0.558594,1.802734 C 16.065961,24.282002 16,24.931233 16,25.595703 V 102.4043 c 0,0.66447 0.06596,1.3137 0.193359,1.93945 0.1274,0.62575 0.316464,1.22837 0.558594,1.80273 0.24213,0.57437 0.53862,1.12055 0.882813,1.63086 0.344191,0.51031 0.736337,0.98439 1.169922,1.41797 0.433585,0.43359 0.907659,0.82573 1.417968,1.16992 0.51031,0.3442 1.056494,0.64069 1.63086,0.88282 0.574364,0.24213 1.176982,0.43119 1.802734,0.55859 0.625752,0.1274 1.274983,0.19336 1.939453,0.19336 h 74.507817 c 1.05513,3e-4 2.10771,-0.30847 3.14257,-0.92188 1.03476,-0.6136 2.04679,-1.5288 3.02149,-2.73242 0.97422,-1.20333 1.90643,-2.68898 2.7832,-4.43554 0.87744,-1.7464 1.69517,-3.74559 2.44141,-5.968754 0.74561,-2.223237 1.41615,-4.659415 2.00195,-7.273437 0.58609,-2.614309 1.08458,-5.393938 1.48828,-8.298828 0.40353,-2.904647 0.71034,-5.920434 0.91602,-9.003907 0.20553,-3.084083 0.30889,-6.220898 0.30859,-9.365234 4.2e-4,-1.047023 -0.0106,-2.093807 -0.0332,-3.138672 -0.023,-1.045406 -0.0576,-2.088282 -0.10352,-3.126953 -0.0459,-1.038516 -0.10325,-2.072272 -0.17187,-3.099609 -0.0682,-1.027004 -0.14768,-2.047081 -0.23828,-3.058594 -0.0912,-1.011658 -0.19345,-2.014148 -0.30664,-3.00586 -0.11291,-0.991621 -0.23668,-1.971963 -0.3711,-2.939453 -0.13467,-0.967687 -0.27992,-1.921974 -0.43554,-2.861328 -0.15519,-0.939054 -0.32065,-1.862725 -0.4961,-2.769531 -0.17573,-0.907189 -0.36138,-1.796989 -0.55664,-2.667969 -0.19503,-0.870617 -0.39957,-1.721984 -0.61328,-2.552734 -0.21435,-0.830828 -0.43778,-1.640507 -0.66992,-2.427735 -0.23113,-0.787467 -0.47085,-1.552199 -0.71875,-2.292968 -0.24858,-0.740329 -0.50523,-1.456207 -0.76953,-2.146485 -0.26412,-0.690363 -0.53576,-1.35478 -0.81446,-1.992187 -0.27903,-0.637763 -0.56499,-1.248116 -0.85742,-1.830078 -0.29203,-0.581662 -0.59037,-1.134692 -0.89453,-1.658203 -0.30439,-0.524254 -0.61445,-1.01866 -0.92969,-1.482422 -0.31484,-0.462678 -0.63467,-0.894549 -0.95898,-1.294922 -0.32463,-0.401119 -0.65359,-0.770457 -0.98633,-1.107422 -0.33316,-0.33683 -0.66993,-0.641029 -1.00977,-0.912109 -0.3391,-0.27088 -0.68108,-0.508638 -1.02539,-0.712891 -0.34504,-0.204418 -0.69222,-0.375082 -1.04101,-0.511719 -0.34775,-0.136166 -0.69689,-0.238434 -1.04688,-0.30664 C 100.80711,16.034679 100.45536,16.000155 100.10352,16 Z"
       sodipodi:nodetypes="ssssssssssssssssssccccccccccsccccccccccccccccccccccs" /><path
       d="m 128.6235,16 c 0.35185,1.56e-4 0.70359,0.03468 1.05468,0.10352 0.34999,0.06821 0.69913,0.170474 1.04688,0.30664 0.34879,0.136634 0.69597,0.307295 1.04101,0.51171 0.34431,0.204256 0.68629,0.442017 1.02539,0.7129 0.33984,0.271079 0.67661,0.575277 1.00977,0.912105 0.33274,0.336965 0.6617,0.706303 0.98633,1.107422 0.32432,0.401016 0.64415,0.833538 0.95898,1.296875 0.31523,0.46312 0.6253,0.956874 0.92969,1.480469 0.30416,0.523511 0.6025,1.076541 0.89453,1.658203 0.29243,0.581962 0.57839,1.192315 0.85742,1.830078 0.2787,0.637407 0.55034,1.301824 0.81446,1.992187 0.2643,0.690278 0.52095,1.406156 0.76953,2.146485 0.2479,0.74077 0.48762,1.505501 0.71875,2.292969 0.23214,0.787228 0.45557,1.596906 0.66992,2.427734 0.21371,0.83075 0.41825,1.682117 0.61328,2.552734 0.19526,0.87098 0.38091,1.76078 0.55664,2.667969 0.17545,0.906806 0.34091,1.830477 0.4961,2.769531 0.15562,0.939354 0.30087,1.893641 0.43554,2.861328 0.13442,0.96749 0.25819,1.947833 0.3711,2.939454 0.11319,0.991711 0.21546,1.994201 0.30664,3.005859 0.0906,1.012159 0.17008,2.032888 0.23828,3.060547 0.0686,1.026689 0.12593,2.059794 0.17187,3.097656 0.046,1.038671 0.0805,2.081547 0.10352,3.126953 0.0225,1.044865 0.0336,2.091649 0.0332,3.138672 3e-4,3.144336 -0.10306,6.281151 -0.30859,9.365234 -0.20568,3.083473 -0.51249,6.09926 -0.91602,9.003907 -0.4037,2.90489 -0.90219,5.684519 -1.48828,8.298828 -0.5858,2.614021 -1.25634,5.050198 -2.00195,7.273434 -0.74624,2.223157 -1.56397,4.222347 -2.44141,5.968747 -0.87677,1.74657 -1.80898,3.23222 -2.7832,4.43556 -0.9747,1.20362 -1.98673,2.11882 -3.02149,2.73242 -1.03486,0.6134 -2.08744,0.92218 -3.14257,0.92187 h 102.30078 c 0.66447,0 1.3137,-0.066 1.93945,-0.19336 0.62575,-0.1274 1.22837,-0.31646 1.80273,-0.55859 0.57437,-0.24213 1.12055,-0.53862 1.63086,-0.88281 0.51031,-0.3442 0.98439,-0.73634 1.41797,-1.16992 0.43359,-0.43359 0.82573,-0.90766 1.16992,-1.41797 0.3442,-0.51031 0.64069,-1.05649 0.88282,-1.63086 0.24213,-0.57437 0.43119,-1.17699 0.55859,-1.80274 0.1274,-0.62576 0.19336,-1.27499 0.19336,-1.93946 V 25.595703 c 0,-0.664471 -0.066,-1.3137 -0.19336,-1.939453 -0.1274,-0.625753 -0.31646,-1.228369 -0.55859,-1.802734 -0.24213,-0.574366 -0.53862,-1.12055 -0.88282,-1.63086 -0.34419,-0.51031 -0.73633,-0.984383 -1.16992,-1.417968 -0.43358,-0.433586 -0.90766,-0.825728 -1.41797,-1.169918 -0.51031,-0.3442 -1.05649,-0.64069 -1.63086,-0.88282 -0.57436,-0.24213 -1.17698,-0.42924 -1.80273,-0.55664 C 232.23798,16.06791 231.58875,16 230.92428,16 Z"
       style="font-variation-settings:normal;opacity:1;vector-effect:none;fill:#000000;fill-opacity:1;stroke-width:0.999999;stroke-linecap:round;stroke-linejoin:round;stroke-miterlimit:4;stroke-dasharray:none;stroke-dashoffset:0;stroke-opacity:1;-inkscape-stroke:none;paint-order:fill markers stroke;stop-color:#000000;stop-opacity:1"
       id="path9"
       sodipodi:nodetypes="cccccccccccccccccccccccccccccccccssssssssssssssssssc" /><path
       d="m 175.05615,37.847474 c -1.23037,0 -2.60006,0.798577 -3.63713,2.87243 l -0.92605,1.852919 c 0.33739,-0.02762 0.67587,-0.04217 1.01421,-0.04217 2.45151,0 4.89826,0.729603 7.0566,2.173573 v -4.215187 c -1.02033,-1.893323 -2.32663,-2.6417 -3.50749,-2.6417 z m 18.92752,0 c -1.18086,0 -2.48688,0.748241 -3.50721,2.6417 v 4.216545 c 2.4575,-1.640689 5.29143,-2.350838 8.07353,-2.127455 l -0.92918,-1.85836 c -1.0372,-2.073988 -2.40689,-2.87243 -3.63727,-2.87243 z m -22.47663,7.064216 c -2.59163,0 -5.18055,1.046586 -7.311,3.129009 l -5.08532,8.899721 c 1.97155,-0.917344 4.16743,-1.43091 6.48114,-1.43091 5.43631,0 10.22505,2.828625 12.97178,7.091152 v -14.80729 c -2.08052,-1.92026 -4.56836,-2.881682 -7.0566,-2.881682 z m 26.17934,0.0045 c -2.53885,-0.04163 -5.08668,0.916936 -7.20992,2.876648 v 14.8077 c 2.74672,-4.262256 7.53548,-7.091017 12.97152,-7.091017 2.3141,0 4.50985,0.513565 6.48153,1.43091 l -5.08532,-8.899698 c -2.08827,-2.041066 -4.61868,-3.082755 -7.15754,-3.12452 z m -13.16646,1.803942 c -0.6956,0 -1.61648,0.377522 -3.50762,1.309695 v 18.095744 c 0.98577,-0.722937 2.19901,-1.151883 3.50762,-1.151883 1.30874,0 2.52184,0.429082 3.50762,1.152019 V 48.029816 c -1.89101,-0.932173 -2.81204,-1.309695 -3.50762,-1.309695 z M 165.59213,57.9583 c -7.17863,0 -12.97179,5.793022 -12.97179,12.971515 0,7.178493 5.79316,12.971786 12.97179,12.971786 7.17835,0 12.97137,-5.793293 12.97137,-12.971786 0,-7.178493 -5.79302,-12.971515 -12.97151,-12.971515 z m 37.85558,0 c -7.17836,0 -12.97139,5.793022 -12.97139,12.971515 0,7.178493 5.79303,12.971786 12.97152,12.971786 7.17863,0 12.97178,-5.793293 12.97178,-12.971786 0,-7.178493 -5.79315,-12.971515 -12.97178,-12.971515 z m -38.06877,2.585378 c 0.16638,-0.0025 0.33304,-0.0011 0.49983,0.0041 0.99911,0.03061 1.99903,0.198896 2.96168,0.519143 5.01212,1.543146 8.12794,7.028573 6.88681,12.122873 -1.04101,5.134719 -6.18387,8.776206 -11.37259,8.049733 -5.27142,-0.52581 -9.43818,-5.384347 -9.1367,-10.677135 0.0227,-1.552261 0.42621,-3.038677 1.11555,-4.370274 a 3.5489774,3.5489774 0 0 0 3.34342,2.371653 3.5489774,3.5489774 0 0 0 3.54938,-3.548569 3.5489774,3.5489774 0 0 0 -2.37355,-3.344503 c 1.23228,-0.638591 2.59802,-1.033118 4.02771,-1.10835 0.1657,-0.0098 0.33195,-0.01605 0.49833,-0.01864 z m 37.85558,0 c 0.16638,-0.0025 0.33304,-0.0011 0.49969,0.0041 0.99911,0.03061 1.9993,0.198896 2.96222,0.519143 5.01186,1.543146 8.12753,7.028573 6.88654,12.122873 -1.041,5.134569 -6.1836,8.776192 -11.3719,8.050126 -5.2717,-0.52581 -9.43873,-5.38489 -9.13712,-10.677814 0.0227,-1.552261 0.42623,-3.038405 1.11555,-4.370002 a 3.5489774,3.5489774 0 0 0 3.34329,2.371653 3.5489774,3.5489774 0 0 0 3.54884,-3.548569 3.5489774,3.5489774 0 0 0 -2.37301,-3.344504 c 1.23214,-0.63859 2.59775,-1.033118 4.0273,-1.10835 0.16598,-0.0098 0.33195,-0.01605 0.49847,-0.01864 z m -18.7146,6.878653 c -1.95169,0 -3.50762,1.555798 -3.50762,3.507484 0,1.951686 1.55593,3.50762 3.50762,3.50762 1.95168,0 3.50762,-1.555934 3.50762,-3.50762 0,-1.951686 -1.55594,-3.507212 -3.50762,-3.507212 z"
       fill="#ffffff"
       fill-opacity="1"
       id="path10"
       style="font-variation-settings:normal;opacity:1;vector-effect:none;fill:#ececec;fill-opacity:1;stroke-width:2.47999;stroke-linecap:round;stroke-linejoin:round;stroke-miterlimit:4;stroke-dasharray:none;stroke-dashoffset:0;stroke-opacity:1;-inkscape-stroke:none;paint-order:fill markers stroke;stop-color:#000000;stop-opacity:1" /><path
       d="m 56.047401,37.847474 c -1.23037,0 -2.60006,0.798577 -3.63713,2.87243 l -0.92605,1.852919 c 0.33739,-0.02762 0.67587,-0.04217 1.01421,-0.04217 2.45151,0 4.89826,0.729603 7.0566,2.173573 v -4.215187 c -1.02033,-1.893323 -2.32663,-2.6417 -3.50749,-2.6417 z m 18.92752,0 c -1.18086,0 -2.48688,0.748241 -3.50721,2.6417 v 4.216545 c 2.4575,-1.640689 5.29143,-2.350838 8.07353,-2.127455 l -0.92918,-1.85836 c -1.0372,-2.073988 -2.40689,-2.87243 -3.63727,-2.87243 z m -22.47663,7.064216 c -2.59163,0 -5.18055,1.046586 -7.311,3.129009 l -5.08532,8.899721 c 1.97155,-0.917344 4.16743,-1.43091 6.48114,-1.43091 5.43631,0 10.22505,2.828625 12.97178,7.091152 v -14.80729 c -2.08052,-1.92026 -4.56836,-2.881682 -7.0566,-2.881682 z m 26.17934,0.0045 c -2.53885,-0.04163 -5.08668,0.916936 -7.20992,2.876648 v 14.8077 c 2.74672,-4.262256 7.53548,-7.091017 12.97152,-7.091017 2.3141,0 4.50985,0.513565 6.48153,1.43091 l -5.08532,-8.899698 c -2.08827,-2.041066 -4.61868,-3.082755 -7.15754,-3.12452 z m -13.16646,1.803942 c -0.6956,0 -1.61648,0.377522 -3.50762,1.309695 v 18.095744 c 0.98577,-0.722937 2.19901,-1.151883 3.50762,-1.151883 1.30874,0 2.52184,0.429082 3.50762,1.152019 V 48.029816 c -1.89101,-0.932173 -2.81204,-1.309695 -3.50762,-1.309695 z M 46.583381,57.9583 c -7.17863,0 -12.97179,5.793022 -12.97179,12.971515 0,7.178493 5.79316,12.971786 12.97179,12.971786 7.17835,0 12.97137,-5.793293 12.97137,-12.971786 0,-7.178493 -5.79302,-12.971515 -12.97151,-12.971515 z m 37.85558,0 c -7.17836,0 -12.97139,5.793022 -12.97139,12.971515 0,7.178493 5.79303,12.971786 12.97152,12.971786 7.17863,0 12.97178,-5.793293 12.97178,-12.971786 0,-7.178493 -5.79315,-12.971515 -12.97178,-12.971515 z m -38.06877,2.585378 c 0.16638,-0.0025 0.33304,-0.0011 0.49983,0.0041 0.99911,0.03061 1.99903,0.198896 2.96168,0.519143 5.01212,1.543146 8.12794,7.028573 6.88681,12.122873 -1.04101,5.134719 -6.18387,8.776206 -11.37259,8.049733 -5.27142,-0.52581 -9.43818,-5.384347 -9.1367,-10.677135 0.0227,-1.552261 0.42621,-3.038677 1.11555,-4.370274 a 3.5489774,3.5489774 0 0 0 3.34342,2.371653 3.5489774,3.5489774 0 0 0 3.54938,-3.548569 3.5489774,3.5489774 0 0 0 -2.37355,-3.344503 c 1.23228,-0.638591 2.59802,-1.033118 4.02771,-1.10835 0.1657,-0.0098 0.33195,-0.01605 0.49833,-0.01864 z m 37.85558,0 c 0.16638,-0.0025 0.33304,-0.0011 0.49969,0.0041 0.99911,0.03061 1.9993,0.198896 2.96222,0.519143 5.01186,1.543146 8.12753,7.028573 6.88654,12.122873 -1.041,5.134569 -6.1836,8.776192 -11.3719,8.050126 -5.2717,-0.52581 -9.43873,-5.38489 -9.13712,-10.677814 0.0227,-1.552261 0.42623,-3.038405 1.11555,-4.370002 a 3.5489774,3.5489774 0 0 0 3.34329,2.371653 3.5489774,3.5489774 0 0 0 3.54884,-3.548569 3.5489774,3.5489774 0 0 0 -2.37301,-3.344504 c 1.23214,-0.63859 2.59775,-1.033118 4.0273,-1.10835 0.16598,-0.0098 0.33195,-0.01605 0.49847,-0.01864 z m -18.7146,6.878653 c -1.95169,0 -3.50762,1.555798 -3.50762,3.507484 0,1.951686 1.55593,3.50762 3.50762,3.50762 1.95168,0 3.50762,-1.555934 3.50762,-3.50762 0,-1.951686 -1.55594,-3.507212 -3.50762,-3.507212 z"
       fill="#ffffff"
       fill-opacity="1"
       id="path11"
       style="stroke-width:2.47999;font-variation-settings:normal;opacity:1;vector-effect:none;fill:#ececec;fill-opacity:1;stroke-linecap:round;stroke-linejoin:round;stroke-miterlimit:4;stroke-dasharray:none;stroke-dashoffset:0;stroke-opacity:1;-inkscape-stroke:none;paint-order:fill markers stroke;stop-color:#000000;stop-opacity:1" /><path
       id="path12"
       style="font-variation-settings:normal;opacity:1;vector-effect:none;fill:#000000;fill-opacity:1;stroke-width:0.999999;stroke-linecap:round;stroke-linejoin:round;stroke-miterlimit:4;stroke-dasharray:none;stroke-dashoffset:0;stroke-opacity:1;-inkscape-stroke:none;paint-order:fill markers stroke;stop-color:#000000;stop-opacity:1"
       d="m 579.1914,16 c -0.66447,0 -1.3137,0.066 -1.93945,0.19336 -0.62575,0.1274 -1.22837,0.31646 -1.80273,0.55859 -0.57437,0.24213 -1.12055,0.53862 -1.63086,0.88282 -0.51031,0.34419 -0.98439,0.73633 -1.41797,1.16992 -0.43359,0.43358 -0.82573,0.90766 -1.16992,1.41797 -0.3442,0.51031 -0.64069,1.05649 -0.88282,1.63086 -0.24213,0.57436 -0.43119,1.17698 -0.55859,1.80273 -0.1274,0.62575 -0.19336,1.27498 -0.19336,1.93945 v 76.8086 c 0,0.66447 0.066,1.3137 0.19336,1.93945 0.1274,0.62575 0.31646,1.22837 0.55859,1.80273 0.24213,0.57437 0.53862,1.12055 0.88282,1.63086 0.34419,0.51031 0.73633,0.98439 1.16992,1.41797 0.43358,0.43359 0.90766,0.82573 1.41797,1.16992 0.51031,0.3442 1.05649,0.64069 1.63086,0.88282 0.57436,0.24213 1.17698,0.43119 1.80273,0.55859 0.62575,0.1274 1.27498,0.19336 1.93945,0.19336 h 74.50782 c 1.05513,3e-4 2.10771,-0.30847 3.14257,-0.92188 1.03476,-0.6136 2.04679,-1.5288 3.02149,-2.73242 0.97422,-1.20333 1.90643,-2.68898 2.7832,-4.43554 0.87744,-1.7464 1.69517,-3.74559 2.44141,-5.96875 0.74561,-2.22324 1.41615,-4.65942 2.00195,-7.27344 0.58609,-2.61431 1.08458,-5.39394 1.48828,-8.29883 0.40353,-2.90465 0.71034,-5.92043 0.91602,-9.00391 0.20553,-3.08408 0.30889,-6.22089 0.30859,-9.36523 4.2e-4,-1.04702 -0.0106,-2.09381 -0.0332,-3.13867 -0.023,-1.04541 -0.0576,-2.08828 -0.10352,-3.12695 -0.0459,-1.03852 -0.10325,-2.07228 -0.17187,-3.09961 -0.0682,-1.02701 -0.14768,-2.04708 -0.23828,-3.0586 -0.0912,-1.01166 -0.19345,-2.01415 -0.30664,-3.00586 -0.11291,-0.99162 -0.23668,-1.97196 -0.3711,-2.93945 -0.13467,-0.96769 -0.27992,-1.92197 -0.43554,-2.86133 -0.15519,-0.93905 -0.32065,-1.86272 -0.4961,-2.76953 -0.17573,-0.90719 -0.36138,-1.79699 -0.55664,-2.66797 -0.19503,-0.87062 -0.39957,-1.72198 -0.61328,-2.55273 -0.21435,-0.83083 -0.43778,-1.64051 -0.66992,-2.42774 -0.23113,-0.78746 -0.47085,-1.5522 -0.71875,-2.29297 -0.24858,-0.74032 -0.50523,-1.4562 -0.76953,-2.14648 -0.26412,-0.69036 -0.53576,-1.35478 -0.81446,-1.99219 -0.27903,-0.63776 -0.56499,-1.24811 -0.85742,-1.83008 -0.29203,-0.58166 -0.59037,-1.13469 -0.89453,-1.6582 -0.30439,-0.52425 -0.61445,-1.01866 -0.92969,-1.48242 -0.31484,-0.46268 -0.63467,-0.89455 -0.95898,-1.29492 -0.32463,-0.40112 -0.65359,-0.77046 -0.98633,-1.10742 -0.33316,-0.33683 -0.66993,-0.64103 -1.00977,-0.91211 -0.3391,-0.27088 -0.68108,-0.50864 -1.02539,-0.71289 -0.34504,-0.20442 -0.69222,-0.37509 -1.04101,-0.51172 -0.34775,-0.13617 -0.69689,-0.23844 -1.04688,-0.30664 -0.35109,-0.0688 -0.70284,-0.10336 -1.05468,-0.10352 z"
       sodipodi:nodetypes="ssssssssssssssssssccccccccccsccccccccccccccccccccccs" /><path
       d="m 697.69922,16 c 0.35185,1.6e-4 0.70359,0.0347 1.05468,0.10352 0.34999,0.0682 0.69913,0.17047 1.04688,0.30664 0.34879,0.13663 0.69597,0.3073 1.04101,0.51171 0.34431,0.20426 0.68629,0.44202 1.02539,0.7129 0.33984,0.27108 0.67661,0.57528 1.00977,0.91211 0.33274,0.33696 0.6617,0.7063 0.98633,1.10742 0.32432,0.40101 0.64415,0.83354 0.95898,1.29687 0.31523,0.46312 0.6253,0.95688 0.92969,1.48047 0.30416,0.52351 0.6025,1.07654 0.89453,1.6582 0.29243,0.58197 0.57839,1.19232 0.85742,1.83008 0.2787,0.63741 0.55034,1.30183 0.81446,1.99219 0.2643,0.69028 0.52095,1.40616 0.76953,2.14648 0.2479,0.74077 0.48762,1.50551 0.71875,2.29297 0.23214,0.78723 0.45557,1.59691 0.66992,2.42774 0.21371,0.83075 0.41825,1.68212 0.61328,2.55273 0.19526,0.87098 0.38091,1.76078 0.55664,2.66797 0.17545,0.90681 0.34091,1.83048 0.4961,2.76953 0.15562,0.93936 0.30087,1.89364 0.43554,2.86133 0.13442,0.96749 0.25819,1.94783 0.3711,2.93945 0.11319,0.99171 0.21546,1.9942 0.30664,3.00586 0.0906,1.01216 0.17008,2.03289 0.23828,3.06055 0.0686,1.02669 0.12593,2.05979 0.17187,3.09766 0.046,1.03867 0.0805,2.08154 0.10352,3.12695 0.0225,1.04486 0.0336,2.09165 0.0332,3.13867 3e-4,3.14434 -0.10306,6.28115 -0.30859,9.36523 -0.20568,3.08348 -0.51249,6.09927 -0.91602,9.00391 -0.4037,2.90489 -0.90219,5.68452 -1.48828,8.29883 -0.5858,2.61402 -1.25634,5.0502 -2.00195,7.27343 -0.74624,2.22316 -1.56397,4.22235 -2.44141,5.96875 -0.87677,1.74657 -1.80898,3.23222 -2.7832,4.43556 -0.9747,1.20362 -1.98673,2.11882 -3.02149,2.73242 -1.03486,0.6134 -2.08744,0.92218 -3.14257,0.92187 H 784 c 0.66447,0 1.3137,-0.066 1.93945,-0.19336 0.62575,-0.1274 1.22837,-0.31646 1.80273,-0.55859 0.57437,-0.24213 1.12055,-0.53862 1.63086,-0.88281 0.51031,-0.3442 0.98439,-0.73634 1.41797,-1.16992 0.43359,-0.43359 0.82573,-0.90766 1.16992,-1.41797 0.3442,-0.51031 0.64069,-1.05649 0.88282,-1.63086 0.24213,-0.57437 0.43119,-1.17699 0.55859,-1.80274 0.1274,-0.62576 0.19336,-1.27499 0.19336,-1.93946 V 25.5957 c 0,-0.66447 -0.066,-1.3137 -0.19336,-1.93945 -0.1274,-0.62575 -0.31646,-1.22837 -0.55859,-1.80273 -0.24213,-0.57437 -0.53862,-1.12055 -0.88282,-1.63086 -0.34419,-0.51031 -0.73633,-0.98439 -1.16992,-1.41797 -0.43358,-0.43359 -0.90766,-0.82573 -1.41797,-1.16992 -0.51031,-0.3442 -1.05649,-0.64069 -1.63086,-0.88282 -0.57436,-0.24213 -1.17698,-0.42924 -1.80273,-0.55664 C 785.3137,16.06791 784.66447,16 784,16 Z"
       style="font-variation-settings:normal;opacity:1;vector-effect:none;fill:#000000;fill-opacity:1;stroke-width:0.999999;stroke-linecap:round;stroke-linejoin:round;stroke-miterlimit:4;stroke-dasharray:none;stroke-dashoffset:0;stroke-opacity:1;-inkscape-stroke:none;paint-order:fill markers stroke;stop-color:#000000;stop-opacity:1"
       id="path13"
       sodipodi:nodetypes="cccccccccccccccccccccccccccccccccssssssssssssssssssc" /><path
       id="path16"
       style="fill:#429195;stroke-width:2.47999;stroke-linecap:round;stroke-linejoin:round;paint-order:fill markers stroke"
       d="m -273.01222,253.23006 c -0.66447,0 -1.31371,0.066 -1.93946,0.19336 -0.62575,0.1274 -1.22837,0.31646 -1.80273,0.55859 -0.57437,0.24213 -1.12055,0.53862 -1.63086,0.88282 -0.51031,0.34419 -0.98439,0.73633 -1.41797,1.16992 -0.43358,0.43358 -0.82573,0.90766 -1.16992,1.41797 -0.3442,0.51031 -0.64069,1.05649 -0.88281,1.63086 -0.24214,0.57436 -0.4312,1.17698 -0.5586,1.80273 -0.1274,0.62575 -0.19336,1.27498 -0.19336,1.93945 v 76.8086 c 0,0.66447 0.066,1.3137 0.19336,1.93945 0.1274,0.62575 0.31646,1.22837 0.5586,1.80273 0.24212,0.57437 0.53861,1.12055 0.88281,1.63086 0.34419,0.51031 0.73634,0.98439 1.16992,1.41797 0.43358,0.43359 0.90766,0.82573 1.41797,1.16992 0.51031,0.3442 1.05649,0.64069 1.63086,0.88282 0.57436,0.24213 1.17698,0.43119 1.80273,0.55859 0.62575,0.1274 1.27499,0.19336 1.93946,0.19336 h 74.50781 c 1.05513,3e-4 2.10771,-0.30847 3.14257,-0.92188 1.03476,-0.6136 2.04679,-1.5288 3.02149,-2.73242 0.97422,-1.20333 1.90643,-2.68898 2.7832,-4.43554 0.87744,-1.7464 1.69517,-3.74559 2.44141,-5.96875 0.74561,-2.22324 1.41615,-4.65942 2.00195,-7.27344 0.58609,-2.61431 1.08458,-5.39394 1.48828,-8.29883 0.40353,-2.90465 0.71034,-5.92043 0.91602,-9.00391 0.20553,-3.08408 0.30889,-6.22089 0.30859,-9.36523 4.2e-4,-1.04702 -0.0106,-2.09381 -0.0332,-3.13867 -0.023,-1.04541 -0.0576,-2.08828 -0.10352,-3.12695 -0.0459,-1.03852 -0.10325,-2.07228 -0.17187,-3.09961 -0.0682,-1.02701 -0.14768,-2.04708 -0.23828,-3.0586 -0.0912,-1.01166 -0.19345,-2.01415 -0.30664,-3.00586 -0.11291,-0.99162 -0.23668,-1.97196 -0.3711,-2.93945 -0.13467,-0.96769 -0.27992,-1.92197 -0.43554,-2.86133 -0.15519,-0.93905 -0.32065,-1.86272 -0.4961,-2.76953 -0.17573,-0.90719 -0.36138,-1.79699 -0.55664,-2.66797 -0.19503,-0.87062 -0.39957,-1.72198 -0.61328,-2.55273 -0.21435,-0.83083 -0.43778,-1.64051 -0.66992,-2.42774 -0.23113,-0.78746 -0.47085,-1.5522 -0.71875,-2.29297 -0.24858,-0.74032 -0.50523,-1.4562 -0.76953,-2.14648 -0.26412,-0.69036 -0.53576,-1.35478 -0.81446,-1.99219 -0.27903,-0.63776 -0.56499,-1.24811 -0.85742,-1.83008 -0.29203,-0.58166 -0.59037,-1.13469 -0.89453,-1.6582 -0.30439,-0.52425 -0.61445,-1.01866 -0.92969,-1.48242 -0.31484,-0.46268 -0.63467,-0.89455 -0.95898,-1.29492 -0.32463,-0.40112 -0.65359,-0.77046 -0.98633,-1.10742 -0.33316,-0.33683 -0.66993,-0.64103 -1.00977,-0.91211 -0.3391,-0.27088 -0.68108,-0.50864 -1.02539,-0.71289 -0.34504,-0.20442 -0.69222,-0.37509 -1.04101,-0.51172 -0.34775,-0.13617 -0.69689,-0.23844 -1.04688,-0.30664 -0.35109,-0.0688 -0.70284,-0.10336 -1.05468,-0.10352 z"
       sodipodi:nodetypes="ssssssssssssssssssccccccccccsccccccccccccccccccccccs" /><path
       d="m 648.0767,39.34628 -18.4285,10.53057 1.46934,2.57144 18.4285,-10.53058 z m -24.1109,5.39922 v 33.89528 h 2.95728 V 44.7455 Z m -2.96172,1.54125 -33.89528,11.96289 v 6.887 l 33.89528,11.96289 z M 581.51443,59.0605 v 5.26528 h 2.96172 V 59.0605 Z m 48.86844,1.15178 V 63.174 h 21.06114 v -2.96172 z m -38.9414,8.86707 -2.43519,6.61698 15.87615,6.35043 2.65074,-6.6415 -2.75045,-1.09781 -1.55227,3.88891 -10.44995,-4.18015 1.44055,-3.91375 -2.77958,-1.02344 z m 39.67607,1.85865 -1.46934,2.57143 18.4285,10.53057 1.46934,-2.57143 z"
       fill="#ffffff"
       fill-opacity="1"
       id="path1"
       style="stroke-width:1" /><path
       inkscape:connector-curvature="0"
       style="font-style:normal;font-weight:normal;font-size:medium;line-height:125%;font-family:sans-serif;font-variation-settings:normal;letter-spacing:0px;word-spacing:0px;opacity:1;vector-effect:none;fill:#ececec;fill-opacity:1;stroke:none;stroke-width:2.47999;stroke-linecap:round;stroke-linejoin:round;stroke-miterlimit:4;stroke-dasharray:none;stroke-dashoffset:0;stroke-opacity:1;-inkscape-stroke:none;paint-order:fill markers stroke;stop-color:#000000;stop-opacity:1"
       d="m -249.20424,270.52241 c -2.07037,0 -3.85941,0.17077 -5.36694,0.51251 -1.50756,0.32155 -2.794,0.79387 -3.85935,1.4171 -1.06533,0.6029 -1.92958,1.33651 -2.59292,2.20104 -0.66332,0.86419 -1.17598,1.82899 -1.5378,2.89443 -0.3819,1.06526 -0.63307,2.22105 -0.75367,3.46736 -0.14073,1.24615 -0.21115,2.55285 -0.21115,3.91965 v 2.08023 h 6.00014 v -2.08023 c 0,-1.52765 0.0703,-2.81417 0.21102,-3.85942 0.12061,-1.04523 0.4523,-1.88941 0.99503,-2.53266 0.54272,-0.6431 1.37686,-1.10548 2.5025,-1.38698 1.10554,-0.30152 2.64326,-0.45212 4.61314,-0.45212 1.94976,0 3.47729,0.1506 4.58281,0.45212 1.08543,0.2815 1.89955,0.74388 2.44227,1.38698 0.54272,0.64325 0.88451,1.48743 1.0252,2.53266 0.12061,1.04525 0.18084,2.33177 0.18084,3.85942 h -0.012 v 8.14066 c -0.56282,0 -1.09552,0.12016 -1.59803,0.36176 -0.50251,0.22126 -0.9547,0.53272 -1.35669,0.93485 -0.38192,0.3818 -0.69357,0.83423 -0.9348,1.35686 -0.22109,0.50244 -0.33163,1.03514 -0.33163,1.59782 V 320 c 0,0.58287 0.11055,1.13576 0.33163,1.65838 0.22112,0.50244 0.52269,0.94478 0.9046,1.32675 0.38192,0.40181 0.82413,0.71342 1.32664,0.93452 0.52263,0.22109 1.07537,0.33164 1.65828,0.33164 h 28.85443 c 0.56282,0 1.09552,-0.11055 1.59803,-0.33164 0.50252,-0.2211 0.94474,-0.53271 1.32664,-0.93452 0.38192,-0.38197 0.67341,-0.82431 0.87441,-1.32675 C -208.11052,321.13576 -208,320.58287 -208,320 v -22.67355 c 0,-0.56268 -0.11055,-1.09538 -0.33163,-1.59782 -0.201,-0.52263 -0.49249,-0.97506 -0.87441,-1.35686 -0.3819,-0.40213 -0.82412,-0.71359 -1.32664,-0.93485 -0.50251,-0.24112 -1.03521,-0.36176 -1.59803,-0.36176 h -22.691 v -8.14066 c 0,-1.3668 -0.0703,-2.6735 -0.21102,-3.91965 -0.14074,-1.24631 -0.40209,-2.4021 -0.784,-3.46736 -0.38191,-1.06544 -0.90451,-2.03024 -1.56785,-2.89443 -0.68343,-0.86453 -1.55776,-1.59814 -2.62309,-2.20104 -1.06534,-0.62323 -2.35179,-1.09555 -3.85935,-1.4171 -1.50755,-0.34174 -3.28637,-0.51251 -5.33663,-0.51251 z"
       id="path3353" /><path
       d="m 783.57483,40.97879 -18.4285,10.53057 1.46935,2.57144 18.4285,-10.53058 z m -24.11089,5.39922 v 33.89528 h 2.95728 V 46.37801 Z m -2.96173,1.54125 -33.89528,11.96289 v 6.887 l 33.89528,11.96289 z m -39.48964,12.77375 v 5.26528 h 2.96172 v -5.26528 z m 48.86843,1.15178 v 2.96172 h 21.06115 v -2.96172 z m -38.94139,8.86707 -2.4352,6.61698 15.87616,6.35043 2.65074,-6.6415 -2.75046,-1.09781 -1.55227,3.88891 -10.44995,-4.18015 1.44055,-3.91375 -2.77957,-1.02344 z m 39.67607,1.85865 -1.46935,2.57143 18.4285,10.53057 1.46935,-2.57143 z"
       fill="#ffffff"
       fill-opacity="1"
       id="path24"
       style="stroke-width:1" /><path
       d="m 31.492489,266.19313 c -8.74299,0 -15.781556,7.03857 -15.781556,15.78156 V 352 c 0,8.74298 7.038566,15.78156 15.781556,15.78156 h 70.030651 c 8.74299,0 15.78156,-7.03858 15.78156,-15.78156 v -70.02531 c 0,-8.74299 -7.03857,-15.78156 -15.78156,-15.78156 z m -3.548707,18.78886 28.368203,23.68842 -28.368203,23.68304 -4.561854,-4.64225 23.00762,-18.95502 -23.00762,-19.08369 z m 34.152273,57.92646 H 109.6337 v 6.07889 H 62.096055 Z"
       style="vector-effect:none;stroke:none;stroke-width:2;stroke-linecap:round;stroke-linejoin:round;paint-order:fill markers stroke;stop-color:#000000"
       id="path34" /><rect
       style="fill:#8fc7ca;stroke-width:2.47999;stroke-linecap:round;stroke-linejoin:round;-inkscape-stroke:none;paint-order:fill markers stroke;fill-opacity:1"
       id="rect1"
       width="224"
       height="96"
       x="-364.72787"
       y="79.660675"
       rx="9.5952625"
       ry="9.5952625" /><g
       id="g114"
       transform="translate(-2.8e-6,-128)"><g
         id="rect7"
         style="stroke-width:0.364909"
         transform="matrix(2.7404056,0,0,2.7404056,-108.64555,-907.70171)"><path
           style="stroke-width:0.364909;stroke-linecap:round;stroke-linejoin:round;paint-order:fill markers stroke"
           d="m 49.877752,429.47076 h 25.514893 c 3.185503,0 5.750006,2.56451 5.750006,5.75001 v 25.51489 c 0,3.18551 -2.564503,5.75001 -5.750006,5.75001 H 49.877752 c -3.185503,0 -5.750005,-2.5645 -5.750005,-5.75001 v -25.51489 c 0,-3.1855 2.564502,-5.75001 5.750005,-5.75001 z"
           id="path32" /><path
           style="stroke-width:0.364909;stroke-linecap:round;stroke-linejoin:round;paint-order:fill markers stroke"
           d="m 49.876953,428.4707 c -3.722206,0 -6.75,3.0278 -6.75,6.75 v 25.51563 c 0,3.7222 3.027794,6.75 6.75,6.75 h 25.515625 c 3.722206,0 6.75,-3.0278 6.75,-6.75 V 435.2207 c 0,-3.7222 -3.027794,-6.75 -6.75,-6.75 z m 0,2 h 25.515625 c 2.6488,0 4.75,2.1012 4.75,4.75 v 25.51563 c 0,2.6488 -2.1012,4.75 -4.75,4.75 H 49.876953 c -2.6488,0 -4.75,-2.1012 -4.75,-4.75 V 435.2207 c 0,-2.6488 2.1012,-4.75 4.75,-4.75 z"
           id="path33" /></g><g
         id="path5"
         style="stroke-width:0.364909"
         transform="matrix(2.7404056,0,0,2.7404056,-108.64555,-907.70171)"><path
           style="stroke-width:0.364909;stroke-linecap:round;stroke-linejoin:round;paint-order:fill markers stroke"
           d="m 60.6657,448.02247 -1.88553,7.46976"
           id="path30" /><path
           style="fill:#ffffff;stroke-width:0.364909;stroke-linecap:round;stroke-linejoin:round;paint-order:fill markers stroke"
           d="m 60.910156,447.05273 a 1,1 0 0 0 -1.214844,0.72461 l -1.884765,7.47071 a 1,1 0 0 0 0.724609,1.21289 1,1 0 0 0 1.214844,-0.72461 l 1.884766,-7.46875 a 1,1 0 0 0 -0.72461,-1.21485 z"
           id="path31" /></g><g
         id="path6"
         style="stroke-width:0.364909"
         transform="matrix(2.7404056,0,0,2.7404056,-108.64555,-907.70171)"><path
           style="stroke-width:0.364909;stroke-linecap:round;stroke-linejoin:round;paint-order:fill markers stroke"
           d="m 60.82747,448.00001 9.3217,1.43745"
           id="path28" /><path
           style="fill:#ffffff;stroke-width:0.364909;stroke-linecap:round;stroke-linejoin:round;paint-order:fill markers stroke"
           d="m 60.980469,447.01172 a 1,1 0 0 0 -1.140625,0.83594 1,1 0 0 0 0.835937,1.14062 l 9.320313,1.4375 a 1,1 0 0 0 1.140625,-0.83594 1,1 0 0 0 -0.835938,-1.14062 z"
           id="path29" /></g><g
         id="path7"
         style="stroke-width:0.364909"
         transform="matrix(2.7404056,0,0,2.7404056,-108.64555,-907.70171)"><path
           style="stroke-width:0.364909;stroke-linecap:round;stroke-linejoin:round;paint-order:fill markers stroke"
           d="m 60.6657,448.02247 -5.54452,-7.55825"
           id="path26" /><path
           style="fill:#ffffff;stroke-width:0.364909;stroke-linecap:round;stroke-linejoin:round;paint-order:fill markers stroke"
           d="m 55.273437,439.47656 a 1,1 0 0 0 -0.74414,0.18164 1,1 0 0 0 -0.214844,1.39844 l 5.544922,7.55664 a 1,1 0 0 0 1.398437,0.21484 1,1 0 0 0 0.214844,-1.39648 l -5.544922,-7.55859 a 1,1 0 0 0 -0.654297,-0.39649 z"
           id="path27" /></g><g
         id="path3"
         style="stroke-width:0.364909"
         transform="matrix(2.7404056,0,0,2.7404056,-108.64555,-907.70171)"><path
           style="stroke-width:0.364909;stroke-linecap:round;stroke-linejoin:round;paint-order:fill markers stroke"
           d="M 64.000005,448 A 3.1725206,3.1725206 0 0 1 60.827484,451.17252 3.1725206,3.1725206 0 0 1 57.654963,448 3.1725206,3.1725206 0 0 1 60.827484,444.82748 3.1725206,3.1725206 0 0 1 64.000005,448 Z"
           id="path22" /><path
           style="fill:#ffffff;stroke-width:0.364909;stroke-linecap:round;stroke-linejoin:round;paint-order:fill markers stroke"
           d="m 60.828125,443.82812 c -2.292575,0 -4.173828,1.87931 -4.173828,4.17188 0,2.29257 1.881253,4.17187 4.173828,4.17187 C 63.1207,452.17187 65,450.29257 65,448 c 0,-2.29257 -1.8793,-4.17187 -4.171875,-4.17188 z m 0,2 C 62.03982,445.82812 63,446.78831 63,448 c 0,1.21169 -0.96018,2.17188 -2.171875,2.17187 -1.211695,0 -2.173828,-0.96018 -2.173828,-2.17187 0,-1.21169 0.962133,-2.17188 2.173828,-2.17188 z"
           id="path23" /></g><g
         id="circle3"
         style="stroke-width:0.364909"
         transform="matrix(2.7404056,0,0,2.7404056,-108.64555,-907.70171)"><path
           style="stroke-width:0.364909;stroke-linecap:round;stroke-linejoin:round;paint-order:fill markers stroke"
           d="m 58.293706,440.46423 a 3.1725206,3.1725206 0 0 1 -3.172521,3.17252 3.1725206,3.1725206 0 0 1 -3.17252,-3.17252 3.1725206,3.1725206 0 0 1 3.17252,-3.17252 3.1725206,3.1725206 0 0 1 3.172521,3.17252 z"
           id="path20" /><path
           style="fill:#ffffff;stroke-width:0.364909;stroke-linecap:round;stroke-linejoin:round;paint-order:fill markers stroke"
           d="m 55.121094,436.29102 c -2.292575,0 -4.171875,1.88125 -4.171875,4.17382 0,2.29258 1.8793,4.17188 4.171875,4.17188 2.292575,0 4.171875,-1.8793 4.171875,-4.17188 0,-2.29257 -1.8793,-4.17382 -4.171875,-4.17382 z m 0,2 c 1.211694,0 2.171875,0.96213 2.171875,2.17382 0,1.2117 -0.960181,2.17188 -2.171875,2.17188 -1.211695,0 -2.171875,-0.96018 -2.171875,-2.17188 0,-1.21169 0.96018,-2.17382 2.171875,-2.17382 z"
           id="path21" /></g><g
         id="circle4"
         style="stroke-width:0.364909"
         transform="matrix(2.7404056,0,0,2.7404056,-108.64555,-907.70171)"><path
           style="stroke-width:0.364909;stroke-linecap:round;stroke-linejoin:round;paint-order:fill markers stroke"
           d="m 73.321721,449.43747 a 3.1725206,3.1725206 0 0 1 -3.172521,3.17252 3.1725206,3.1725206 0 0 1 -3.17252,-3.17252 3.1725206,3.1725206 0 0 1 3.17252,-3.17252 3.1725206,3.1725206 0 0 1 3.172521,3.17252 z"
           id="path18" /><path
           style="fill:#ffffff;stroke-width:0.364909;stroke-linecap:round;stroke-linejoin:round;paint-order:fill markers stroke"
           d="m 70.148437,445.26562 c -2.292574,0 -4.171875,1.87931 -4.171875,4.17188 0,2.29257 1.879301,4.17187 4.171875,4.17187 2.292575,0 4.173829,-1.8793 4.173829,-4.17187 0,-2.29257 -1.881254,-4.17188 -4.173829,-4.17188 z m 0,2 c 1.211695,0 2.173829,0.96019 2.173829,2.17188 0,1.21169 -0.962134,2.17187 -2.173829,2.17187 -1.211694,0 -2.171875,-0.96018 -2.171875,-2.17187 0,-1.21169 0.960181,-2.17187 2.171875,-2.17188 z"
           id="path19" /></g><g
         id="circle5"
         style="stroke-width:0.364909"
         transform="matrix(2.7404056,0,0,2.7404056,-108.64555,-907.70171)"><path
           style="stroke-width:0.364909;stroke-linecap:round;stroke-linejoin:round;paint-order:fill markers stroke"
           d="m 60.998906,458.91467 a 3.1725206,3.1725206 0 0 1 -3.172521,3.17252 3.1725206,3.1725206 0 0 1 -3.17252,-3.17252 3.1725206,3.1725206 0 0 1 3.17252,-3.17252 3.1725206,3.1725206 0 0 1 3.172521,3.17252 z"
           id="path14" /><path
           style="fill:#ffffff;stroke-width:0.364909;stroke-linecap:round;stroke-linejoin:round;paint-order:fill markers stroke"
           d="m 57.826172,454.74219 c -2.292575,0 -4.171875,1.8793 -4.171875,4.17187 0,2.29258 1.8793,4.17383 4.171875,4.17383 2.292575,0 4.171875,-1.88125 4.171875,-4.17383 0,-2.29257 -1.8793,-4.17187 -4.171875,-4.17187 z m 0,2 c 1.211695,0 2.171875,0.96018 2.171875,2.17187 0,1.2117 -0.96018,2.17383 -2.171875,2.17383 -1.211695,0 -2.171875,-0.96213 -2.171875,-2.17383 0,-1.21169 0.96018,-2.17187 2.171875,-2.17187 z"
           id="path15" /></g><g
         id="circle129"
         style="stroke-width:0.364909"
         transform="matrix(2.7404056,0,0,2.7404056,-108.64555,-907.70171)"><path
           style="stroke-width:0.364909;stroke-linecap:round;stroke-linejoin:round;paint-order:fill markers stroke"
           d="m 73.321721,449.43747 a 3.1725206,3.1725206 0 0 1 -3.172521,3.17252 3.1725206,3.1725206 0 0 1 -3.17252,-3.17252 3.1725206,3.1725206 0 0 1 3.17252,-3.17252 3.1725206,3.1725206 0 0 1 3.172521,3.17252 z"
           id="path2" /><path
           style="fill:#ffffff;stroke-width:0.364909;stroke-linecap:round;stroke-linejoin:round;paint-order:fill markers stroke"
           d="m 70.148437,445.26562 c -2.292574,0 -4.171875,1.87931 -4.171875,4.17188 0,2.29257 1.879301,4.17187 4.171875,4.17187 2.292575,0 4.173829,-1.8793 4.173829,-4.17187 0,-2.29257 -1.881254,-4.17188 -4.173829,-4.17188 z m 0,2 c 1.211695,0 2.173829,0.96019 2.173829,2.17188 0,1.21169 -0.962134,2.17187 -2.173829,2.17187 -1.211694,0 -2.171875,-0.96018 -2.171875,-2.17187 0,-1.21169 0.960181,-2.17187 2.171875,-2.17188 z"
           id="path4" /></g></g><g
       id="g115"
       transform="translate(0,-128)"><path
         id="path75"
         style="stroke-width:0;stroke-linecap:round;stroke-linejoin:round;paint-order:fill markers stroke"
         d="m 133.57812,266.54101 c -1.21391,0 -2.39764,0.12341 -3.54687,0.34766 2.19835,0.42874 4.24883,1.25815 6.0957,2.39258 1.26637,0.77785 2.44109,1.69038 3.48242,2.74023 3.31787,3.34502 5.37305,7.94471 5.37305,13.01758 v 69.92187 c 0,5.07288 -2.05518,9.67256 -5.37305,13.01759 -1.04133,1.04986 -2.21605,1.96042 -3.48242,2.73827 -1.84687,1.13443 -3.89736,1.96383 -6.0957,2.39258 1.14924,0.22425 2.33295,0.34961 3.54687,0.34961 h 87.92383 C 231.7023,373.45898 240,365.16127 240,354.96093 v -69.92187 c 0,-10.20034 -8.2977,-18.49804 -18.49805,-18.49804 z"
         sodipodi:nodetypes="scsssssscssssss" /><g
         id="g77"
         style="stroke-width:0.364909"
         transform="matrix(2.7404056,0,0,2.7404056,25.308061,-907.70171)"><path
           style="stroke-width:0.364909;stroke-linecap:round;stroke-linejoin:round;paint-order:fill markers stroke"
           d="m 60.6657,448.02247 -1.88553,7.46976"
           id="path76" /><path
           style="fill:#ffffff;stroke-width:0.364909;stroke-linecap:round;stroke-linejoin:round;paint-order:fill markers stroke"
           d="m 60.910156,447.05273 a 1,1 0 0 0 -1.214844,0.72461 l -1.884765,7.47071 a 1,1 0 0 0 0.724609,1.21289 1,1 0 0 0 1.214844,-0.72461 l 1.884766,-7.46875 a 1,1 0 0 0 -0.72461,-1.21485 z"
           id="path77" /></g><g
         id="g79"
         style="stroke-width:0.364909"
         transform="matrix(2.7404056,0,0,2.7404056,25.308061,-907.70171)"><path
           style="stroke-width:0.364909;stroke-linecap:round;stroke-linejoin:round;paint-order:fill markers stroke"
           d="m 60.82747,448.00001 9.3217,1.43745"
           id="path78" /><path
           style="fill:#ffffff;stroke-width:0.364909;stroke-linecap:round;stroke-linejoin:round;paint-order:fill markers stroke"
           d="m 60.980469,447.01172 a 1,1 0 0 0 -1.140625,0.83594 1,1 0 0 0 0.835937,1.14062 l 9.320313,1.4375 a 1,1 0 0 0 1.140625,-0.83594 1,1 0 0 0 -0.835938,-1.14062 z"
           id="path79" /></g><g
         id="g81"
         style="stroke-width:0.364909"
         transform="matrix(2.7404056,0,0,2.7404056,25.308061,-907.70171)"><path
           style="stroke-width:0.364909;stroke-linecap:round;stroke-linejoin:round;paint-order:fill markers stroke"
           d="m 60.6657,448.02247 -5.54452,-7.55825"
           id="path80" /><path
           style="fill:#ffffff;stroke-width:0.364909;stroke-linecap:round;stroke-linejoin:round;paint-order:fill markers stroke"
           d="m 55.273437,439.47656 a 1,1 0 0 0 -0.74414,0.18164 1,1 0 0 0 -0.214844,1.39844 l 5.544922,7.55664 a 1,1 0 0 0 1.398437,0.21484 1,1 0 0 0 0.214844,-1.39648 l -5.544922,-7.55859 a 1,1 0 0 0 -0.654297,-0.39649 z"
           id="path81" /></g><g
         id="g83"
         style="stroke-width:0.364909"
         transform="matrix(2.7404056,0,0,2.7404056,25.308061,-907.70171)"><path
           style="stroke-width:0.364909;stroke-linecap:round;stroke-linejoin:round;paint-order:fill markers stroke"
           d="M 64.000005,448 A 3.1725206,3.1725206 0 0 1 60.827484,451.17252 3.1725206,3.1725206 0 0 1 57.654963,448 3.1725206,3.1725206 0 0 1 60.827484,444.82748 3.1725206,3.1725206 0 0 1 64.000005,448 Z"
           id="path82" /><path
           style="fill:#ffffff;stroke-width:0.364909;stroke-linecap:round;stroke-linejoin:round;paint-order:fill markers stroke"
           d="m 60.828125,443.82812 c -2.292575,0 -4.173828,1.87931 -4.173828,4.17188 0,2.29257 1.881253,4.17187 4.173828,4.17187 C 63.1207,452.17187 65,450.29257 65,448 c 0,-2.29257 -1.8793,-4.17187 -4.171875,-4.17188 z m 0,2 C 62.03982,445.82812 63,446.78831 63,448 c 0,1.21169 -0.96018,2.17188 -2.171875,2.17187 -1.211695,0 -2.173828,-0.96018 -2.173828,-2.17187 0,-1.21169 0.962133,-2.17188 2.173828,-2.17188 z"
           id="path83" /></g><g
         id="g85"
         style="stroke-width:0.364909"
         transform="matrix(2.7404056,0,0,2.7404056,25.308061,-907.70171)"><path
           style="stroke-width:0.364909;stroke-linecap:round;stroke-linejoin:round;paint-order:fill markers stroke"
           d="m 58.293706,440.46423 a 3.1725206,3.1725206 0 0 1 -3.172521,3.17252 3.1725206,3.1725206 0 0 1 -3.17252,-3.17252 3.1725206,3.1725206 0 0 1 3.17252,-3.17252 3.1725206,3.1725206 0 0 1 3.172521,3.17252 z"
           id="path84" /><path
           style="fill:#ffffff;stroke-width:0.364909;stroke-linecap:round;stroke-linejoin:round;paint-order:fill markers stroke"
           d="m 55.121094,436.29102 c -2.292575,0 -4.171875,1.88125 -4.171875,4.17382 0,2.29258 1.8793,4.17188 4.171875,4.17188 2.292575,0 4.171875,-1.8793 4.171875,-4.17188 0,-2.29257 -1.8793,-4.17382 -4.171875,-4.17382 z m 0,2 c 1.211694,0 2.171875,0.96213 2.171875,2.17382 0,1.2117 -0.960181,2.17188 -2.171875,2.17188 -1.211695,0 -2.171875,-0.96018 -2.171875,-2.17188 0,-1.21169 0.96018,-2.17382 2.171875,-2.17382 z"
           id="path85" /></g><g
         id="g87"
         style="stroke-width:0.364909"
         transform="matrix(2.7404056,0,0,2.7404056,25.308061,-907.70171)"><path
           style="stroke-width:0.364909;stroke-linecap:round;stroke-linejoin:round;paint-order:fill markers stroke"
           d="m 73.321721,449.43747 a 3.1725206,3.1725206 0 0 1 -3.172521,3.17252 3.1725206,3.1725206 0 0 1 -3.17252,-3.17252 3.1725206,3.1725206 0 0 1 3.17252,-3.17252 3.1725206,3.1725206 0 0 1 3.172521,3.17252 z"
           id="path86" /><path
           style="fill:#ffffff;stroke-width:0.364909;stroke-linecap:round;stroke-linejoin:round;paint-order:fill markers stroke"
           d="m 70.148437,445.26562 c -2.292574,0 -4.171875,1.87931 -4.171875,4.17188 0,2.29257 1.879301,4.17187 4.171875,4.17187 2.292575,0 4.173829,-1.8793 4.173829,-4.17187 0,-2.29257 -1.881254,-4.17188 -4.173829,-4.17188 z m 0,2 c 1.211695,0 2.173829,0.96019 2.173829,2.17188 0,1.21169 -0.962134,2.17187 -2.173829,2.17187 -1.211694,0 -2.171875,-0.96018 -2.171875,-2.17187 0,-1.21169 0.960181,-2.17187 2.171875,-2.17188 z"
           id="path87" /></g><g
         id="g89"
         style="stroke-width:0.364909"
         transform="matrix(2.7404056,0,0,2.7404056,25.308061,-907.70171)"><path
           style="stroke-width:0.364909;stroke-linecap:round;stroke-linejoin:round;paint-order:fill markers stroke"
           d="m 60.998906,458.91467 a 3.1725206,3.1725206 0 0 1 -3.172521,3.17252 3.1725206,3.1725206 0 0 1 -3.17252,-3.17252 3.1725206,3.1725206 0 0 1 3.17252,-3.17252 3.1725206,3.1725206 0 0 1 3.172521,3.17252 z"
           id="path88" /><path
           style="fill:#ffffff;stroke-width:0.364909;stroke-linecap:round;stroke-linejoin:round;paint-order:fill markers stroke"
           d="m 57.826172,454.74219 c -2.292575,0 -4.171875,1.8793 -4.171875,4.17187 0,2.29258 1.8793,4.17383 4.171875,4.17383 2.292575,0 4.171875,-1.88125 4.171875,-4.17383 0,-2.29257 -1.8793,-4.17187 -4.171875,-4.17187 z m 0,2 c 1.211695,0 2.171875,0.96018 2.171875,2.17187 0,1.2117 -0.96018,2.17383 -2.171875,2.17383 -1.211695,0 -2.171875,-0.96213 -2.171875,-2.17383 0,-1.21169 0.96018,-2.17187 2.171875,-2.17187 z"
           id="path89" /></g><g
         id="g91"
         style="stroke-width:0.364909"
         transform="matrix(2.7404056,0,0,2.7404056,25.308061,-907.70171)"><path
           style="stroke-width:0.364909;stroke-linecap:round;stroke-linejoin:round;paint-order:fill markers stroke"
           d="m 73.321721,449.43747 a 3.1725206,3.1725206 0 0 1 -3.172521,3.17252 3.1725206,3.1725206 0 0 1 -3.17252,-3.17252 3.1725206,3.1725206 0 0 1 3.17252,-3.17252 3.1725206,3.1725206 0 0 1 3.172521,3.17252 z"
           id="path90" /><path
           style="fill:#ffffff;stroke-width:0.364909;stroke-linecap:round;stroke-linejoin:round;paint-order:fill markers stroke"
           d="m 70.148437,445.26562 c -2.292574,0 -4.171875,1.87931 -4.171875,4.17188 0,2.29257 1.879301,4.17187 4.171875,4.17187 2.292575,0 4.173829,-1.8793 4.173829,-4.17187 0,-2.29257 -1.881254,-4.17188 -4.173829,-4.17188 z m 0,2 c 1.211695,0 2.173829,0.96019 2.173829,2.17188 0,1.21169 -0.962134,2.17187 -2.173829,2.17187 -1.211694,0 -2.171875,-0.96018 -2.171875,-2.17187 0,-1.21169 0.960181,-2.17187 2.171875,-2.17188 z"
           id="path91" /></g></g><path
       id="path92"
       style="stroke:none;stroke-width:0.999999;stroke-linecap:round;stroke-linejoin:round;paint-order:fill markers stroke"
       d="m 401.08789,78.929684 c -8.72957,0 -15.75585,7.028251 -15.75585,15.757813 v 69.921873 c 0,8.72959 7.02628,15.75586 15.75585,15.75586 h 69.92188 c 8.72957,0 15.75781,-7.02627 15.75781,-15.75586 V 94.687497 c 0,-8.729562 -7.02824,-15.757813 -15.75781,-15.757813 z m 21.94532,19.050786 c 1.624,0 3.42098,1.02897 4.82422,3.63281 v 5.79687 c -2.96831,-1.98585 -6.33358,-2.99023 -9.70508,-2.99023 -0.46531,0 -0.93052,0.0206 -1.39453,0.0586 l 1.27343,-2.54883 c 1.42625,-2.85213 3.30986,-3.94921 5.00196,-3.94921 z m 26.02929,0 c 1.69211,0 3.57553,1.0969 5.00196,3.94921 l 1.27929,2.55665 c -3.82615,-0.30722 -7.72378,0.66939 -11.10351,2.92578 v -5.79883 c 1.40323,-2.60403 3.19825,-3.63281 4.82226,-3.63281 z m -30.91015,9.71484 c 3.42201,0 6.8438,1.32201 9.70508,3.96289 v 20.36328 c -3.7775,-5.86213 -10.36343,-9.75195 -17.83985,-9.75195 -3.18198,0 -6.20264,0.70715 -8.91406,1.96875 l 6.99414,-12.24024 c 2.92995,-2.8639 6.49049,-4.30273 10.05469,-4.30273 z m 36.0039,0.008 c 3.49163,0.0574 6.97181,1.48987 9.84375,4.29688 l 6.99415,12.23828 c -2.71161,-1.26159 -5.73155,-1.9668 -8.91407,-1.9668 -7.47605,0 -14.06235,3.89018 -17.83984,9.75195 V 111.6582 c 2.92003,-2.69514 6.4244,-4.01228 9.91601,-3.95508 z m -18.10742,2.48047 c 0.95661,0 2.22161,0.51879 4.82227,1.80078 v 24.88672 c -1.35572,-0.99425 -3.02239,-1.58398 -4.82227,-1.58398 -1.7997,0 -3.46851,0.58976 -4.82422,1.58398 v -24.88672 c 2.60084,-1.28199 3.86758,-1.80078 4.82422,-1.80078 z m -26.03125,15.45508 c 9.87239,0 17.83789,7.96744 17.83789,17.83984 0,9.87239 -7.9657,17.83985 -17.83789,17.83985 -9.87259,0 -17.83984,-7.96746 -17.83984,-17.83985 0,-9.8724 7.96725,-17.83984 17.83984,-17.83984 z m 52.06055,0 h 0.002 c 9.87258,0 17.83789,7.96744 17.83789,17.83984 0,9.87239 -7.96531,17.83985 -17.83789,17.83985 -9.87239,0 -17.83984,-7.96746 -17.83984,-17.83985 0,-9.8724 7.96568,-17.83984 17.83789,-17.83984 z m -52.35352,3.55469 c -0.22882,0.004 -0.45766,0.0116 -0.68554,0.0254 -1.96621,0.10346 -3.84435,0.64519 -5.53907,1.52343 a 4.880816,4.880816 0 0 1 3.26368,4.59961 4.880816,4.880816 0 0 1 -4.88086,4.88086 4.880816,4.880816 0 0 1 -4.59961,-3.26172 c -0.94803,1.83132 -1.50201,3.87499 -1.53321,6.00977 -0.41461,7.27904 5.31481,13.96242 12.56446,14.68555 7.13591,0.9991 14.20894,-4.01063 15.64062,-11.07227 1.70689,-7.00606 -2.57767,-14.54962 -9.4707,-16.67187 -1.32391,-0.44042 -2.69822,-0.67079 -4.07227,-0.71289 -0.22938,-0.006 -0.45868,-0.009 -0.6875,-0.006 z m 52.06055,0 c -0.22901,0.003 -0.45728,0.0116 -0.68555,0.0254 -1.96602,0.10346 -3.84453,0.64519 -5.53906,1.52343 a 4.880816,4.880816 0 0 1 3.26367,4.59961 4.880816,4.880816 0 0 1 -4.8789,4.88086 4.880816,4.880816 0 0 1 -4.59961,-3.26172 c -0.948,1.8313 -1.50201,3.87499 -1.53321,6.00977 -0.4148,7.27922 5.31638,13.96242 12.56641,14.68555 7.13533,0.99854 14.20701,-4.01085 15.63867,-11.07227 1.7067,-7.00606 -2.57802,-14.54962 -9.4707,-16.67187 -1.32428,-0.44042 -2.70017,-0.67079 -4.07422,-0.71289 -0.22919,-0.006 -0.45868,-0.009 -0.6875,-0.006 z m -25.73633,9.46093 c 2.6841,0 4.82227,2.13817 4.82227,4.82227 0,2.6841 -2.13817,4.82422 -4.82227,4.82422 -2.68411,0 -4.82422,-2.14012 -4.82422,-4.82422 0,-2.6841 2.14011,-4.82227 4.82422,-4.82227 z" /><path
       id="path94"
       style="stroke:none;stroke-width:0.999999;stroke-linecap:round;stroke-linejoin:round;paint-order:fill markers stroke"
       d="m 381.03906,186.56445 c -8.72957,0 -15.75585,7.02825 -15.75585,15.75782 v 69.92187 c 0,8.72959 7.02628,15.75586 15.75585,15.75586 h 69.92188 c 8.72957,0 15.75781,-7.02627 15.75781,-15.75586 v -69.92187 c 0,-8.72957 -7.02824,-15.75782 -15.75781,-15.75782 z m 21.94532,19.05079 c 1.624,0 3.42098,1.02897 4.82422,3.63281 v 5.79687 c -2.96831,-1.98585 -6.33358,-2.99023 -9.70508,-2.99023 -0.46531,0 -0.93052,0.0206 -1.39453,0.0586 l 1.27343,-2.54883 c 1.42625,-2.85213 3.30986,-3.94921 5.00196,-3.94921 z m 26.02929,0 c 1.69211,0 3.57553,1.0969 5.00196,3.94921 l 1.27929,2.55665 c -3.82615,-0.30722 -7.72378,0.66939 -11.10351,2.92578 v -5.79883 c 1.40323,-2.60403 3.19825,-3.63281 4.82226,-3.63281 z m -30.91015,9.71484 c 3.42201,0 6.8438,1.32201 9.70508,3.96289 v 20.36328 c -3.7775,-5.86213 -10.36343,-9.75195 -17.83985,-9.75195 -3.18198,0 -6.20264,0.70715 -8.91406,1.96875 l 6.99414,-12.24024 c 2.92995,-2.8639 6.49049,-4.30273 10.05469,-4.30273 z m 36.0039,0.008 c 3.49163,0.0574 6.97181,1.48987 9.84375,4.29688 l 6.99415,12.23828 c -2.71161,-1.26159 -5.73155,-1.9668 -8.91407,-1.9668 -7.47605,0 -14.06235,3.89018 -17.83984,9.75195 v -20.36542 c 2.92003,-2.69514 6.4244,-4.01228 9.91601,-3.95508 z M 416,217.81855 c 0.95661,0 2.22161,0.51879 4.82227,1.80078 v 24.88672 c -1.35572,-0.99425 -3.02239,-1.58398 -4.82227,-1.58398 -1.7997,0 -3.46851,0.58976 -4.82422,1.58398 v -24.88672 c 2.60084,-1.28199 3.86758,-1.80078 4.82422,-1.80078 z m -26.03125,15.45508 c 9.87239,0 17.83789,7.96744 17.83789,17.83984 0,9.87239 -7.9657,17.83985 -17.83789,17.83985 -9.87259,0 -17.83984,-7.96746 -17.83984,-17.83985 0,-9.8724 7.96725,-17.83984 17.83984,-17.83984 z m 52.06055,0 h 0.002 c 9.87258,0 17.83789,7.96744 17.83789,17.83984 0,9.87239 -7.96531,17.83985 -17.83789,17.83985 -9.87239,0 -17.83984,-7.96746 -17.83984,-17.83985 0,-9.8724 7.96568,-17.83984 17.83789,-17.83984 z m -52.35352,3.55469 c -0.22882,0.004 -0.45766,0.0116 -0.68554,0.0254 -1.96621,0.10346 -3.84435,0.64519 -5.53907,1.52343 a 4.880816,4.880816 0 0 1 3.26368,4.59961 4.880816,4.880816 0 0 1 -4.88086,4.88086 4.880816,4.880816 0 0 1 -4.59961,-3.26172 c -0.94803,1.83132 -1.50201,3.87499 -1.53321,6.00977 -0.41461,7.27904 5.31481,13.96242 12.56446,14.68555 7.13591,0.9991 14.20894,-4.01063 15.64062,-11.07227 1.70689,-7.00606 -2.57767,-14.54962 -9.4707,-16.67187 -1.32391,-0.44042 -2.69822,-0.67079 -4.07227,-0.71289 -0.22938,-0.006 -0.45868,-0.009 -0.6875,-0.006 z m 52.06055,0 c -0.22901,0.003 -0.45728,0.0116 -0.68555,0.0254 -1.96602,0.10346 -3.84453,0.64519 -5.53906,1.52343 a 4.880816,4.880816 0 0 1 3.26367,4.59961 4.880816,4.880816 0 0 1 -4.8789,4.88086 4.880816,4.880816 0 0 1 -4.59961,-3.26172 c -0.948,1.8313 -1.50201,3.87499 -1.53321,6.00977 -0.4148,7.27922 5.31638,13.96242 12.56641,14.68555 7.13533,0.99854 14.20701,-4.01085 15.63867,-11.07227 1.7067,-7.00606 -2.57802,-14.54962 -9.4707,-16.67187 -1.32428,-0.44042 -2.70017,-0.67079 -4.07422,-0.71289 -0.22919,-0.006 -0.45868,-0.009 -0.6875,-0.006 z M 416,246.28925 c 2.6841,0 4.82227,2.13817 4.82227,4.82227 0,2.6841 -2.13817,4.82422 -4.82227,4.82422 -2.68411,0 -4.82422,-2.14012 -4.82422,-4.82422 0,-2.6841 2.14011,-4.82227 4.82422,-4.82227 z" /><path
       id="path95"
       style="stroke-width:0.999999;stroke-linecap:round;stroke-linejoin:round;paint-order:fill markers stroke"
       d="M 580.42773 314.32227 C 571.69816 314.32227 564.66992 321.34855 564.66992 330.07812 L 564.66992 400 C 564.66992 408.72959 571.69816 415.75781 580.42773 415.75781 L 650.34766 415.75781 C 659.07723 415.75781 666.10547 408.72959 666.10547 400 L 666.10547 330.07812 C 666.10547 321.34856 659.07723 314.32227 650.34766 314.32227 L 580.42773 314.32227 z M 646.98633 342.69336 L 648.45508 345.26367 L 630.02539 355.79492 L 628.55664 353.22266 L 646.98633 342.69336 z M 622.875 348.0918 L 625.83203 348.0918 L 625.83203 381.98633 L 622.875 381.98633 L 622.875 348.0918 z M 619.91211 349.63281 L 619.91211 380.44531 L 586.01758 368.48242 L 586.01758 361.5957 L 619.91211 349.63281 z M 580.42383 362.40625 L 583.38477 362.40625 L 583.38477 367.67188 L 580.42383 367.67188 L 580.42383 362.40625 z M 629.29102 363.55859 L 650.35352 363.55859 L 650.35352 366.51953 L 629.29102 366.51953 L 629.29102 363.55859 z M 590.34961 372.42578 L 593.12891 373.44922 L 591.68945 377.36328 L 602.13867 381.54297 L 603.69141 377.6543 L 606.44141 378.75195 L 603.79102 385.39258 L 587.91406 379.04297 L 590.34961 372.42578 z M 630.02539 374.28516 L 648.45508 384.81445 L 646.98633 387.38672 L 628.55664 376.85547 L 630.02539 374.28516 z " /><path
       id="path96"
       style="font-variation-settings:normal;opacity:1;vector-effect:none;fill:#000000;fill-opacity:1;stroke:none;stroke-width:2;stroke-linecap:round;stroke-linejoin:round;stroke-miterlimit:4;stroke-dasharray:none;stroke-dashoffset:0;stroke-opacity:1;-inkscape-stroke:none;paint-order:fill markers stroke;stop-color:#000000;stop-opacity:1"
       d="m 133.33984,266.48929 c -1.13261,0 -2.23633,0.11498 -3.30859,0.32422 2.05112,0.40002 3.96433,1.17397 5.6875,2.23242 1.18156,0.72576 2.27841,1.5771 3.25,2.55664 3.09566,3.12099 5.01172,7.41338 5.01172,12.14649 v 65.23828 c 0,4.73313 -1.91606,9.02549 -5.01172,12.14648 -0.97159,0.97955 -2.06844,1.82894 -3.25,2.55469 -1.72317,1.05845 -3.63639,1.83238 -5.6875,2.23242 1.07227,0.20923 2.17597,0.32618 3.30859,0.32618 H 223.375 c 9.51718,0 17.25977,-7.74259 17.25977,-17.25977 v -65.23828 c 0,-9.51717 -7.74259,-17.25977 -17.25977,-17.25977 z m 17.71875,17.2461 28.36719,23.68945 -28.36719,23.68164 -4.5625,-4.64258 23.00782,-18.95312 -23.00782,-19.08399 z m 30.15235,57.92578 h 47.53711 v 6.08008 h -47.53711 z"
       sodipodi:nodetypes="scsssssscsssssscccccccccccc" /></g></svg>
