<?xml version="1.0" encoding="UTF-8" standalone="no"?>
<!-- Created with Inkscape (http://www.inkscape.org/) -->

<svg
   width="256"
   height="640"
   viewBox="0 0 256 640"
   version="1.1"
   id="svg1"
   inkscape:version="1.3 (0e150ed, 2023-07-21)"
   sodipodi:docname="icons.svg"
   xml:space="preserve"
   xmlns:inkscape="http://www.inkscape.org/namespaces/inkscape"
   xmlns:sodipodi="http://sodipodi.sourceforge.net/DTD/sodipodi-0.dtd"
   xmlns="http://www.w3.org/2000/svg"
   xmlns:svg="http://www.w3.org/2000/svg"><sodipodi:namedview
     id="namedview1"
     pagecolor="#ffffff"
     bordercolor="#000000"
     borderopacity="0.25"
     inkscape:showpageshadow="2"
     inkscape:pageopacity="0.0"
     inkscape:pagecheckerboard="0"
     inkscape:deskcolor="#d1d1d1"
     inkscape:document-units="mm"
     inkscape:zoom="1.2251091"
     inkscape:cx="168.55642"
     inkscape:cy="282.0157"
     inkscape:window-width="1800"
     inkscape:window-height="1022"
     inkscape:window-x="0"
     inkscape:window-y="44"
     inkscape:window-maximized="1"
     inkscape:current-layer="layer1"
     showgrid="true"><inkscape:grid
       id="grid1"
       units="px"
       originx="0"
       originy="0"
       spacingx="16"
       spacingy="16"
       empcolor="#0099e5"
       empopacity="0.30196078"
       color="#0099e5"
       opacity="0.14901961"
       empspacing="4"
       dotted="false"
       gridanglex="30"
       gridanglez="30"
       visible="true" /></sodipodi:namedview><defs
     id="defs1"><radialGradient
       id="lorc-metal-bar-gradient-1"
       gradientTransform="matrix(1.1843865,0,0,0.84431895,-129.688,74.317)"
       cx="215.29079"
       cy="299.64386"
       fx="215.29079"
       fy="299.64386"
       r="198.16208"
       gradientUnits="userSpaceOnUse"><stop
         offset="0%"
         stop-color="#d0021b"
         stop-opacity="1"
         id="stop1-4" /><stop
         offset="100%"
         stop-color="#d0021b"
         stop-opacity="1"
         id="stop2-9" /></radialGradient></defs><g
     inkscape:label="Layer 1"
     inkscape:groupmode="layer"
     id="layer1"><rect
       style="fill:#429195;stroke-width:2.47999;stroke-linecap:round;stroke-linejoin:round;-inkscape-stroke:none;paint-order:fill markers stroke"
       id="rect2"
       width="224"
       height="96"
       x="-288"
       y="-64"
       rx="9.5952625"
       ry="9.5952625" /><path
       id="path8"
       style="fill:#429195;stroke-width:2.47999;stroke-linecap:round;stroke-linejoin:round;paint-order:fill markers stroke"
       d="m 25.595703,16 c -0.66447,0 -1.313701,0.06596 -1.939453,0.193359 -0.625752,0.1274 -1.22837,0.316464 -1.802734,0.558594 -0.574366,0.24213 -1.12055,0.53862 -1.63086,0.882813 -0.510309,0.344191 -0.984383,0.736337 -1.417968,1.169922 -0.433585,0.433585 -0.825731,0.907659 -1.169922,1.417968 -0.344193,0.51031 -0.640683,1.056494 -0.882813,1.63086 -0.24213,0.574364 -0.431194,1.176982 -0.558594,1.802734 C 16.065961,24.282002 16,24.931233 16,25.595703 V 102.4043 c 0,0.66447 0.06596,1.3137 0.193359,1.93945 0.1274,0.62575 0.316464,1.22837 0.558594,1.80273 0.24213,0.57437 0.53862,1.12055 0.882813,1.63086 0.344191,0.51031 0.736337,0.98439 1.169922,1.41797 0.433585,0.43359 0.907659,0.82573 1.417968,1.16992 0.51031,0.3442 1.056494,0.64069 1.63086,0.88282 0.574364,0.24213 1.176982,0.43119 1.802734,0.55859 0.625752,0.1274 1.274983,0.19336 1.939453,0.19336 h 74.507817 c 1.05513,3e-4 2.10771,-0.30847 3.14257,-0.92188 1.03476,-0.6136 2.04679,-1.5288 3.02149,-2.73242 0.97422,-1.20333 1.90643,-2.68898 2.7832,-4.43554 0.87744,-1.7464 1.69517,-3.74559 2.44141,-5.968754 0.74561,-2.223237 1.41615,-4.659415 2.00195,-7.273437 0.58609,-2.614309 1.08458,-5.393938 1.48828,-8.298828 0.40353,-2.904647 0.71034,-5.920434 0.91602,-9.003907 0.20553,-3.084083 0.30889,-6.220898 0.30859,-9.365234 4.2e-4,-1.047023 -0.0106,-2.093807 -0.0332,-3.138672 -0.023,-1.045406 -0.0576,-2.088282 -0.10352,-3.126953 -0.0459,-1.038516 -0.10325,-2.072272 -0.17187,-3.099609 -0.0682,-1.027004 -0.14768,-2.047081 -0.23828,-3.058594 -0.0912,-1.011658 -0.19345,-2.014148 -0.30664,-3.00586 -0.11291,-0.991621 -0.23668,-1.971963 -0.3711,-2.939453 -0.13467,-0.967687 -0.27992,-1.921974 -0.43554,-2.861328 -0.15519,-0.939054 -0.32065,-1.862725 -0.4961,-2.769531 -0.17573,-0.907189 -0.36138,-1.796989 -0.55664,-2.667969 -0.19503,-0.870617 -0.39957,-1.721984 -0.61328,-2.552734 -0.21435,-0.830828 -0.43778,-1.640507 -0.66992,-2.427735 -0.23113,-0.787467 -0.47085,-1.552199 -0.71875,-2.292968 -0.24858,-0.740329 -0.50523,-1.456207 -0.76953,-2.146485 -0.26412,-0.690363 -0.53576,-1.35478 -0.81446,-1.992187 -0.27903,-0.637763 -0.56499,-1.248116 -0.85742,-1.830078 -0.29203,-0.581662 -0.59037,-1.134692 -0.89453,-1.658203 -0.30439,-0.524254 -0.61445,-1.01866 -0.92969,-1.482422 -0.31484,-0.462678 -0.63467,-0.894549 -0.95898,-1.294922 -0.32463,-0.401119 -0.65359,-0.770457 -0.98633,-1.107422 -0.33316,-0.33683 -0.66993,-0.641029 -1.00977,-0.912109 -0.3391,-0.27088 -0.68108,-0.508638 -1.02539,-0.712891 -0.34504,-0.204418 -0.69222,-0.375082 -1.04101,-0.511719 -0.34775,-0.136166 -0.69689,-0.238434 -1.04688,-0.30664 C 100.80711,16.034679 100.45536,16.000155 100.10352,16 Z"
       sodipodi:nodetypes="ssssssssssssssssssccccccccccsccccccccccccccccccccccs" /><path
       d="m 144.10352,16 c 0.35185,1.56e-4 0.70359,0.03468 1.05468,0.10352 0.34999,0.06821 0.69913,0.170474 1.04688,0.30664 0.34879,0.136634 0.69597,0.307295 1.04101,0.51171 0.34431,0.204256 0.68629,0.442017 1.02539,0.7129 0.33984,0.271079 0.67661,0.575277 1.00977,0.912105 0.33274,0.336965 0.6617,0.706303 0.98633,1.107422 0.32432,0.401016 0.64415,0.833538 0.95898,1.296875 0.31523,0.46312 0.6253,0.956874 0.92969,1.480469 0.30416,0.523511 0.6025,1.076541 0.89453,1.658203 0.29243,0.581962 0.57839,1.192315 0.85742,1.830078 0.2787,0.637407 0.55034,1.301824 0.81446,1.992187 0.2643,0.690278 0.52095,1.406156 0.76953,2.146485 0.2479,0.74077 0.48762,1.505501 0.71875,2.292969 0.23214,0.787228 0.45557,1.596906 0.66992,2.427734 0.21371,0.83075 0.41825,1.682117 0.61328,2.552734 0.19526,0.87098 0.38091,1.76078 0.55664,2.667969 0.17545,0.906806 0.34091,1.830477 0.4961,2.769531 0.15562,0.939354 0.30087,1.893641 0.43554,2.861328 0.13442,0.96749 0.25819,1.947833 0.3711,2.939454 0.11319,0.991711 0.21546,1.994201 0.30664,3.005859 0.0906,1.012159 0.17008,2.032888 0.23828,3.060547 0.0686,1.026689 0.12593,2.059794 0.17187,3.097656 0.046,1.038671 0.0805,2.081547 0.10352,3.126953 0.0225,1.044865 0.0336,2.091649 0.0332,3.138672 3e-4,3.144336 -0.10306,6.281151 -0.30859,9.365234 -0.20568,3.083473 -0.51249,6.09926 -0.91602,9.003907 -0.4037,2.90489 -0.90219,5.684519 -1.48828,8.298828 -0.5858,2.614021 -1.25634,5.050198 -2.00195,7.273434 -0.74624,2.223157 -1.56397,4.222347 -2.44141,5.968747 -0.87677,1.74657 -1.80898,3.23222 -2.7832,4.43556 -0.9747,1.20362 -1.98673,2.11882 -3.02149,2.73242 -1.03486,0.6134 -2.08744,0.92218 -3.14257,0.92187 h 86.30078 c 0.66447,0 1.3137,-0.066 1.93945,-0.19336 0.62575,-0.1274 1.22837,-0.31646 1.80273,-0.55859 0.57437,-0.24213 1.12055,-0.53862 1.63086,-0.88281 0.51031,-0.3442 0.98439,-0.73634 1.41797,-1.16992 0.43359,-0.43359 0.82573,-0.90766 1.16992,-1.41797 0.3442,-0.51031 0.64069,-1.05649 0.88282,-1.63086 0.24213,-0.57437 0.43119,-1.17699 0.55859,-1.80274 C 239.93404,103.71799 240,103.06876 240,102.40429 V 25.595703 c 0,-0.664471 -0.066,-1.3137 -0.19336,-1.939453 -0.1274,-0.625753 -0.31646,-1.228369 -0.55859,-1.802734 -0.24213,-0.574366 -0.53862,-1.12055 -0.88282,-1.63086 -0.34419,-0.51031 -0.73633,-0.984383 -1.16992,-1.417968 -0.43358,-0.433586 -0.90766,-0.825728 -1.41797,-1.169918 -0.51031,-0.3442 -1.05649,-0.64069 -1.63086,-0.88282 -0.57436,-0.24213 -1.17698,-0.42924 -1.80273,-0.55664 C 231.718,16.06791 231.06877,16 230.4043,16 Z"
       style="fill:#429195;stroke-width:2.47999;stroke-linecap:round;stroke-linejoin:round;paint-order:fill markers stroke"
       id="path9"
       sodipodi:nodetypes="cccccccccccccccccccccccccccccccccssssssssssssssssssc" /><path
       d="m 190.53617,37.847474 c -1.23037,0 -2.60006,0.798577 -3.63713,2.87243 l -0.92605,1.852919 c 0.33739,-0.02762 0.67587,-0.04217 1.01421,-0.04217 2.45151,0 4.89826,0.729603 7.0566,2.173573 v -4.215187 c -1.02033,-1.893323 -2.32663,-2.6417 -3.50749,-2.6417 z m 18.92752,0 c -1.18086,0 -2.48688,0.748241 -3.50721,2.6417 v 4.216545 c 2.4575,-1.640689 5.29143,-2.350838 8.07353,-2.127455 l -0.92918,-1.85836 c -1.0372,-2.073988 -2.40689,-2.87243 -3.63727,-2.87243 z m -22.47663,7.064216 c -2.59163,0 -5.18055,1.046586 -7.311,3.129009 l -5.08532,8.899721 c 1.97155,-0.917344 4.16743,-1.43091 6.48114,-1.43091 5.43631,0 10.22505,2.828625 12.97178,7.091152 v -14.80729 c -2.08052,-1.92026 -4.56836,-2.881682 -7.0566,-2.881682 z m 26.17934,0.0045 c -2.53885,-0.04163 -5.08668,0.916936 -7.20992,2.876648 v 14.8077 c 2.74672,-4.262256 7.53548,-7.091017 12.97152,-7.091017 2.3141,0 4.50985,0.513565 6.48153,1.43091 l -5.08532,-8.899698 c -2.08827,-2.041066 -4.61868,-3.082755 -7.15754,-3.12452 z m -13.16646,1.803942 c -0.6956,0 -1.61648,0.377522 -3.50762,1.309695 v 18.095744 c 0.98577,-0.722937 2.19901,-1.151883 3.50762,-1.151883 1.30874,0 2.52184,0.429082 3.50762,1.152019 V 48.029816 c -1.89101,-0.932173 -2.81204,-1.309695 -3.50762,-1.309695 z M 181.07215,57.9583 c -7.17863,0 -12.97179,5.793022 -12.97179,12.971515 0,7.178493 5.79316,12.971786 12.97179,12.971786 7.17835,0 12.97137,-5.793293 12.97137,-12.971786 0,-7.178493 -5.79302,-12.971515 -12.97151,-12.971515 z m 37.85558,0 c -7.17836,0 -12.97139,5.793022 -12.97139,12.971515 0,7.178493 5.79303,12.971786 12.97152,12.971786 7.17863,0 12.97178,-5.793293 12.97178,-12.971786 0,-7.178493 -5.79315,-12.971515 -12.97178,-12.971515 z m -38.06877,2.585378 c 0.16638,-0.0025 0.33304,-0.0011 0.49983,0.0041 0.99911,0.03061 1.99903,0.198896 2.96168,0.519143 5.01212,1.543146 8.12794,7.028573 6.88681,12.122873 -1.04101,5.134719 -6.18387,8.776206 -11.37259,8.049733 -5.27142,-0.52581 -9.43818,-5.384347 -9.1367,-10.677135 0.0227,-1.552261 0.42621,-3.038677 1.11555,-4.370274 a 3.5489774,3.5489774 0 0 0 3.34342,2.371653 3.5489774,3.5489774 0 0 0 3.54938,-3.548569 3.5489774,3.5489774 0 0 0 -2.37355,-3.344503 c 1.23228,-0.638591 2.59802,-1.033118 4.02771,-1.10835 0.1657,-0.0098 0.33195,-0.01605 0.49833,-0.01864 z m 37.85558,0 c 0.16638,-0.0025 0.33304,-0.0011 0.49969,0.0041 0.99911,0.03061 1.9993,0.198896 2.96222,0.519143 5.01186,1.543146 8.12753,7.028573 6.88654,12.122873 -1.041,5.134569 -6.1836,8.776192 -11.3719,8.050126 -5.2717,-0.52581 -9.43873,-5.38489 -9.13712,-10.677814 0.0227,-1.552261 0.42623,-3.038405 1.11555,-4.370002 a 3.5489774,3.5489774 0 0 0 3.34329,2.371653 3.5489774,3.5489774 0 0 0 3.54884,-3.548569 3.5489774,3.5489774 0 0 0 -2.37301,-3.344504 c 1.23214,-0.63859 2.59775,-1.033118 4.0273,-1.10835 0.16598,-0.0098 0.33195,-0.01605 0.49847,-0.01864 z m -18.7146,6.878653 c -1.95169,0 -3.50762,1.555798 -3.50762,3.507484 0,1.951686 1.55593,3.50762 3.50762,3.50762 1.95168,0 3.50762,-1.555934 3.50762,-3.50762 0,-1.951686 -1.55594,-3.507212 -3.50762,-3.507212 z"
       fill="#ffffff"
       fill-opacity="1"
       id="path10"
       style="stroke-width:2.47999;font-variation-settings:normal;opacity:1;vector-effect:none;fill:#ececec;fill-opacity:1;stroke-linecap:round;stroke-linejoin:round;stroke-miterlimit:4;stroke-dasharray:none;stroke-dashoffset:0;stroke-opacity:1;-inkscape-stroke:none;paint-order:fill markers stroke;stop-color:#000000;stop-opacity:1" /><path
       d="m 56.047401,37.847474 c -1.23037,0 -2.60006,0.798577 -3.63713,2.87243 l -0.92605,1.852919 c 0.33739,-0.02762 0.67587,-0.04217 1.01421,-0.04217 2.45151,0 4.89826,0.729603 7.0566,2.173573 v -4.215187 c -1.02033,-1.893323 -2.32663,-2.6417 -3.50749,-2.6417 z m 18.92752,0 c -1.18086,0 -2.48688,0.748241 -3.50721,2.6417 v 4.216545 c 2.4575,-1.640689 5.29143,-2.350838 8.07353,-2.127455 l -0.92918,-1.85836 c -1.0372,-2.073988 -2.40689,-2.87243 -3.63727,-2.87243 z m -22.47663,7.064216 c -2.59163,0 -5.18055,1.046586 -7.311,3.129009 l -5.08532,8.899721 c 1.97155,-0.917344 4.16743,-1.43091 6.48114,-1.43091 5.43631,0 10.22505,2.828625 12.97178,7.091152 v -14.80729 c -2.08052,-1.92026 -4.56836,-2.881682 -7.0566,-2.881682 z m 26.17934,0.0045 c -2.53885,-0.04163 -5.08668,0.916936 -7.20992,2.876648 v 14.8077 c 2.74672,-4.262256 7.53548,-7.091017 12.97152,-7.091017 2.3141,0 4.50985,0.513565 6.48153,1.43091 l -5.08532,-8.899698 c -2.08827,-2.041066 -4.61868,-3.082755 -7.15754,-3.12452 z m -13.16646,1.803942 c -0.6956,0 -1.61648,0.377522 -3.50762,1.309695 v 18.095744 c 0.98577,-0.722937 2.19901,-1.151883 3.50762,-1.151883 1.30874,0 2.52184,0.429082 3.50762,1.152019 V 48.029816 c -1.89101,-0.932173 -2.81204,-1.309695 -3.50762,-1.309695 z M 46.583381,57.9583 c -7.17863,0 -12.97179,5.793022 -12.97179,12.971515 0,7.178493 5.79316,12.971786 12.97179,12.971786 7.17835,0 12.97137,-5.793293 12.97137,-12.971786 0,-7.178493 -5.79302,-12.971515 -12.97151,-12.971515 z m 37.85558,0 c -7.17836,0 -12.97139,5.793022 -12.97139,12.971515 0,7.178493 5.79303,12.971786 12.97152,12.971786 7.17863,0 12.97178,-5.793293 12.97178,-12.971786 0,-7.178493 -5.79315,-12.971515 -12.97178,-12.971515 z m -38.06877,2.585378 c 0.16638,-0.0025 0.33304,-0.0011 0.49983,0.0041 0.99911,0.03061 1.99903,0.198896 2.96168,0.519143 5.01212,1.543146 8.12794,7.028573 6.88681,12.122873 -1.04101,5.134719 -6.18387,8.776206 -11.37259,8.049733 -5.27142,-0.52581 -9.43818,-5.384347 -9.1367,-10.677135 0.0227,-1.552261 0.42621,-3.038677 1.11555,-4.370274 a 3.5489774,3.5489774 0 0 0 3.34342,2.371653 3.5489774,3.5489774 0 0 0 3.54938,-3.548569 3.5489774,3.5489774 0 0 0 -2.37355,-3.344503 c 1.23228,-0.638591 2.59802,-1.033118 4.02771,-1.10835 0.1657,-0.0098 0.33195,-0.01605 0.49833,-0.01864 z m 37.85558,0 c 0.16638,-0.0025 0.33304,-0.0011 0.49969,0.0041 0.99911,0.03061 1.9993,0.198896 2.96222,0.519143 5.01186,1.543146 8.12753,7.028573 6.88654,12.122873 -1.041,5.134569 -6.1836,8.776192 -11.3719,8.050126 -5.2717,-0.52581 -9.43873,-5.38489 -9.13712,-10.677814 0.0227,-1.552261 0.42623,-3.038405 1.11555,-4.370002 a 3.5489774,3.5489774 0 0 0 3.34329,2.371653 3.5489774,3.5489774 0 0 0 3.54884,-3.548569 3.5489774,3.5489774 0 0 0 -2.37301,-3.344504 c 1.23214,-0.63859 2.59775,-1.033118 4.0273,-1.10835 0.16598,-0.0098 0.33195,-0.01605 0.49847,-0.01864 z m -18.7146,6.878653 c -1.95169,0 -3.50762,1.555798 -3.50762,3.507484 0,1.951686 1.55593,3.50762 3.50762,3.50762 1.95168,0 3.50762,-1.555934 3.50762,-3.50762 0,-1.951686 -1.55594,-3.507212 -3.50762,-3.507212 z"
       fill="#ffffff"
       fill-opacity="1"
       id="path11"
       style="stroke-width:2.47999;font-variation-settings:normal;opacity:1;vector-effect:none;fill:#ececec;fill-opacity:1;stroke-linecap:round;stroke-linejoin:round;stroke-miterlimit:4;stroke-dasharray:none;stroke-dashoffset:0;stroke-opacity:1;-inkscape-stroke:none;paint-order:fill markers stroke;stop-color:#000000;stop-opacity:1" /><path
       id="path12"
       style="fill:#429195;stroke-width:2.47999;stroke-linecap:round;stroke-linejoin:round;paint-order:fill markers stroke"
       d="m 25.595703,144 c -0.66447,0 -1.313701,0.066 -1.939453,0.19336 -0.625752,0.1274 -1.22837,0.31646 -1.802734,0.55859 -0.574366,0.24213 -1.12055,0.53862 -1.63086,0.88282 -0.510309,0.34419 -0.984383,0.73633 -1.417968,1.16992 -0.433585,0.43358 -0.825731,0.90766 -1.169922,1.41797 -0.344193,0.51031 -0.640683,1.05649 -0.882813,1.63086 -0.24213,0.57436 -0.431194,1.17698 -0.558594,1.80273 C 16.065961,152.282 16,152.93123 16,153.5957 v 76.8086 c 0,0.66447 0.06596,1.3137 0.193359,1.93945 0.1274,0.62575 0.316464,1.22837 0.558594,1.80273 0.24213,0.57437 0.53862,1.12055 0.882813,1.63086 0.344191,0.51031 0.736337,0.98439 1.169922,1.41797 0.433585,0.43359 0.907659,0.82573 1.417968,1.16992 0.51031,0.3442 1.056494,0.64069 1.63086,0.88282 0.574364,0.24213 1.176982,0.43119 1.802734,0.55859 0.625752,0.1274 1.274983,0.19336 1.939453,0.19336 h 74.507817 c 1.05513,3e-4 2.10771,-0.30847 3.14257,-0.92188 1.03476,-0.6136 2.04679,-1.5288 3.02149,-2.73242 0.97422,-1.20333 1.90643,-2.68898 2.7832,-4.43554 0.87744,-1.7464 1.69517,-3.74559 2.44141,-5.96875 0.74561,-2.22324 1.41615,-4.65942 2.00195,-7.27344 0.58609,-2.61431 1.08458,-5.39394 1.48828,-8.29883 0.40353,-2.90465 0.71034,-5.92043 0.91602,-9.00391 0.20553,-3.08408 0.30889,-6.22089 0.30859,-9.36523 4.2e-4,-1.04702 -0.0106,-2.09381 -0.0332,-3.13867 -0.023,-1.04541 -0.0576,-2.08828 -0.10352,-3.12695 -0.0459,-1.03852 -0.10325,-2.07228 -0.17187,-3.09961 -0.0682,-1.02701 -0.14768,-2.04708 -0.23828,-3.0586 -0.0912,-1.01166 -0.19345,-2.01415 -0.30664,-3.00586 -0.11291,-0.99162 -0.23668,-1.97196 -0.3711,-2.93945 -0.13467,-0.96769 -0.27992,-1.92197 -0.43554,-2.86133 -0.15519,-0.93905 -0.32065,-1.86272 -0.4961,-2.76953 -0.17573,-0.90719 -0.36138,-1.79699 -0.55664,-2.66797 -0.19503,-0.87062 -0.39957,-1.72198 -0.61328,-2.55273 -0.21435,-0.83083 -0.43778,-1.64051 -0.66992,-2.42774 -0.23113,-0.78746 -0.47085,-1.5522 -0.71875,-2.29297 -0.24858,-0.74032 -0.50523,-1.4562 -0.76953,-2.14648 -0.26412,-0.69036 -0.53576,-1.35478 -0.81446,-1.99219 -0.27903,-0.63776 -0.56499,-1.24811 -0.85742,-1.83008 -0.29203,-0.58166 -0.59037,-1.13469 -0.89453,-1.6582 -0.30439,-0.52425 -0.61445,-1.01866 -0.92969,-1.48242 -0.31484,-0.46268 -0.63467,-0.89455 -0.95898,-1.29492 -0.32463,-0.40112 -0.65359,-0.77046 -0.98633,-1.10742 -0.33316,-0.33683 -0.66993,-0.64103 -1.00977,-0.91211 -0.3391,-0.27088 -0.68108,-0.50864 -1.02539,-0.71289 -0.34504,-0.20442 -0.69222,-0.37509 -1.04101,-0.51172 -0.34775,-0.13617 -0.69689,-0.23844 -1.04688,-0.30664 -0.35109,-0.0688 -0.70284,-0.10336 -1.05468,-0.10352 z"
       sodipodi:nodetypes="ssssssssssssssssssccccccccccsccccccccccccccccccccccs" /><path
       d="m 144.10352,144 c 0.35185,1.6e-4 0.70359,0.0347 1.05468,0.10352 0.34999,0.0682 0.69913,0.17047 1.04688,0.30664 0.34879,0.13663 0.69597,0.3073 1.04101,0.51171 0.34431,0.20426 0.68629,0.44202 1.02539,0.7129 0.33984,0.27108 0.67661,0.57528 1.00977,0.91211 0.33274,0.33696 0.6617,0.7063 0.98633,1.10742 0.32432,0.40101 0.64415,0.83354 0.95898,1.29687 0.31523,0.46312 0.6253,0.95688 0.92969,1.48047 0.30416,0.52351 0.6025,1.07654 0.89453,1.6582 0.29243,0.58197 0.57839,1.19232 0.85742,1.83008 0.2787,0.63741 0.55034,1.30183 0.81446,1.99219 0.2643,0.69028 0.52095,1.40616 0.76953,2.14648 0.2479,0.74077 0.48762,1.50551 0.71875,2.29297 0.23214,0.78723 0.45557,1.59691 0.66992,2.42774 0.21371,0.83075 0.41825,1.68212 0.61328,2.55273 0.19526,0.87098 0.38091,1.76078 0.55664,2.66797 0.17545,0.90681 0.34091,1.83048 0.4961,2.76953 0.15562,0.93936 0.30087,1.89364 0.43554,2.86133 0.13442,0.96749 0.25819,1.94783 0.3711,2.93945 0.11319,0.99171 0.21546,1.9942 0.30664,3.00586 0.0906,1.01216 0.17008,2.03289 0.23828,3.06055 0.0686,1.02669 0.12593,2.05979 0.17187,3.09766 0.046,1.03867 0.0805,2.08154 0.10352,3.12695 0.0225,1.04486 0.0336,2.09165 0.0332,3.13867 3e-4,3.14434 -0.10306,6.28115 -0.30859,9.36523 -0.20568,3.08348 -0.51249,6.09927 -0.91602,9.00391 -0.4037,2.90489 -0.90219,5.68452 -1.48828,8.29883 -0.5858,2.61402 -1.25634,5.0502 -2.00195,7.27343 -0.74624,2.22316 -1.56397,4.22235 -2.44141,5.96875 -0.87677,1.74657 -1.80898,3.23222 -2.7832,4.43556 -0.9747,1.20362 -1.98673,2.11882 -3.02149,2.73242 -1.03486,0.6134 -2.08744,0.92218 -3.14257,0.92187 h 86.30078 c 0.66447,0 1.3137,-0.066 1.93945,-0.19336 0.62575,-0.1274 1.22837,-0.31646 1.80273,-0.55859 0.57437,-0.24213 1.12055,-0.53862 1.63086,-0.88281 0.51031,-0.3442 0.98439,-0.73634 1.41797,-1.16992 0.43359,-0.43359 0.82573,-0.90766 1.16992,-1.41797 0.3442,-0.51031 0.64069,-1.05649 0.88282,-1.63086 0.24213,-0.57437 0.43119,-1.17699 0.55859,-1.80274 C 239.93404,231.71799 240,231.06876 240,230.40429 V 153.5957 c 0,-0.66447 -0.066,-1.3137 -0.19336,-1.93945 -0.1274,-0.62575 -0.31646,-1.22837 -0.55859,-1.80273 -0.24213,-0.57437 -0.53862,-1.12055 -0.88282,-1.63086 -0.34419,-0.51031 -0.73633,-0.98439 -1.16992,-1.41797 -0.43358,-0.43359 -0.90766,-0.82573 -1.41797,-1.16992 -0.51031,-0.3442 -1.05649,-0.64069 -1.63086,-0.88282 -0.57436,-0.24213 -1.17698,-0.42924 -1.80273,-0.55664 C 231.718,144.06791 231.06877,144 230.4043,144 Z"
       style="fill:#429195;stroke-width:2.47999;stroke-linecap:round;stroke-linejoin:round;paint-order:fill markers stroke"
       id="path13"
       sodipodi:nodetypes="cccccccccccccccccccccccccccccccccssssssssssssssssssc" /><path
       id="path16"
       style="fill:#429195;stroke-width:2.47999;stroke-linecap:round;stroke-linejoin:round;paint-order:fill markers stroke"
       d="m 25.595703,272 c -0.66447,0 -1.313701,0.066 -1.939453,0.19336 -0.625752,0.1274 -1.22837,0.31646 -1.802734,0.55859 -0.574366,0.24213 -1.12055,0.53862 -1.63086,0.88282 -0.510309,0.34419 -0.984383,0.73633 -1.417968,1.16992 -0.433585,0.43358 -0.825731,0.90766 -1.169922,1.41797 -0.344193,0.51031 -0.640683,1.05649 -0.882813,1.63086 -0.24213,0.57436 -0.431194,1.17698 -0.558594,1.80273 C 16.065961,280.282 16,280.93123 16,281.5957 v 76.8086 c 0,0.66447 0.06596,1.3137 0.193359,1.93945 0.1274,0.62575 0.316464,1.22837 0.558594,1.80273 0.24213,0.57437 0.53862,1.12055 0.882813,1.63086 0.344191,0.51031 0.736337,0.98439 1.169922,1.41797 0.433585,0.43359 0.907659,0.82573 1.417968,1.16992 0.51031,0.3442 1.056494,0.64069 1.63086,0.88282 0.574364,0.24213 1.176982,0.43119 1.802734,0.55859 0.625752,0.1274 1.274983,0.19336 1.939453,0.19336 h 74.507817 c 1.05513,3e-4 2.10771,-0.30847 3.14257,-0.92188 1.03476,-0.6136 2.04679,-1.5288 3.02149,-2.73242 0.97422,-1.20333 1.90643,-2.68898 2.7832,-4.43554 0.87744,-1.7464 1.69517,-3.74559 2.44141,-5.96875 0.74561,-2.22324 1.41615,-4.65942 2.00195,-7.27344 0.58609,-2.61431 1.08458,-5.39394 1.48828,-8.29883 0.40353,-2.90465 0.71034,-5.92043 0.91602,-9.00391 0.20553,-3.08408 0.30889,-6.22089 0.30859,-9.36523 4.2e-4,-1.04702 -0.0106,-2.09381 -0.0332,-3.13867 -0.023,-1.04541 -0.0576,-2.08828 -0.10352,-3.12695 -0.0459,-1.03852 -0.10325,-2.07228 -0.17187,-3.09961 -0.0682,-1.02701 -0.14768,-2.04708 -0.23828,-3.0586 -0.0912,-1.01166 -0.19345,-2.01415 -0.30664,-3.00586 -0.11291,-0.99162 -0.23668,-1.97196 -0.3711,-2.93945 -0.13467,-0.96769 -0.27992,-1.92197 -0.43554,-2.86133 -0.15519,-0.93905 -0.32065,-1.86272 -0.4961,-2.76953 -0.17573,-0.90719 -0.36138,-1.79699 -0.55664,-2.66797 -0.19503,-0.87062 -0.39957,-1.72198 -0.61328,-2.55273 -0.21435,-0.83083 -0.43778,-1.64051 -0.66992,-2.42774 -0.23113,-0.78746 -0.47085,-1.5522 -0.71875,-2.29297 -0.24858,-0.74032 -0.50523,-1.4562 -0.76953,-2.14648 -0.26412,-0.69036 -0.53576,-1.35478 -0.81446,-1.99219 -0.27903,-0.63776 -0.56499,-1.24811 -0.85742,-1.83008 -0.29203,-0.58166 -0.59037,-1.13469 -0.89453,-1.6582 -0.30439,-0.52425 -0.61445,-1.01866 -0.92969,-1.48242 -0.31484,-0.46268 -0.63467,-0.89455 -0.95898,-1.29492 -0.32463,-0.40112 -0.65359,-0.77046 -0.98633,-1.10742 -0.33316,-0.33683 -0.66993,-0.64103 -1.00977,-0.91211 -0.3391,-0.27088 -0.68108,-0.50864 -1.02539,-0.71289 -0.34504,-0.20442 -0.69222,-0.37509 -1.04101,-0.51172 -0.34775,-0.13617 -0.69689,-0.23844 -1.04688,-0.30664 -0.35109,-0.0688 -0.70284,-0.10336 -1.05468,-0.10352 z"
       sodipodi:nodetypes="ssssssssssssssssssccccccccccsccccccccccccccccccccccs" /><path
       d="m 144.10352,272 c 0.35185,1.6e-4 0.70359,0.0347 1.05468,0.10352 0.34999,0.0682 0.69913,0.17047 1.04688,0.30664 0.34879,0.13663 0.69597,0.3073 1.04101,0.51171 0.34431,0.20426 0.68629,0.44202 1.02539,0.7129 0.33984,0.27108 0.67661,0.57528 1.00977,0.91211 0.33274,0.33696 0.6617,0.7063 0.98633,1.10742 0.32432,0.40101 0.64415,0.83354 0.95898,1.29687 0.31523,0.46312 0.6253,0.95688 0.92969,1.48047 0.30416,0.52351 0.6025,1.07654 0.89453,1.6582 0.29243,0.58197 0.57839,1.19232 0.85742,1.83008 0.2787,0.63741 0.55034,1.30183 0.81446,1.99219 0.2643,0.69028 0.52095,1.40616 0.76953,2.14648 0.2479,0.74077 0.48762,1.50551 0.71875,2.29297 0.23214,0.78723 0.45557,1.59691 0.66992,2.42774 0.21371,0.83075 0.41825,1.68212 0.61328,2.55273 0.19526,0.87098 0.38091,1.76078 0.55664,2.66797 0.17545,0.90681 0.34091,1.83048 0.4961,2.76953 0.15562,0.93936 0.30087,1.89364 0.43554,2.86133 0.13442,0.96749 0.25819,1.94783 0.3711,2.93945 0.11319,0.99171 0.21546,1.9942 0.30664,3.00586 0.0906,1.01216 0.17008,2.03289 0.23828,3.06055 0.0686,1.02669 0.12593,2.05979 0.17187,3.09766 0.046,1.03867 0.0805,2.08154 0.10352,3.12695 0.0225,1.04486 0.0336,2.09165 0.0332,3.13867 3e-4,3.14434 -0.10306,6.28115 -0.30859,9.36523 -0.20568,3.08348 -0.51249,6.09927 -0.91602,9.00391 -0.4037,2.90489 -0.90219,5.68452 -1.48828,8.29883 -0.5858,2.61402 -1.25634,5.0502 -2.00195,7.27343 -0.74624,2.22316 -1.56397,4.22235 -2.44141,5.96875 -0.87677,1.74657 -1.80898,3.23222 -2.7832,4.43556 -0.9747,1.20362 -1.98673,2.11882 -3.02149,2.73242 -1.03486,0.6134 -2.08744,0.92218 -3.14257,0.92187 h 86.30078 c 0.66447,0 1.3137,-0.066 1.93945,-0.19336 0.62575,-0.1274 1.22837,-0.31646 1.80273,-0.55859 0.57437,-0.24213 1.12055,-0.53862 1.63086,-0.88281 0.51031,-0.3442 0.98439,-0.73634 1.41797,-1.16992 0.43359,-0.43359 0.82573,-0.90766 1.16992,-1.41797 0.3442,-0.51031 0.64069,-1.05649 0.88282,-1.63086 0.24213,-0.57437 0.43119,-1.17699 0.55859,-1.80274 C 239.93404,359.71799 240,359.06876 240,358.40429 V 281.5957 c 0,-0.66447 -0.066,-1.3137 -0.19336,-1.93945 -0.1274,-0.62575 -0.31646,-1.22837 -0.55859,-1.80273 -0.24213,-0.57437 -0.53862,-1.12055 -0.88282,-1.63086 -0.34419,-0.51031 -0.73633,-0.98439 -1.16992,-1.41797 -0.43358,-0.43359 -0.90766,-0.82573 -1.41797,-1.16992 -0.51031,-0.3442 -1.05649,-0.64069 -1.63086,-0.88282 -0.57436,-0.24213 -1.17698,-0.42924 -1.80273,-0.55664 C 231.718,272.06791 231.06877,272 230.4043,272 Z"
       style="fill:#429195;stroke-width:2.47999;stroke-linecap:round;stroke-linejoin:round;paint-order:fill markers stroke"
       id="path17"
       sodipodi:nodetypes="cccccccccccccccccccccccccccccccccssssssssssssssssssc" /><path
       id="path20"
       style="fill:#429195;stroke-width:2.47999;stroke-linecap:round;stroke-linejoin:round;paint-order:fill markers stroke"
       d="m 25.595703,400 c -0.66447,0 -1.313701,0.066 -1.939453,0.19336 -0.625752,0.1274 -1.22837,0.31646 -1.802734,0.55859 -0.574366,0.24213 -1.12055,0.53862 -1.63086,0.88282 -0.510309,0.34419 -0.984383,0.73633 -1.417968,1.16992 -0.433585,0.43358 -0.825731,0.90766 -1.169922,1.41797 -0.344193,0.51031 -0.640683,1.05649 -0.882813,1.63086 -0.24213,0.57436 -0.431194,1.17698 -0.558594,1.80273 C 16.065961,408.282 16,408.93123 16,409.5957 v 76.8086 c 0,0.66447 0.06596,1.3137 0.193359,1.93945 0.1274,0.62575 0.316464,1.22837 0.558594,1.80273 0.24213,0.57437 0.53862,1.12055 0.882813,1.63086 0.344191,0.51031 0.736337,0.98439 1.169922,1.41797 0.433585,0.43359 0.907659,0.82573 1.417968,1.16992 0.51031,0.3442 1.056494,0.64069 1.63086,0.88282 0.574364,0.24213 1.176982,0.43119 1.802734,0.55859 0.625752,0.1274 1.274983,0.19336 1.939453,0.19336 h 74.507817 c 1.05513,3e-4 2.10771,-0.30847 3.14257,-0.92188 1.03476,-0.6136 2.04679,-1.5288 3.02149,-2.73242 0.97422,-1.20333 1.90643,-2.68898 2.7832,-4.43554 0.87744,-1.7464 1.69517,-3.74559 2.44141,-5.96875 0.74561,-2.22324 1.41615,-4.65942 2.00195,-7.27344 0.58609,-2.61431 1.08458,-5.39394 1.48828,-8.29883 0.40353,-2.90465 0.71034,-5.92043 0.91602,-9.00391 0.20553,-3.08408 0.30889,-6.22089 0.30859,-9.36523 4.2e-4,-1.04702 -0.0106,-2.09381 -0.0332,-3.13867 -0.023,-1.04541 -0.0576,-2.08828 -0.10352,-3.12695 -0.0459,-1.03852 -0.10325,-2.07228 -0.17187,-3.09961 -0.0682,-1.02701 -0.14768,-2.04708 -0.23828,-3.0586 -0.0912,-1.01166 -0.19345,-2.01415 -0.30664,-3.00586 -0.11291,-0.99162 -0.23668,-1.97196 -0.3711,-2.93945 -0.13467,-0.96769 -0.27992,-1.92197 -0.43554,-2.86133 -0.15519,-0.93905 -0.32065,-1.86272 -0.4961,-2.76953 -0.17573,-0.90719 -0.36138,-1.79699 -0.55664,-2.66797 -0.19503,-0.87062 -0.39957,-1.72198 -0.61328,-2.55273 -0.21435,-0.83083 -0.43778,-1.64051 -0.66992,-2.42774 -0.23113,-0.78746 -0.47085,-1.5522 -0.71875,-2.29297 -0.24858,-0.74032 -0.50523,-1.4562 -0.76953,-2.14648 -0.26412,-0.69036 -0.53576,-1.35478 -0.81446,-1.99219 -0.27903,-0.63776 -0.56499,-1.24811 -0.85742,-1.83008 -0.29203,-0.58166 -0.59037,-1.13469 -0.89453,-1.6582 -0.30439,-0.52425 -0.61445,-1.01866 -0.92969,-1.48242 -0.31484,-0.46268 -0.63467,-0.89455 -0.95898,-1.29492 -0.32463,-0.40112 -0.65359,-0.77046 -0.98633,-1.10742 -0.33316,-0.33683 -0.66993,-0.64103 -1.00977,-0.91211 -0.3391,-0.27088 -0.68108,-0.50864 -1.02539,-0.71289 -0.34504,-0.20442 -0.69222,-0.37509 -1.04101,-0.51172 -0.34775,-0.13617 -0.69689,-0.23844 -1.04688,-0.30664 -0.35109,-0.0688 -0.70284,-0.10336 -1.05468,-0.10352 z"
       sodipodi:nodetypes="ssssssssssssssssssccccccccccsccccccccccccccccccccccs" /><path
       d="m 144.10352,400 c 0.35185,1.6e-4 0.70359,0.0347 1.05468,0.10352 0.34999,0.0682 0.69913,0.17047 1.04688,0.30664 0.34879,0.13663 0.69597,0.3073 1.04101,0.51171 0.34431,0.20426 0.68629,0.44202 1.02539,0.7129 0.33984,0.27108 0.67661,0.57528 1.00977,0.91211 0.33274,0.33696 0.6617,0.7063 0.98633,1.10742 0.32432,0.40101 0.64415,0.83354 0.95898,1.29687 0.31523,0.46312 0.6253,0.95688 0.92969,1.48047 0.30416,0.52351 0.6025,1.07654 0.89453,1.6582 0.29243,0.58197 0.57839,1.19232 0.85742,1.83008 0.2787,0.63741 0.55034,1.30183 0.81446,1.99219 0.2643,0.69028 0.52095,1.40616 0.76953,2.14648 0.2479,0.74077 0.48762,1.50551 0.71875,2.29297 0.23214,0.78723 0.45557,1.59691 0.66992,2.42774 0.21371,0.83075 0.41825,1.68212 0.61328,2.55273 0.19526,0.87098 0.38091,1.76078 0.55664,2.66797 0.17545,0.90681 0.34091,1.83048 0.4961,2.76953 0.15562,0.93936 0.30087,1.89364 0.43554,2.86133 0.13442,0.96749 0.25819,1.94783 0.3711,2.93945 0.11319,0.99171 0.21546,1.9942 0.30664,3.00586 0.0906,1.01216 0.17008,2.03289 0.23828,3.06055 0.0686,1.02669 0.12593,2.05979 0.17187,3.09766 0.046,1.03867 0.0805,2.08154 0.10352,3.12695 0.0225,1.04486 0.0336,2.09165 0.0332,3.13867 3e-4,3.14434 -0.10306,6.28115 -0.30859,9.36523 -0.20568,3.08348 -0.51249,6.09927 -0.91602,9.00391 -0.4037,2.90489 -0.90219,5.68452 -1.48828,8.29883 -0.5858,2.61402 -1.25634,5.0502 -2.00195,7.27343 -0.74624,2.22316 -1.56397,4.22235 -2.44141,5.96875 -0.87677,1.74657 -1.80898,3.23222 -2.7832,4.43556 -0.9747,1.20362 -1.98673,2.11882 -3.02149,2.73242 -1.03486,0.6134 -2.08744,0.92218 -3.14257,0.92187 h 86.30078 c 0.66447,0 1.3137,-0.066 1.93945,-0.19336 0.62575,-0.1274 1.22837,-0.31646 1.80273,-0.55859 0.57437,-0.24213 1.12055,-0.53862 1.63086,-0.88281 0.51031,-0.3442 0.98439,-0.73634 1.41797,-1.16992 0.43359,-0.43359 0.82573,-0.90766 1.16992,-1.41797 0.3442,-0.51031 0.64069,-1.05649 0.88282,-1.63086 0.24213,-0.57437 0.43119,-1.17699 0.55859,-1.80274 C 239.93404,487.71799 240,487.06876 240,486.40429 V 409.5957 c 0,-0.66447 -0.066,-1.3137 -0.19336,-1.93945 -0.1274,-0.62575 -0.31646,-1.22837 -0.55859,-1.80273 -0.24213,-0.57437 -0.53862,-1.12055 -0.88282,-1.63086 -0.34419,-0.51031 -0.73633,-0.98439 -1.16992,-1.41797 -0.43358,-0.43359 -0.90766,-0.82573 -1.41797,-1.16992 -0.51031,-0.3442 -1.05649,-0.64069 -1.63086,-0.88282 -0.57436,-0.24213 -1.17698,-0.42924 -1.80273,-0.55664 C 231.718,400.06791 231.06877,400 230.4043,400 Z"
       style="fill:#429195;stroke-width:2.47999;stroke-linecap:round;stroke-linejoin:round;paint-order:fill markers stroke"
       id="path21"
       sodipodi:nodetypes="cccccccccccccccccccccccccccccccccssssssssssssssssssc" /><text
       xml:space="preserve"
       style="font-style:normal;font-variant:normal;font-weight:normal;font-stretch:normal;font-size:51.7628px;line-height:0.85;font-family:Consolas;-inkscape-font-specification:'Consolas, Normal';font-variant-ligatures:normal;font-variant-caps:normal;font-variant-numeric:normal;font-variant-east-asian:normal;text-align:center;text-decoration:none;text-decoration-line:none;text-decoration-color:#000000;letter-spacing:0px;word-spacing:0px;text-anchor:middle;fill:#ececec;stroke-width:2.47999;stroke-linecap:round;stroke-linejoin:round;-inkscape-stroke:none;paint-order:fill markers stroke"
       x="55.530842"
       y="460.10559"
       id="text23"><tspan
         sodipodi:role="line"
         id="tspan23"
         x="55.530842"
         y="460.10559"
         style="fill:#ececec;stroke-width:2.47999">&gt;_</tspan></text><text
       xml:space="preserve"
       style="font-style:normal;font-variant:normal;font-weight:normal;font-stretch:normal;font-size:51.7628px;line-height:0.85;font-family:Consolas;-inkscape-font-specification:'Consolas, Normal';font-variant-ligatures:normal;font-variant-caps:normal;font-variant-numeric:normal;font-variant-east-asian:normal;text-align:center;text-decoration:none;text-decoration-line:none;text-decoration-color:#000000;letter-spacing:0px;word-spacing:0px;text-anchor:middle;fill:#ececec;stroke-width:2.47999;stroke-linecap:round;stroke-linejoin:round;-inkscape-stroke:none;paint-order:fill markers stroke"
       x="199.53084"
       y="460.10559"
       id="text24"><tspan
         sodipodi:role="line"
         id="tspan24"
         x="199.53084"
         y="460.10559"
         style="fill:#ececec;stroke-width:2.47999">&gt;_</tspan></text><path
       d="m 94.480997,167.34628 -18.428501,10.53057 1.469343,2.57144 18.428502,-10.53058 z M 70.3701,172.7455 v 33.89528 h 2.957281 V 172.7455 Z m -2.961723,1.54125 -33.895279,11.96289 v 6.887 l 33.895279,11.96289 z M 27.918731,187.0605 v 5.26528 h 2.961723 v -5.26528 z m 48.868437,1.15178 v 2.96172 h 21.061143 v -2.96172 z m -38.941398,8.86707 -2.435195,6.61698 15.876154,6.35043 2.650742,-6.6415 -2.750453,-1.09781 -1.552273,3.88891 -10.449947,-4.18015 1.440549,-3.91375 -2.779577,-1.02344 z m 39.676069,1.85865 -1.469343,2.57143 18.428501,10.53057 1.469344,-2.57143 z"
       fill="#ffffff"
       fill-opacity="1"
       id="path1"
       style="stroke-width:1" /><path
       inkscape:connector-curvature="0"
       style="font-style:normal;font-weight:normal;font-size:medium;line-height:125%;font-family:sans-serif;letter-spacing:0px;word-spacing:0px;fill:#ececec;fill-opacity:1;stroke:none;stroke-width:2.47999;stroke-linecap:round;stroke-linejoin:round;stroke-opacity:1;font-variation-settings:normal;opacity:1;vector-effect:none;stroke-miterlimit:4;stroke-dasharray:none;stroke-dashoffset:0;-inkscape-stroke:none;paint-order:fill markers stroke;stop-color:#000000;stop-opacity:1"
       d="m 49.403685,289.29235 c -2.070372,0 -3.859403,0.17077 -5.366941,0.51251 -1.507554,0.32155 -2.793996,0.79387 -3.859342,1.4171 -1.065332,0.6029 -1.929589,1.33651 -2.592922,2.20104 -0.663318,0.86419 -1.175984,1.82899 -1.537804,2.89443 -0.381901,1.06526 -0.633067,2.22105 -0.753664,3.46736 -0.140738,1.24615 -0.211153,2.55285 -0.211153,3.91965 v 2.08023 h 6.000144 v -2.08023 c 0,-1.52765 0.07029,-2.81417 0.211017,-3.85942 0.120612,-1.04523 0.452301,-1.88941 0.995023,-2.53266 0.542721,-0.6431 1.376863,-1.10548 2.5025,-1.38698 1.10554,-0.30152 2.643269,-0.45212 4.613142,-0.45212 1.94976,0 3.47729,0.1506 4.582815,0.45212 1.085429,0.2815 1.899549,0.74388 2.44227,1.38698 0.542722,0.64325 0.884504,1.48743 1.025198,2.53266 0.120611,1.04525 0.180842,2.33177 0.180842,3.85942 h -0.01202 v 8.14066 c -0.562819,0 -1.095522,0.12016 -1.598035,0.36176 -0.502512,0.22126 -0.954693,0.53272 -1.356691,0.93485 -0.381916,0.3818 -0.693569,0.83423 -0.934792,1.35686 -0.221096,0.50244 -0.331629,1.03514 -0.331629,1.59782 v 22.67355 c 0,0.58287 0.110548,1.13576 0.331629,1.65838 0.221111,0.50244 0.522685,0.94478 0.904601,1.32675 0.381917,0.40181 0.824124,0.71342 1.326637,0.93452 0.522624,0.22109 1.075364,0.33164 1.65828,0.33164 h 28.854427 c 0.562819,0 1.095522,-0.11055 1.598035,-0.33164 0.502513,-0.2211 0.944735,-0.53271 1.326636,-0.93452 0.381916,-0.38197 0.673412,-0.82431 0.874411,-1.32675 0.221111,-0.52262 0.331629,-1.07551 0.331629,-1.65838 v -22.67355 c 0,-0.56268 -0.110548,-1.09538 -0.331629,-1.59782 -0.200999,-0.52263 -0.492495,-0.97506 -0.874411,-1.35686 -0.381901,-0.40213 -0.824123,-0.71359 -1.326636,-0.93485 -0.502513,-0.24112 -1.035216,-0.36176 -1.598035,-0.36176 h -22.691 v -8.14066 c 0,-1.3668 -0.07029,-2.6735 -0.211018,-3.91965 -0.140738,-1.24631 -0.402088,-2.4021 -0.784004,-3.46736 -0.381902,-1.06544 -0.904511,-2.03024 -1.567844,-2.89443 -0.68343,-0.86453 -1.557766,-1.59814 -2.623097,-2.20104 -1.065332,-0.62323 -2.351789,-1.09555 -3.859343,-1.4171 -1.507553,-0.34174 -3.28637,-0.51251 -5.33663,-0.51251 z"
       id="path3353" /><path
       d="m 229.97913,168.97879 -18.4285,10.53057 1.46935,2.57144 18.4285,-10.53058 z m -24.11089,5.39922 v 33.89528 h 2.95728 v -33.89528 z m -2.96173,1.54125 -33.89528,11.96289 v 6.887 l 33.89528,11.96289 z m -39.48964,12.77375 v 5.26528 h 2.96172 v -5.26528 z m 48.86843,1.15178 v 2.96172 h 21.06115 v -2.96172 z m -38.94139,8.86707 -2.4352,6.61698 15.87616,6.35043 2.65074,-6.6415 -2.75046,-1.09781 -1.55227,3.88891 -10.44995,-4.18015 1.44055,-3.91375 -2.77957,-1.02344 z m 39.67607,1.85865 -1.46935,2.57143 18.4285,10.53057 1.46935,-2.57143 z"
       fill="#ffffff"
       fill-opacity="1"
       id="path24"
       style="stroke-width:1" /><path
       inkscape:connector-curvature="0"
       style="font-style:normal;font-weight:normal;font-size:medium;line-height:125%;font-family:sans-serif;font-variation-settings:normal;letter-spacing:0px;word-spacing:0px;opacity:1;vector-effect:none;fill:#ececec;fill-opacity:1;stroke:none;stroke-width:2.47999;stroke-linecap:round;stroke-linejoin:round;stroke-miterlimit:4;stroke-dasharray:none;stroke-dashoffset:0;stroke-opacity:1;-inkscape-stroke:none;paint-order:fill markers stroke;stop-color:#000000;stop-opacity:1"
       d="m 178.61055,293.13556 c -2.07038,0 -3.85941,0.17077 -5.36694,0.51251 -1.50756,0.32155 -2.794,0.79387 -3.85935,1.4171 -1.06533,0.6029 -1.92959,1.33651 -2.59292,2.20104 -0.66332,0.86419 -1.17598,1.82899 -1.5378,2.89443 -0.3819,1.06526 -0.63307,2.22105 -0.75367,3.46736 -0.14073,1.24615 -0.21115,2.55285 -0.21115,3.91965 v 2.08023 h 6.00013 v -2.08023 c 0,-1.52765 0.0703,-2.81417 0.21102,-3.85942 0.12061,-1.04523 0.4523,-1.88941 0.99503,-2.53266 0.54273,-0.6431 1.37686,-1.10548 2.50249,-1.38698 1.10554,-0.30152 2.64328,-0.45212 4.61315,-0.45212 1.94976,0 3.47729,0.1506 4.58281,0.45212 1.08543,0.2815 1.89955,0.74388 2.44227,1.38698 0.54272,0.64325 0.88451,1.48743 1.02521,2.53266 0.12061,1.04525 0.18083,2.33177 0.18083,3.85942 h -0.012 v 8.14066 c -0.56281,0 -1.09552,0.12016 -1.59803,0.36176 -0.50252,0.22126 -0.9547,0.53272 -1.35668,0.93485 -0.38192,0.3818 -0.69357,0.83423 -0.9348,1.35686 -0.22109,0.50244 -0.33163,1.03514 -0.33163,1.59782 v 22.67355 c 0,0.58287 0.11055,1.13576 0.33163,1.65838 0.22111,0.50244 0.52269,0.94478 0.9046,1.32675 0.38192,0.40181 0.82413,0.71342 1.32664,0.93452 0.52262,0.22109 1.07536,0.33164 1.65827,0.33164 h 28.85444 c 0.56281,0 1.09551,-0.11055 1.59802,-0.33164 0.50252,-0.2211 0.94474,-0.53271 1.32664,-0.93452 0.38193,-0.38197 0.67341,-0.82431 0.87442,-1.32675 0.22111,-0.52262 0.33162,-1.07551 0.33162,-1.65838 V 319.9396 c 0,-0.56268 -0.11054,-1.09538 -0.33162,-1.59782 -0.201,-0.52263 -0.49249,-0.97506 -0.87442,-1.35686 -0.3819,-0.40213 -0.82412,-0.71359 -1.32664,-0.93485 -0.50251,-0.24112 -1.03521,-0.36176 -1.59802,-0.36176 h -22.69101 v -8.14066 c 0,-1.3668 -0.0703,-2.6735 -0.21101,-3.91965 -0.14074,-1.24631 -0.40209,-2.4021 -0.784,-3.46736 -0.38191,-1.06544 -0.90451,-2.03024 -1.56785,-2.89443 -0.68343,-0.86453 -1.55776,-1.59814 -2.62309,-2.20104 -1.06534,-0.62323 -2.35179,-1.09555 -3.85935,-1.4171 -1.50755,-0.34174 -3.28637,-0.51251 -5.33663,-0.51251 z"
       id="path25" /></g></svg>
