<?xml version="1.0" encoding="UTF-8" standalone="no"?>
<!-- Created with Inkscape (http://www.inkscape.org/) -->

<svg
   width="55.53907"
   height="55.537109"
   viewBox="0 0 55.53907 55.537107"
   version="1.1"
   id="svg1"
   inkscape:version="1.4 (86a8ad7, 2024-10-11)"
   sodipodi:docname="rig_icon.svg"
   xml:space="preserve"
   xmlns:inkscape="http://www.inkscape.org/namespaces/inkscape"
   xmlns:sodipodi="http://sodipodi.sourceforge.net/DTD/sodipodi-0.dtd"
   xmlns="http://www.w3.org/2000/svg"
   xmlns:svg="http://www.w3.org/2000/svg"><sodipodi:namedview
     id="namedview1"
     pagecolor="#ffffff"
     bordercolor="#000000"
     borderopacity="0.25"
     inkscape:showpageshadow="2"
     inkscape:pageopacity="0.0"
     inkscape:pagecheckerboard="0"
     inkscape:deskcolor="#d1d1d1"
     inkscape:document-units="px"
     inkscape:zoom="0.59999764"
     inkscape:cx="413.33496"
     inkscape:cy="483.33523"
     inkscape:window-width="1800"
     inkscape:window-height="1023"
     inkscape:window-x="0"
     inkscape:window-y="44"
     inkscape:window-maximized="1"
     inkscape:current-layer="layer2"
     showgrid="false"
     showguides="true"><inkscape:grid
       id="grid1"
       units="px"
       originx="-272.25987"
       originy="-35.379995"
       spacingx="37.5"
       spacingy="37.5"
       empcolor="#0099e5"
       empopacity="0.30196078"
       color="#0099e5"
       opacity="0.14901961"
       empspacing="4"
       dotted="false"
       gridanglex="30"
       gridanglez="30"
       visible="false" /><inkscape:grid
       id="grid72"
       units="px"
       originx="-346.2804"
       originy="-487.703"
       spacingx="9.375"
       spacingy="9.375"
       empcolor="#3f3fff"
       empopacity="0.25098039"
       color="#3f3fff"
       opacity="0.1254902"
       empspacing="4"
       enabled="true"
       visible="false" /></sodipodi:namedview><defs
     id="defs1"><inkscape:path-effect
       effect="envelope"
       id="path-effect381"
       is_visible="true"
       lpeversion="1"
       yy="true"
       xx="true"
       bendpath1="M 579.3883,375.13663 763.01306,317.86098"
       bendpath2="m 758.06331,377.96506 2.12132,16.08"
       bendpath3="m 564.53906,441.42121 h 198.474"
       bendpath4="M 564.53906,317.86098 V 441.42121"
       bendpath1-nodetypes="cc"
       bendpath2-nodetypes="cc" /><inkscape:path-effect
       effect="rough_hatches"
       id="path-effect307"
       is_visible="true"
       lpeversion="1.2"
       direction="402.5,411.125 , 27.875,0"
       dist_rdm="75;1"
       growth="0"
       do_bend="true"
       bender="402.5,416.125 , 5,0"
       bottom_edge_variation="6.925;1"
       top_edge_variation="6.925;1"
       bottom_tgt_variation="0;1"
       top_tgt_variation="0;1"
       scale_bf="1"
       scale_bb="1"
       scale_tf="1"
       scale_tb="1"
       top_smth_variation="0;1"
       bottom_smth_variation="0;1"
       fat_output="true"
       stroke_width_top="1"
       stroke_width_bottom="1"
       front_thickness="1"
       back_thickness="0.25" /><radialGradient
       id="lorc-metal-bar-gradient-1"
       gradientTransform="matrix(1.1843865,0,0,0.84431895,-129.688,74.317)"
       cx="215.29079"
       cy="299.64386"
       fx="215.29079"
       fy="299.64386"
       r="198.16208"
       gradientUnits="userSpaceOnUse"><stop
         offset="0%"
         stop-color="#d0021b"
         stop-opacity="1"
         id="stop1-4" /><stop
         offset="100%"
         stop-color="#d0021b"
         stop-opacity="1"
         id="stop2-9" /></radialGradient><radialGradient
       id="lorc-metal-bar-gradient-1-4"
       gradientTransform="matrix(1.1843865,0,0,0.84431895,-129.688,74.317)"
       cx="215.29079"
       cy="299.64386"
       fx="215.29079"
       fy="299.64386"
       r="198.16208"
       gradientUnits="userSpaceOnUse"><stop
         offset="0%"
         stop-color="#d0021b"
         stop-opacity="1"
         id="stop1-4-8" /><stop
         offset="100%"
         stop-color="#d0021b"
         stop-opacity="1"
         id="stop2-9-8" /></radialGradient><radialGradient
       id="lord-berandas-amplitude-gradient-1"
       gradientTransform="matrix(1.164719,0,0,0.8585762,684.9945,430.0055)"
       cx="218.94165"
       cy="296.99692"
       fx="218.94165"
       fy="296.99692"
       r="205.09711"
       gradientUnits="userSpaceOnUse"><stop
         offset="0%"
         stop-color="#f56666"
         stop-opacity="1"
         id="stop1" /><stop
         offset="100%"
         stop-color="#530000"
         stop-opacity="1"
         id="stop2" /></radialGradient><radialGradient
       id="lord-berandas-amplitude-gradient-2"><stop
         offset="0%"
         stop-color="#f56666"
         stop-opacity="1"
         id="stop3" /><stop
         offset="100%"
         stop-color="#530000"
         stop-opacity="1"
         id="stop4" /></radialGradient><radialGradient
       id="lord-berandas-amplitude-gradient-7"><stop
         offset="0%"
         stop-color="#f56666"
         stop-opacity="1"
         id="stop5" /><stop
         offset="100%"
         stop-color="#530000"
         stop-opacity="1"
         id="stop6" /></radialGradient></defs><g
     inkscape:groupmode="layer"
     id="layer2"
     inkscape:label="Bots Action"
     style="display:inline"
     transform="translate(-346.28038,-487.70301)"><circle
       style="fill:none;stroke:#000000;paint-order:stroke markers fill"
       id="path1"
       cx="372.52512"
       cy="453.00455"
       r="21.618402" /><circle
       style="fill:none;stroke:#000000;stroke-width:1;paint-order:stroke markers fill"
       id="circle2"
       cx="372.52512"
       cy="453.00455"
       r="13.000504" /><path
       id="path15"
       style="fill:none;stroke:#000000;paint-order:stroke markers fill"
       d="m 469.5685,481.98865 h 8.36759 l 2.28337,8.17596 h -12.93433 z"
       sodipodi:nodetypes="ccccc" /><circle
       style="fill:none;stroke:#000000;stroke-width:1;paint-order:stroke markers fill"
       id="circle15"
       cx="472.69897"
       cy="512.96155"
       r="23.680805" /><path
       id="path16"
       style="fill:none;stroke:#000000;paint-order:stroke markers fill"
       d="m 469.5685,481.98865 h 8.36759 l 2.28337,8.17596 h -12.93433 z"
       sodipodi:nodetypes="ccccc" /><path
       id="path17"
       style="fill:none;stroke:#000000;paint-order:stroke markers fill"
       d="m 469.5685,481.98865 h 8.36759 l 2.28337,8.17596 h -12.93433 z"
       sodipodi:nodetypes="ccccc" /><path
       id="path18"
       style="fill:none;stroke:#000000;paint-order:stroke markers fill"
       d="m 469.5685,481.98865 h 8.36759 l 2.28337,8.17596 h -12.93433 z"
       sodipodi:nodetypes="ccccc" /><path
       id="path19"
       style="fill:none;stroke:#000000;paint-order:stroke markers fill"
       d="m 469.5685,481.98865 h 8.36759 l 2.28337,8.17596 h -12.93433 z"
       sodipodi:nodetypes="ccccc" /><path
       id="path20"
       style="fill:none;stroke:#000000;paint-order:stroke markers fill"
       d="m 469.5685,481.98865 h 8.36759 l 2.28337,8.17596 h -12.93433 z"
       sodipodi:nodetypes="ccccc" /><path
       id="path21"
       style="fill:none;stroke:#000000;paint-order:stroke markers fill"
       d="m 469.5685,481.98865 h 8.36759 l 2.28337,8.17596 h -12.93433 z"
       sodipodi:nodetypes="ccccc" /><path
       id="path22"
       style="fill:none;stroke:#000000;paint-order:stroke markers fill"
       d="m 469.5685,481.98865 h 8.36759 l 2.28337,8.17596 h -12.93433 z"
       sodipodi:nodetypes="ccccc" /><path
       d="m 253.80476,460.36961 v 10.12891 a 17.640911,17.640911 0 0 1 17.64063,17.64062 17.640911,17.640911 0 0 1 -17.64063,17.64063 v 10.12695 h 4.1836 l 1.3457,-4.81641 c 2.39625,-0.57833 4.68753,-1.52726 6.79102,-2.8125 l 4.35742,2.45508 5.91601,-5.91797 -2.45507,-4.35742 c 1.28505,-2.10289 2.23397,-4.39348 2.8125,-6.78906 l 4.81835,-1.3457 v -8.36719 l -4.74609,-1.32617 c -0.58017,-2.42798 -1.54059,-4.74896 -2.8457,-6.87696 l 2.41601,-4.29101 -5.91601,-5.91602 -4.29102,2.41602 c -2.128,-1.30511 -4.44897,-2.26554 -6.87695,-2.84571 l -1.32617,-4.74609 z"
       style="fill:none;stroke:#000000;paint-order:stroke markers fill"
       id="path6" /><path
       id="path10"
       style="stroke:none"
       d="M 369.86632 487.70301 L 368.52061 492.51942 C 366.12492 493.09856 363.83432 494.04813 361.73155 495.33387 L 357.37218 492.87879 L 351.45616 498.79481 L 353.91124 503.15223 C 352.62618 505.25511 351.67726 507.54571 351.09874 509.94129 L 346.28038 511.28895 L 346.28038 519.65613 L 351.09874 521.00184 C 351.67726 523.39742 352.62618 525.68801 353.91124 527.7909 L 351.45616 532.14832 L 357.37218 538.06629 L 361.7296 535.61121 C 363.83309 536.89645 366.12435 537.84538 368.52061 538.42371 L 369.86632 543.24012 L 378.2335 543.24012 L 379.57921 538.42371 C 381.97546 537.84538 384.26673 536.89645 386.37022 535.61121 L 390.72765 538.06629 L 396.64366 532.14832 L 394.18858 527.7909 C 395.47364 525.68801 396.42256 523.39742 397.00108 521.00184 L 401.81944 519.65613 L 401.81944 511.28895 L 397.07335 509.96278 C 396.49318 507.5348 395.53276 505.21382 394.22765 503.08582 L 396.64366 498.79481 L 390.72765 492.87879 L 386.43663 495.29481 C 384.30863 493.9897 381.98766 493.02927 379.55968 492.4491 L 378.2335 487.70301 L 369.86632 487.70301 z M 374.04991 497.82996 A 17.640911 17.640911 0 0 1 385.98155 502.48426 L 382.34093 502.48426 C 382.19677 501.53884 381.37135 500.80653 380.3878 500.80653 C 379.30399 500.80653 378.41515 501.69536 378.41515 502.77918 C 378.41515 503.86299 379.30399 504.75184 380.3878 504.75184 C 381.22346 504.75184 381.94523 504.22302 382.23155 503.48426 L 386.98741 503.48426 A 17.640911 17.640911 0 0 1 388.96202 506.04871 L 380.88194 506.04871 L 374.62999 502.44129 L 370.95811 502.44129 C 370.74016 501.5895 369.96265 500.95301 369.046 500.95301 C 367.9622 500.95301 367.0714 501.84186 367.0714 502.92567 C 367.0714 504.00949 367.9622 504.90028 369.046 504.90028 C 369.95189 504.90028 370.722 504.27848 370.9503 503.44129 L 374.36241 503.44129 L 380.61241 507.04871 L 389.54796 507.04871 A 17.640911 17.640911 0 0 1 391.1671 511.2284 L 382.45225 511.2284 L 376.26671 507.65614 C 376.30189 507.50945 376.3214 507.35607 376.3214 507.1991 C 376.3214 506.11528 375.43255 505.22449 374.34874 505.22449 C 373.26492 505.22449 372.37608 506.11528 372.37608 507.1991 C 372.37608 508.28291 373.26492 509.17176 374.34874 509.17176 C 374.91755 509.17176 375.43295 508.92633 375.79405 508.53699 L 382.18468 512.2284 L 391.3878 512.2284 A 17.640911 17.640911 0 0 1 391.5089 513.52918 L 375.56944 513.52918 C 375.34792 512.6825 374.57421 512.05067 373.66124 512.05067 C 372.57742 512.05067 371.68858 512.9395 371.68858 514.02332 C 371.68858 515.10713 372.57742 515.99793 373.66124 515.99793 C 374.57065 515.99793 375.34254 515.37131 375.56749 514.52918 L 391.60265 514.52918 A 17.640911 17.640911 0 0 1 391.69054 515.47254 A 17.640911 17.640911 0 0 1 391.53819 517.20692 L 381.546 517.20692 L 379.54405 518.36317 C 379.23479 518.16099 378.86801 518.0409 378.47374 518.0409 C 377.38992 518.0409 376.50108 518.9317 376.50108 520.01551 C 376.50108 521.09933 377.38992 521.98817 378.47374 521.98817 C 379.55755 521.98817 380.4464 521.09933 380.4464 520.01551 C 380.4464 519.6939 380.368 519.39036 380.2296 519.12098 L 381.81358 518.20692 L 391.45225 518.20692 A 17.640911 17.640911 0 0 1 389.81163 523.25184 L 372.81944 523.25184 L 364.61046 516.19129 C 364.77001 515.90715 364.86241 515.58106 364.86241 515.23426 C 364.86241 514.15045 363.97162 513.25965 362.8878 513.25965 C 361.80399 513.25965 360.91515 514.15045 360.91515 515.23426 C 360.91515 516.31808 361.80399 517.20692 362.8878 517.20692 C 363.26456 517.20692 363.6163 517.09767 363.9171 516.91199 L 372.44835 524.25184 L 389.34679 524.25184 A 17.640911 17.640911 0 0 1 388.49522 525.48231 L 371.18663 525.48231 L 366.09483 521.15809 C 366.24648 520.87894 366.33116 520.56031 366.33116 520.22254 C 366.33116 519.13872 365.44232 518.24988 364.3585 518.24988 C 363.2747 518.24988 362.38585 519.13872 362.38585 520.22254 C 362.38585 521.30635 363.2747 522.19715 364.3585 522.19715 C 364.7443 522.19715 365.1042 522.08283 365.40929 521.88856 L 370.81944 526.48231 L 387.79405 526.48231 A 17.640911 17.640911 0 0 1 386.89366 527.48231 L 369.18858 527.48231 L 361.76671 521.09949 C 361.92124 520.81859 362.0089 520.49734 362.0089 520.15613 C 362.0089 519.07235 361.12005 518.18348 360.03624 518.18348 C 358.95242 518.18348 358.06358 519.07234 358.06358 520.15613 C 358.06358 521.23996 358.95242 522.12879 360.03624 522.12879 C 360.41893 522.12879 360.77568 522.01715 361.07921 521.82606 L 368.81749 528.48231 L 385.89366 528.48231 A 17.640911 17.640911 0 0 1 374.04991 533.11317 A 17.640911 17.640911 0 0 1 356.40929 515.47254 A 17.640911 17.640911 0 0 1 374.04991 497.82996 z " /><circle
       style="fill:none;stroke:none;stroke-width:1;paint-order:stroke markers fill"
       id="circle23"
       cx="380.37527"
       cy="510.23248"
       r="11.760607" /><path
       d="m 290.91981,541.74615 -0.65234,0.75781 9.90234,8.51758 h 18.83203 v -1 H 300.5409 Z"
       id="path42"
       style="stroke:none" /><circle
       style="fill:none;stroke:none;stroke-width:1;paint-order:stroke markers fill"
       id="circle42"
       cx="311.72672"
       cy="532.77161"
       r="11.760607" /><path
       d="m 300.44715,524.98053 v 1 h 5.26758 l 6.25,3.60742 h 11.03711 v -1 h -10.76758 l -6.25195,-3.60742 z"
       id="path43"
       style="stroke:none" /><path
       d="m 312.0995,525.02349 v 1 h 10.90234 v -1 z"
       id="path44"
       style="stroke:none" /><path
       d="m 306.02723,529.2774 -0.5,0.86524 8.00977,4.625 h 9.46484 v -1 h -9.19727 z"
       id="path45"
       style="stroke:none" /><path
       d="m 312.89832,539.74615 -3.24023,1.87109 0.5,0.86524 3.00781,-1.73633 h 9.83594 v -1 z"
       id="path46"
       style="stroke:none" /><path
       d="m 304.98036,536.06842 v 1 h 18.02148 v -1 z"
       id="path47"
       style="stroke:none" /><g
       id="g49"
       style="stroke:none"
       transform="translate(-68.648553,22.539117)"><path
         style="stroke:none;paint-order:stroke markers fill"
         d="m 380.38867,500.80664 c -1.08381,0 -1.97265,0.88884 -1.97265,1.97266 0,1.08381 0.88884,1.97265 1.97265,1.97265 1.08382,0 1.97461,-0.88884 1.97461,-1.97265 0,-1.08382 -0.89079,-1.97266 -1.97461,-1.97266 z m 0,1 c 0.54338,0 0.97461,0.42928 0.97461,0.97266 0,0.54337 -0.43123,0.97265 -0.97461,0.97265 -0.54337,0 -0.97265,-0.42928 -0.97265,-0.97265 0,-0.54338 0.42928,-0.97266 0.97265,-0.97266 z"
         id="path48" /><path
         style="stroke:none;paint-order:stroke markers fill"
         d="m 381.86258,502.77905 a 1.4731448,1.4731448 0 0 1 -1.47315,1.47315 1.4731448,1.4731448 0 0 1 -1.47314,-1.47315 1.4731448,1.4731448 0 0 1 1.47314,-1.47314 1.4731448,1.4731448 0 0 1 1.47315,1.47314 z"
         id="path49" /></g><g
       id="g51"
       style="stroke:none"
       transform="translate(-68.648553,22.539117)"><path
         style="stroke:none;paint-order:stroke markers fill"
         d="m 369.04687,500.95312 c -1.08381,0 -1.9746,0.88885 -1.9746,1.97266 0,1.08382 0.89079,1.97461 1.9746,1.97461 1.08382,0 1.97266,-0.89079 1.97266,-1.97461 0,-1.08381 -0.88884,-1.97266 -1.97266,-1.97266 z m 0,1 c 0.54338,0 0.97266,0.42929 0.97266,0.97266 0,0.54338 -0.42928,0.97461 -0.97266,0.97461 -0.54337,0 -0.9746,-0.43123 -0.9746,-0.97461 0,-0.54337 0.43123,-0.97265 0.9746,-0.97266 z"
         id="path50" /><path
         style="stroke:none;paint-order:stroke markers fill"
         d="m 370.51935,502.92639 a 1.4731448,1.4731448 0 0 1 -1.47315,1.47315 1.4731448,1.4731448 0 0 1 -1.47314,-1.47315 1.4731448,1.4731448 0 0 1 1.47314,-1.47314 1.4731448,1.4731448 0 0 1 1.47315,1.47314 z"
         id="path51" /></g><g
       id="g53"
       style="stroke:none"
       transform="translate(-68.648553,22.539117)"><path
         style="stroke:none;paint-order:stroke markers fill"
         d="m 374.34961,505.22461 c -1.08382,0 -1.97266,0.89079 -1.97266,1.97461 0,1.08381 0.88884,1.97265 1.97266,1.97265 1.08381,0 1.97266,-0.88884 1.97266,-1.97265 0,-1.08382 -0.88885,-1.97461 -1.97266,-1.97461 z m 0,1 c 0.54337,0 0.97266,0.43123 0.97266,0.97461 0,0.54337 -0.42929,0.97265 -0.97266,0.97265 -0.54338,0 -0.97266,-0.42928 -0.97266,-0.97265 0,-0.54338 0.42928,-0.97461 0.97266,-0.97461 z"
         id="path52" /><path
         style="stroke:none;paint-order:stroke markers fill"
         d="m 375.82269,507.19849 a 1.4731448,1.4731448 0 0 1 -1.47314,1.47314 1.4731448,1.4731448 0 0 1 -1.47315,-1.47314 1.4731448,1.4731448 0 0 1 1.47315,-1.47315 1.4731448,1.4731448 0 0 1 1.47314,1.47315 z"
         id="path53" /></g><g
       id="g55"
       style="stroke:none"
       transform="translate(-68.648553,22.539117)"><path
         style="stroke:none;paint-order:stroke markers fill"
         d="m 373.66211,512.05078 c -1.08382,0 -1.97266,0.88884 -1.97266,1.97266 0,1.08381 0.88884,1.97461 1.97266,1.97461 1.08381,0 1.97266,-0.8908 1.97266,-1.97461 0,-1.08382 -0.88885,-1.97266 -1.97266,-1.97266 z m 0,1 c 0.54337,0 0.97266,0.42928 0.97266,0.97266 0,0.54337 -0.42929,0.97461 -0.97266,0.97461 -0.54338,0 -0.97266,-0.43124 -0.97266,-0.97461 0,-0.54338 0.42928,-0.97266 0.97266,-0.97266 z"
         id="path54" /><path
         style="stroke:none;paint-order:stroke markers fill"
         d="m 375.13522,514.02405 a 1.4731448,1.4731448 0 0 1 -1.47314,1.47314 1.4731448,1.4731448 0 0 1 -1.47315,-1.47314 1.4731448,1.4731448 0 0 1 1.47315,-1.47315 1.4731448,1.4731448 0 0 1 1.47314,1.47315 z"
         id="path55" /></g><g
       id="g57"
       style="stroke:none"
       transform="translate(-68.648553,22.539117)"><path
         style="stroke:none;paint-order:stroke markers fill"
         d="m 378.47461,518.04102 c -1.08382,0 -1.97266,0.89079 -1.97266,1.9746 0,1.08382 0.88884,1.97266 1.97266,1.97266 1.08381,0 1.97266,-0.88884 1.97266,-1.97266 0,-1.08381 -0.88885,-1.9746 -1.97266,-1.9746 z m 0,1 c 0.54337,0 0.97266,0.43123 0.97266,0.9746 0,0.54338 -0.42929,0.97266 -0.97266,0.97266 -0.54338,0 -0.97266,-0.42928 -0.97266,-0.97266 0,-0.54337 0.42928,-0.9746 0.97266,-0.9746 z"
         id="path56" /><path
         style="stroke:none;paint-order:stroke markers fill"
         d="m 379.94751,520.01489 a 1.4731448,1.4731448 0 0 1 -1.47314,1.47315 1.4731448,1.4731448 0 0 1 -1.47315,-1.47315 1.4731448,1.4731448 0 0 1 1.47315,-1.47314 1.4731448,1.4731448 0 0 1 1.47314,1.47314 z"
         id="path57" /></g><path
       d="m 294.55067,537.51568 -0.65039,0.75781 9.90039,8.51758 h 18.83203 v -1 h -18.46094 z"
       id="path58"
       style="stroke:none" /><path
       d="m 296.04286,542.50396 -0.64844,0.76172 6.77734,5.75586 h 18.83008 v -1 h -18.46289 z"
       id="path59"
       style="stroke:none" /><path
       d="m 301.21777,510.24213 -1.3457,4.81641 c -2.39569,0.57914 -4.68629,1.52871 -6.78906,2.81445 l -4.35938,-2.45508 -5.91601,5.91602 2.45507,4.35742 c -1.28506,2.10288 -2.23398,4.39348 -2.8125,6.78906 l -4.81836,1.34766 v 8.36718 l 4.81836,1.34571 c 0.57852,2.39558 1.52744,4.68617 2.8125,6.78906 l -2.45507,4.35742 5.91601,5.91797 4.35742,-2.45508 c 2.10349,1.28524 4.39476,2.23417 6.79102,2.8125 l 1.3457,4.81641 h 8.36719 l 1.3457,-4.81641 c 2.39625,-0.57833 4.68753,-1.52726 6.79102,-2.8125 l 4.35742,2.45508 5.91602,-5.91797 -2.45508,-4.35742 c 1.28506,-2.10289 2.23398,-4.39348 2.8125,-6.78906 l 4.81836,-1.34571 v -8.36718 l -4.7461,-1.32617 c -0.58017,-2.42798 -1.54059,-4.74896 -2.8457,-6.87696 l 2.41602,-4.29101 -5.91602,-5.91602 -4.29102,2.41602 c -2.128,-1.30511 -4.44897,-2.26554 -6.87695,-2.84571 l -1.32617,-4.74609 z m 4.1836,10.12695 a 17.640911,17.640911 0 0 1 17.64062,17.64258 17.640911,17.640911 0 0 1 -17.64062,17.64063 17.640911,17.640911 0 0 1 -17.64063,-17.64063 17.640911,17.640911 0 0 1 17.64063,-17.64258 z"
       style="fill:#000000;stroke:none;paint-order:stroke markers fill"
       id="path60" /><g
       id="g62"
       style="stroke:none"
       transform="translate(-68.648553,22.539117)"><path
         style="stroke:none;paint-order:stroke markers fill"
         d="m 362.88867,513.25977 c -1.08381,0 -1.97265,0.89079 -1.97265,1.9746 0,1.08382 0.88884,1.97266 1.97265,1.97266 1.08382,0 1.97461,-0.88884 1.97461,-1.97266 0,-1.08381 -0.89079,-1.9746 -1.97461,-1.9746 z m 0,1 c 0.54338,0 0.97461,0.43123 0.97461,0.9746 0,0.54338 -0.43123,0.97266 -0.97461,0.97266 -0.54337,0 -0.97265,-0.42928 -0.97265,-0.97266 0,-0.54337 0.42928,-0.9746 0.97265,-0.9746 z"
         id="path61" /><path
         style="stroke:none;paint-order:stroke markers fill"
         d="m 364.36252,515.23376 a 1.4731448,1.4731448 0 0 1 -1.47315,1.47315 1.4731448,1.4731448 0 0 1 -1.47314,-1.47315 1.4731448,1.4731448 0 0 1 1.47314,-1.47314 1.4731448,1.4731448 0 0 1 1.47315,1.47314 z"
         id="path62" /></g><g
       id="g64"
       style="stroke:none"
       transform="translate(-68.648553,22.539117)"><path
         style="stroke:none;paint-order:stroke markers fill"
         d="m 364.35937,518.25 c -1.08381,0 -1.97265,0.88884 -1.97265,1.97266 0,1.08381 0.88884,1.97461 1.97265,1.97461 1.08382,0 1.97266,-0.8908 1.97266,-1.97461 0,-1.08382 -0.88884,-1.97266 -1.97266,-1.97266 z m 0,1 c 0.54338,0 0.97266,0.42928 0.97266,0.97266 0,0.54337 -0.42928,0.97461 -0.97266,0.97461 -0.54337,0 -0.97265,-0.43124 -0.97265,-0.97461 0,-0.54338 0.42928,-0.97266 0.97265,-0.97266 z"
         id="path63" /><path
         style="stroke:none;paint-order:stroke markers fill"
         d="m 365.83289,520.22321 a 1.4731448,1.4731448 0 0 1 -1.47315,1.47314 1.4731448,1.4731448 0 0 1 -1.47314,-1.47314 1.4731448,1.4731448 0 0 1 1.47314,-1.47315 1.4731448,1.4731448 0 0 1 1.47315,1.47315 z"
         id="path64" /></g><g
       id="g66"
       style="stroke:none"
       transform="translate(-68.648553,22.539117)"><path
         style="stroke:none;paint-order:stroke markers fill"
         d="m 360.03711,518.18359 c -1.08382,0 -1.97266,0.88884 -1.97266,1.97266 0,1.08382 0.88884,1.97266 1.97266,1.97266 1.08381,0 1.97266,-0.88884 1.97266,-1.97266 0,-1.08382 -0.88885,-1.97266 -1.97266,-1.97266 z m 0,1 c 0.54337,0 0.97266,0.42928 0.97266,0.97266 0,0.54338 -0.42929,0.97266 -0.97266,0.97266 -0.54338,0 -0.97266,-0.42928 -0.97266,-0.97266 0,-0.54338 0.42928,-0.97266 0.97266,-0.97266 z"
         id="path65" /><path
         style="stroke:none;paint-order:stroke markers fill"
         d="m 361.50998,520.15662 a 1.4731448,1.4731448 0 0 1 -1.47315,1.47314 1.4731448,1.4731448 0 0 1 -1.47314,-1.47314 1.4731448,1.4731448 0 0 1 1.47314,-1.47315 1.4731448,1.4731448 0 0 1 1.47315,1.47315 z"
         id="path66" /></g></g></svg>
