<?xml version="1.0" encoding="UTF-8" standalone="no"?>
<!-- Created with Inkscape (http://www.inkscape.org/) -->

<svg
   width="64"
   height="64"
   viewBox="0 0 64 64"
   version="1.1"
   id="svg1"
   inkscape:version="1.4 (86a8ad7, 2024-10-11)"
   sodipodi:docname="scan_embed.svg"
   xmlns:inkscape="http://www.inkscape.org/namespaces/inkscape"
   xmlns:sodipodi="http://sodipodi.sourceforge.net/DTD/sodipodi-0.dtd"
   xmlns="http://www.w3.org/2000/svg"
   xmlns:svg="http://www.w3.org/2000/svg">
  <sodipodi:namedview
     id="namedview1"
     pagecolor="#ffffff"
     bordercolor="#666666"
     borderopacity="1.0"
     inkscape:showpageshadow="2"
     inkscape:pageopacity="0.0"
     inkscape:pagecheckerboard="0"
     inkscape:deskcolor="#d1d1d1"
     inkscape:document-units="px"
     inkscape:current-layer="layer1" />
  <defs
     id="defs1" />
  <g
     inkscape:label="Layer 1"
     inkscape:groupmode="layer"
     id="layer1">
    <path
       d="m 23.163176,8.5836461 c -1.161902,0 -2.455371,0.7541375 -3.434729,2.7125839 l -0.874517,1.749807 c 0.318615,-0.02608 0.638259,-0.03982 0.957771,-0.03982 2.315087,0 4.62568,0.689002 6.663912,2.052617 V 11.078212 C 25.512062,9.2902497 24.278456,8.5835186 23.163309,8.5835186 Z m 17.874236,0 c -1.115148,0 -2.34849,0.7066026 -3.31204,2.4946939 v 3.981901 c 2.320744,-1.549387 4.996971,-2.220018 7.624251,-2.009066 L 44.472151,11.29623 C 43.492669,9.3376561 42.1992,8.5836461 41.037289,8.5836461 Z M 19.811568,15.25475 c -2.44741,0 -4.892261,0.988345 -6.904155,2.954885 l -4.80233,8.404466 c 1.8618365,-0.866295 3.935519,-1.351282 6.120475,-1.351282 5.133789,0 9.656043,2.671217 12.249922,6.696541 V 17.976071 c -1.964742,-1.8134 -4.314138,-2.721321 -6.663912,-2.721321 z m 24.722504,0.0043 c -2.397567,-0.03931 -4.803615,0.86591 -6.8087,2.716567 v 13.983676 c 2.59387,-4.025068 7.116143,-6.696413 12.249676,-6.696413 2.185325,0 4.258885,0.484986 6.120844,1.351282 l -4.80233,-8.404445 C 49.3215,16.282183 46.931904,15.298462 44.534327,15.259021 Z m -12.433769,1.703555 c -0.656891,0 -1.526525,0.356514 -3.312426,1.236813 v 17.088746 c 0.930913,-0.682707 2.076638,-1.087783 3.312426,-1.087783 1.235911,0 2.381504,0.405205 3.312427,1.087912 V 18.199358 c -1.785778,-0.880299 -2.655554,-1.236813 -3.312427,-1.236813 z m -17.87449,10.612783 c -6.7791509,0 -12.2499312,5.47065 -12.2499312,12.249672 0,6.779022 5.4707803,12.249928 12.2499312,12.249928 6.778887,0 12.249535,-5.470906 12.249535,-12.249928 0,-6.779022 -5.470648,-12.249672 -12.249667,-12.249672 z m 35.748981,0 c -6.778897,0 -12.249554,5.47065 -12.249554,12.249672 0,6.779022 5.470657,12.249928 12.249676,12.249928 6.779152,0 12.249922,-5.470906 12.249922,-12.249928 0,-6.779022 -5.47077,-12.249672 -12.249922,-12.249672 z m -35.950307,2.441506 c 0.157121,-0.0024 0.314507,-0.001 0.472015,0.0039 0.943511,0.02891 1.887788,0.187828 2.796868,0.490254 4.733204,1.457272 7.675633,6.637444 6.50357,11.448255 -0.983079,4.84898 -5.839748,8.287825 -10.739724,7.601779 C 8.0791416,49.064532 4.1442549,44.476365 4.428958,39.478111 4.450395,38.012231 4.8314501,36.608532 5.4824295,35.351036 A 3.3514827,3.3514827 0 0 0 8.6397938,37.59071 3.3514827,3.3514827 0 0 0 11.991657,34.239613 3.3514827,3.3514827 0 0 0 9.7501908,31.081226 c 1.1637052,-0.603054 2.4534442,-0.975626 3.8035742,-1.046672 0.15648,-0.0093 0.313478,-0.01516 0.470599,-0.0176 z m 35.74898,0 c 0.157121,-0.0024 0.314507,-0.001 0.471883,0.0039 0.943511,0.02891 1.888043,0.187828 2.797378,0.490254 4.732958,1.457272 7.675246,6.637444 6.503315,11.448255 -0.98307,4.848839 -5.839493,8.287811 -10.739073,7.60215 -4.978338,-0.49655 -8.91348,-5.08523 -8.628654,-10.083612 0.02144,-1.46588 0.402511,-2.869322 1.053471,-4.126818 a 3.3514827,3.3514827 0 0 0 3.157242,2.239674 3.3514827,3.3514827 0 0 0 3.351353,-3.351097 3.3514827,3.3514827 0 0 0 -2.240956,-3.158388 c 1.163573,-0.603053 2.45319,-0.975627 3.803187,-1.046672 0.156744,-0.0093 0.313478,-0.01516 0.470731,-0.0176 z m -17.673164,6.495868 c -1.843081,0 -3.312426,1.46922 -3.312426,3.312298 0,1.843078 1.469345,3.312427 3.312426,3.312427 1.843073,0 3.312427,-1.469349 3.312427,-3.312427 0,-1.843078 -1.469354,-3.312042 -3.312427,-3.312042 z"
       fill="#ffffff"
       fill-opacity="1"
       id="path11"
       style="font-variation-settings:normal;vector-effect:none;fill:#333333;fill-opacity:1;stroke-width:2.47999;stroke-linecap:round;stroke-linejoin:round;stroke-miterlimit:4;stroke-dasharray:none;stroke-dashoffset:0;stroke-opacity:1;-inkscape-stroke:none;paint-order:fill markers stroke;stop-color:#000000" />
  </g>
</svg>
